<?xml version="1.0" encoding="UTF-8"?>

<!DOCTYPE svg PUBLIC '-//W3C//DTD SVG 1.0//EN' 'http://www.w3.org/TR/2001/REC-SVG-20010904/DTD/svg10.dtd'>
<svg style="fill-opacity:1; color-rendering:auto; color-interpolation:auto; text-rendering:auto; stroke:black; stroke-linecap:square; stroke-miterlimit:10; shape-rendering:auto; stroke-opacity:1; fill:black; stroke-dasharray:none; font-weight:normal; stroke-width:1; font-family:&apos;Dialog&apos;; font-style:normal; stroke-linejoin:miter; font-size:12; stroke-dashoffset:0; image-rendering:auto;" xmlns="http://www.w3.org/2000/svg" width="1000" xmlns:xlink="http://www.w3.org/1999/xlink" height="500">
  <!--Generated by the Batik Graphics2D SVG Generator-->
  <defs id="genericDefs" />
  <g>
    <defs id="defs1">
      <clipPath clipPathUnits="userSpaceOnUse" id="clipPath1">
        <path d="M0 0 L1000 0 L1000 500 L0 500 L0 0 Z" />
      </clipPath>
      <clipPath clipPathUnits="userSpaceOnUse" id="clipPath2">
        <path d="M565.0999756 228.8999939 L565.0999756 1228.9000244 L65.1000061 1228.9000244 L65.1000061 228.8999939 L565.0999756 228.8999939 Z" />
      </clipPath>
      <clipPath clipPathUnits="userSpaceOnUse" id="clipPath3">
        <path d="M686.5666504 107.4333191 L686.5666504 1107.4333496 L186.5666809 1107.4333496 L186.5666809 107.4333191 L686.5666504 107.4333191 Z" />
      </clipPath>
      <clipPath clipPathUnits="userSpaceOnUse" id="clipPath4">
        <path d="M808.0333252 -14.0333252 L808.0333252 985.9666748 L308.0333252 985.9666748 L308.0333252 -14.0333252 L808.0333252 -14.0333252 Z" />
      </clipPath>
      <clipPath clipPathUnits="userSpaceOnUse" id="clipPath5">
        <path d="M929.5 -135.5 L929.5 864.5 L429.5 864.5 L429.5 -135.5 L929.5 -135.5 Z" />
      </clipPath>
      <clipPath clipPathUnits="userSpaceOnUse" id="clipPath6">
        <path d="M1050.9666748 -256.9666748 L1050.9666748 743.0333252 L550.9666748 743.0333252 L550.9666748 -256.9666748 L1050.9666748 -256.9666748 Z" />
      </clipPath>
      <clipPath clipPathUnits="userSpaceOnUse" id="clipPath7">
        <path d="M1172.4333496 -378.4333496 L1172.4333496 621.5666504 L672.4333496 621.5666504 L672.4333496 -378.4333496 L1172.4333496 -378.4333496 Z" />
      </clipPath>
      <clipPath clipPathUnits="userSpaceOnUse" id="clipPath8">
        <path d="M1293.9000244 -499.9000244 L1293.9000244 500.0999756 L793.9000244 500.0999756 L793.9000244 -499.9000244 L1293.9000244 -499.9000244 Z" />
      </clipPath>
      <clipPath clipPathUnits="userSpaceOnUse" id="clipPath9">
        <path d="M231.5 190.5 L231.5 1190.5 L-268.5 1190.5 L-268.5 190.5 L231.5 190.5 Z" />
      </clipPath>
      <clipPath clipPathUnits="userSpaceOnUse" id="clipPath10">
        <path d="M77 35 L77 387 L988 387 L988 35 Z" />
      </clipPath>
    </defs>
    <g style="fill:white; text-rendering:optimizeLegibility; stroke:white;">
      <rect x="0" y="0" width="1000" style="clip-path:url(#clipPath1); stroke:none;" height="500" />
      <rect x="0" y="0" width="999" style="clip-path:url(#clipPath1); fill:none; stroke:gray; stroke-width:0.3;" height="499" />
    </g>
    <g style="text-rendering:optimizeLegibility; stroke-width:0.3; font-size:20; font-family:&apos;Tahoma&apos;; font-weight:bold;">
      <text x="480" y="21.0097656" style="clip-path:url(#clipPath1); stroke:none;" xml:space="preserve">熵值</text>
    </g>
    <g style="font-size:16; fill:white; text-rendering:optimizeLegibility; font-family:&apos;宋体&apos;; stroke:white; stroke-width:0.3;">
      <rect x="77" y="35" width="911" style="clip-path:url(#clipPath1); stroke:none;" height="352" />
      <line x1="77" x2="988" y1="391" style="clip-path:url(#clipPath1); fill:none; stroke:gray; stroke-width:0.5;" y2="391" />
      <line x1="168.1" x2="168.1" y1="391" style="clip-path:url(#clipPath1); fill:none; stroke:gray; stroke-width:0.5;" y2="391" />
      <line x1="168.1" x2="168.1" y1="391" style="clip-path:url(#clipPath1); fill:none; stroke:gray; stroke-width:0.5;" y2="393" />
      <line x1="289.5666667" x2="289.5666667" y1="391" style="clip-path:url(#clipPath1); fill:none; stroke:gray; stroke-width:0.5;" y2="391" />
      <line x1="289.5666667" x2="289.5666667" y1="391" style="clip-path:url(#clipPath1); fill:none; stroke:gray; stroke-width:0.5;" y2="393" />
      <line x1="411.0333333" x2="411.0333333" y1="391" style="clip-path:url(#clipPath1); fill:none; stroke:gray; stroke-width:0.5;" y2="391" />
      <line x1="411.0333333" x2="411.0333333" y1="391" style="clip-path:url(#clipPath1); fill:none; stroke:gray; stroke-width:0.5;" y2="393" />
      <line x1="532.5" x2="532.5" y1="391" style="clip-path:url(#clipPath1); fill:none; stroke:gray; stroke-width:0.5;" y2="391" />
      <line x1="532.5" x2="532.5" y1="391" style="clip-path:url(#clipPath1); fill:none; stroke:gray; stroke-width:0.5;" y2="393" />
      <line x1="653.9666667" x2="653.9666667" y1="391" style="clip-path:url(#clipPath1); fill:none; stroke:gray; stroke-width:0.5;" y2="391" />
      <line x1="653.9666667" x2="653.9666667" y1="391" style="clip-path:url(#clipPath1); fill:none; stroke:gray; stroke-width:0.5;" y2="393" />
      <line x1="775.4333333" x2="775.4333333" y1="391" style="clip-path:url(#clipPath1); fill:none; stroke:gray; stroke-width:0.5;" y2="391" />
      <line x1="775.4333333" x2="775.4333333" y1="391" style="clip-path:url(#clipPath1); fill:none; stroke:gray; stroke-width:0.5;" y2="393" />
      <line x1="896.9" x2="896.9" y1="391" style="clip-path:url(#clipPath1); fill:none; stroke:gray; stroke-width:0.5;" y2="391" />
      <line x1="896.9" x2="896.9" y1="391" style="clip-path:url(#clipPath1); fill:none; stroke:gray; stroke-width:0.5;" y2="393" />
      <path transform="matrix(0,-1,1,0,-228.8999939,565.1000061)" style="clip-path:url(#clipPath2); fill:yellow; stroke:none; stroke-width:0.5;" d="M109.9125061 394.0625 Q109.9125061 392.9375 109.4125061 392.34375 Q108.9125061 391.75 107.9125061 391.75 Q107.1625061 391.75 106.6312561 392.15625 Q106.1000061 392.5625 106.1000061 393.1875 Q106.1000061 393.5625 106.3500061 393.8125 Q106.5375061 394.0625 106.5375061 394.3125 Q106.5375061 394.625 106.3812561 394.78125 Q106.2250061 394.9375 105.9125061 394.9375 Q105.5375061 394.9375 105.3187561 394.71875 Q105.1000061 394.5 105.1000061 394 Q105.1000061 392.6875 106.0375061 392 Q106.9750061 391.3125 108.0375061 391.3125 Q109.5375061 391.3125 110.2562561 392.0625 Q110.9750061 392.8125 110.9750061 393.9375 Q110.9750061 394.6875 110.6312561 395.4375 Q110.2875061 396.1875 109.5375061 396.875 Q107.7250061 398.625 106.7562561 399.71875 Q105.7875061 400.8125 105.6000061 401.1875 L109.2875061 401.1875 Q109.8500061 401.1875 110.2250061 400.75 Q110.6000061 400.3125 110.7250061 399.4375 L111.1000061 399.4375 L110.7250061 402.125 L104.9125061 402.125 L104.9125061 401.3125 Q105.2250061 400.75 105.9437561 399.875 Q106.6625061 399 107.8500061 397.8125 Q108.9125061 396.75 109.4125061 395.8125 Q109.9125061 394.875 109.9125061 394.0625 ZM116.1000061 391.8125 Q115.2250061 391.8125 114.6312561 393.15625 Q114.0375061 394.5 114.0375061 396.75 Q114.0375061 399.125 114.6312561 400.4375 Q115.2250061 401.75 116.1000061 401.75 Q117.0375061 401.75 117.5687561 400.4375 Q118.1000061 399.125 118.1000061 396.75 Q118.1000061 394.5 117.6000061 393.15625 Q117.1000061 391.8125 116.1000061 391.8125 ZM116.1000061 402.25 Q114.7250061 402.25 113.7875061 400.8125 Q112.8500061 399.375 112.8500061 396.75 Q112.8500061 394.3125 113.7562561 392.8125 Q114.6625061 391.3125 116.1000061 391.3125 Q117.4750061 391.3125 118.3812561 392.75 Q119.2875061 394.1875 119.2875061 396.75 Q119.2875061 399.3125 118.3812561 400.78125 Q117.4750061 402.25 116.1000061 402.25 ZM125.9125061 394.0625 Q125.9125061 392.9375 125.4125061 392.34375 Q124.9125061 391.75 123.9125061 391.75 Q123.1625061 391.75 122.6312561 392.15625 Q122.1000061 392.5625 122.1000061 393.1875 Q122.1000061 393.5625 122.3500061 393.8125 Q122.5375061 394.0625 122.5375061 394.3125 Q122.5375061 394.625 122.3812561 394.78125 Q122.2250061 394.9375 121.9125061 394.9375 Q121.5375061 394.9375 121.3187561 394.71875 Q121.1000061 394.5 121.1000061 394 Q121.1000061 392.6875 122.0375061 392 Q122.9750061 391.3125 124.0375061 391.3125 Q125.5375061 391.3125 126.2562561 392.0625 Q126.9750061 392.8125 126.9750061 393.9375 Q126.9750061 394.6875 126.6312561 395.4375 Q126.2875061 396.1875 125.5375061 396.875 Q123.7250061 398.625 122.7562561 399.71875 Q121.7875061 400.8125 121.6000061 401.1875 L125.2875061 401.1875 Q125.8500061 401.1875 126.2250061 400.75 Q126.6000061 400.3125 126.7250061 399.4375 L127.1000061 399.4375 L126.7250061 402.125 L120.9125061 402.125 L120.9125061 401.3125 Q121.2250061 400.75 121.9437561 399.875 Q122.6625061 399 123.8500061 397.8125 Q124.9125061 396.75 125.4125061 395.8125 Q125.9125061 394.875 125.9125061 394.0625 ZM132.1000061 391.8125 Q131.2250061 391.8125 130.6312561 393.15625 Q130.0375061 394.5 130.0375061 396.75 Q130.0375061 399.125 130.6312561 400.4375 Q131.2250061 401.75 132.1000061 401.75 Q133.0375061 401.75 133.5687561 400.4375 Q134.1000061 399.125 134.1000061 396.75 Q134.1000061 394.5 133.6000061 393.15625 Q133.1000061 391.8125 132.1000061 391.8125 ZM132.1000061 402.25 Q130.7250061 402.25 129.7875061 400.8125 Q128.8500061 399.375 128.8500061 396.75 Q128.8500061 394.3125 129.7562561 392.8125 Q130.6625061 391.3125 132.1000061 391.3125 Q133.4750061 391.3125 134.3812561 392.75 Q135.2875061 394.1875 135.2875061 396.75 Q135.2875061 399.3125 134.3812561 400.78125 Q133.4750061 402.25 132.1000061 402.25 ZM137.1000061 403.5625 L136.6625061 403.3125 L143.0375061 389.9375 L143.4750061 390.1875 L137.1000061 403.5625 ZM149.9125061 394.0625 Q149.9125061 392.9375 149.4125061 392.34375 Q148.9125061 391.75 147.9125061 391.75 Q147.1625061 391.75 146.6312561 392.15625 Q146.1000061 392.5625 146.1000061 393.1875 Q146.1000061 393.5625 146.3500061 393.8125 Q146.5375061 394.0625 146.5375061 394.3125 Q146.5375061 394.625 146.3812561 394.78125 Q146.2250061 394.9375 145.9125061 394.9375 Q145.5375061 394.9375 145.3187561 394.71875 Q145.1000061 394.5 145.1000061 394 Q145.1000061 392.6875 146.0375061 392 Q146.9750061 391.3125 148.0375061 391.3125 Q149.5375061 391.3125 150.2562561 392.0625 Q150.9750061 392.8125 150.9750061 393.9375 Q150.9750061 394.6875 150.6312561 395.4375 Q150.2875061 396.1875 149.5375061 396.875 Q147.7250061 398.625 146.7562561 399.71875 Q145.7875061 400.8125 145.6000061 401.1875 L149.2875061 401.1875 Q149.8500061 401.1875 150.2250061 400.75 Q150.6000061 400.3125 150.7250061 399.4375 L151.1000061 399.4375 L150.7250061 402.125 L144.9125061 402.125 L144.9125061 401.3125 Q145.2250061 400.75 145.9437561 399.875 Q146.6625061 399 147.8500061 397.8125 Q148.9125061 396.75 149.4125061 395.8125 Q149.9125061 394.875 149.9125061 394.0625 ZM153.1000061 403.5625 L152.6625061 403.3125 L159.0375061 389.9375 L159.4750061 390.1875 L153.1000061 403.5625 ZM164.6625061 391.25 L164.6625061 400.75 Q164.6625061 401.25 164.9750061 401.5 Q165.2875061 401.75 165.8500061 401.75 L166.4750061 401.75 L166.4750061 402.125 L161.9125061 402.125 L161.9125061 401.75 L162.4750061 401.75 Q163.1000061 401.75 163.3812561 401.5 Q163.6625061 401.25 163.6625061 400.75 L163.6625061 393.1875 Q163.6625061 392.9375 163.5062561 392.78125 Q163.3500061 392.625 163.0375061 392.625 L161.9125061 392.625 L161.9125061 392.25 L162.4750061 392.25 Q163.2250061 392.25 163.6937561 392 Q164.1625061 391.75 164.4125061 391.25 L164.6625061 391.25 Z" />
    </g>
    <g transform="matrix(0,-1,1,0,-107.4333191,686.5666809)" style="font-size:16; fill:yellow; text-rendering:optimizeLegibility; font-family:&apos;宋体&apos;; stroke:yellow; stroke-width:0.5;">
      <path d="M231.3791809 394.0625 Q231.3791809 392.9375 230.8791809 392.34375 Q230.3791809 391.75 229.3791809 391.75 Q228.6291809 391.75 228.0979309 392.15625 Q227.5666809 392.5625 227.5666809 393.1875 Q227.5666809 393.5625 227.8166809 393.8125 Q228.0041809 394.0625 228.0041809 394.3125 Q228.0041809 394.625 227.8479309 394.78125 Q227.6916809 394.9375 227.3791809 394.9375 Q227.0041809 394.9375 226.7854309 394.71875 Q226.5666809 394.5 226.5666809 394 Q226.5666809 392.6875 227.5041809 392 Q228.4416809 391.3125 229.5041809 391.3125 Q231.0041809 391.3125 231.7229309 392.0625 Q232.4416809 392.8125 232.4416809 393.9375 Q232.4416809 394.6875 232.0979309 395.4375 Q231.7541809 396.1875 231.0041809 396.875 Q229.1916809 398.625 228.2229309 399.71875 Q227.2541809 400.8125 227.0666809 401.1875 L230.7541809 401.1875 Q231.3166809 401.1875 231.6916809 400.75 Q232.0666809 400.3125 232.1916809 399.4375 L232.5666809 399.4375 L232.1916809 402.125 L226.3791809 402.125 L226.3791809 401.3125 Q226.6916809 400.75 227.4104309 399.875 Q228.1291809 399 229.3166809 397.8125 Q230.3791809 396.75 230.8791809 395.8125 Q231.3791809 394.875 231.3791809 394.0625 ZM237.5666809 391.8125 Q236.6916809 391.8125 236.0979309 393.15625 Q235.5041809 394.5 235.5041809 396.75 Q235.5041809 399.125 236.0979309 400.4375 Q236.6916809 401.75 237.5666809 401.75 Q238.5041809 401.75 239.0354309 400.4375 Q239.5666809 399.125 239.5666809 396.75 Q239.5666809 394.5 239.0666809 393.15625 Q238.5666809 391.8125 237.5666809 391.8125 ZM237.5666809 402.25 Q236.1916809 402.25 235.2541809 400.8125 Q234.3166809 399.375 234.3166809 396.75 Q234.3166809 394.3125 235.2229309 392.8125 Q236.1291809 391.3125 237.5666809 391.3125 Q238.9416809 391.3125 239.8479309 392.75 Q240.7541809 394.1875 240.7541809 396.75 Q240.7541809 399.3125 239.8479309 400.78125 Q238.9416809 402.25 237.5666809 402.25 ZM248.5666809 399.25 Q248.5666809 400.4375 247.6916809 401.34375 Q246.8166809 402.25 245.2541809 402.25 Q244.1291809 402.25 243.3166809 401.625 Q242.5041809 401 242.5041809 400.1875 Q242.5041809 399.8125 242.7541809 399.53125 Q243.0041809 399.25 243.2541809 399.25 Q243.6291809 399.25 243.7854309 399.53125 Q243.9416809 399.8125 243.9416809 400 Q243.9416809 400.3125 243.8166809 400.5 Q243.6916809 400.75 243.6916809 400.9375 Q243.6916809 401.3125 244.1604309 401.5625 Q244.6291809 401.8125 245.1916809 401.8125 Q246.3166809 401.8125 246.8791809 401.15625 Q247.4416809 400.5 247.4416809 399.125 Q247.4416809 398 246.8479309 397.3125 Q246.2541809 396.625 244.6291809 396.625 L244.6291809 396.1875 Q245.8791809 396.1875 246.4729309 395.59375 Q247.0666809 395 247.0666809 393.9375 Q247.0666809 393.0625 246.5979309 392.40625 Q246.1291809 391.75 245.1291809 391.75 Q244.6916809 391.75 244.1916809 391.96875 Q243.6916809 392.1875 243.6916809 392.6875 Q243.6916809 393.1875 243.8166809 393.3125 Q243.9416809 393.4375 243.9416809 393.625 Q243.9416809 393.9375 243.8166809 394.125 Q243.6916809 394.3125 243.3791809 394.3125 Q243.1291809 394.3125 242.9104309 394.125 Q242.6916809 393.9375 242.6916809 393.4375 Q242.6916809 392.5 243.5041809 391.90625 Q244.3166809 391.3125 245.3791809 391.3125 Q246.6291809 391.3125 247.3791809 392.09375 Q248.1291809 392.875 248.1291809 393.75 Q248.1291809 394.6875 247.6604309 395.34375 Q247.1916809 396 246.1916809 396.3125 Q247.5666809 396.8125 248.0666809 397.625 Q248.5666809 398.4375 248.5666809 399.25 ZM253.5666809 391.8125 Q252.6916809 391.8125 252.0979309 393.15625 Q251.5041809 394.5 251.5041809 396.75 Q251.5041809 399.125 252.0979309 400.4375 Q252.6916809 401.75 253.5666809 401.75 Q254.5041809 401.75 255.0354309 400.4375 Q255.5666809 399.125 255.5666809 396.75 Q255.5666809 394.5 255.0666809 393.15625 Q254.5666809 391.8125 253.5666809 391.8125 ZM253.5666809 402.25 Q252.1916809 402.25 251.2541809 400.8125 Q250.3166809 399.375 250.3166809 396.75 Q250.3166809 394.3125 251.2229309 392.8125 Q252.1291809 391.3125 253.5666809 391.3125 Q254.9416809 391.3125 255.8479309 392.75 Q256.7541809 394.1875 256.7541809 396.75 Q256.7541809 399.3125 255.8479309 400.78125 Q254.9416809 402.25 253.5666809 402.25 ZM258.5666809 403.5625 L258.1291809 403.3125 L264.5041809 389.9375 L264.9416809 390.1875 L258.5666809 403.5625 ZM271.3791809 394.0625 Q271.3791809 392.9375 270.8791809 392.34375 Q270.3791809 391.75 269.3791809 391.75 Q268.6291809 391.75 268.0979309 392.15625 Q267.5666809 392.5625 267.5666809 393.1875 Q267.5666809 393.5625 267.8166809 393.8125 Q268.0041809 394.0625 268.0041809 394.3125 Q268.0041809 394.625 267.8479309 394.78125 Q267.6916809 394.9375 267.3791809 394.9375 Q267.0041809 394.9375 266.7854309 394.71875 Q266.5666809 394.5 266.5666809 394 Q266.5666809 392.6875 267.5041809 392 Q268.4416809 391.3125 269.5041809 391.3125 Q271.0041809 391.3125 271.7229309 392.0625 Q272.4416809 392.8125 272.4416809 393.9375 Q272.4416809 394.6875 272.0979309 395.4375 Q271.7541809 396.1875 271.0041809 396.875 Q269.1916809 398.625 268.2229309 399.71875 Q267.2541809 400.8125 267.0666809 401.1875 L270.7541809 401.1875 Q271.3166809 401.1875 271.6916809 400.75 Q272.0666809 400.3125 272.1916809 399.4375 L272.5666809 399.4375 L272.1916809 402.125 L266.3791809 402.125 L266.3791809 401.3125 Q266.6916809 400.75 267.4104309 399.875 Q268.1291809 399 269.3166809 397.8125 Q270.3791809 396.75 270.8791809 395.8125 Q271.3791809 394.875 271.3791809 394.0625 ZM274.5666809 403.5625 L274.1291809 403.3125 L280.5041809 389.9375 L280.9416809 390.1875 L274.5666809 403.5625 ZM288.5666809 399.25 Q288.5666809 400.4375 287.6916809 401.34375 Q286.8166809 402.25 285.2541809 402.25 Q284.1291809 402.25 283.3166809 401.625 Q282.5041809 401 282.5041809 400.1875 Q282.5041809 399.8125 282.7541809 399.53125 Q283.0041809 399.25 283.2541809 399.25 Q283.6291809 399.25 283.7854309 399.53125 Q283.9416809 399.8125 283.9416809 400 Q283.9416809 400.3125 283.8166809 400.5 Q283.6916809 400.75 283.6916809 400.9375 Q283.6916809 401.3125 284.1604309 401.5625 Q284.6291809 401.8125 285.1916809 401.8125 Q286.3166809 401.8125 286.8791809 401.15625 Q287.4416809 400.5 287.4416809 399.125 Q287.4416809 398 286.8479309 397.3125 Q286.2541809 396.625 284.6291809 396.625 L284.6291809 396.1875 Q285.8791809 396.1875 286.4729309 395.59375 Q287.0666809 395 287.0666809 393.9375 Q287.0666809 393.0625 286.5979309 392.40625 Q286.1291809 391.75 285.1291809 391.75 Q284.6916809 391.75 284.1916809 391.96875 Q283.6916809 392.1875 283.6916809 392.6875 Q283.6916809 393.1875 283.8166809 393.3125 Q283.9416809 393.4375 283.9416809 393.625 Q283.9416809 393.9375 283.8166809 394.125 Q283.6916809 394.3125 283.3791809 394.3125 Q283.1291809 394.3125 282.9104309 394.125 Q282.6916809 393.9375 282.6916809 393.4375 Q282.6916809 392.5 283.5041809 391.90625 Q284.3166809 391.3125 285.3791809 391.3125 Q286.6291809 391.3125 287.3791809 392.09375 Q288.1291809 392.875 288.1291809 393.75 Q288.1291809 394.6875 287.6604309 395.34375 Q287.1916809 396 286.1916809 396.3125 Q287.5666809 396.8125 288.0666809 397.625 Q288.5666809 398.4375 288.5666809 399.25 Z" style="clip-path:url(#clipPath3); stroke:none;" />
    </g>
    <g transform="matrix(0,-1,1,0,14.0333252,808.0333252)" style="font-size:16; fill:yellow; text-rendering:optimizeLegibility; font-family:&apos;宋体&apos;; stroke:yellow; stroke-width:0.5;">
      <path d="M352.8458252 394.0625 Q352.8458252 392.9375 352.3458252 392.34375 Q351.8458252 391.75 350.8458252 391.75 Q350.0958252 391.75 349.5645752 392.15625 Q349.0333252 392.5625 349.0333252 393.1875 Q349.0333252 393.5625 349.2833252 393.8125 Q349.4708252 394.0625 349.4708252 394.3125 Q349.4708252 394.625 349.3145752 394.78125 Q349.1583252 394.9375 348.8458252 394.9375 Q348.4708252 394.9375 348.2520752 394.71875 Q348.0333252 394.5 348.0333252 394 Q348.0333252 392.6875 348.9708252 392 Q349.9083252 391.3125 350.9708252 391.3125 Q352.4708252 391.3125 353.1895752 392.0625 Q353.9083252 392.8125 353.9083252 393.9375 Q353.9083252 394.6875 353.5645752 395.4375 Q353.2208252 396.1875 352.4708252 396.875 Q350.6583252 398.625 349.6895752 399.71875 Q348.7208252 400.8125 348.5333252 401.1875 L352.2208252 401.1875 Q352.7833252 401.1875 353.1583252 400.75 Q353.5333252 400.3125 353.6583252 399.4375 L354.0333252 399.4375 L353.6583252 402.125 L347.8458252 402.125 L347.8458252 401.3125 Q348.1583252 400.75 348.8770752 399.875 Q349.5958252 399 350.7833252 397.8125 Q351.8458252 396.75 352.3458252 395.8125 Q352.8458252 394.875 352.8458252 394.0625 ZM359.0333252 391.8125 Q358.1583252 391.8125 357.5645752 393.15625 Q356.9708252 394.5 356.9708252 396.75 Q356.9708252 399.125 357.5645752 400.4375 Q358.1583252 401.75 359.0333252 401.75 Q359.9708252 401.75 360.5020752 400.4375 Q361.0333252 399.125 361.0333252 396.75 Q361.0333252 394.5 360.5333252 393.15625 Q360.0333252 391.8125 359.0333252 391.8125 ZM359.0333252 402.25 Q357.6583252 402.25 356.7208252 400.8125 Q355.7833252 399.375 355.7833252 396.75 Q355.7833252 394.3125 356.6895752 392.8125 Q357.5958252 391.3125 359.0333252 391.3125 Q360.4083252 391.3125 361.3145752 392.75 Q362.2208252 394.1875 362.2208252 396.75 Q362.2208252 399.3125 361.3145752 400.78125 Q360.4083252 402.25 359.0333252 402.25 ZM368.7833252 400.9375 Q368.7833252 401.375 369.0333252 401.5625 Q369.2833252 401.75 369.7208252 401.75 L370.2833252 401.75 L370.2833252 402.125 L366.1583252 402.125 L366.1583252 401.75 L366.8458252 401.75 Q367.3458252 401.75 367.5645752 401.5625 Q367.7833252 401.375 367.7833252 400.9375 L367.7833252 398.875 L363.5958252 398.875 L363.5958252 398.5625 L368.1583252 391.3125 L368.7833252 391.3125 L368.7833252 398.5 L370.4708252 398.5 L370.4708252 398.875 L368.7833252 398.875 L368.7833252 400.9375 ZM367.7208252 392.875 L364.1583252 398.5 L367.7833252 398.5 L367.7833252 392.875 L367.7208252 392.875 ZM375.0333252 391.8125 Q374.1583252 391.8125 373.5645752 393.15625 Q372.9708252 394.5 372.9708252 396.75 Q372.9708252 399.125 373.5645752 400.4375 Q374.1583252 401.75 375.0333252 401.75 Q375.9708252 401.75 376.5020752 400.4375 Q377.0333252 399.125 377.0333252 396.75 Q377.0333252 394.5 376.5333252 393.15625 Q376.0333252 391.8125 375.0333252 391.8125 ZM375.0333252 402.25 Q373.6583252 402.25 372.7208252 400.8125 Q371.7833252 399.375 371.7833252 396.75 Q371.7833252 394.3125 372.6895752 392.8125 Q373.5958252 391.3125 375.0333252 391.3125 Q376.4083252 391.3125 377.3145752 392.75 Q378.2208252 394.1875 378.2208252 396.75 Q378.2208252 399.3125 377.3145752 400.78125 Q376.4083252 402.25 375.0333252 402.25 ZM380.0333252 403.5625 L379.5958252 403.3125 L385.9708252 389.9375 L386.4083252 390.1875 L380.0333252 403.5625 ZM391.3458252 395.25 Q392.5333252 395.25 393.2833252 396.15625 Q394.0333252 397.0625 394.0333252 398.5625 Q394.0333252 400.25 393.2520752 401.25 Q392.4708252 402.25 390.8458252 402.25 Q389.7208252 402.25 388.8458252 401.59375 Q387.9708252 400.9375 387.9708252 400 Q387.9708252 399.625 388.1895752 399.34375 Q388.4083252 399.0625 388.7833252 399.0625 Q389.1583252 399.0625 389.2833252 399.3125 Q389.4083252 399.5625 389.4083252 399.75 Q389.4083252 400.125 389.2208252 400.3125 Q389.0333252 400.5625 389.0333252 400.8125 Q389.0333252 401.3125 389.6270752 401.5625 Q390.2208252 401.8125 390.9083252 401.8125 Q391.9083252 401.8125 392.4395752 401 Q392.9708252 400.1875 392.9708252 398.6875 Q392.9708252 397.4375 392.5020752 396.65625 Q392.0333252 395.875 391.0958252 395.875 Q390.4083252 395.875 389.9083252 396.125 Q389.4083252 396.375 388.9708252 397.1875 L388.4083252 397.125 L388.7208252 391.4375 L393.8458252 391.4375 L393.6583252 392.375 L389.1583252 392.375 L388.9083252 396.5 Q389.5333252 395.625 390.1270752 395.4375 Q390.7208252 395.25 391.3458252 395.25 ZM396.0333252 403.5625 L395.5958252 403.3125 L401.9708252 389.9375 L402.4083252 390.1875 L396.0333252 403.5625 ZM407.3458252 395.25 Q408.5333252 395.25 409.2833252 396.15625 Q410.0333252 397.0625 410.0333252 398.5625 Q410.0333252 400.25 409.2520752 401.25 Q408.4708252 402.25 406.8458252 402.25 Q405.7208252 402.25 404.8458252 401.59375 Q403.9708252 400.9375 403.9708252 400 Q403.9708252 399.625 404.1895752 399.34375 Q404.4083252 399.0625 404.7833252 399.0625 Q405.1583252 399.0625 405.2833252 399.3125 Q405.4083252 399.5625 405.4083252 399.75 Q405.4083252 400.125 405.2208252 400.3125 Q405.0333252 400.5625 405.0333252 400.8125 Q405.0333252 401.3125 405.6270752 401.5625 Q406.2208252 401.8125 406.9083252 401.8125 Q407.9083252 401.8125 408.4395752 401 Q408.9708252 400.1875 408.9708252 398.6875 Q408.9708252 397.4375 408.5020752 396.65625 Q408.0333252 395.875 407.0958252 395.875 Q406.4083252 395.875 405.9083252 396.125 Q405.4083252 396.375 404.9708252 397.1875 L404.4083252 397.125 L404.7208252 391.4375 L409.8458252 391.4375 L409.6583252 392.375 L405.1583252 392.375 L404.9083252 396.5 Q405.5333252 395.625 406.1270752 395.4375 Q406.7208252 395.25 407.3458252 395.25 Z" style="clip-path:url(#clipPath4); stroke:none;" />
    </g>
    <g transform="matrix(0,-1,1,0,135.5,929.5)" style="font-size:16; fill:yellow; text-rendering:optimizeLegibility; font-family:&apos;宋体&apos;; stroke:yellow; stroke-width:0.5;">
      <path d="M474.3125 394.0625 Q474.3125 392.9375 473.8125 392.34375 Q473.3125 391.75 472.3125 391.75 Q471.5625 391.75 471.03125 392.15625 Q470.5 392.5625 470.5 393.1875 Q470.5 393.5625 470.75 393.8125 Q470.9375 394.0625 470.9375 394.3125 Q470.9375 394.625 470.78125 394.78125 Q470.625 394.9375 470.3125 394.9375 Q469.9375 394.9375 469.71875 394.71875 Q469.5 394.5 469.5 394 Q469.5 392.6875 470.4375 392 Q471.375 391.3125 472.4375 391.3125 Q473.9375 391.3125 474.65625 392.0625 Q475.375 392.8125 475.375 393.9375 Q475.375 394.6875 475.03125 395.4375 Q474.6875 396.1875 473.9375 396.875 Q472.125 398.625 471.15625 399.71875 Q470.1875 400.8125 470 401.1875 L473.6875 401.1875 Q474.25 401.1875 474.625 400.75 Q475 400.3125 475.125 399.4375 L475.5 399.4375 L475.125 402.125 L469.3125 402.125 L469.3125 401.3125 Q469.625 400.75 470.34375 399.875 Q471.0625 399 472.25 397.8125 Q473.3125 396.75 473.8125 395.8125 Q474.3125 394.875 474.3125 394.0625 ZM480.5 391.8125 Q479.625 391.8125 479.03125 393.15625 Q478.4375 394.5 478.4375 396.75 Q478.4375 399.125 479.03125 400.4375 Q479.625 401.75 480.5 401.75 Q481.4375 401.75 481.96875 400.4375 Q482.5 399.125 482.5 396.75 Q482.5 394.5 482 393.15625 Q481.5 391.8125 480.5 391.8125 ZM480.5 402.25 Q479.125 402.25 478.1875 400.8125 Q477.25 399.375 477.25 396.75 Q477.25 394.3125 478.15625 392.8125 Q479.0625 391.3125 480.5 391.3125 Q481.875 391.3125 482.78125 392.75 Q483.6875 394.1875 483.6875 396.75 Q483.6875 399.3125 482.78125 400.78125 Q481.875 402.25 480.5 402.25 ZM488.8125 395.25 Q490 395.25 490.75 396.15625 Q491.5 397.0625 491.5 398.5625 Q491.5 400.25 490.71875 401.25 Q489.9375 402.25 488.3125 402.25 Q487.1875 402.25 486.3125 401.59375 Q485.4375 400.9375 485.4375 400 Q485.4375 399.625 485.65625 399.34375 Q485.875 399.0625 486.25 399.0625 Q486.625 399.0625 486.75 399.3125 Q486.875 399.5625 486.875 399.75 Q486.875 400.125 486.6875 400.3125 Q486.5 400.5625 486.5 400.8125 Q486.5 401.3125 487.09375 401.5625 Q487.6875 401.8125 488.375 401.8125 Q489.375 401.8125 489.90625 401 Q490.4375 400.1875 490.4375 398.6875 Q490.4375 397.4375 489.96875 396.65625 Q489.5 395.875 488.5625 395.875 Q487.875 395.875 487.375 396.125 Q486.875 396.375 486.4375 397.1875 L485.875 397.125 L486.1875 391.4375 L491.3125 391.4375 L491.125 392.375 L486.625 392.375 L486.375 396.5 Q487 395.625 487.59375 395.4375 Q488.1875 395.25 488.8125 395.25 ZM496.5 391.8125 Q495.625 391.8125 495.03125 393.15625 Q494.4375 394.5 494.4375 396.75 Q494.4375 399.125 495.03125 400.4375 Q495.625 401.75 496.5 401.75 Q497.4375 401.75 497.96875 400.4375 Q498.5 399.125 498.5 396.75 Q498.5 394.5 498 393.15625 Q497.5 391.8125 496.5 391.8125 ZM496.5 402.25 Q495.125 402.25 494.1875 400.8125 Q493.25 399.375 493.25 396.75 Q493.25 394.3125 494.15625 392.8125 Q495.0625 391.3125 496.5 391.3125 Q497.875 391.3125 498.78125 392.75 Q499.6875 394.1875 499.6875 396.75 Q499.6875 399.3125 498.78125 400.78125 Q497.875 402.25 496.5 402.25 ZM501.5 403.5625 L501.0625 403.3125 L507.4375 389.9375 L507.875 390.1875 L501.5 403.5625 ZM510.4375 397.875 Q510.4375 399.75 511.09375 400.78125 Q511.75 401.8125 512.6875 401.8125 Q513.625 401.8125 514.125 401.125 Q514.625 400.4375 514.625 398.5625 Q514.625 397.3125 514.09375 396.625 Q513.5625 395.9375 512.8125 395.9375 Q512.125 395.9375 511.53125 396.34375 Q510.9375 396.75 510.4375 397.875 ZM512.875 395.3125 Q514.375 395.3125 515.03125 396.3125 Q515.6875 397.3125 515.6875 398.5625 Q515.6875 400.4375 514.78125 401.34375 Q513.875 402.25 512.6875 402.25 Q511 402.25 510.125 400.96875 Q509.25 399.6875 509.25 397.25 Q509.25 394.375 510.3125 392.84375 Q511.375 391.3125 513.1875 391.3125 Q514.0625 391.3125 514.59375 391.8125 Q515.125 392.3125 515.125 392.6875 Q515.125 393.0625 514.96875 393.25 Q514.8125 393.4375 514.4375 393.4375 Q514.125 393.4375 513.96875 393.28125 Q513.8125 393.125 513.8125 392.8125 Q513.8125 392.6875 513.875 392.5625 Q513.875 392.4375 513.875 392.3125 Q513.875 392.0625 513.6875 391.90625 Q513.5 391.75 513 391.75 Q511.9375 391.75 511.1875 392.71875 Q510.4375 393.6875 510.4375 396.9375 Q510.8125 396.125 511.46875 395.71875 Q512.125 395.3125 512.875 395.3125 ZM517.5 403.5625 L517.0625 403.3125 L523.4375 389.9375 L523.875 390.1875 L517.5 403.5625 ZM526.4375 397.875 Q526.4375 399.75 527.09375 400.78125 Q527.75 401.8125 528.6875 401.8125 Q529.625 401.8125 530.125 401.125 Q530.625 400.4375 530.625 398.5625 Q530.625 397.3125 530.09375 396.625 Q529.5625 395.9375 528.8125 395.9375 Q528.125 395.9375 527.53125 396.34375 Q526.9375 396.75 526.4375 397.875 ZM528.875 395.3125 Q530.375 395.3125 531.03125 396.3125 Q531.6875 397.3125 531.6875 398.5625 Q531.6875 400.4375 530.78125 401.34375 Q529.875 402.25 528.6875 402.25 Q527 402.25 526.125 400.96875 Q525.25 399.6875 525.25 397.25 Q525.25 394.375 526.3125 392.84375 Q527.375 391.3125 529.1875 391.3125 Q530.0625 391.3125 530.59375 391.8125 Q531.125 392.3125 531.125 392.6875 Q531.125 393.0625 530.96875 393.25 Q530.8125 393.4375 530.4375 393.4375 Q530.125 393.4375 529.96875 393.28125 Q529.8125 393.125 529.8125 392.8125 Q529.8125 392.6875 529.875 392.5625 Q529.875 392.4375 529.875 392.3125 Q529.875 392.0625 529.6875 391.90625 Q529.5 391.75 529 391.75 Q527.9375 391.75 527.1875 392.71875 Q526.4375 393.6875 526.4375 396.9375 Q526.8125 396.125 527.46875 395.71875 Q528.125 395.3125 528.875 395.3125 Z" style="clip-path:url(#clipPath5); stroke:none;" />
    </g>
    <g transform="matrix(0,-1,1,0,256.9666748,1050.9666748)" style="font-size:16; fill:yellow; text-rendering:optimizeLegibility; font-family:&apos;宋体&apos;; stroke:yellow; stroke-width:0.5;">
      <path d="M595.7791748 394.0625 Q595.7791748 392.9375 595.2791748 392.34375 Q594.7791748 391.75 593.7791748 391.75 Q593.0291748 391.75 592.4979248 392.15625 Q591.9666748 392.5625 591.9666748 393.1875 Q591.9666748 393.5625 592.2166748 393.8125 Q592.4041748 394.0625 592.4041748 394.3125 Q592.4041748 394.625 592.2479248 394.78125 Q592.0916748 394.9375 591.7791748 394.9375 Q591.4041748 394.9375 591.1854248 394.71875 Q590.9666748 394.5 590.9666748 394 Q590.9666748 392.6875 591.9041748 392 Q592.8416748 391.3125 593.9041748 391.3125 Q595.4041748 391.3125 596.1229248 392.0625 Q596.8416748 392.8125 596.8416748 393.9375 Q596.8416748 394.6875 596.4979248 395.4375 Q596.1541748 396.1875 595.4041748 396.875 Q593.5916748 398.625 592.6229248 399.71875 Q591.6541748 400.8125 591.4666748 401.1875 L595.1541748 401.1875 Q595.7166748 401.1875 596.0916748 400.75 Q596.4666748 400.3125 596.5916748 399.4375 L596.9666748 399.4375 L596.5916748 402.125 L590.7791748 402.125 L590.7791748 401.3125 Q591.0916748 400.75 591.8104248 399.875 Q592.5291748 399 593.7166748 397.8125 Q594.7791748 396.75 595.2791748 395.8125 Q595.7791748 394.875 595.7791748 394.0625 ZM601.9666748 391.8125 Q601.0916748 391.8125 600.4979248 393.15625 Q599.9041748 394.5 599.9041748 396.75 Q599.9041748 399.125 600.4979248 400.4375 Q601.0916748 401.75 601.9666748 401.75 Q602.9041748 401.75 603.4354248 400.4375 Q603.9666748 399.125 603.9666748 396.75 Q603.9666748 394.5 603.4666748 393.15625 Q602.9666748 391.8125 601.9666748 391.8125 ZM601.9666748 402.25 Q600.5916748 402.25 599.6541748 400.8125 Q598.7166748 399.375 598.7166748 396.75 Q598.7166748 394.3125 599.6229248 392.8125 Q600.5291748 391.3125 601.9666748 391.3125 Q603.3416748 391.3125 604.2479248 392.75 Q605.1541748 394.1875 605.1541748 396.75 Q605.1541748 399.3125 604.2479248 400.78125 Q603.3416748 402.25 601.9666748 402.25 ZM607.9041748 397.875 Q607.9041748 399.75 608.5604248 400.78125 Q609.2166748 401.8125 610.1541748 401.8125 Q611.0916748 401.8125 611.5916748 401.125 Q612.0916748 400.4375 612.0916748 398.5625 Q612.0916748 397.3125 611.5604248 396.625 Q611.0291748 395.9375 610.2791748 395.9375 Q609.5916748 395.9375 608.9979248 396.34375 Q608.4041748 396.75 607.9041748 397.875 ZM610.3416748 395.3125 Q611.8416748 395.3125 612.4979248 396.3125 Q613.1541748 397.3125 613.1541748 398.5625 Q613.1541748 400.4375 612.2479248 401.34375 Q611.3416748 402.25 610.1541748 402.25 Q608.4666748 402.25 607.5916748 400.96875 Q606.7166748 399.6875 606.7166748 397.25 Q606.7166748 394.375 607.7791748 392.84375 Q608.8416748 391.3125 610.6541748 391.3125 Q611.5291748 391.3125 612.0604248 391.8125 Q612.5916748 392.3125 612.5916748 392.6875 Q612.5916748 393.0625 612.4354248 393.25 Q612.2791748 393.4375 611.9041748 393.4375 Q611.5916748 393.4375 611.4354248 393.28125 Q611.2791748 393.125 611.2791748 392.8125 Q611.2791748 392.6875 611.3416748 392.5625 Q611.3416748 392.4375 611.3416748 392.3125 Q611.3416748 392.0625 611.1541748 391.90625 Q610.9666748 391.75 610.4666748 391.75 Q609.4041748 391.75 608.6541748 392.71875 Q607.9041748 393.6875 607.9041748 396.9375 Q608.2791748 396.125 608.9354248 395.71875 Q609.5916748 395.3125 610.3416748 395.3125 ZM617.9666748 391.8125 Q617.0916748 391.8125 616.4979248 393.15625 Q615.9041748 394.5 615.9041748 396.75 Q615.9041748 399.125 616.4979248 400.4375 Q617.0916748 401.75 617.9666748 401.75 Q618.9041748 401.75 619.4354248 400.4375 Q619.9666748 399.125 619.9666748 396.75 Q619.9666748 394.5 619.4666748 393.15625 Q618.9666748 391.8125 617.9666748 391.8125 ZM617.9666748 402.25 Q616.5916748 402.25 615.6541748 400.8125 Q614.7166748 399.375 614.7166748 396.75 Q614.7166748 394.3125 615.6229248 392.8125 Q616.5291748 391.3125 617.9666748 391.3125 Q619.3416748 391.3125 620.2479248 392.75 Q621.1541748 394.1875 621.1541748 396.75 Q621.1541748 399.3125 620.2479248 400.78125 Q619.3416748 402.25 617.9666748 402.25 ZM622.9666748 403.5625 L622.5291748 403.3125 L628.9041748 389.9375 L629.3416748 390.1875 L622.9666748 403.5625 ZM637.0291748 391.875 Q635.7166748 394 634.9354248 396.03125 Q634.1541748 398.0625 634.1541748 399.5625 Q634.1541748 399.8125 634.2166748 400.25 Q634.2166748 400.75 634.2166748 401.375 Q634.2166748 401.875 634.0604248 402.0625 Q633.9041748 402.25 633.5291748 402.25 Q633.2166748 402.25 632.9979248 402.03125 Q632.7791748 401.8125 632.7791748 401.25 Q632.7791748 400.0625 633.3104248 398.3125 Q633.8416748 396.5625 636.1541748 392.375 L633.0291748 392.375 Q632.3416748 392.375 631.9354248 392.8125 Q631.5291748 393.25 631.3416748 394.125 L630.9666748 394.0625 L631.4041748 391.4375 L637.0291748 391.4375 L637.0291748 391.875 ZM638.9666748 403.5625 L638.5291748 403.3125 L644.9041748 389.9375 L645.3416748 390.1875 L638.9666748 403.5625 ZM650.2791748 395.25 Q651.4666748 395.25 652.2166748 396.15625 Q652.9666748 397.0625 652.9666748 398.5625 Q652.9666748 400.25 652.1854248 401.25 Q651.4041748 402.25 649.7791748 402.25 Q648.6541748 402.25 647.7791748 401.59375 Q646.9041748 400.9375 646.9041748 400 Q646.9041748 399.625 647.1229248 399.34375 Q647.3416748 399.0625 647.7166748 399.0625 Q648.0916748 399.0625 648.2166748 399.3125 Q648.3416748 399.5625 648.3416748 399.75 Q648.3416748 400.125 648.1541748 400.3125 Q647.9666748 400.5625 647.9666748 400.8125 Q647.9666748 401.3125 648.5604248 401.5625 Q649.1541748 401.8125 649.8416748 401.8125 Q650.8416748 401.8125 651.3729248 401 Q651.9041748 400.1875 651.9041748 398.6875 Q651.9041748 397.4375 651.4354248 396.65625 Q650.9666748 395.875 650.0291748 395.875 Q649.3416748 395.875 648.8416748 396.125 Q648.3416748 396.375 647.9041748 397.1875 L647.3416748 397.125 L647.6541748 391.4375 L652.7791748 391.4375 L652.5916748 392.375 L648.0916748 392.375 L647.8416748 396.5 Q648.4666748 395.625 649.0604248 395.4375 Q649.6541748 395.25 650.2791748 395.25 Z" style="clip-path:url(#clipPath6); stroke:none;" />
    </g>
    <g transform="matrix(0,-1,1,0,378.4333496,1172.4333496)" style="font-size:16; fill:yellow; text-rendering:optimizeLegibility; font-family:&apos;宋体&apos;; stroke:yellow; stroke-width:0.5;">
      <path d="M709.2458496 394.0625 Q709.2458496 392.9375 708.7458496 392.34375 Q708.2458496 391.75 707.2458496 391.75 Q706.4958496 391.75 705.9645996 392.15625 Q705.4333496 392.5625 705.4333496 393.1875 Q705.4333496 393.5625 705.6833496 393.8125 Q705.8708496 394.0625 705.8708496 394.3125 Q705.8708496 394.625 705.7145996 394.78125 Q705.5583496 394.9375 705.2458496 394.9375 Q704.8708496 394.9375 704.6520996 394.71875 Q704.4333496 394.5 704.4333496 394 Q704.4333496 392.6875 705.3708496 392 Q706.3083496 391.3125 707.3708496 391.3125 Q708.8708496 391.3125 709.5895996 392.0625 Q710.3083496 392.8125 710.3083496 393.9375 Q710.3083496 394.6875 709.9645996 395.4375 Q709.6208496 396.1875 708.8708496 396.875 Q707.0583496 398.625 706.0895996 399.71875 Q705.1208496 400.8125 704.9333496 401.1875 L708.6208496 401.1875 Q709.1833496 401.1875 709.5583496 400.75 Q709.9333496 400.3125 710.0583496 399.4375 L710.4333496 399.4375 L710.0583496 402.125 L704.2458496 402.125 L704.2458496 401.3125 Q704.5583496 400.75 705.2770996 399.875 Q705.9958496 399 707.1833496 397.8125 Q708.2458496 396.75 708.7458496 395.8125 Q709.2458496 394.875 709.2458496 394.0625 ZM715.4333496 391.8125 Q714.5583496 391.8125 713.9645996 393.15625 Q713.3708496 394.5 713.3708496 396.75 Q713.3708496 399.125 713.9645996 400.4375 Q714.5583496 401.75 715.4333496 401.75 Q716.3708496 401.75 716.9020996 400.4375 Q717.4333496 399.125 717.4333496 396.75 Q717.4333496 394.5 716.9333496 393.15625 Q716.4333496 391.8125 715.4333496 391.8125 ZM715.4333496 402.25 Q714.0583496 402.25 713.1208496 400.8125 Q712.1833496 399.375 712.1833496 396.75 Q712.1833496 394.3125 713.0895996 392.8125 Q713.9958496 391.3125 715.4333496 391.3125 Q716.8083496 391.3125 717.7145996 392.75 Q718.6208496 394.1875 718.6208496 396.75 Q718.6208496 399.3125 717.7145996 400.78125 Q716.8083496 402.25 715.4333496 402.25 ZM726.4958496 391.875 Q725.1833496 394 724.4020996 396.03125 Q723.6208496 398.0625 723.6208496 399.5625 Q723.6208496 399.8125 723.6833496 400.25 Q723.6833496 400.75 723.6833496 401.375 Q723.6833496 401.875 723.5270996 402.0625 Q723.3708496 402.25 722.9958496 402.25 Q722.6833496 402.25 722.4645996 402.03125 Q722.2458496 401.8125 722.2458496 401.25 Q722.2458496 400.0625 722.7770996 398.3125 Q723.3083496 396.5625 725.6208496 392.375 L722.4958496 392.375 Q721.8083496 392.375 721.4020996 392.8125 Q720.9958496 393.25 720.8083496 394.125 L720.4333496 394.0625 L720.8708496 391.4375 L726.4958496 391.4375 L726.4958496 391.875 ZM731.4333496 391.8125 Q730.5583496 391.8125 729.9645996 393.15625 Q729.3708496 394.5 729.3708496 396.75 Q729.3708496 399.125 729.9645996 400.4375 Q730.5583496 401.75 731.4333496 401.75 Q732.3708496 401.75 732.9020996 400.4375 Q733.4333496 399.125 733.4333496 396.75 Q733.4333496 394.5 732.9333496 393.15625 Q732.4333496 391.8125 731.4333496 391.8125 ZM731.4333496 402.25 Q730.0583496 402.25 729.1208496 400.8125 Q728.1833496 399.375 728.1833496 396.75 Q728.1833496 394.3125 729.0895996 392.8125 Q729.9958496 391.3125 731.4333496 391.3125 Q732.8083496 391.3125 733.7145996 392.75 Q734.6208496 394.1875 734.6208496 396.75 Q734.6208496 399.3125 733.7145996 400.78125 Q732.8083496 402.25 731.4333496 402.25 ZM736.4333496 403.5625 L735.9958496 403.3125 L742.3708496 389.9375 L742.8083496 390.1875 L736.4333496 403.5625 ZM744.9958496 399.5625 Q744.9958496 400.5625 745.6520996 401.1875 Q746.3083496 401.8125 747.3083496 401.8125 Q748.4958496 401.8125 749.0270996 401.1875 Q749.5583496 400.5625 749.5583496 399.625 Q749.5583496 398.8125 748.8083496 398.0625 Q748.0583496 397.3125 746.5583496 396.6875 Q745.8083496 397.1875 745.4020996 397.9375 Q744.9958496 398.6875 744.9958496 399.5625 ZM750.4958496 399.4375 Q750.4958496 400.625 749.6208496 401.4375 Q748.7458496 402.25 747.3083496 402.25 Q745.9958496 402.25 745.0583496 401.4375 Q744.1208496 400.625 744.1208496 399.5625 Q744.1208496 398.5 744.6520996 397.75 Q745.1833496 397 746.1833496 396.4375 Q745.3083496 396 744.8395996 395.34375 Q744.3708496 394.6875 744.3708496 393.875 Q744.3708496 392.8125 745.1833496 392.0625 Q745.9958496 391.3125 747.4333496 391.3125 Q748.7458496 391.3125 749.5583496 392.0625 Q750.3708496 392.8125 750.3708496 393.875 Q750.3708496 394.625 749.9020996 395.28125 Q749.4333496 395.9375 748.4333496 396.4375 Q749.4958496 397.0625 749.9958496 397.8125 Q750.4958496 398.5625 750.4958496 399.4375 ZM749.4958496 393.9375 Q749.4958496 393.0625 748.9958496 392.40625 Q748.4958496 391.75 747.4333496 391.75 Q746.2458496 391.75 745.7458496 392.375 Q745.2458496 393 745.2458496 393.6875 Q745.2458496 394.375 745.9645996 395.03125 Q746.6833496 395.6875 747.9958496 396.1875 Q748.7458496 395.8125 749.1208496 395.25 Q749.4958496 394.6875 749.4958496 393.9375 ZM752.4333496 403.5625 L751.9958496 403.3125 L758.3708496 389.9375 L758.8083496 390.1875 L752.4333496 403.5625 ZM765.2458496 394.0625 Q765.2458496 392.9375 764.7458496 392.34375 Q764.2458496 391.75 763.2458496 391.75 Q762.4958496 391.75 761.9645996 392.15625 Q761.4333496 392.5625 761.4333496 393.1875 Q761.4333496 393.5625 761.6833496 393.8125 Q761.8708496 394.0625 761.8708496 394.3125 Q761.8708496 394.625 761.7145996 394.78125 Q761.5583496 394.9375 761.2458496 394.9375 Q760.8708496 394.9375 760.6520996 394.71875 Q760.4333496 394.5 760.4333496 394 Q760.4333496 392.6875 761.3708496 392 Q762.3083496 391.3125 763.3708496 391.3125 Q764.8708496 391.3125 765.5895996 392.0625 Q766.3083496 392.8125 766.3083496 393.9375 Q766.3083496 394.6875 765.9645996 395.4375 Q765.6208496 396.1875 764.8708496 396.875 Q763.0583496 398.625 762.0895996 399.71875 Q761.1208496 400.8125 760.9333496 401.1875 L764.6208496 401.1875 Q765.1833496 401.1875 765.5583496 400.75 Q765.9333496 400.3125 766.0583496 399.4375 L766.4333496 399.4375 L766.0583496 402.125 L760.2458496 402.125 L760.2458496 401.3125 Q760.5583496 400.75 761.2770996 399.875 Q761.9958496 399 763.1833496 397.8125 Q764.2458496 396.75 764.7458496 395.8125 Q765.2458496 394.875 765.2458496 394.0625 ZM771.9958496 391.25 L771.9958496 400.75 Q771.9958496 401.25 772.3083496 401.5 Q772.6208496 401.75 773.1833496 401.75 L773.8083496 401.75 L773.8083496 402.125 L769.2458496 402.125 L769.2458496 401.75 L769.8083496 401.75 Q770.4333496 401.75 770.7145996 401.5 Q770.9958496 401.25 770.9958496 400.75 L770.9958496 393.1875 Q770.9958496 392.9375 770.8395996 392.78125 Q770.6833496 392.625 770.3708496 392.625 L769.2458496 392.625 L769.2458496 392.25 L769.8083496 392.25 Q770.5583496 392.25 771.0270996 392 Q771.4958496 391.75 771.7458496 391.25 L771.9958496 391.25 Z" style="clip-path:url(#clipPath7); stroke:none;" />
    </g>
    <g transform="matrix(0,-1,1,0,499.9000244,1293.9000244)" style="font-size:16; fill:yellow; text-rendering:optimizeLegibility; font-family:&apos;宋体&apos;; stroke:yellow; stroke-width:0.5;">
      <path d="M830.7125244 394.0625 Q830.7125244 392.9375 830.2125244 392.34375 Q829.7125244 391.75 828.7125244 391.75 Q827.9625244 391.75 827.4312744 392.15625 Q826.9000244 392.5625 826.9000244 393.1875 Q826.9000244 393.5625 827.1500244 393.8125 Q827.3375244 394.0625 827.3375244 394.3125 Q827.3375244 394.625 827.1812744 394.78125 Q827.0250244 394.9375 826.7125244 394.9375 Q826.3375244 394.9375 826.1187744 394.71875 Q825.9000244 394.5 825.9000244 394 Q825.9000244 392.6875 826.8375244 392 Q827.7750244 391.3125 828.8375244 391.3125 Q830.3375244 391.3125 831.0562744 392.0625 Q831.7750244 392.8125 831.7750244 393.9375 Q831.7750244 394.6875 831.4312744 395.4375 Q831.0875244 396.1875 830.3375244 396.875 Q828.5250244 398.625 827.5562744 399.71875 Q826.5875244 400.8125 826.4000244 401.1875 L830.0875244 401.1875 Q830.6500244 401.1875 831.0250244 400.75 Q831.4000244 400.3125 831.5250244 399.4375 L831.9000244 399.4375 L831.5250244 402.125 L825.7125244 402.125 L825.7125244 401.3125 Q826.0250244 400.75 826.7437744 399.875 Q827.4625244 399 828.6500244 397.8125 Q829.7125244 396.75 830.2125244 395.8125 Q830.7125244 394.875 830.7125244 394.0625 ZM836.9000244 391.8125 Q836.0250244 391.8125 835.4312744 393.15625 Q834.8375244 394.5 834.8375244 396.75 Q834.8375244 399.125 835.4312744 400.4375 Q836.0250244 401.75 836.9000244 401.75 Q837.8375244 401.75 838.3687744 400.4375 Q838.9000244 399.125 838.9000244 396.75 Q838.9000244 394.5 838.4000244 393.15625 Q837.9000244 391.8125 836.9000244 391.8125 ZM836.9000244 402.25 Q835.5250244 402.25 834.5875244 400.8125 Q833.6500244 399.375 833.6500244 396.75 Q833.6500244 394.3125 834.5562744 392.8125 Q835.4625244 391.3125 836.9000244 391.3125 Q838.2750244 391.3125 839.1812744 392.75 Q840.0875244 394.1875 840.0875244 396.75 Q840.0875244 399.3125 839.1812744 400.78125 Q838.2750244 402.25 836.9000244 402.25 ZM842.4625244 399.5625 Q842.4625244 400.5625 843.1187744 401.1875 Q843.7750244 401.8125 844.7750244 401.8125 Q845.9625244 401.8125 846.4937744 401.1875 Q847.0250244 400.5625 847.0250244 399.625 Q847.0250244 398.8125 846.2750244 398.0625 Q845.5250244 397.3125 844.0250244 396.6875 Q843.2750244 397.1875 842.8687744 397.9375 Q842.4625244 398.6875 842.4625244 399.5625 ZM847.9625244 399.4375 Q847.9625244 400.625 847.0875244 401.4375 Q846.2125244 402.25 844.7750244 402.25 Q843.4625244 402.25 842.5250244 401.4375 Q841.5875244 400.625 841.5875244 399.5625 Q841.5875244 398.5 842.1187744 397.75 Q842.6500244 397 843.6500244 396.4375 Q842.7750244 396 842.3062744 395.34375 Q841.8375244 394.6875 841.8375244 393.875 Q841.8375244 392.8125 842.6500244 392.0625 Q843.4625244 391.3125 844.9000244 391.3125 Q846.2125244 391.3125 847.0250244 392.0625 Q847.8375244 392.8125 847.8375244 393.875 Q847.8375244 394.625 847.3687744 395.28125 Q846.9000244 395.9375 845.9000244 396.4375 Q846.9625244 397.0625 847.4625244 397.8125 Q847.9625244 398.5625 847.9625244 399.4375 ZM846.9625244 393.9375 Q846.9625244 393.0625 846.4625244 392.40625 Q845.9625244 391.75 844.9000244 391.75 Q843.7125244 391.75 843.2125244 392.375 Q842.7125244 393 842.7125244 393.6875 Q842.7125244 394.375 843.4312744 395.03125 Q844.1500244 395.6875 845.4625244 396.1875 Q846.2125244 395.8125 846.5875244 395.25 Q846.9625244 394.6875 846.9625244 393.9375 ZM852.9000244 391.8125 Q852.0250244 391.8125 851.4312744 393.15625 Q850.8375244 394.5 850.8375244 396.75 Q850.8375244 399.125 851.4312744 400.4375 Q852.0250244 401.75 852.9000244 401.75 Q853.8375244 401.75 854.3687744 400.4375 Q854.9000244 399.125 854.9000244 396.75 Q854.9000244 394.5 854.4000244 393.15625 Q853.9000244 391.8125 852.9000244 391.8125 ZM852.9000244 402.25 Q851.5250244 402.25 850.5875244 400.8125 Q849.6500244 399.375 849.6500244 396.75 Q849.6500244 394.3125 850.5562744 392.8125 Q851.4625244 391.3125 852.9000244 391.3125 Q854.2750244 391.3125 855.1812744 392.75 Q856.0875244 394.1875 856.0875244 396.75 Q856.0875244 399.3125 855.1812744 400.78125 Q854.2750244 402.25 852.9000244 402.25 ZM857.9000244 403.5625 L857.4625244 403.3125 L863.8375244 389.9375 L864.2750244 390.1875 L857.9000244 403.5625 ZM866.4625244 399.5625 Q866.4625244 400.5625 867.1187744 401.1875 Q867.7750244 401.8125 868.7750244 401.8125 Q869.9625244 401.8125 870.4937744 401.1875 Q871.0250244 400.5625 871.0250244 399.625 Q871.0250244 398.8125 870.2750244 398.0625 Q869.5250244 397.3125 868.0250244 396.6875 Q867.2750244 397.1875 866.8687744 397.9375 Q866.4625244 398.6875 866.4625244 399.5625 ZM871.9625244 399.4375 Q871.9625244 400.625 871.0875244 401.4375 Q870.2125244 402.25 868.7750244 402.25 Q867.4625244 402.25 866.5250244 401.4375 Q865.5875244 400.625 865.5875244 399.5625 Q865.5875244 398.5 866.1187744 397.75 Q866.6500244 397 867.6500244 396.4375 Q866.7750244 396 866.3062744 395.34375 Q865.8375244 394.6875 865.8375244 393.875 Q865.8375244 392.8125 866.6500244 392.0625 Q867.4625244 391.3125 868.9000244 391.3125 Q870.2125244 391.3125 871.0250244 392.0625 Q871.8375244 392.8125 871.8375244 393.875 Q871.8375244 394.625 871.3687744 395.28125 Q870.9000244 395.9375 869.9000244 396.4375 Q870.9625244 397.0625 871.4625244 397.8125 Q871.9625244 398.5625 871.9625244 399.4375 ZM870.9625244 393.9375 Q870.9625244 393.0625 870.4625244 392.40625 Q869.9625244 391.75 868.9000244 391.75 Q867.7125244 391.75 867.2125244 392.375 Q866.7125244 393 866.7125244 393.6875 Q866.7125244 394.375 867.4312744 395.03125 Q868.1500244 395.6875 869.4625244 396.1875 Q870.2125244 395.8125 870.5875244 395.25 Q870.9625244 394.6875 870.9625244 393.9375 ZM873.9000244 403.5625 L873.4625244 403.3125 L879.8375244 389.9375 L880.2750244 390.1875 L873.9000244 403.5625 ZM886.7125244 394.0625 Q886.7125244 392.9375 886.2125244 392.34375 Q885.7125244 391.75 884.7125244 391.75 Q883.9625244 391.75 883.4312744 392.15625 Q882.9000244 392.5625 882.9000244 393.1875 Q882.9000244 393.5625 883.1500244 393.8125 Q883.3375244 394.0625 883.3375244 394.3125 Q883.3375244 394.625 883.1812744 394.78125 Q883.0250244 394.9375 882.7125244 394.9375 Q882.3375244 394.9375 882.1187744 394.71875 Q881.9000244 394.5 881.9000244 394 Q881.9000244 392.6875 882.8375244 392 Q883.7750244 391.3125 884.8375244 391.3125 Q886.3375244 391.3125 887.0562744 392.0625 Q887.7750244 392.8125 887.7750244 393.9375 Q887.7750244 394.6875 887.4312744 395.4375 Q887.0875244 396.1875 886.3375244 396.875 Q884.5250244 398.625 883.5562744 399.71875 Q882.5875244 400.8125 882.4000244 401.1875 L886.0875244 401.1875 Q886.6500244 401.1875 887.0250244 400.75 Q887.4000244 400.3125 887.5250244 399.4375 L887.9000244 399.4375 L887.5250244 402.125 L881.7125244 402.125 L881.7125244 401.3125 Q882.0250244 400.75 882.7437744 399.875 Q883.4625244 399 884.6500244 397.8125 Q885.7125244 396.75 886.2125244 395.8125 Q886.7125244 394.875 886.7125244 394.0625 ZM894.7125244 394.0625 Q894.7125244 392.9375 894.2125244 392.34375 Q893.7125244 391.75 892.7125244 391.75 Q891.9625244 391.75 891.4312744 392.15625 Q890.9000244 392.5625 890.9000244 393.1875 Q890.9000244 393.5625 891.1500244 393.8125 Q891.3375244 394.0625 891.3375244 394.3125 Q891.3375244 394.625 891.1812744 394.78125 Q891.0250244 394.9375 890.7125244 394.9375 Q890.3375244 394.9375 890.1187744 394.71875 Q889.9000244 394.5 889.9000244 394 Q889.9000244 392.6875 890.8375244 392 Q891.7750244 391.3125 892.8375244 391.3125 Q894.3375244 391.3125 895.0562744 392.0625 Q895.7750244 392.8125 895.7750244 393.9375 Q895.7750244 394.6875 895.4312744 395.4375 Q895.0875244 396.1875 894.3375244 396.875 Q892.5250244 398.625 891.5562744 399.71875 Q890.5875244 400.8125 890.4000244 401.1875 L894.0875244 401.1875 Q894.6500244 401.1875 895.0250244 400.75 Q895.4000244 400.3125 895.5250244 399.4375 L895.9000244 399.4375 L895.5250244 402.125 L889.7125244 402.125 L889.7125244 401.3125 Q890.0250244 400.75 890.7437744 399.875 Q891.4625244 399 892.6500244 397.8125 Q893.7125244 396.75 894.2125244 395.8125 Q894.7125244 394.875 894.7125244 394.0625 Z" style="clip-path:url(#clipPath8); stroke:none;" />
    </g>
    <g style="font-size:16; fill:rgb(64,64,64); text-rendering:optimizeLegibility; font-family:&apos;宋体&apos;; stroke:rgb(64,64,64); stroke-width:0.5;">
      <text x="516.5" y="491.625" style="clip-path:url(#clipPath1); stroke:none;" xml:space="preserve">时间</text>
      <text x="51" y="378.4583435" style="clip-path:url(#clipPath1); fill:blue; stroke:none;" xml:space="preserve">0%</text>
      <text x="43" y="349.125" style="clip-path:url(#clipPath1); fill:blue; stroke:none;" xml:space="preserve">10%</text>
      <text x="43" y="319.7916565" style="clip-path:url(#clipPath1); fill:blue; stroke:none;" xml:space="preserve">20%</text>
      <text x="43" y="290.4583435" style="clip-path:url(#clipPath1); fill:blue; stroke:none;" xml:space="preserve">30%</text>
      <text x="43" y="261.125" style="clip-path:url(#clipPath1); fill:blue; stroke:none;" xml:space="preserve">40%</text>
      <text x="43" y="231.7916718" style="clip-path:url(#clipPath1); fill:blue; stroke:none;" xml:space="preserve">50%</text>
      <text x="43" y="202.4583282" style="clip-path:url(#clipPath1); fill:blue; stroke:none;" xml:space="preserve">60%</text>
      <text x="43" y="173.125" style="clip-path:url(#clipPath1); fill:blue; stroke:none;" xml:space="preserve">70%</text>
      <text x="43" y="143.7916718" style="clip-path:url(#clipPath1); fill:blue; stroke:none;" xml:space="preserve">80%</text>
      <text x="43" y="114.4583359" style="clip-path:url(#clipPath1); fill:blue; stroke:none;" xml:space="preserve">90%</text>
      <text x="35" y="85.125" style="clip-path:url(#clipPath1); fill:blue; stroke:none;" xml:space="preserve">100%</text>
      <text x="35" y="55.7916679" style="clip-path:url(#clipPath1); fill:blue; stroke:none;" xml:space="preserve">110%</text>
      <path d="M15.375 213.3125 Q16.875 213.5 17.0625 213.4375 Q17.25 213.375 17.25 213 L17.25 208.4375 L15 209.3125 Q15 213.4375 15.0625 215.125 L14.125 215.5625 Q14.1875 213.375 14.1875 209.625 L12.25 210.375 L12.25 216.4375 Q12.25 217.1875 13.0625 217.1875 L17.8125 217.1875 Q18.5 217.0625 18.59375 216.1875 Q18.6875 215.3125 18.6875 214.125 L19 214.125 Q19.0625 215.375 19.1875 216 Q19.3125 216.625 19.875 216.875 Q19.375 217.9375 18.4375 217.9375 L12.75 217.9375 Q11.4375 217.9375 11.4375 216.5 L11.4375 210.625 L10.0625 211.125 L9.6875 211.4375 L9.0625 211.125 L11.4375 210.25 L11.4375 208 Q11.4375 207.1875 11.375 206.0625 L12.6875 206.75 L12.25 207.125 L12.25 210 L14.1875 209.25 L14.1875 206.25 Q14.1875 205.125 14.125 204.125 L15.5625 204.75 L15 205.25 L15 208.9375 L17.0625 208.0625 L17.5625 207.4375 L18.5625 208.1875 L18.0625 208.6875 L18.0625 213.4375 Q18.0625 213.8125 17.78125 214.15625 Q17.5 214.5 16.9375 214.75 Q16.875 214.0625 15.375 213.5625 L15.375 213.3125 ZM8.375 215.25 L10.875 214.375 L10.9375 214.6875 Q6.4375 216.625 5.875 217.375 L5.125 216.25 Q5.875 216.0625 7.5 215.5 L7.5 209.875 L7.25 209.875 Q6.4375 209.875 5.75 210.0625 L5.1875 209.5 L7.5 209.5 L7.5 206.625 Q7.5 205.75 7.4375 204.5 L8.875 205.1875 L8.375 205.625 L8.375 209.5 L9 209.5 L9.6875 208.8125 L10.75 209.875 L8.375 209.875 L8.375 215.25 ZM32.1875 204.8125 L32.3125 204.625 Q33.6875 205.1875 33.96875 205.5 Q34.25 205.8125 34.25 206.0625 Q34.25 206.3125 34.0625 206.65625 Q33.875 207 33.75 207 Q33.5625 207 33.375 206.5 Q33.0625 205.6875 32.1875 204.8125 ZM26.8125 209.3125 L26.9375 209.125 Q28.5 209.9375 28.8125 210.3125 Q29.125 210.6875 29.125 211 Q29.125 211.25 28.90625 211.625 Q28.6875 212 28.5625 212 Q28.3125 212 28.125 211.3125 Q27.75 210.3125 26.8125 209.3125 ZM30.125 204.0625 L31.5 204.6875 L31.0625 205.125 L31.0625 207.625 L33.6875 207.625 L34.5 206.8125 L35.6875 208 L31.0625 208 Q31.5 210.125 32.25 211.625 Q33.625 210.0625 34.0625 209.0625 L35.1875 210.125 Q34.5625 210.125 32.375 211.9375 Q33.8125 214.625 35.8125 215.4375 L35.8125 215.6875 Q34.9375 215.625 34.4375 216.3125 Q33.375 215.3125 32.40625 213.40625 Q31.4375 211.5 31.0625 209.25 L31.0625 216.9375 Q31.0625 218.1875 29.5625 218.625 Q29.5625 217.6875 27.875 217.1875 L27.875 216.9375 Q29.125 217.0625 29.65625 217.09375 Q30.1875 217.125 30.1875 216.75 L30.1875 213 Q27.125 215.375 26.9375 216 L25.9375 215 Q26.8125 214.75 30.1875 212.625 L30.1875 208 L28 208 Q27.3125 207.9375 26.75 208.125 L26.25 207.625 L30.1875 207.625 Q30.1875 205.3125 30.125 204.0625 ZM21.1875 206.25 L25.3125 206.25 L26 205.5625 L27 206.625 L24.4375 206.625 L24.4375 210.5 L25.25 210.5 L25.875 209.875 L26.6875 210.875 L24.4375 210.875 L24.4375 214.5 L27 213.625 L27.0625 213.875 Q22.25 215.9375 21.8125 216.625 L21.125 215.5 Q22.125 215.25 23.5625 214.75 L23.5625 210.875 L23.4375 210.875 Q22.625 210.875 21.9375 211.0625 L21.375 210.5 L23.5625 210.5 L23.5625 206.625 L23.25 206.625 Q22.4375 206.625 21.75 206.8125 L21.1875 206.25 Z" style="clip-path:url(#clipPath9); stroke:none;" transform="matrix(0,-1,1,0,-190.5,231.5)" />
    </g>
    <g style="font-size:16; fill:gray; text-rendering:optimizeLegibility; font-family:&apos;宋体&apos;; stroke:gray; stroke-width:0.2;">
      <line x1="77" x2="988" y1="372.3333333" style="clip-path:url(#clipPath10); fill:none;" y2="372.3333333" />
      <line x1="77" x2="988" y1="343" style="clip-path:url(#clipPath10); fill:none;" y2="343" />
      <line x1="77" x2="988" y1="313.6666667" style="clip-path:url(#clipPath10); fill:none;" y2="313.6666667" />
      <line x1="77" x2="988" y1="284.3333333" style="clip-path:url(#clipPath10); fill:none;" y2="284.3333333" />
      <line x1="77" x2="988" y1="255" style="clip-path:url(#clipPath10); fill:none;" y2="255" />
      <line x1="77" x2="988" y1="225.6666667" style="clip-path:url(#clipPath10); fill:none;" y2="225.6666667" />
      <line x1="77" x2="988" y1="196.3333333" style="clip-path:url(#clipPath10); fill:none;" y2="196.3333333" />
      <line x1="77" x2="988" y1="167" style="clip-path:url(#clipPath10); fill:none;" y2="167" />
      <line x1="77" x2="988" y1="137.6666667" style="clip-path:url(#clipPath10); fill:none;" y2="137.6666667" />
      <line x1="77" x2="988" y1="108.3333333" style="clip-path:url(#clipPath10); fill:none;" y2="108.3333333" />
      <line x1="77" x2="988" y1="79" style="clip-path:url(#clipPath10); fill:none;" y2="79" />
      <line x1="77" x2="988" y1="49.6666667" style="clip-path:url(#clipPath10); fill:none;" y2="49.6666667" />
      <line x1="168.1" x2="289.5666667" y1="372.3333333" style="clip-path:url(#clipPath10); fill:none; stroke:rgb(49,133,156); stroke-width:3;" y2="81.9333333" />
      <line x1="289.5666667" x2="411.0333333" y1="81.9333333" style="clip-path:url(#clipPath10); fill:none; stroke:rgb(49,133,156); stroke-width:3;" y2="153.976" />
      <line x1="411.0333333" x2="532.5" y1="153.976" style="clip-path:url(#clipPath10); fill:none; stroke:rgb(49,133,156); stroke-width:3;" y2="139.984" />
      <line x1="532.5" x2="653.9666667" y1="139.984" style="clip-path:url(#clipPath10); fill:none; stroke:rgb(49,133,156); stroke-width:3;" y2="133.12" />
      <line x1="653.9666667" x2="775.4333333" y1="133.12" style="clip-path:url(#clipPath10); fill:none; stroke:rgb(49,133,156); stroke-width:3;" y2="199.9413333" />
      <line x1="775.4333333" x2="896.9" y1="199.9413333" style="clip-path:url(#clipPath10); fill:none; stroke:rgb(49,133,156); stroke-width:3;" y2="79" />
    </g>
  </g>
</svg>
