<?xml version="1.0" encoding="UTF-8"?>

<!DOCTYPE svg PUBLIC '-//W3C//DTD SVG 1.0//EN' 'http://www.w3.org/TR/2001/REC-SVG-20010904/DTD/svg10.dtd'>
<svg style="fill-opacity:1; color-rendering:auto; color-interpolation:auto; text-rendering:auto; stroke:black; stroke-linecap:square; stroke-miterlimit:10; shape-rendering:auto; stroke-opacity:1; fill:black; stroke-dasharray:none; font-weight:normal; stroke-width:1; font-family:&apos;Dialog&apos;; font-style:normal; stroke-linejoin:miter; font-size:12; stroke-dashoffset:0; image-rendering:auto;" xmlns="http://www.w3.org/2000/svg" width="1000" xmlns:xlink="http://www.w3.org/1999/xlink" height="500">
  <!--Generated by the Batik Graphics2D SVG Generator-->
  <defs id="genericDefs" />
  <g>
    <defs id="defs1">
      <clipPath clipPathUnits="userSpaceOnUse" id="clipPath1">
        <path d="M0 0 L1000 0 L1000 500 L0 500 L0 0 Z" />
      </clipPath>
      <clipPath clipPathUnits="userSpaceOnUse" id="clipPath2">
        <path d="M349.6683044 -36.1739731 L1056.7751465 670.9328003 L703.2216797 1024.4862061 L-3.8850827 317.379425 L349.6683044 -36.1739731 Z" />
      </clipPath>
      <clipPath clipPathUnits="userSpaceOnUse" id="clipPath3">
        <path d="M383.058136 -116.7841415 L1090.164917 590.3226318 L736.6115112 943.8760376 L29.5047436 236.7692413 L383.058136 -116.7841415 Z" />
      </clipPath>
      <clipPath clipPathUnits="userSpaceOnUse" id="clipPath4">
        <path d="M416.4479675 -197.3943176 L1123.5546875 509.7124634 L770.0013428 863.2658691 L62.8945694 156.1590729 L416.4479675 -197.3943176 Z" />
      </clipPath>
      <clipPath clipPathUnits="userSpaceOnUse" id="clipPath5">
        <path d="M449.8377991 -278.0044861 L1156.9445801 429.1022949 L803.3911743 782.6557007 L96.2844009 75.5488968 L449.8377991 -278.0044861 Z" />
      </clipPath>
      <clipPath clipPathUnits="userSpaceOnUse" id="clipPath6">
        <path d="M483.2276306 -358.6146545 L1190.3343506 348.4921265 L836.7810059 702.0455322 L129.6742249 -5.0612731 L483.2276306 -358.6146545 Z" />
      </clipPath>
      <clipPath clipPathUnits="userSpaceOnUse" id="clipPath7">
        <path d="M516.6174316 -439.224823 L1223.7242432 267.881958 L870.1708374 621.4353638 L163.0640564 -85.6714478 L516.6174316 -439.224823 Z" />
      </clipPath>
      <clipPath clipPathUnits="userSpaceOnUse" id="clipPath8">
        <path d="M550.0072632 -519.835022 L1257.1140137 187.2717743 L903.5606689 540.8251343 L196.4538727 -166.2816162 L550.0072632 -519.835022 Z" />
      </clipPath>
      <clipPath clipPathUnits="userSpaceOnUse" id="clipPath9">
        <path d="M235 194 L235 1194 L-265 1194 L-265 194 L235 194 Z" />
      </clipPath>
      <clipPath clipPathUnits="userSpaceOnUse" id="clipPath10">
        <path d="M133 35 L133 394 L988 394 L988 35 Z" />
      </clipPath>
    </defs>
    <g style="fill:white; text-rendering:optimizeLegibility; stroke:white;">
      <rect x="0" y="0" width="1000" style="clip-path:url(#clipPath1); stroke:none;" height="500" />
      <rect x="0" y="0" width="999" style="clip-path:url(#clipPath1); fill:none; stroke:gray; stroke-width:0.3;" height="499" />
    </g>
    <g style="text-rendering:optimizeLegibility; stroke-width:0.3; font-size:20; font-family:&apos;Tahoma&apos;; font-weight:bold;">
      <text x="480" y="21.0097656" style="clip-path:url(#clipPath1); stroke:none;" xml:space="preserve">熵值</text>
    </g>
    <g style="font-size:16; fill:white; text-rendering:optimizeLegibility; font-family:&apos;宋体&apos;; stroke:white; stroke-width:0.3;">
      <rect x="133" y="35" width="855" style="clip-path:url(#clipPath1); stroke:none;" height="359" />
      <line x1="133" x2="988" y1="398" style="clip-path:url(#clipPath1); fill:none; stroke:gray; stroke-width:0.5;" y2="398" />
      <line x1="218.5" x2="218.5" y1="398" style="clip-path:url(#clipPath1); fill:none; stroke:gray; stroke-width:0.5;" y2="398" />
      <line x1="218.5" x2="218.5" y1="398" style="clip-path:url(#clipPath1); fill:none; stroke:gray; stroke-width:0.5;" y2="400" />
      <line x1="332.5" x2="332.5" y1="398" style="clip-path:url(#clipPath1); fill:none; stroke:gray; stroke-width:0.5;" y2="398" />
      <line x1="332.5" x2="332.5" y1="398" style="clip-path:url(#clipPath1); fill:none; stroke:gray; stroke-width:0.5;" y2="400" />
      <line x1="446.5" x2="446.5" y1="398" style="clip-path:url(#clipPath1); fill:none; stroke:gray; stroke-width:0.5;" y2="398" />
      <line x1="446.5" x2="446.5" y1="398" style="clip-path:url(#clipPath1); fill:none; stroke:gray; stroke-width:0.5;" y2="400" />
      <line x1="560.5" x2="560.5" y1="398" style="clip-path:url(#clipPath1); fill:none; stroke:gray; stroke-width:0.5;" y2="398" />
      <line x1="560.5" x2="560.5" y1="398" style="clip-path:url(#clipPath1); fill:none; stroke:gray; stroke-width:0.5;" y2="400" />
      <line x1="674.5" x2="674.5" y1="398" style="clip-path:url(#clipPath1); fill:none; stroke:gray; stroke-width:0.5;" y2="398" />
      <line x1="674.5" x2="674.5" y1="398" style="clip-path:url(#clipPath1); fill:none; stroke:gray; stroke-width:0.5;" y2="400" />
      <line x1="788.5" x2="788.5" y1="398" style="clip-path:url(#clipPath1); fill:none; stroke:gray; stroke-width:0.5;" y2="398" />
      <line x1="788.5" x2="788.5" y1="398" style="clip-path:url(#clipPath1); fill:none; stroke:gray; stroke-width:0.5;" y2="400" />
      <line x1="902.5" x2="902.5" y1="398" style="clip-path:url(#clipPath1); fill:none; stroke:gray; stroke-width:0.5;" y2="398" />
      <line x1="902.5" x2="902.5" y1="398" style="clip-path:url(#clipPath1); fill:none; stroke:gray; stroke-width:0.5;" y2="400" />
      <path transform="matrix(0.7071068,-0.7071068,0.7071068,0.7071068,-221.6739713,272.8316921)" style="clip-path:url(#clipPath2); fill:black; stroke:none; stroke-width:0.5;" d="M160.3125 410.5625 Q160.3125 409.4375 159.8125 408.84375 Q159.3125 408.25 158.3125 408.25 Q157.5625 408.25 157.03125 408.65625 Q156.5 409.0625 156.5 409.6875 Q156.5 410.0625 156.75 410.3125 Q156.9375 410.5625 156.9375 410.8125 Q156.9375 411.125 156.78125 411.28125 Q156.625 411.4375 156.3125 411.4375 Q155.9375 411.4375 155.71875 411.21875 Q155.5 411 155.5 410.5 Q155.5 409.1875 156.4375 408.5 Q157.375 407.8125 158.4375 407.8125 Q159.9375 407.8125 160.65625 408.5625 Q161.375 409.3125 161.375 410.4375 Q161.375 411.1875 161.03125 411.9375 Q160.6875 412.6875 159.9375 413.375 Q158.125 415.125 157.15625 416.21875 Q156.1875 417.3125 156 417.6875 L159.6875 417.6875 Q160.25 417.6875 160.625 417.25 Q161 416.8125 161.125 415.9375 L161.5 415.9375 L161.125 418.625 L155.3125 418.625 L155.3125 417.8125 Q155.625 417.25 156.34375 416.375 Q157.0625 415.5 158.25 414.3125 Q159.3125 413.25 159.8125 412.3125 Q160.3125 411.375 160.3125 410.5625 ZM166.5 408.3125 Q165.625 408.3125 165.03125 409.65625 Q164.4375 411 164.4375 413.25 Q164.4375 415.625 165.03125 416.9375 Q165.625 418.25 166.5 418.25 Q167.4375 418.25 167.96875 416.9375 Q168.5 415.625 168.5 413.25 Q168.5 411 168 409.65625 Q167.5 408.3125 166.5 408.3125 ZM166.5 418.75 Q165.125 418.75 164.1875 417.3125 Q163.25 415.875 163.25 413.25 Q163.25 410.8125 164.15625 409.3125 Q165.0625 407.8125 166.5 407.8125 Q167.875 407.8125 168.78125 409.25 Q169.6875 410.6875 169.6875 413.25 Q169.6875 415.8125 168.78125 417.28125 Q167.875 418.75 166.5 418.75 ZM176.3125 410.5625 Q176.3125 409.4375 175.8125 408.84375 Q175.3125 408.25 174.3125 408.25 Q173.5625 408.25 173.03125 408.65625 Q172.5 409.0625 172.5 409.6875 Q172.5 410.0625 172.75 410.3125 Q172.9375 410.5625 172.9375 410.8125 Q172.9375 411.125 172.78125 411.28125 Q172.625 411.4375 172.3125 411.4375 Q171.9375 411.4375 171.71875 411.21875 Q171.5 411 171.5 410.5 Q171.5 409.1875 172.4375 408.5 Q173.375 407.8125 174.4375 407.8125 Q175.9375 407.8125 176.65625 408.5625 Q177.375 409.3125 177.375 410.4375 Q177.375 411.1875 177.03125 411.9375 Q176.6875 412.6875 175.9375 413.375 Q174.125 415.125 173.15625 416.21875 Q172.1875 417.3125 172 417.6875 L175.6875 417.6875 Q176.25 417.6875 176.625 417.25 Q177 416.8125 177.125 415.9375 L177.5 415.9375 L177.125 418.625 L171.3125 418.625 L171.3125 417.8125 Q171.625 417.25 172.34375 416.375 Q173.0625 415.5 174.25 414.3125 Q175.3125 413.25 175.8125 412.3125 Q176.3125 411.375 176.3125 410.5625 ZM182.5 408.3125 Q181.625 408.3125 181.03125 409.65625 Q180.4375 411 180.4375 413.25 Q180.4375 415.625 181.03125 416.9375 Q181.625 418.25 182.5 418.25 Q183.4375 418.25 183.96875 416.9375 Q184.5 415.625 184.5 413.25 Q184.5 411 184 409.65625 Q183.5 408.3125 182.5 408.3125 ZM182.5 418.75 Q181.125 418.75 180.1875 417.3125 Q179.25 415.875 179.25 413.25 Q179.25 410.8125 180.15625 409.3125 Q181.0625 407.8125 182.5 407.8125 Q183.875 407.8125 184.78125 409.25 Q185.6875 410.6875 185.6875 413.25 Q185.6875 415.8125 184.78125 417.28125 Q183.875 418.75 182.5 418.75 ZM187.5 420.0625 L187.0625 419.8125 L193.4375 406.4375 L193.875 406.6875 L187.5 420.0625 ZM200.3125 410.5625 Q200.3125 409.4375 199.8125 408.84375 Q199.3125 408.25 198.3125 408.25 Q197.5625 408.25 197.03125 408.65625 Q196.5 409.0625 196.5 409.6875 Q196.5 410.0625 196.75 410.3125 Q196.9375 410.5625 196.9375 410.8125 Q196.9375 411.125 196.78125 411.28125 Q196.625 411.4375 196.3125 411.4375 Q195.9375 411.4375 195.71875 411.21875 Q195.5 411 195.5 410.5 Q195.5 409.1875 196.4375 408.5 Q197.375 407.8125 198.4375 407.8125 Q199.9375 407.8125 200.65625 408.5625 Q201.375 409.3125 201.375 410.4375 Q201.375 411.1875 201.03125 411.9375 Q200.6875 412.6875 199.9375 413.375 Q198.125 415.125 197.15625 416.21875 Q196.1875 417.3125 196 417.6875 L199.6875 417.6875 Q200.25 417.6875 200.625 417.25 Q201 416.8125 201.125 415.9375 L201.5 415.9375 L201.125 418.625 L195.3125 418.625 L195.3125 417.8125 Q195.625 417.25 196.34375 416.375 Q197.0625 415.5 198.25 414.3125 Q199.3125 413.25 199.8125 412.3125 Q200.3125 411.375 200.3125 410.5625 ZM203.5 420.0625 L203.0625 419.8125 L209.4375 406.4375 L209.875 406.6875 L203.5 420.0625 ZM215.0625 407.75 L215.0625 417.25 Q215.0625 417.75 215.375 418 Q215.6875 418.25 216.25 418.25 L216.875 418.25 L216.875 418.625 L212.3125 418.625 L212.3125 418.25 L212.875 418.25 Q213.5 418.25 213.78125 418 Q214.0625 417.75 214.0625 417.25 L214.0625 409.6875 Q214.0625 409.4375 213.90625 409.28125 Q213.75 409.125 213.4375 409.125 L212.3125 409.125 L212.3125 408.75 L212.875 408.75 Q213.625 408.75 214.09375 408.5 Q214.5625 408.25 214.8125 407.75 L215.0625 407.75 Z" />
    </g>
    <g transform="matrix(0.7071068,-0.7071068,0.7071068,0.7071068,-188.2841443,353.4418651)" style="text-rendering:optimizeLegibility; stroke-width:0.5; font-size:16; font-family:&apos;宋体&apos;;">
      <path d="M274.3125 410.5625 Q274.3125 409.4375 273.8125 408.84375 Q273.3125 408.25 272.3125 408.25 Q271.5625 408.25 271.03125 408.65625 Q270.5 409.0625 270.5 409.6875 Q270.5 410.0625 270.75 410.3125 Q270.9375 410.5625 270.9375 410.8125 Q270.9375 411.125 270.78125 411.28125 Q270.625 411.4375 270.3125 411.4375 Q269.9375 411.4375 269.71875 411.21875 Q269.5 411 269.5 410.5 Q269.5 409.1875 270.4375 408.5 Q271.375 407.8125 272.4375 407.8125 Q273.9375 407.8125 274.65625 408.5625 Q275.375 409.3125 275.375 410.4375 Q275.375 411.1875 275.03125 411.9375 Q274.6875 412.6875 273.9375 413.375 Q272.125 415.125 271.15625 416.21875 Q270.1875 417.3125 270 417.6875 L273.6875 417.6875 Q274.25 417.6875 274.625 417.25 Q275 416.8125 275.125 415.9375 L275.5 415.9375 L275.125 418.625 L269.3125 418.625 L269.3125 417.8125 Q269.625 417.25 270.34375 416.375 Q271.0625 415.5 272.25 414.3125 Q273.3125 413.25 273.8125 412.3125 Q274.3125 411.375 274.3125 410.5625 ZM280.5 408.3125 Q279.625 408.3125 279.03125 409.65625 Q278.4375 411 278.4375 413.25 Q278.4375 415.625 279.03125 416.9375 Q279.625 418.25 280.5 418.25 Q281.4375 418.25 281.96875 416.9375 Q282.5 415.625 282.5 413.25 Q282.5 411 282 409.65625 Q281.5 408.3125 280.5 408.3125 ZM280.5 418.75 Q279.125 418.75 278.1875 417.3125 Q277.25 415.875 277.25 413.25 Q277.25 410.8125 278.15625 409.3125 Q279.0625 407.8125 280.5 407.8125 Q281.875 407.8125 282.78125 409.25 Q283.6875 410.6875 283.6875 413.25 Q283.6875 415.8125 282.78125 417.28125 Q281.875 418.75 280.5 418.75 ZM291.5 415.75 Q291.5 416.9375 290.625 417.84375 Q289.75 418.75 288.1875 418.75 Q287.0625 418.75 286.25 418.125 Q285.4375 417.5 285.4375 416.6875 Q285.4375 416.3125 285.6875 416.03125 Q285.9375 415.75 286.1875 415.75 Q286.5625 415.75 286.71875 416.03125 Q286.875 416.3125 286.875 416.5 Q286.875 416.8125 286.75 417 Q286.625 417.25 286.625 417.4375 Q286.625 417.8125 287.09375 418.0625 Q287.5625 418.3125 288.125 418.3125 Q289.25 418.3125 289.8125 417.65625 Q290.375 417 290.375 415.625 Q290.375 414.5 289.78125 413.8125 Q289.1875 413.125 287.5625 413.125 L287.5625 412.6875 Q288.8125 412.6875 289.40625 412.09375 Q290 411.5 290 410.4375 Q290 409.5625 289.53125 408.90625 Q289.0625 408.25 288.0625 408.25 Q287.625 408.25 287.125 408.46875 Q286.625 408.6875 286.625 409.1875 Q286.625 409.6875 286.75 409.8125 Q286.875 409.9375 286.875 410.125 Q286.875 410.4375 286.75 410.625 Q286.625 410.8125 286.3125 410.8125 Q286.0625 410.8125 285.84375 410.625 Q285.625 410.4375 285.625 409.9375 Q285.625 409 286.4375 408.40625 Q287.25 407.8125 288.3125 407.8125 Q289.5625 407.8125 290.3125 408.59375 Q291.0625 409.375 291.0625 410.25 Q291.0625 411.1875 290.59375 411.84375 Q290.125 412.5 289.125 412.8125 Q290.5 413.3125 291 414.125 Q291.5 414.9375 291.5 415.75 ZM296.5 408.3125 Q295.625 408.3125 295.03125 409.65625 Q294.4375 411 294.4375 413.25 Q294.4375 415.625 295.03125 416.9375 Q295.625 418.25 296.5 418.25 Q297.4375 418.25 297.96875 416.9375 Q298.5 415.625 298.5 413.25 Q298.5 411 298 409.65625 Q297.5 408.3125 296.5 408.3125 ZM296.5 418.75 Q295.125 418.75 294.1875 417.3125 Q293.25 415.875 293.25 413.25 Q293.25 410.8125 294.15625 409.3125 Q295.0625 407.8125 296.5 407.8125 Q297.875 407.8125 298.78125 409.25 Q299.6875 410.6875 299.6875 413.25 Q299.6875 415.8125 298.78125 417.28125 Q297.875 418.75 296.5 418.75 ZM301.5 420.0625 L301.0625 419.8125 L307.4375 406.4375 L307.875 406.6875 L301.5 420.0625 ZM314.3125 410.5625 Q314.3125 409.4375 313.8125 408.84375 Q313.3125 408.25 312.3125 408.25 Q311.5625 408.25 311.03125 408.65625 Q310.5 409.0625 310.5 409.6875 Q310.5 410.0625 310.75 410.3125 Q310.9375 410.5625 310.9375 410.8125 Q310.9375 411.125 310.78125 411.28125 Q310.625 411.4375 310.3125 411.4375 Q309.9375 411.4375 309.71875 411.21875 Q309.5 411 309.5 410.5 Q309.5 409.1875 310.4375 408.5 Q311.375 407.8125 312.4375 407.8125 Q313.9375 407.8125 314.65625 408.5625 Q315.375 409.3125 315.375 410.4375 Q315.375 411.1875 315.03125 411.9375 Q314.6875 412.6875 313.9375 413.375 Q312.125 415.125 311.15625 416.21875 Q310.1875 417.3125 310 417.6875 L313.6875 417.6875 Q314.25 417.6875 314.625 417.25 Q315 416.8125 315.125 415.9375 L315.5 415.9375 L315.125 418.625 L309.3125 418.625 L309.3125 417.8125 Q309.625 417.25 310.34375 416.375 Q311.0625 415.5 312.25 414.3125 Q313.3125 413.25 313.8125 412.3125 Q314.3125 411.375 314.3125 410.5625 ZM317.5 420.0625 L317.0625 419.8125 L323.4375 406.4375 L323.875 406.6875 L317.5 420.0625 ZM331.5 415.75 Q331.5 416.9375 330.625 417.84375 Q329.75 418.75 328.1875 418.75 Q327.0625 418.75 326.25 418.125 Q325.4375 417.5 325.4375 416.6875 Q325.4375 416.3125 325.6875 416.03125 Q325.9375 415.75 326.1875 415.75 Q326.5625 415.75 326.71875 416.03125 Q326.875 416.3125 326.875 416.5 Q326.875 416.8125 326.75 417 Q326.625 417.25 326.625 417.4375 Q326.625 417.8125 327.09375 418.0625 Q327.5625 418.3125 328.125 418.3125 Q329.25 418.3125 329.8125 417.65625 Q330.375 417 330.375 415.625 Q330.375 414.5 329.78125 413.8125 Q329.1875 413.125 327.5625 413.125 L327.5625 412.6875 Q328.8125 412.6875 329.40625 412.09375 Q330 411.5 330 410.4375 Q330 409.5625 329.53125 408.90625 Q329.0625 408.25 328.0625 408.25 Q327.625 408.25 327.125 408.46875 Q326.625 408.6875 326.625 409.1875 Q326.625 409.6875 326.75 409.8125 Q326.875 409.9375 326.875 410.125 Q326.875 410.4375 326.75 410.625 Q326.625 410.8125 326.3125 410.8125 Q326.0625 410.8125 325.84375 410.625 Q325.625 410.4375 325.625 409.9375 Q325.625 409 326.4375 408.40625 Q327.25 407.8125 328.3125 407.8125 Q329.5625 407.8125 330.3125 408.59375 Q331.0625 409.375 331.0625 410.25 Q331.0625 411.1875 330.59375 411.84375 Q330.125 412.5 329.125 412.8125 Q330.5 413.3125 331 414.125 Q331.5 414.9375 331.5 415.75 Z" style="clip-path:url(#clipPath3); stroke:none;" />
    </g>
    <g transform="matrix(0.7071068,-0.7071068,0.7071068,0.7071068,-154.8943174,434.0520382)" style="text-rendering:optimizeLegibility; stroke-width:0.5; font-size:16; font-family:&apos;宋体&apos;;">
      <path d="M388.3125 410.5625 Q388.3125 409.4375 387.8125 408.84375 Q387.3125 408.25 386.3125 408.25 Q385.5625 408.25 385.03125 408.65625 Q384.5 409.0625 384.5 409.6875 Q384.5 410.0625 384.75 410.3125 Q384.9375 410.5625 384.9375 410.8125 Q384.9375 411.125 384.78125 411.28125 Q384.625 411.4375 384.3125 411.4375 Q383.9375 411.4375 383.71875 411.21875 Q383.5 411 383.5 410.5 Q383.5 409.1875 384.4375 408.5 Q385.375 407.8125 386.4375 407.8125 Q387.9375 407.8125 388.65625 408.5625 Q389.375 409.3125 389.375 410.4375 Q389.375 411.1875 389.03125 411.9375 Q388.6875 412.6875 387.9375 413.375 Q386.125 415.125 385.15625 416.21875 Q384.1875 417.3125 384 417.6875 L387.6875 417.6875 Q388.25 417.6875 388.625 417.25 Q389 416.8125 389.125 415.9375 L389.5 415.9375 L389.125 418.625 L383.3125 418.625 L383.3125 417.8125 Q383.625 417.25 384.34375 416.375 Q385.0625 415.5 386.25 414.3125 Q387.3125 413.25 387.8125 412.3125 Q388.3125 411.375 388.3125 410.5625 ZM394.5 408.3125 Q393.625 408.3125 393.03125 409.65625 Q392.4375 411 392.4375 413.25 Q392.4375 415.625 393.03125 416.9375 Q393.625 418.25 394.5 418.25 Q395.4375 418.25 395.96875 416.9375 Q396.5 415.625 396.5 413.25 Q396.5 411 396 409.65625 Q395.5 408.3125 394.5 408.3125 ZM394.5 418.75 Q393.125 418.75 392.1875 417.3125 Q391.25 415.875 391.25 413.25 Q391.25 410.8125 392.15625 409.3125 Q393.0625 407.8125 394.5 407.8125 Q395.875 407.8125 396.78125 409.25 Q397.6875 410.6875 397.6875 413.25 Q397.6875 415.8125 396.78125 417.28125 Q395.875 418.75 394.5 418.75 ZM404.25 417.4375 Q404.25 417.875 404.5 418.0625 Q404.75 418.25 405.1875 418.25 L405.75 418.25 L405.75 418.625 L401.625 418.625 L401.625 418.25 L402.3125 418.25 Q402.8125 418.25 403.03125 418.0625 Q403.25 417.875 403.25 417.4375 L403.25 415.375 L399.0625 415.375 L399.0625 415.0625 L403.625 407.8125 L404.25 407.8125 L404.25 415 L405.9375 415 L405.9375 415.375 L404.25 415.375 L404.25 417.4375 ZM403.1875 409.375 L399.625 415 L403.25 415 L403.25 409.375 L403.1875 409.375 ZM410.5 408.3125 Q409.625 408.3125 409.03125 409.65625 Q408.4375 411 408.4375 413.25 Q408.4375 415.625 409.03125 416.9375 Q409.625 418.25 410.5 418.25 Q411.4375 418.25 411.96875 416.9375 Q412.5 415.625 412.5 413.25 Q412.5 411 412 409.65625 Q411.5 408.3125 410.5 408.3125 ZM410.5 418.75 Q409.125 418.75 408.1875 417.3125 Q407.25 415.875 407.25 413.25 Q407.25 410.8125 408.15625 409.3125 Q409.0625 407.8125 410.5 407.8125 Q411.875 407.8125 412.78125 409.25 Q413.6875 410.6875 413.6875 413.25 Q413.6875 415.8125 412.78125 417.28125 Q411.875 418.75 410.5 418.75 ZM415.5 420.0625 L415.0625 419.8125 L421.4375 406.4375 L421.875 406.6875 L415.5 420.0625 ZM426.8125 411.75 Q428 411.75 428.75 412.65625 Q429.5 413.5625 429.5 415.0625 Q429.5 416.75 428.71875 417.75 Q427.9375 418.75 426.3125 418.75 Q425.1875 418.75 424.3125 418.09375 Q423.4375 417.4375 423.4375 416.5 Q423.4375 416.125 423.65625 415.84375 Q423.875 415.5625 424.25 415.5625 Q424.625 415.5625 424.75 415.8125 Q424.875 416.0625 424.875 416.25 Q424.875 416.625 424.6875 416.8125 Q424.5 417.0625 424.5 417.3125 Q424.5 417.8125 425.09375 418.0625 Q425.6875 418.3125 426.375 418.3125 Q427.375 418.3125 427.90625 417.5 Q428.4375 416.6875 428.4375 415.1875 Q428.4375 413.9375 427.96875 413.15625 Q427.5 412.375 426.5625 412.375 Q425.875 412.375 425.375 412.625 Q424.875 412.875 424.4375 413.6875 L423.875 413.625 L424.1875 407.9375 L429.3125 407.9375 L429.125 408.875 L424.625 408.875 L424.375 413 Q425 412.125 425.59375 411.9375 Q426.1875 411.75 426.8125 411.75 ZM431.5 420.0625 L431.0625 419.8125 L437.4375 406.4375 L437.875 406.6875 L431.5 420.0625 ZM442.8125 411.75 Q444 411.75 444.75 412.65625 Q445.5 413.5625 445.5 415.0625 Q445.5 416.75 444.71875 417.75 Q443.9375 418.75 442.3125 418.75 Q441.1875 418.75 440.3125 418.09375 Q439.4375 417.4375 439.4375 416.5 Q439.4375 416.125 439.65625 415.84375 Q439.875 415.5625 440.25 415.5625 Q440.625 415.5625 440.75 415.8125 Q440.875 416.0625 440.875 416.25 Q440.875 416.625 440.6875 416.8125 Q440.5 417.0625 440.5 417.3125 Q440.5 417.8125 441.09375 418.0625 Q441.6875 418.3125 442.375 418.3125 Q443.375 418.3125 443.90625 417.5 Q444.4375 416.6875 444.4375 415.1875 Q444.4375 413.9375 443.96875 413.15625 Q443.5 412.375 442.5625 412.375 Q441.875 412.375 441.375 412.625 Q440.875 412.875 440.4375 413.6875 L439.875 413.625 L440.1875 407.9375 L445.3125 407.9375 L445.125 408.875 L440.625 408.875 L440.375 413 Q441 412.125 441.59375 411.9375 Q442.1875 411.75 442.8125 411.75 Z" style="clip-path:url(#clipPath4); stroke:none;" />
    </g>
    <g transform="matrix(0.7071068,-0.7071068,0.7071068,0.7071068,-121.5044905,514.6622113)" style="text-rendering:optimizeLegibility; stroke-width:0.5; font-size:16; font-family:&apos;宋体&apos;;">
      <path d="M502.3125 410.5625 Q502.3125 409.4375 501.8125 408.84375 Q501.3125 408.25 500.3125 408.25 Q499.5625 408.25 499.03125 408.65625 Q498.5 409.0625 498.5 409.6875 Q498.5 410.0625 498.75 410.3125 Q498.9375 410.5625 498.9375 410.8125 Q498.9375 411.125 498.78125 411.28125 Q498.625 411.4375 498.3125 411.4375 Q497.9375 411.4375 497.71875 411.21875 Q497.5 411 497.5 410.5 Q497.5 409.1875 498.4375 408.5 Q499.375 407.8125 500.4375 407.8125 Q501.9375 407.8125 502.65625 408.5625 Q503.375 409.3125 503.375 410.4375 Q503.375 411.1875 503.03125 411.9375 Q502.6875 412.6875 501.9375 413.375 Q500.125 415.125 499.15625 416.21875 Q498.1875 417.3125 498 417.6875 L501.6875 417.6875 Q502.25 417.6875 502.625 417.25 Q503 416.8125 503.125 415.9375 L503.5 415.9375 L503.125 418.625 L497.3125 418.625 L497.3125 417.8125 Q497.625 417.25 498.34375 416.375 Q499.0625 415.5 500.25 414.3125 Q501.3125 413.25 501.8125 412.3125 Q502.3125 411.375 502.3125 410.5625 ZM508.5 408.3125 Q507.625 408.3125 507.03125 409.65625 Q506.4375 411 506.4375 413.25 Q506.4375 415.625 507.03125 416.9375 Q507.625 418.25 508.5 418.25 Q509.4375 418.25 509.96875 416.9375 Q510.5 415.625 510.5 413.25 Q510.5 411 510 409.65625 Q509.5 408.3125 508.5 408.3125 ZM508.5 418.75 Q507.125 418.75 506.1875 417.3125 Q505.25 415.875 505.25 413.25 Q505.25 410.8125 506.15625 409.3125 Q507.0625 407.8125 508.5 407.8125 Q509.875 407.8125 510.78125 409.25 Q511.6875 410.6875 511.6875 413.25 Q511.6875 415.8125 510.78125 417.28125 Q509.875 418.75 508.5 418.75 ZM516.8125 411.75 Q518 411.75 518.75 412.65625 Q519.5 413.5625 519.5 415.0625 Q519.5 416.75 518.71875 417.75 Q517.9375 418.75 516.3125 418.75 Q515.1875 418.75 514.3125 418.09375 Q513.4375 417.4375 513.4375 416.5 Q513.4375 416.125 513.65625 415.84375 Q513.875 415.5625 514.25 415.5625 Q514.625 415.5625 514.75 415.8125 Q514.875 416.0625 514.875 416.25 Q514.875 416.625 514.6875 416.8125 Q514.5 417.0625 514.5 417.3125 Q514.5 417.8125 515.09375 418.0625 Q515.6875 418.3125 516.375 418.3125 Q517.375 418.3125 517.90625 417.5 Q518.4375 416.6875 518.4375 415.1875 Q518.4375 413.9375 517.96875 413.15625 Q517.5 412.375 516.5625 412.375 Q515.875 412.375 515.375 412.625 Q514.875 412.875 514.4375 413.6875 L513.875 413.625 L514.1875 407.9375 L519.3125 407.9375 L519.125 408.875 L514.625 408.875 L514.375 413 Q515 412.125 515.59375 411.9375 Q516.1875 411.75 516.8125 411.75 ZM524.5 408.3125 Q523.625 408.3125 523.03125 409.65625 Q522.4375 411 522.4375 413.25 Q522.4375 415.625 523.03125 416.9375 Q523.625 418.25 524.5 418.25 Q525.4375 418.25 525.96875 416.9375 Q526.5 415.625 526.5 413.25 Q526.5 411 526 409.65625 Q525.5 408.3125 524.5 408.3125 ZM524.5 418.75 Q523.125 418.75 522.1875 417.3125 Q521.25 415.875 521.25 413.25 Q521.25 410.8125 522.15625 409.3125 Q523.0625 407.8125 524.5 407.8125 Q525.875 407.8125 526.78125 409.25 Q527.6875 410.6875 527.6875 413.25 Q527.6875 415.8125 526.78125 417.28125 Q525.875 418.75 524.5 418.75 ZM529.5 420.0625 L529.0625 419.8125 L535.4375 406.4375 L535.875 406.6875 L529.5 420.0625 ZM538.4375 414.375 Q538.4375 416.25 539.09375 417.28125 Q539.75 418.3125 540.6875 418.3125 Q541.625 418.3125 542.125 417.625 Q542.625 416.9375 542.625 415.0625 Q542.625 413.8125 542.09375 413.125 Q541.5625 412.4375 540.8125 412.4375 Q540.125 412.4375 539.53125 412.84375 Q538.9375 413.25 538.4375 414.375 ZM540.875 411.8125 Q542.375 411.8125 543.03125 412.8125 Q543.6875 413.8125 543.6875 415.0625 Q543.6875 416.9375 542.78125 417.84375 Q541.875 418.75 540.6875 418.75 Q539 418.75 538.125 417.46875 Q537.25 416.1875 537.25 413.75 Q537.25 410.875 538.3125 409.34375 Q539.375 407.8125 541.1875 407.8125 Q542.0625 407.8125 542.59375 408.3125 Q543.125 408.8125 543.125 409.1875 Q543.125 409.5625 542.96875 409.75 Q542.8125 409.9375 542.4375 409.9375 Q542.125 409.9375 541.96875 409.78125 Q541.8125 409.625 541.8125 409.3125 Q541.8125 409.1875 541.875 409.0625 Q541.875 408.9375 541.875 408.8125 Q541.875 408.5625 541.6875 408.40625 Q541.5 408.25 541 408.25 Q539.9375 408.25 539.1875 409.21875 Q538.4375 410.1875 538.4375 413.4375 Q538.8125 412.625 539.46875 412.21875 Q540.125 411.8125 540.875 411.8125 ZM545.5 420.0625 L545.0625 419.8125 L551.4375 406.4375 L551.875 406.6875 L545.5 420.0625 ZM554.4375 414.375 Q554.4375 416.25 555.09375 417.28125 Q555.75 418.3125 556.6875 418.3125 Q557.625 418.3125 558.125 417.625 Q558.625 416.9375 558.625 415.0625 Q558.625 413.8125 558.09375 413.125 Q557.5625 412.4375 556.8125 412.4375 Q556.125 412.4375 555.53125 412.84375 Q554.9375 413.25 554.4375 414.375 ZM556.875 411.8125 Q558.375 411.8125 559.03125 412.8125 Q559.6875 413.8125 559.6875 415.0625 Q559.6875 416.9375 558.78125 417.84375 Q557.875 418.75 556.6875 418.75 Q555 418.75 554.125 417.46875 Q553.25 416.1875 553.25 413.75 Q553.25 410.875 554.3125 409.34375 Q555.375 407.8125 557.1875 407.8125 Q558.0625 407.8125 558.59375 408.3125 Q559.125 408.8125 559.125 409.1875 Q559.125 409.5625 558.96875 409.75 Q558.8125 409.9375 558.4375 409.9375 Q558.125 409.9375 557.96875 409.78125 Q557.8125 409.625 557.8125 409.3125 Q557.8125 409.1875 557.875 409.0625 Q557.875 408.9375 557.875 408.8125 Q557.875 408.5625 557.6875 408.40625 Q557.5 408.25 557 408.25 Q555.9375 408.25 555.1875 409.21875 Q554.4375 410.1875 554.4375 413.4375 Q554.8125 412.625 555.46875 412.21875 Q556.125 411.8125 556.875 411.8125 Z" style="clip-path:url(#clipPath5); stroke:none;" />
    </g>
    <g transform="matrix(0.7071068,-0.7071068,0.7071068,0.7071068,-88.1146635,595.2723843)" style="text-rendering:optimizeLegibility; stroke-width:0.5; font-size:16; font-family:&apos;宋体&apos;;">
      <path d="M616.3125 410.5625 Q616.3125 409.4375 615.8125 408.84375 Q615.3125 408.25 614.3125 408.25 Q613.5625 408.25 613.03125 408.65625 Q612.5 409.0625 612.5 409.6875 Q612.5 410.0625 612.75 410.3125 Q612.9375 410.5625 612.9375 410.8125 Q612.9375 411.125 612.78125 411.28125 Q612.625 411.4375 612.3125 411.4375 Q611.9375 411.4375 611.71875 411.21875 Q611.5 411 611.5 410.5 Q611.5 409.1875 612.4375 408.5 Q613.375 407.8125 614.4375 407.8125 Q615.9375 407.8125 616.65625 408.5625 Q617.375 409.3125 617.375 410.4375 Q617.375 411.1875 617.03125 411.9375 Q616.6875 412.6875 615.9375 413.375 Q614.125 415.125 613.15625 416.21875 Q612.1875 417.3125 612 417.6875 L615.6875 417.6875 Q616.25 417.6875 616.625 417.25 Q617 416.8125 617.125 415.9375 L617.5 415.9375 L617.125 418.625 L611.3125 418.625 L611.3125 417.8125 Q611.625 417.25 612.34375 416.375 Q613.0625 415.5 614.25 414.3125 Q615.3125 413.25 615.8125 412.3125 Q616.3125 411.375 616.3125 410.5625 ZM622.5 408.3125 Q621.625 408.3125 621.03125 409.65625 Q620.4375 411 620.4375 413.25 Q620.4375 415.625 621.03125 416.9375 Q621.625 418.25 622.5 418.25 Q623.4375 418.25 623.96875 416.9375 Q624.5 415.625 624.5 413.25 Q624.5 411 624 409.65625 Q623.5 408.3125 622.5 408.3125 ZM622.5 418.75 Q621.125 418.75 620.1875 417.3125 Q619.25 415.875 619.25 413.25 Q619.25 410.8125 620.15625 409.3125 Q621.0625 407.8125 622.5 407.8125 Q623.875 407.8125 624.78125 409.25 Q625.6875 410.6875 625.6875 413.25 Q625.6875 415.8125 624.78125 417.28125 Q623.875 418.75 622.5 418.75 ZM628.4375 414.375 Q628.4375 416.25 629.09375 417.28125 Q629.75 418.3125 630.6875 418.3125 Q631.625 418.3125 632.125 417.625 Q632.625 416.9375 632.625 415.0625 Q632.625 413.8125 632.09375 413.125 Q631.5625 412.4375 630.8125 412.4375 Q630.125 412.4375 629.53125 412.84375 Q628.9375 413.25 628.4375 414.375 ZM630.875 411.8125 Q632.375 411.8125 633.03125 412.8125 Q633.6875 413.8125 633.6875 415.0625 Q633.6875 416.9375 632.78125 417.84375 Q631.875 418.75 630.6875 418.75 Q629 418.75 628.125 417.46875 Q627.25 416.1875 627.25 413.75 Q627.25 410.875 628.3125 409.34375 Q629.375 407.8125 631.1875 407.8125 Q632.0625 407.8125 632.59375 408.3125 Q633.125 408.8125 633.125 409.1875 Q633.125 409.5625 632.96875 409.75 Q632.8125 409.9375 632.4375 409.9375 Q632.125 409.9375 631.96875 409.78125 Q631.8125 409.625 631.8125 409.3125 Q631.8125 409.1875 631.875 409.0625 Q631.875 408.9375 631.875 408.8125 Q631.875 408.5625 631.6875 408.40625 Q631.5 408.25 631 408.25 Q629.9375 408.25 629.1875 409.21875 Q628.4375 410.1875 628.4375 413.4375 Q628.8125 412.625 629.46875 412.21875 Q630.125 411.8125 630.875 411.8125 ZM638.5 408.3125 Q637.625 408.3125 637.03125 409.65625 Q636.4375 411 636.4375 413.25 Q636.4375 415.625 637.03125 416.9375 Q637.625 418.25 638.5 418.25 Q639.4375 418.25 639.96875 416.9375 Q640.5 415.625 640.5 413.25 Q640.5 411 640 409.65625 Q639.5 408.3125 638.5 408.3125 ZM638.5 418.75 Q637.125 418.75 636.1875 417.3125 Q635.25 415.875 635.25 413.25 Q635.25 410.8125 636.15625 409.3125 Q637.0625 407.8125 638.5 407.8125 Q639.875 407.8125 640.78125 409.25 Q641.6875 410.6875 641.6875 413.25 Q641.6875 415.8125 640.78125 417.28125 Q639.875 418.75 638.5 418.75 ZM643.5 420.0625 L643.0625 419.8125 L649.4375 406.4375 L649.875 406.6875 L643.5 420.0625 ZM657.5625 408.375 Q656.25 410.5 655.46875 412.53125 Q654.6875 414.5625 654.6875 416.0625 Q654.6875 416.3125 654.75 416.75 Q654.75 417.25 654.75 417.875 Q654.75 418.375 654.59375 418.5625 Q654.4375 418.75 654.0625 418.75 Q653.75 418.75 653.53125 418.53125 Q653.3125 418.3125 653.3125 417.75 Q653.3125 416.5625 653.84375 414.8125 Q654.375 413.0625 656.6875 408.875 L653.5625 408.875 Q652.875 408.875 652.46875 409.3125 Q652.0625 409.75 651.875 410.625 L651.5 410.5625 L651.9375 407.9375 L657.5625 407.9375 L657.5625 408.375 ZM659.5 420.0625 L659.0625 419.8125 L665.4375 406.4375 L665.875 406.6875 L659.5 420.0625 ZM670.8125 411.75 Q672 411.75 672.75 412.65625 Q673.5 413.5625 673.5 415.0625 Q673.5 416.75 672.71875 417.75 Q671.9375 418.75 670.3125 418.75 Q669.1875 418.75 668.3125 418.09375 Q667.4375 417.4375 667.4375 416.5 Q667.4375 416.125 667.65625 415.84375 Q667.875 415.5625 668.25 415.5625 Q668.625 415.5625 668.75 415.8125 Q668.875 416.0625 668.875 416.25 Q668.875 416.625 668.6875 416.8125 Q668.5 417.0625 668.5 417.3125 Q668.5 417.8125 669.09375 418.0625 Q669.6875 418.3125 670.375 418.3125 Q671.375 418.3125 671.90625 417.5 Q672.4375 416.6875 672.4375 415.1875 Q672.4375 413.9375 671.96875 413.15625 Q671.5 412.375 670.5625 412.375 Q669.875 412.375 669.375 412.625 Q668.875 412.875 668.4375 413.6875 L667.875 413.625 L668.1875 407.9375 L673.3125 407.9375 L673.125 408.875 L668.625 408.875 L668.375 413 Q669 412.125 669.59375 411.9375 Q670.1875 411.75 670.8125 411.75 Z" style="clip-path:url(#clipPath6); stroke:none;" />
    </g>
    <g transform="matrix(0.7071068,-0.7071068,0.7071068,0.7071068,-54.7248366,675.8825574)" style="text-rendering:optimizeLegibility; stroke-width:0.5; font-size:16; font-family:&apos;宋体&apos;;">
      <path d="M722.3125 410.5625 Q722.3125 409.4375 721.8125 408.84375 Q721.3125 408.25 720.3125 408.25 Q719.5625 408.25 719.03125 408.65625 Q718.5 409.0625 718.5 409.6875 Q718.5 410.0625 718.75 410.3125 Q718.9375 410.5625 718.9375 410.8125 Q718.9375 411.125 718.78125 411.28125 Q718.625 411.4375 718.3125 411.4375 Q717.9375 411.4375 717.71875 411.21875 Q717.5 411 717.5 410.5 Q717.5 409.1875 718.4375 408.5 Q719.375 407.8125 720.4375 407.8125 Q721.9375 407.8125 722.65625 408.5625 Q723.375 409.3125 723.375 410.4375 Q723.375 411.1875 723.03125 411.9375 Q722.6875 412.6875 721.9375 413.375 Q720.125 415.125 719.15625 416.21875 Q718.1875 417.3125 718 417.6875 L721.6875 417.6875 Q722.25 417.6875 722.625 417.25 Q723 416.8125 723.125 415.9375 L723.5 415.9375 L723.125 418.625 L717.3125 418.625 L717.3125 417.8125 Q717.625 417.25 718.34375 416.375 Q719.0625 415.5 720.25 414.3125 Q721.3125 413.25 721.8125 412.3125 Q722.3125 411.375 722.3125 410.5625 ZM728.5 408.3125 Q727.625 408.3125 727.03125 409.65625 Q726.4375 411 726.4375 413.25 Q726.4375 415.625 727.03125 416.9375 Q727.625 418.25 728.5 418.25 Q729.4375 418.25 729.96875 416.9375 Q730.5 415.625 730.5 413.25 Q730.5 411 730 409.65625 Q729.5 408.3125 728.5 408.3125 ZM728.5 418.75 Q727.125 418.75 726.1875 417.3125 Q725.25 415.875 725.25 413.25 Q725.25 410.8125 726.15625 409.3125 Q727.0625 407.8125 728.5 407.8125 Q729.875 407.8125 730.78125 409.25 Q731.6875 410.6875 731.6875 413.25 Q731.6875 415.8125 730.78125 417.28125 Q729.875 418.75 728.5 418.75 ZM739.5625 408.375 Q738.25 410.5 737.46875 412.53125 Q736.6875 414.5625 736.6875 416.0625 Q736.6875 416.3125 736.75 416.75 Q736.75 417.25 736.75 417.875 Q736.75 418.375 736.59375 418.5625 Q736.4375 418.75 736.0625 418.75 Q735.75 418.75 735.53125 418.53125 Q735.3125 418.3125 735.3125 417.75 Q735.3125 416.5625 735.84375 414.8125 Q736.375 413.0625 738.6875 408.875 L735.5625 408.875 Q734.875 408.875 734.46875 409.3125 Q734.0625 409.75 733.875 410.625 L733.5 410.5625 L733.9375 407.9375 L739.5625 407.9375 L739.5625 408.375 ZM744.5 408.3125 Q743.625 408.3125 743.03125 409.65625 Q742.4375 411 742.4375 413.25 Q742.4375 415.625 743.03125 416.9375 Q743.625 418.25 744.5 418.25 Q745.4375 418.25 745.96875 416.9375 Q746.5 415.625 746.5 413.25 Q746.5 411 746 409.65625 Q745.5 408.3125 744.5 408.3125 ZM744.5 418.75 Q743.125 418.75 742.1875 417.3125 Q741.25 415.875 741.25 413.25 Q741.25 410.8125 742.15625 409.3125 Q743.0625 407.8125 744.5 407.8125 Q745.875 407.8125 746.78125 409.25 Q747.6875 410.6875 747.6875 413.25 Q747.6875 415.8125 746.78125 417.28125 Q745.875 418.75 744.5 418.75 ZM749.5 420.0625 L749.0625 419.8125 L755.4375 406.4375 L755.875 406.6875 L749.5 420.0625 ZM758.0625 416.0625 Q758.0625 417.0625 758.71875 417.6875 Q759.375 418.3125 760.375 418.3125 Q761.5625 418.3125 762.09375 417.6875 Q762.625 417.0625 762.625 416.125 Q762.625 415.3125 761.875 414.5625 Q761.125 413.8125 759.625 413.1875 Q758.875 413.6875 758.46875 414.4375 Q758.0625 415.1875 758.0625 416.0625 ZM763.5625 415.9375 Q763.5625 417.125 762.6875 417.9375 Q761.8125 418.75 760.375 418.75 Q759.0625 418.75 758.125 417.9375 Q757.1875 417.125 757.1875 416.0625 Q757.1875 415 757.71875 414.25 Q758.25 413.5 759.25 412.9375 Q758.375 412.5 757.90625 411.84375 Q757.4375 411.1875 757.4375 410.375 Q757.4375 409.3125 758.25 408.5625 Q759.0625 407.8125 760.5 407.8125 Q761.8125 407.8125 762.625 408.5625 Q763.4375 409.3125 763.4375 410.375 Q763.4375 411.125 762.96875 411.78125 Q762.5 412.4375 761.5 412.9375 Q762.5625 413.5625 763.0625 414.3125 Q763.5625 415.0625 763.5625 415.9375 ZM762.5625 410.4375 Q762.5625 409.5625 762.0625 408.90625 Q761.5625 408.25 760.5 408.25 Q759.3125 408.25 758.8125 408.875 Q758.3125 409.5 758.3125 410.1875 Q758.3125 410.875 759.03125 411.53125 Q759.75 412.1875 761.0625 412.6875 Q761.8125 412.3125 762.1875 411.75 Q762.5625 411.1875 762.5625 410.4375 ZM765.5 420.0625 L765.0625 419.8125 L771.4375 406.4375 L771.875 406.6875 L765.5 420.0625 ZM778.3125 410.5625 Q778.3125 409.4375 777.8125 408.84375 Q777.3125 408.25 776.3125 408.25 Q775.5625 408.25 775.03125 408.65625 Q774.5 409.0625 774.5 409.6875 Q774.5 410.0625 774.75 410.3125 Q774.9375 410.5625 774.9375 410.8125 Q774.9375 411.125 774.78125 411.28125 Q774.625 411.4375 774.3125 411.4375 Q773.9375 411.4375 773.71875 411.21875 Q773.5 411 773.5 410.5 Q773.5 409.1875 774.4375 408.5 Q775.375 407.8125 776.4375 407.8125 Q777.9375 407.8125 778.65625 408.5625 Q779.375 409.3125 779.375 410.4375 Q779.375 411.1875 779.03125 411.9375 Q778.6875 412.6875 777.9375 413.375 Q776.125 415.125 775.15625 416.21875 Q774.1875 417.3125 774 417.6875 L777.6875 417.6875 Q778.25 417.6875 778.625 417.25 Q779 416.8125 779.125 415.9375 L779.5 415.9375 L779.125 418.625 L773.3125 418.625 L773.3125 417.8125 Q773.625 417.25 774.34375 416.375 Q775.0625 415.5 776.25 414.3125 Q777.3125 413.25 777.8125 412.3125 Q778.3125 411.375 778.3125 410.5625 ZM785.0625 407.75 L785.0625 417.25 Q785.0625 417.75 785.375 418 Q785.6875 418.25 786.25 418.25 L786.875 418.25 L786.875 418.625 L782.3125 418.625 L782.3125 418.25 L782.875 418.25 Q783.5 418.25 783.78125 418 Q784.0625 417.75 784.0625 417.25 L784.0625 409.6875 Q784.0625 409.4375 783.90625 409.28125 Q783.75 409.125 783.4375 409.125 L782.3125 409.125 L782.3125 408.75 L782.875 408.75 Q783.625 408.75 784.09375 408.5 Q784.5625 408.25 784.8125 407.75 L785.0625 407.75 Z" style="clip-path:url(#clipPath7); stroke:none;" />
    </g>
    <g transform="matrix(0.7071068,-0.7071068,0.7071068,0.7071068,-21.3350096,756.4927304)" style="text-rendering:optimizeLegibility; stroke-width:0.5; font-size:16; font-family:&apos;宋体&apos;;">
      <path d="M836.3125 410.5625 Q836.3125 409.4375 835.8125 408.84375 Q835.3125 408.25 834.3125 408.25 Q833.5625 408.25 833.03125 408.65625 Q832.5 409.0625 832.5 409.6875 Q832.5 410.0625 832.75 410.3125 Q832.9375 410.5625 832.9375 410.8125 Q832.9375 411.125 832.78125 411.28125 Q832.625 411.4375 832.3125 411.4375 Q831.9375 411.4375 831.71875 411.21875 Q831.5 411 831.5 410.5 Q831.5 409.1875 832.4375 408.5 Q833.375 407.8125 834.4375 407.8125 Q835.9375 407.8125 836.65625 408.5625 Q837.375 409.3125 837.375 410.4375 Q837.375 411.1875 837.03125 411.9375 Q836.6875 412.6875 835.9375 413.375 Q834.125 415.125 833.15625 416.21875 Q832.1875 417.3125 832 417.6875 L835.6875 417.6875 Q836.25 417.6875 836.625 417.25 Q837 416.8125 837.125 415.9375 L837.5 415.9375 L837.125 418.625 L831.3125 418.625 L831.3125 417.8125 Q831.625 417.25 832.34375 416.375 Q833.0625 415.5 834.25 414.3125 Q835.3125 413.25 835.8125 412.3125 Q836.3125 411.375 836.3125 410.5625 ZM842.5 408.3125 Q841.625 408.3125 841.03125 409.65625 Q840.4375 411 840.4375 413.25 Q840.4375 415.625 841.03125 416.9375 Q841.625 418.25 842.5 418.25 Q843.4375 418.25 843.96875 416.9375 Q844.5 415.625 844.5 413.25 Q844.5 411 844 409.65625 Q843.5 408.3125 842.5 408.3125 ZM842.5 418.75 Q841.125 418.75 840.1875 417.3125 Q839.25 415.875 839.25 413.25 Q839.25 410.8125 840.15625 409.3125 Q841.0625 407.8125 842.5 407.8125 Q843.875 407.8125 844.78125 409.25 Q845.6875 410.6875 845.6875 413.25 Q845.6875 415.8125 844.78125 417.28125 Q843.875 418.75 842.5 418.75 ZM848.0625 416.0625 Q848.0625 417.0625 848.71875 417.6875 Q849.375 418.3125 850.375 418.3125 Q851.5625 418.3125 852.09375 417.6875 Q852.625 417.0625 852.625 416.125 Q852.625 415.3125 851.875 414.5625 Q851.125 413.8125 849.625 413.1875 Q848.875 413.6875 848.46875 414.4375 Q848.0625 415.1875 848.0625 416.0625 ZM853.5625 415.9375 Q853.5625 417.125 852.6875 417.9375 Q851.8125 418.75 850.375 418.75 Q849.0625 418.75 848.125 417.9375 Q847.1875 417.125 847.1875 416.0625 Q847.1875 415 847.71875 414.25 Q848.25 413.5 849.25 412.9375 Q848.375 412.5 847.90625 411.84375 Q847.4375 411.1875 847.4375 410.375 Q847.4375 409.3125 848.25 408.5625 Q849.0625 407.8125 850.5 407.8125 Q851.8125 407.8125 852.625 408.5625 Q853.4375 409.3125 853.4375 410.375 Q853.4375 411.125 852.96875 411.78125 Q852.5 412.4375 851.5 412.9375 Q852.5625 413.5625 853.0625 414.3125 Q853.5625 415.0625 853.5625 415.9375 ZM852.5625 410.4375 Q852.5625 409.5625 852.0625 408.90625 Q851.5625 408.25 850.5 408.25 Q849.3125 408.25 848.8125 408.875 Q848.3125 409.5 848.3125 410.1875 Q848.3125 410.875 849.03125 411.53125 Q849.75 412.1875 851.0625 412.6875 Q851.8125 412.3125 852.1875 411.75 Q852.5625 411.1875 852.5625 410.4375 ZM858.5 408.3125 Q857.625 408.3125 857.03125 409.65625 Q856.4375 411 856.4375 413.25 Q856.4375 415.625 857.03125 416.9375 Q857.625 418.25 858.5 418.25 Q859.4375 418.25 859.96875 416.9375 Q860.5 415.625 860.5 413.25 Q860.5 411 860 409.65625 Q859.5 408.3125 858.5 408.3125 ZM858.5 418.75 Q857.125 418.75 856.1875 417.3125 Q855.25 415.875 855.25 413.25 Q855.25 410.8125 856.15625 409.3125 Q857.0625 407.8125 858.5 407.8125 Q859.875 407.8125 860.78125 409.25 Q861.6875 410.6875 861.6875 413.25 Q861.6875 415.8125 860.78125 417.28125 Q859.875 418.75 858.5 418.75 ZM863.5 420.0625 L863.0625 419.8125 L869.4375 406.4375 L869.875 406.6875 L863.5 420.0625 ZM872.0625 416.0625 Q872.0625 417.0625 872.71875 417.6875 Q873.375 418.3125 874.375 418.3125 Q875.5625 418.3125 876.09375 417.6875 Q876.625 417.0625 876.625 416.125 Q876.625 415.3125 875.875 414.5625 Q875.125 413.8125 873.625 413.1875 Q872.875 413.6875 872.46875 414.4375 Q872.0625 415.1875 872.0625 416.0625 ZM877.5625 415.9375 Q877.5625 417.125 876.6875 417.9375 Q875.8125 418.75 874.375 418.75 Q873.0625 418.75 872.125 417.9375 Q871.1875 417.125 871.1875 416.0625 Q871.1875 415 871.71875 414.25 Q872.25 413.5 873.25 412.9375 Q872.375 412.5 871.90625 411.84375 Q871.4375 411.1875 871.4375 410.375 Q871.4375 409.3125 872.25 408.5625 Q873.0625 407.8125 874.5 407.8125 Q875.8125 407.8125 876.625 408.5625 Q877.4375 409.3125 877.4375 410.375 Q877.4375 411.125 876.96875 411.78125 Q876.5 412.4375 875.5 412.9375 Q876.5625 413.5625 877.0625 414.3125 Q877.5625 415.0625 877.5625 415.9375 ZM876.5625 410.4375 Q876.5625 409.5625 876.0625 408.90625 Q875.5625 408.25 874.5 408.25 Q873.3125 408.25 872.8125 408.875 Q872.3125 409.5 872.3125 410.1875 Q872.3125 410.875 873.03125 411.53125 Q873.75 412.1875 875.0625 412.6875 Q875.8125 412.3125 876.1875 411.75 Q876.5625 411.1875 876.5625 410.4375 ZM879.5 420.0625 L879.0625 419.8125 L885.4375 406.4375 L885.875 406.6875 L879.5 420.0625 ZM892.3125 410.5625 Q892.3125 409.4375 891.8125 408.84375 Q891.3125 408.25 890.3125 408.25 Q889.5625 408.25 889.03125 408.65625 Q888.5 409.0625 888.5 409.6875 Q888.5 410.0625 888.75 410.3125 Q888.9375 410.5625 888.9375 410.8125 Q888.9375 411.125 888.78125 411.28125 Q888.625 411.4375 888.3125 411.4375 Q887.9375 411.4375 887.71875 411.21875 Q887.5 411 887.5 410.5 Q887.5 409.1875 888.4375 408.5 Q889.375 407.8125 890.4375 407.8125 Q891.9375 407.8125 892.65625 408.5625 Q893.375 409.3125 893.375 410.4375 Q893.375 411.1875 893.03125 411.9375 Q892.6875 412.6875 891.9375 413.375 Q890.125 415.125 889.15625 416.21875 Q888.1875 417.3125 888 417.6875 L891.6875 417.6875 Q892.25 417.6875 892.625 417.25 Q893 416.8125 893.125 415.9375 L893.5 415.9375 L893.125 418.625 L887.3125 418.625 L887.3125 417.8125 Q887.625 417.25 888.34375 416.375 Q889.0625 415.5 890.25 414.3125 Q891.3125 413.25 891.8125 412.3125 Q892.3125 411.375 892.3125 410.5625 ZM900.3125 410.5625 Q900.3125 409.4375 899.8125 408.84375 Q899.3125 408.25 898.3125 408.25 Q897.5625 408.25 897.03125 408.65625 Q896.5 409.0625 896.5 409.6875 Q896.5 410.0625 896.75 410.3125 Q896.9375 410.5625 896.9375 410.8125 Q896.9375 411.125 896.78125 411.28125 Q896.625 411.4375 896.3125 411.4375 Q895.9375 411.4375 895.71875 411.21875 Q895.5 411 895.5 410.5 Q895.5 409.1875 896.4375 408.5 Q897.375 407.8125 898.4375 407.8125 Q899.9375 407.8125 900.65625 408.5625 Q901.375 409.3125 901.375 410.4375 Q901.375 411.1875 901.03125 411.9375 Q900.6875 412.6875 899.9375 413.375 Q898.125 415.125 897.15625 416.21875 Q896.1875 417.3125 896 417.6875 L899.6875 417.6875 Q900.25 417.6875 900.625 417.25 Q901 416.8125 901.125 415.9375 L901.5 415.9375 L901.125 418.625 L895.3125 418.625 L895.3125 417.8125 Q895.625 417.25 896.34375 416.375 Q897.0625 415.5 898.25 414.3125 Q899.3125 413.25 899.8125 412.3125 Q900.3125 411.375 900.3125 410.5625 Z" style="clip-path:url(#clipPath8); stroke:none;" />
    </g>
    <g style="font-size:16; fill:rgb(64,64,64); text-rendering:optimizeLegibility; font-family:&apos;宋体&apos;; stroke:rgb(64,64,64); stroke-width:0.5;">
      <text x="544.5" y="490.9717102" style="clip-path:url(#clipPath1); stroke:none;" xml:space="preserve">时间</text>
      <text x="35" y="400.125" style="clip-path:url(#clipPath1); fill:blue; stroke:none;" xml:space="preserve">-220000000%</text>
      <text x="35" y="392.6458435" style="clip-path:url(#clipPath1); fill:blue; stroke:none;" xml:space="preserve">-210000000%</text>
      <text x="35" y="385.1666565" style="clip-path:url(#clipPath1); fill:blue; stroke:none;" xml:space="preserve">-200000000%</text>
      <text x="35" y="377.6875" style="clip-path:url(#clipPath1); fill:blue; stroke:none;" xml:space="preserve">-190000000%</text>
      <text x="35" y="370.2083435" style="clip-path:url(#clipPath1); fill:blue; stroke:none;" xml:space="preserve">-180000000%</text>
      <text x="35" y="362.7291565" style="clip-path:url(#clipPath1); fill:blue; stroke:none;" xml:space="preserve">-170000000%</text>
      <text x="35" y="355.25" style="clip-path:url(#clipPath1); fill:blue; stroke:none;" xml:space="preserve">-160000000%</text>
      <text x="35" y="347.7708435" style="clip-path:url(#clipPath1); fill:blue; stroke:none;" xml:space="preserve">-150000000%</text>
      <text x="35" y="340.2916565" style="clip-path:url(#clipPath1); fill:blue; stroke:none;" xml:space="preserve">-140000000%</text>
      <text x="35" y="332.8125" style="clip-path:url(#clipPath1); fill:blue; stroke:none;" xml:space="preserve">-130000000%</text>
      <text x="35" y="325.3333435" style="clip-path:url(#clipPath1); fill:blue; stroke:none;" xml:space="preserve">-120000000%</text>
      <text x="35" y="317.8541565" style="clip-path:url(#clipPath1); fill:blue; stroke:none;" xml:space="preserve">-110000000%</text>
      <text x="35" y="310.375" style="clip-path:url(#clipPath1); fill:blue; stroke:none;" xml:space="preserve">-100000000%</text>
      <text x="43" y="302.8958435" style="clip-path:url(#clipPath1); fill:blue; stroke:none;" xml:space="preserve">-90000000%</text>
      <text x="43" y="295.4166565" style="clip-path:url(#clipPath1); fill:blue; stroke:none;" xml:space="preserve">-80000000%</text>
      <text x="43" y="287.9375" style="clip-path:url(#clipPath1); fill:blue; stroke:none;" xml:space="preserve">-70000000%</text>
      <text x="43" y="280.4583435" style="clip-path:url(#clipPath1); fill:blue; stroke:none;" xml:space="preserve">-60000000%</text>
      <text x="43" y="272.9791565" style="clip-path:url(#clipPath1); fill:blue; stroke:none;" xml:space="preserve">-50000000%</text>
      <text x="43" y="265.5" style="clip-path:url(#clipPath1); fill:blue; stroke:none;" xml:space="preserve">-40000000%</text>
      <text x="43" y="258.020813" style="clip-path:url(#clipPath1); fill:blue; stroke:none;" xml:space="preserve">-30000000%</text>
      <text x="43" y="250.5416718" style="clip-path:url(#clipPath1); fill:blue; stroke:none;" xml:space="preserve">-20000000%</text>
      <text x="43" y="243.0625" style="clip-path:url(#clipPath1); fill:blue; stroke:none;" xml:space="preserve">-10000000%</text>
      <text x="107" y="235.5833282" style="clip-path:url(#clipPath1); fill:blue; stroke:none;" xml:space="preserve">0%</text>
      <text x="51" y="228.1041718" style="clip-path:url(#clipPath1); fill:blue; stroke:none;" xml:space="preserve">10000000%</text>
      <text x="51" y="220.625" style="clip-path:url(#clipPath1); fill:blue; stroke:none;" xml:space="preserve">20000000%</text>
      <text x="51" y="213.1458282" style="clip-path:url(#clipPath1); fill:blue; stroke:none;" xml:space="preserve">30000000%</text>
      <text x="51" y="205.6666718" style="clip-path:url(#clipPath1); fill:blue; stroke:none;" xml:space="preserve">40000000%</text>
      <text x="51" y="198.1875" style="clip-path:url(#clipPath1); fill:blue; stroke:none;" xml:space="preserve">50000000%</text>
      <text x="51" y="190.7083282" style="clip-path:url(#clipPath1); fill:blue; stroke:none;" xml:space="preserve">60000000%</text>
      <text x="51" y="183.2291718" style="clip-path:url(#clipPath1); fill:blue; stroke:none;" xml:space="preserve">70000000%</text>
      <text x="51" y="175.75" style="clip-path:url(#clipPath1); fill:blue; stroke:none;" xml:space="preserve">80000000%</text>
      <text x="51" y="168.2708282" style="clip-path:url(#clipPath1); fill:blue; stroke:none;" xml:space="preserve">90000000%</text>
      <text x="43" y="160.7916718" style="clip-path:url(#clipPath1); fill:blue; stroke:none;" xml:space="preserve">100000000%</text>
      <text x="43" y="153.3125" style="clip-path:url(#clipPath1); fill:blue; stroke:none;" xml:space="preserve">110000000%</text>
      <text x="43" y="145.8333282" style="clip-path:url(#clipPath1); fill:blue; stroke:none;" xml:space="preserve">120000000%</text>
      <text x="43" y="138.3541718" style="clip-path:url(#clipPath1); fill:blue; stroke:none;" xml:space="preserve">130000000%</text>
      <text x="43" y="130.875" style="clip-path:url(#clipPath1); fill:blue; stroke:none;" xml:space="preserve">140000000%</text>
      <text x="43" y="123.3958359" style="clip-path:url(#clipPath1); fill:blue; stroke:none;" xml:space="preserve">150000000%</text>
      <text x="43" y="115.9166641" style="clip-path:url(#clipPath1); fill:blue; stroke:none;" xml:space="preserve">160000000%</text>
      <text x="43" y="108.4375" style="clip-path:url(#clipPath1); fill:blue; stroke:none;" xml:space="preserve">170000000%</text>
      <text x="43" y="100.9583359" style="clip-path:url(#clipPath1); fill:blue; stroke:none;" xml:space="preserve">180000000%</text>
      <text x="43" y="93.4791641" style="clip-path:url(#clipPath1); fill:blue; stroke:none;" xml:space="preserve">190000000%</text>
      <text x="43" y="86" style="clip-path:url(#clipPath1); fill:blue; stroke:none;" xml:space="preserve">200000000%</text>
      <text x="43" y="78.5208359" style="clip-path:url(#clipPath1); fill:blue; stroke:none;" xml:space="preserve">210000000%</text>
      <text x="43" y="71.0416641" style="clip-path:url(#clipPath1); fill:blue; stroke:none;" xml:space="preserve">220000000%</text>
      <text x="43" y="63.5625" style="clip-path:url(#clipPath1); fill:blue; stroke:none;" xml:space="preserve">230000000%</text>
      <text x="43" y="56.0833321" style="clip-path:url(#clipPath1); fill:blue; stroke:none;" xml:space="preserve">240000000%</text>
      <text x="43" y="48.6041679" style="clip-path:url(#clipPath1); fill:blue; stroke:none;" xml:space="preserve">250000000%</text>
      <text x="43" y="41.125" style="clip-path:url(#clipPath1); fill:blue; stroke:none;" xml:space="preserve">260000000%</text>
      <path d="M15.375 216.8125 Q16.875 217 17.0625 216.9375 Q17.25 216.875 17.25 216.5 L17.25 211.9375 L15 212.8125 Q15 216.9375 15.0625 218.625 L14.125 219.0625 Q14.1875 216.875 14.1875 213.125 L12.25 213.875 L12.25 219.9375 Q12.25 220.6875 13.0625 220.6875 L17.8125 220.6875 Q18.5 220.5625 18.59375 219.6875 Q18.6875 218.8125 18.6875 217.625 L19 217.625 Q19.0625 218.875 19.1875 219.5 Q19.3125 220.125 19.875 220.375 Q19.375 221.4375 18.4375 221.4375 L12.75 221.4375 Q11.4375 221.4375 11.4375 220 L11.4375 214.125 L10.0625 214.625 L9.6875 214.9375 L9.0625 214.625 L11.4375 213.75 L11.4375 211.5 Q11.4375 210.6875 11.375 209.5625 L12.6875 210.25 L12.25 210.625 L12.25 213.5 L14.1875 212.75 L14.1875 209.75 Q14.1875 208.625 14.125 207.625 L15.5625 208.25 L15 208.75 L15 212.4375 L17.0625 211.5625 L17.5625 210.9375 L18.5625 211.6875 L18.0625 212.1875 L18.0625 216.9375 Q18.0625 217.3125 17.78125 217.65625 Q17.5 218 16.9375 218.25 Q16.875 217.5625 15.375 217.0625 L15.375 216.8125 ZM8.375 218.75 L10.875 217.875 L10.9375 218.1875 Q6.4375 220.125 5.875 220.875 L5.125 219.75 Q5.875 219.5625 7.5 219 L7.5 213.375 L7.25 213.375 Q6.4375 213.375 5.75 213.5625 L5.1875 213 L7.5 213 L7.5 210.125 Q7.5 209.25 7.4375 208 L8.875 208.6875 L8.375 209.125 L8.375 213 L9 213 L9.6875 212.3125 L10.75 213.375 L8.375 213.375 L8.375 218.75 ZM32.1875 208.3125 L32.3125 208.125 Q33.6875 208.6875 33.96875 209 Q34.25 209.3125 34.25 209.5625 Q34.25 209.8125 34.0625 210.15625 Q33.875 210.5 33.75 210.5 Q33.5625 210.5 33.375 210 Q33.0625 209.1875 32.1875 208.3125 ZM26.8125 212.8125 L26.9375 212.625 Q28.5 213.4375 28.8125 213.8125 Q29.125 214.1875 29.125 214.5 Q29.125 214.75 28.90625 215.125 Q28.6875 215.5 28.5625 215.5 Q28.3125 215.5 28.125 214.8125 Q27.75 213.8125 26.8125 212.8125 ZM30.125 207.5625 L31.5 208.1875 L31.0625 208.625 L31.0625 211.125 L33.6875 211.125 L34.5 210.3125 L35.6875 211.5 L31.0625 211.5 Q31.5 213.625 32.25 215.125 Q33.625 213.5625 34.0625 212.5625 L35.1875 213.625 Q34.5625 213.625 32.375 215.4375 Q33.8125 218.125 35.8125 218.9375 L35.8125 219.1875 Q34.9375 219.125 34.4375 219.8125 Q33.375 218.8125 32.40625 216.90625 Q31.4375 215 31.0625 212.75 L31.0625 220.4375 Q31.0625 221.6875 29.5625 222.125 Q29.5625 221.1875 27.875 220.6875 L27.875 220.4375 Q29.125 220.5625 29.65625 220.59375 Q30.1875 220.625 30.1875 220.25 L30.1875 216.5 Q27.125 218.875 26.9375 219.5 L25.9375 218.5 Q26.8125 218.25 30.1875 216.125 L30.1875 211.5 L28 211.5 Q27.3125 211.4375 26.75 211.625 L26.25 211.125 L30.1875 211.125 Q30.1875 208.8125 30.125 207.5625 ZM21.1875 209.75 L25.3125 209.75 L26 209.0625 L27 210.125 L24.4375 210.125 L24.4375 214 L25.25 214 L25.875 213.375 L26.6875 214.375 L24.4375 214.375 L24.4375 218 L27 217.125 L27.0625 217.375 Q22.25 219.4375 21.8125 220.125 L21.125 219 Q22.125 218.75 23.5625 218.25 L23.5625 214.375 L23.4375 214.375 Q22.625 214.375 21.9375 214.5625 L21.375 214 L23.5625 214 L23.5625 210.125 L23.25 210.125 Q22.4375 210.125 21.75 210.3125 L21.1875 209.75 Z" style="clip-path:url(#clipPath9); stroke:none;" transform="matrix(0,-1,1,0,-194,235)" />
    </g>
    <g style="font-size:16; fill:gray; text-rendering:optimizeLegibility; font-family:&apos;宋体&apos;; stroke:gray; stroke-width:0.2;">
      <line x1="133" x2="988" y1="394" style="clip-path:url(#clipPath10); fill:none;" y2="394" />
      <line x1="133" x2="988" y1="386.5208333" style="clip-path:url(#clipPath10); fill:none;" y2="386.5208333" />
      <line x1="133" x2="988" y1="379.0416667" style="clip-path:url(#clipPath10); fill:none;" y2="379.0416667" />
      <line x1="133" x2="988" y1="371.5625" style="clip-path:url(#clipPath10); fill:none;" y2="371.5625" />
      <line x1="133" x2="988" y1="364.0833333" style="clip-path:url(#clipPath10); fill:none;" y2="364.0833333" />
      <line x1="133" x2="988" y1="356.6041667" style="clip-path:url(#clipPath10); fill:none;" y2="356.6041667" />
      <line x1="133" x2="988" y1="349.125" style="clip-path:url(#clipPath10); fill:none;" y2="349.125" />
      <line x1="133" x2="988" y1="341.6458333" style="clip-path:url(#clipPath10); fill:none;" y2="341.6458333" />
      <line x1="133" x2="988" y1="334.1666667" style="clip-path:url(#clipPath10); fill:none;" y2="334.1666667" />
      <line x1="133" x2="988" y1="326.6875" style="clip-path:url(#clipPath10); fill:none;" y2="326.6875" />
      <line x1="133" x2="988" y1="319.2083333" style="clip-path:url(#clipPath10); fill:none;" y2="319.2083333" />
      <line x1="133" x2="988" y1="311.7291667" style="clip-path:url(#clipPath10); fill:none;" y2="311.7291667" />
      <line x1="133" x2="988" y1="304.25" style="clip-path:url(#clipPath10); fill:none;" y2="304.25" />
      <line x1="133" x2="988" y1="296.7708333" style="clip-path:url(#clipPath10); fill:none;" y2="296.7708333" />
      <line x1="133" x2="988" y1="289.2916667" style="clip-path:url(#clipPath10); fill:none;" y2="289.2916667" />
      <line x1="133" x2="988" y1="281.8125" style="clip-path:url(#clipPath10); fill:none;" y2="281.8125" />
      <line x1="133" x2="988" y1="274.3333333" style="clip-path:url(#clipPath10); fill:none;" y2="274.3333333" />
      <line x1="133" x2="988" y1="266.8541667" style="clip-path:url(#clipPath10); fill:none;" y2="266.8541667" />
      <line x1="133" x2="988" y1="259.375" style="clip-path:url(#clipPath10); fill:none;" y2="259.375" />
      <line x1="133" x2="988" y1="251.8958333" style="clip-path:url(#clipPath10); fill:none;" y2="251.8958333" />
      <line x1="133" x2="988" y1="244.4166667" style="clip-path:url(#clipPath10); fill:none;" y2="244.4166667" />
      <line x1="133" x2="988" y1="236.9375" style="clip-path:url(#clipPath10); fill:none;" y2="236.9375" />
      <line x1="133" x2="988" y1="229.4583333" style="clip-path:url(#clipPath10); fill:none;" y2="229.4583333" />
      <line x1="133" x2="988" y1="221.9791667" style="clip-path:url(#clipPath10); fill:none;" y2="221.9791667" />
      <line x1="133" x2="988" y1="214.5" style="clip-path:url(#clipPath10); fill:none;" y2="214.5" />
      <line x1="133" x2="988" y1="207.0208333" style="clip-path:url(#clipPath10); fill:none;" y2="207.0208333" />
      <line x1="133" x2="988" y1="199.5416667" style="clip-path:url(#clipPath10); fill:none;" y2="199.5416667" />
      <line x1="133" x2="988" y1="192.0625" style="clip-path:url(#clipPath10); fill:none;" y2="192.0625" />
      <line x1="133" x2="988" y1="184.5833333" style="clip-path:url(#clipPath10); fill:none;" y2="184.5833333" />
      <line x1="133" x2="988" y1="177.1041667" style="clip-path:url(#clipPath10); fill:none;" y2="177.1041667" />
      <line x1="133" x2="988" y1="169.625" style="clip-path:url(#clipPath10); fill:none;" y2="169.625" />
      <line x1="133" x2="988" y1="162.1458333" style="clip-path:url(#clipPath10); fill:none;" y2="162.1458333" />
      <line x1="133" x2="988" y1="154.6666667" style="clip-path:url(#clipPath10); fill:none;" y2="154.6666667" />
      <line x1="133" x2="988" y1="147.1875" style="clip-path:url(#clipPath10); fill:none;" y2="147.1875" />
      <line x1="133" x2="988" y1="139.7083333" style="clip-path:url(#clipPath10); fill:none;" y2="139.7083333" />
      <line x1="133" x2="988" y1="132.2291667" style="clip-path:url(#clipPath10); fill:none;" y2="132.2291667" />
      <line x1="133" x2="988" y1="124.75" style="clip-path:url(#clipPath10); fill:none;" y2="124.75" />
      <line x1="133" x2="988" y1="117.2708333" style="clip-path:url(#clipPath10); fill:none;" y2="117.2708333" />
      <line x1="133" x2="988" y1="109.7916667" style="clip-path:url(#clipPath10); fill:none;" y2="109.7916667" />
      <line x1="133" x2="988" y1="102.3125" style="clip-path:url(#clipPath10); fill:none;" y2="102.3125" />
      <line x1="133" x2="988" y1="94.8333333" style="clip-path:url(#clipPath10); fill:none;" y2="94.8333333" />
      <line x1="133" x2="988" y1="87.3541667" style="clip-path:url(#clipPath10); fill:none;" y2="87.3541667" />
      <line x1="133" x2="988" y1="79.875" style="clip-path:url(#clipPath10); fill:none;" y2="79.875" />
      <line x1="133" x2="988" y1="72.3958333" style="clip-path:url(#clipPath10); fill:none;" y2="72.3958333" />
      <line x1="133" x2="988" y1="64.9166667" style="clip-path:url(#clipPath10); fill:none;" y2="64.9166667" />
      <line x1="133" x2="988" y1="57.4375" style="clip-path:url(#clipPath10); fill:none;" y2="57.4375" />
      <line x1="133" x2="988" y1="49.9583333" style="clip-path:url(#clipPath10); fill:none;" y2="49.9583333" />
      <line x1="133" x2="988" y1="42.4791667" style="clip-path:url(#clipPath10); fill:none;" y2="42.4791667" />
      <line x1="133" x2="988" y1="35" style="clip-path:url(#clipPath10); fill:none;" y2="35" />
      <line x1="218.5" x2="332.5" y1="228.3215" style="clip-path:url(#clipPath10); fill:none; stroke:rgb(49,133,156); stroke-width:3;" y2="228.2875446" />
      <line x1="332.5" x2="446.5" y1="228.2875446" style="clip-path:url(#clipPath10); fill:none; stroke:rgb(49,133,156); stroke-width:3;" y2="228.273035" />
      <line x1="446.5" x2="560.5" y1="228.273035" style="clip-path:url(#clipPath10); fill:none; stroke:rgb(49,133,156); stroke-width:3;" y2="217.8273317" />
      <line x1="560.5" x2="674.5" y1="217.8273317" style="clip-path:url(#clipPath10); fill:none; stroke:rgb(49,133,156); stroke-width:3;" y2="213.568395" />
      <line x1="674.5" x2="788.5" y1="213.568395" style="clip-path:url(#clipPath10); fill:none; stroke:rgb(49,133,156); stroke-width:3;" y2="229.3449492" />
      <line x1="788.5" x2="902.5" y1="229.3449492" style="clip-path:url(#clipPath10); fill:none; stroke:rgb(49,133,156); stroke-width:3;" y2="229.4582585" />
    </g>
  </g>
</svg>
