<?xml version="1.0" encoding="UTF-8"?>

<!DOCTYPE svg PUBLIC '-//W3C//DTD SVG 1.0//EN' 'http://www.w3.org/TR/2001/REC-SVG-20010904/DTD/svg10.dtd'>
<svg style="fill-opacity:1; color-rendering:auto; color-interpolation:auto; text-rendering:auto; stroke:black; stroke-linecap:square; stroke-miterlimit:10; shape-rendering:auto; stroke-opacity:1; fill:black; stroke-dasharray:none; font-weight:normal; stroke-width:1; font-family:&apos;Dialog&apos;; font-style:normal; stroke-linejoin:miter; font-size:12; stroke-dashoffset:0; image-rendering:auto;" xmlns="http://www.w3.org/2000/svg" width="1000" xmlns:xlink="http://www.w3.org/1999/xlink" height="500">
  <!--Generated by the Batik Graphics2D SVG Generator-->
  <defs id="genericDefs" />
  <g>
    <defs id="defs1">
      <clipPath clipPathUnits="userSpaceOnUse" id="clipPath1">
        <path d="M0 0 L1000 0 L1000 500 L0 500 L0 0 Z" />
      </clipPath>
      <clipPath clipPathUnits="userSpaceOnUse" id="clipPath2">
        <path d="M334.9064941 -0.5357938 L1042.0133057 706.5709839 L688.4598999 1060.1243896 L-18.6468983 353.0176086 L334.9064941 -0.5357938 Z" />
      </clipPath>
      <clipPath clipPathUnits="userSpaceOnUse" id="clipPath3">
        <path d="M370.4832458 -86.425705 L1077.5900879 620.6810913 L724.0366211 974.2344971 L16.9298668 267.1276855 L370.4832458 -86.425705 Z" />
      </clipPath>
      <clipPath clipPathUnits="userSpaceOnUse" id="clipPath4">
        <path d="M406.0600281 -172.3155975 L1113.166748 534.7911987 L759.6134033 888.3446045 L52.5066223 181.237793 L406.0600281 -172.3155975 Z" />
      </clipPath>
      <clipPath clipPathUnits="userSpaceOnUse" id="clipPath5">
        <path d="M441.6367798 -258.2055054 L1148.7435303 448.9012756 L795.1901855 802.4546509 L88.0833893 95.3478928 L441.6367798 -258.2055054 Z" />
      </clipPath>
      <clipPath clipPathUnits="userSpaceOnUse" id="clipPath6">
        <path d="M477.2135315 -344.0953979 L1184.3203125 363.0113831 L830.7669067 716.5647583 L123.6601562 9.4579802 L477.2135315 -344.0953979 Z" />
      </clipPath>
      <clipPath clipPathUnits="userSpaceOnUse" id="clipPath7">
        <path d="M512.7902832 -429.985321 L1219.8970947 277.12146 L866.343689 630.6748657 L159.2369232 -76.4319305 L512.7902832 -429.985321 Z" />
      </clipPath>
      <clipPath clipPathUnits="userSpaceOnUse" id="clipPath8">
        <path d="M548.3670654 -515.8752441 L1255.473877 191.2315521 L901.9204712 544.7849731 L194.8136902 -162.3218384 L548.3670654 -515.8752441 Z" />
      </clipPath>
      <clipPath clipPathUnits="userSpaceOnUse" id="clipPath9">
        <path d="M235 194 L235 1194 L-265 1194 L-265 194 L235 194 Z" />
      </clipPath>
      <clipPath clipPathUnits="userSpaceOnUse" id="clipPath10">
        <path d="M77 35 L77 394 L988 394 L988 35 Z" />
      </clipPath>
    </defs>
    <g style="fill:white; text-rendering:optimizeLegibility; stroke:white;">
      <rect x="0" y="0" width="1000" style="clip-path:url(#clipPath1); stroke:none;" height="500" />
      <rect x="0" y="0" width="999" style="clip-path:url(#clipPath1); fill:none; stroke:gray; stroke-width:0.3;" height="499" />
    </g>
    <g style="text-rendering:optimizeLegibility; stroke-width:0.3; font-size:20; font-family:&apos;Tahoma&apos;; font-weight:bold;">
      <text x="480" y="21.0097656" style="clip-path:url(#clipPath1); stroke:none;" xml:space="preserve">熵值</text>
    </g>
    <g style="font-size:16; fill:white; text-rendering:optimizeLegibility; font-family:&apos;宋体&apos;; stroke:white; stroke-width:0.3;">
      <rect x="77" y="35" width="911" style="clip-path:url(#clipPath1); stroke:none;" height="359" />
      <line x1="77" x2="988" y1="398" style="clip-path:url(#clipPath1); fill:none; stroke:gray; stroke-width:0.5;" y2="398" />
      <line x1="168.1" x2="168.1" y1="398" style="clip-path:url(#clipPath1); fill:none; stroke:gray; stroke-width:0.5;" y2="398" />
      <line x1="168.1" x2="168.1" y1="398" style="clip-path:url(#clipPath1); fill:none; stroke:gray; stroke-width:0.5;" y2="400" />
      <line x1="289.5666667" x2="289.5666667" y1="398" style="clip-path:url(#clipPath1); fill:none; stroke:gray; stroke-width:0.5;" y2="398" />
      <line x1="289.5666667" x2="289.5666667" y1="398" style="clip-path:url(#clipPath1); fill:none; stroke:gray; stroke-width:0.5;" y2="400" />
      <line x1="411.0333333" x2="411.0333333" y1="398" style="clip-path:url(#clipPath1); fill:none; stroke:gray; stroke-width:0.5;" y2="398" />
      <line x1="411.0333333" x2="411.0333333" y1="398" style="clip-path:url(#clipPath1); fill:none; stroke:gray; stroke-width:0.5;" y2="400" />
      <line x1="532.5" x2="532.5" y1="398" style="clip-path:url(#clipPath1); fill:none; stroke:gray; stroke-width:0.5;" y2="398" />
      <line x1="532.5" x2="532.5" y1="398" style="clip-path:url(#clipPath1); fill:none; stroke:gray; stroke-width:0.5;" y2="400" />
      <line x1="653.9666667" x2="653.9666667" y1="398" style="clip-path:url(#clipPath1); fill:none; stroke:gray; stroke-width:0.5;" y2="398" />
      <line x1="653.9666667" x2="653.9666667" y1="398" style="clip-path:url(#clipPath1); fill:none; stroke:gray; stroke-width:0.5;" y2="400" />
      <line x1="775.4333333" x2="775.4333333" y1="398" style="clip-path:url(#clipPath1); fill:none; stroke:gray; stroke-width:0.5;" y2="398" />
      <line x1="775.4333333" x2="775.4333333" y1="398" style="clip-path:url(#clipPath1); fill:none; stroke:gray; stroke-width:0.5;" y2="400" />
      <line x1="896.9" x2="896.9" y1="398" style="clip-path:url(#clipPath1); fill:none; stroke:gray; stroke-width:0.5;" y2="398" />
      <line x1="896.9" x2="896.9" y1="398" style="clip-path:url(#clipPath1); fill:none; stroke:gray; stroke-width:0.5;" y2="400" />
      <path transform="matrix(0.7071068,-0.7071068,0.7071068,0.7071068,-236.4357877,237.1935146)" style="clip-path:url(#clipPath2); fill:red; stroke:none; stroke-width:0.5;" d="M109.9125061 410.5625 Q109.9125061 409.4375 109.4125061 408.84375 Q108.9125061 408.25 107.9125061 408.25 Q107.1625061 408.25 106.6312561 408.65625 Q106.1000061 409.0625 106.1000061 409.6875 Q106.1000061 410.0625 106.3500061 410.3125 Q106.5375061 410.5625 106.5375061 410.8125 Q106.5375061 411.125 106.3812561 411.28125 Q106.2250061 411.4375 105.9125061 411.4375 Q105.5375061 411.4375 105.3187561 411.21875 Q105.1000061 411 105.1000061 410.5 Q105.1000061 409.1875 106.0375061 408.5 Q106.9750061 407.8125 108.0375061 407.8125 Q109.5375061 407.8125 110.2562561 408.5625 Q110.9750061 409.3125 110.9750061 410.4375 Q110.9750061 411.1875 110.6312561 411.9375 Q110.2875061 412.6875 109.5375061 413.375 Q107.7250061 415.125 106.7562561 416.21875 Q105.7875061 417.3125 105.6000061 417.6875 L109.2875061 417.6875 Q109.8500061 417.6875 110.2250061 417.25 Q110.6000061 416.8125 110.7250061 415.9375 L111.1000061 415.9375 L110.7250061 418.625 L104.9125061 418.625 L104.9125061 417.8125 Q105.2250061 417.25 105.9437561 416.375 Q106.6625061 415.5 107.8500061 414.3125 Q108.9125061 413.25 109.4125061 412.3125 Q109.9125061 411.375 109.9125061 410.5625 ZM116.1000061 408.3125 Q115.2250061 408.3125 114.6312561 409.65625 Q114.0375061 411 114.0375061 413.25 Q114.0375061 415.625 114.6312561 416.9375 Q115.2250061 418.25 116.1000061 418.25 Q117.0375061 418.25 117.5687561 416.9375 Q118.1000061 415.625 118.1000061 413.25 Q118.1000061 411 117.6000061 409.65625 Q117.1000061 408.3125 116.1000061 408.3125 ZM116.1000061 418.75 Q114.7250061 418.75 113.7875061 417.3125 Q112.8500061 415.875 112.8500061 413.25 Q112.8500061 410.8125 113.7562561 409.3125 Q114.6625061 407.8125 116.1000061 407.8125 Q117.4750061 407.8125 118.3812561 409.25 Q119.2875061 410.6875 119.2875061 413.25 Q119.2875061 415.8125 118.3812561 417.28125 Q117.4750061 418.75 116.1000061 418.75 ZM125.9125061 410.5625 Q125.9125061 409.4375 125.4125061 408.84375 Q124.9125061 408.25 123.9125061 408.25 Q123.1625061 408.25 122.6312561 408.65625 Q122.1000061 409.0625 122.1000061 409.6875 Q122.1000061 410.0625 122.3500061 410.3125 Q122.5375061 410.5625 122.5375061 410.8125 Q122.5375061 411.125 122.3812561 411.28125 Q122.2250061 411.4375 121.9125061 411.4375 Q121.5375061 411.4375 121.3187561 411.21875 Q121.1000061 411 121.1000061 410.5 Q121.1000061 409.1875 122.0375061 408.5 Q122.9750061 407.8125 124.0375061 407.8125 Q125.5375061 407.8125 126.2562561 408.5625 Q126.9750061 409.3125 126.9750061 410.4375 Q126.9750061 411.1875 126.6312561 411.9375 Q126.2875061 412.6875 125.5375061 413.375 Q123.7250061 415.125 122.7562561 416.21875 Q121.7875061 417.3125 121.6000061 417.6875 L125.2875061 417.6875 Q125.8500061 417.6875 126.2250061 417.25 Q126.6000061 416.8125 126.7250061 415.9375 L127.1000061 415.9375 L126.7250061 418.625 L120.9125061 418.625 L120.9125061 417.8125 Q121.2250061 417.25 121.9437561 416.375 Q122.6625061 415.5 123.8500061 414.3125 Q124.9125061 413.25 125.4125061 412.3125 Q125.9125061 411.375 125.9125061 410.5625 ZM132.1000061 408.3125 Q131.2250061 408.3125 130.6312561 409.65625 Q130.0375061 411 130.0375061 413.25 Q130.0375061 415.625 130.6312561 416.9375 Q131.2250061 418.25 132.1000061 418.25 Q133.0375061 418.25 133.5687561 416.9375 Q134.1000061 415.625 134.1000061 413.25 Q134.1000061 411 133.6000061 409.65625 Q133.1000061 408.3125 132.1000061 408.3125 ZM132.1000061 418.75 Q130.7250061 418.75 129.7875061 417.3125 Q128.8500061 415.875 128.8500061 413.25 Q128.8500061 410.8125 129.7562561 409.3125 Q130.6625061 407.8125 132.1000061 407.8125 Q133.4750061 407.8125 134.3812561 409.25 Q135.2875061 410.6875 135.2875061 413.25 Q135.2875061 415.8125 134.3812561 417.28125 Q133.4750061 418.75 132.1000061 418.75 ZM137.1000061 420.0625 L136.6625061 419.8125 L143.0375061 406.4375 L143.4750061 406.6875 L137.1000061 420.0625 ZM149.9125061 410.5625 Q149.9125061 409.4375 149.4125061 408.84375 Q148.9125061 408.25 147.9125061 408.25 Q147.1625061 408.25 146.6312561 408.65625 Q146.1000061 409.0625 146.1000061 409.6875 Q146.1000061 410.0625 146.3500061 410.3125 Q146.5375061 410.5625 146.5375061 410.8125 Q146.5375061 411.125 146.3812561 411.28125 Q146.2250061 411.4375 145.9125061 411.4375 Q145.5375061 411.4375 145.3187561 411.21875 Q145.1000061 411 145.1000061 410.5 Q145.1000061 409.1875 146.0375061 408.5 Q146.9750061 407.8125 148.0375061 407.8125 Q149.5375061 407.8125 150.2562561 408.5625 Q150.9750061 409.3125 150.9750061 410.4375 Q150.9750061 411.1875 150.6312561 411.9375 Q150.2875061 412.6875 149.5375061 413.375 Q147.7250061 415.125 146.7562561 416.21875 Q145.7875061 417.3125 145.6000061 417.6875 L149.2875061 417.6875 Q149.8500061 417.6875 150.2250061 417.25 Q150.6000061 416.8125 150.7250061 415.9375 L151.1000061 415.9375 L150.7250061 418.625 L144.9125061 418.625 L144.9125061 417.8125 Q145.2250061 417.25 145.9437561 416.375 Q146.6625061 415.5 147.8500061 414.3125 Q148.9125061 413.25 149.4125061 412.3125 Q149.9125061 411.375 149.9125061 410.5625 ZM153.1000061 420.0625 L152.6625061 419.8125 L159.0375061 406.4375 L159.4750061 406.6875 L153.1000061 420.0625 ZM164.6625061 407.75 L164.6625061 417.25 Q164.6625061 417.75 164.9750061 418 Q165.2875061 418.25 165.8500061 418.25 L166.4750061 418.25 L166.4750061 418.625 L161.9125061 418.625 L161.9125061 418.25 L162.4750061 418.25 Q163.1000061 418.25 163.3812561 418 Q163.6625061 417.75 163.6625061 417.25 L163.6625061 409.6875 Q163.6625061 409.4375 163.5062561 409.28125 Q163.3500061 409.125 163.0375061 409.125 L161.9125061 409.125 L161.9125061 408.75 L162.4750061 408.75 Q163.2250061 408.75 163.6937561 408.5 Q164.1625061 408.25 164.4125061 407.75 L164.6625061 407.75 Z" />
    </g>
    <g transform="matrix(0.7071068,-0.7071068,0.7071068,0.7071068,-200.8590224,323.0834241)" style="font-size:16; fill:red; text-rendering:optimizeLegibility; font-family:&apos;宋体&apos;; stroke:red; stroke-width:0.5;">
      <path d="M231.3791809 410.5625 Q231.3791809 409.4375 230.8791809 408.84375 Q230.3791809 408.25 229.3791809 408.25 Q228.6291809 408.25 228.0979309 408.65625 Q227.5666809 409.0625 227.5666809 409.6875 Q227.5666809 410.0625 227.8166809 410.3125 Q228.0041809 410.5625 228.0041809 410.8125 Q228.0041809 411.125 227.8479309 411.28125 Q227.6916809 411.4375 227.3791809 411.4375 Q227.0041809 411.4375 226.7854309 411.21875 Q226.5666809 411 226.5666809 410.5 Q226.5666809 409.1875 227.5041809 408.5 Q228.4416809 407.8125 229.5041809 407.8125 Q231.0041809 407.8125 231.7229309 408.5625 Q232.4416809 409.3125 232.4416809 410.4375 Q232.4416809 411.1875 232.0979309 411.9375 Q231.7541809 412.6875 231.0041809 413.375 Q229.1916809 415.125 228.2229309 416.21875 Q227.2541809 417.3125 227.0666809 417.6875 L230.7541809 417.6875 Q231.3166809 417.6875 231.6916809 417.25 Q232.0666809 416.8125 232.1916809 415.9375 L232.5666809 415.9375 L232.1916809 418.625 L226.3791809 418.625 L226.3791809 417.8125 Q226.6916809 417.25 227.4104309 416.375 Q228.1291809 415.5 229.3166809 414.3125 Q230.3791809 413.25 230.8791809 412.3125 Q231.3791809 411.375 231.3791809 410.5625 ZM237.5666809 408.3125 Q236.6916809 408.3125 236.0979309 409.65625 Q235.5041809 411 235.5041809 413.25 Q235.5041809 415.625 236.0979309 416.9375 Q236.6916809 418.25 237.5666809 418.25 Q238.5041809 418.25 239.0354309 416.9375 Q239.5666809 415.625 239.5666809 413.25 Q239.5666809 411 239.0666809 409.65625 Q238.5666809 408.3125 237.5666809 408.3125 ZM237.5666809 418.75 Q236.1916809 418.75 235.2541809 417.3125 Q234.3166809 415.875 234.3166809 413.25 Q234.3166809 410.8125 235.2229309 409.3125 Q236.1291809 407.8125 237.5666809 407.8125 Q238.9416809 407.8125 239.8479309 409.25 Q240.7541809 410.6875 240.7541809 413.25 Q240.7541809 415.8125 239.8479309 417.28125 Q238.9416809 418.75 237.5666809 418.75 ZM248.5666809 415.75 Q248.5666809 416.9375 247.6916809 417.84375 Q246.8166809 418.75 245.2541809 418.75 Q244.1291809 418.75 243.3166809 418.125 Q242.5041809 417.5 242.5041809 416.6875 Q242.5041809 416.3125 242.7541809 416.03125 Q243.0041809 415.75 243.2541809 415.75 Q243.6291809 415.75 243.7854309 416.03125 Q243.9416809 416.3125 243.9416809 416.5 Q243.9416809 416.8125 243.8166809 417 Q243.6916809 417.25 243.6916809 417.4375 Q243.6916809 417.8125 244.1604309 418.0625 Q244.6291809 418.3125 245.1916809 418.3125 Q246.3166809 418.3125 246.8791809 417.65625 Q247.4416809 417 247.4416809 415.625 Q247.4416809 414.5 246.8479309 413.8125 Q246.2541809 413.125 244.6291809 413.125 L244.6291809 412.6875 Q245.8791809 412.6875 246.4729309 412.09375 Q247.0666809 411.5 247.0666809 410.4375 Q247.0666809 409.5625 246.5979309 408.90625 Q246.1291809 408.25 245.1291809 408.25 Q244.6916809 408.25 244.1916809 408.46875 Q243.6916809 408.6875 243.6916809 409.1875 Q243.6916809 409.6875 243.8166809 409.8125 Q243.9416809 409.9375 243.9416809 410.125 Q243.9416809 410.4375 243.8166809 410.625 Q243.6916809 410.8125 243.3791809 410.8125 Q243.1291809 410.8125 242.9104309 410.625 Q242.6916809 410.4375 242.6916809 409.9375 Q242.6916809 409 243.5041809 408.40625 Q244.3166809 407.8125 245.3791809 407.8125 Q246.6291809 407.8125 247.3791809 408.59375 Q248.1291809 409.375 248.1291809 410.25 Q248.1291809 411.1875 247.6604309 411.84375 Q247.1916809 412.5 246.1916809 412.8125 Q247.5666809 413.3125 248.0666809 414.125 Q248.5666809 414.9375 248.5666809 415.75 ZM253.5666809 408.3125 Q252.6916809 408.3125 252.0979309 409.65625 Q251.5041809 411 251.5041809 413.25 Q251.5041809 415.625 252.0979309 416.9375 Q252.6916809 418.25 253.5666809 418.25 Q254.5041809 418.25 255.0354309 416.9375 Q255.5666809 415.625 255.5666809 413.25 Q255.5666809 411 255.0666809 409.65625 Q254.5666809 408.3125 253.5666809 408.3125 ZM253.5666809 418.75 Q252.1916809 418.75 251.2541809 417.3125 Q250.3166809 415.875 250.3166809 413.25 Q250.3166809 410.8125 251.2229309 409.3125 Q252.1291809 407.8125 253.5666809 407.8125 Q254.9416809 407.8125 255.8479309 409.25 Q256.7541809 410.6875 256.7541809 413.25 Q256.7541809 415.8125 255.8479309 417.28125 Q254.9416809 418.75 253.5666809 418.75 ZM258.5666809 420.0625 L258.1291809 419.8125 L264.5041809 406.4375 L264.9416809 406.6875 L258.5666809 420.0625 ZM271.3791809 410.5625 Q271.3791809 409.4375 270.8791809 408.84375 Q270.3791809 408.25 269.3791809 408.25 Q268.6291809 408.25 268.0979309 408.65625 Q267.5666809 409.0625 267.5666809 409.6875 Q267.5666809 410.0625 267.8166809 410.3125 Q268.0041809 410.5625 268.0041809 410.8125 Q268.0041809 411.125 267.8479309 411.28125 Q267.6916809 411.4375 267.3791809 411.4375 Q267.0041809 411.4375 266.7854309 411.21875 Q266.5666809 411 266.5666809 410.5 Q266.5666809 409.1875 267.5041809 408.5 Q268.4416809 407.8125 269.5041809 407.8125 Q271.0041809 407.8125 271.7229309 408.5625 Q272.4416809 409.3125 272.4416809 410.4375 Q272.4416809 411.1875 272.0979309 411.9375 Q271.7541809 412.6875 271.0041809 413.375 Q269.1916809 415.125 268.2229309 416.21875 Q267.2541809 417.3125 267.0666809 417.6875 L270.7541809 417.6875 Q271.3166809 417.6875 271.6916809 417.25 Q272.0666809 416.8125 272.1916809 415.9375 L272.5666809 415.9375 L272.1916809 418.625 L266.3791809 418.625 L266.3791809 417.8125 Q266.6916809 417.25 267.4104309 416.375 Q268.1291809 415.5 269.3166809 414.3125 Q270.3791809 413.25 270.8791809 412.3125 Q271.3791809 411.375 271.3791809 410.5625 ZM274.5666809 420.0625 L274.1291809 419.8125 L280.5041809 406.4375 L280.9416809 406.6875 L274.5666809 420.0625 ZM288.5666809 415.75 Q288.5666809 416.9375 287.6916809 417.84375 Q286.8166809 418.75 285.2541809 418.75 Q284.1291809 418.75 283.3166809 418.125 Q282.5041809 417.5 282.5041809 416.6875 Q282.5041809 416.3125 282.7541809 416.03125 Q283.0041809 415.75 283.2541809 415.75 Q283.6291809 415.75 283.7854309 416.03125 Q283.9416809 416.3125 283.9416809 416.5 Q283.9416809 416.8125 283.8166809 417 Q283.6916809 417.25 283.6916809 417.4375 Q283.6916809 417.8125 284.1604309 418.0625 Q284.6291809 418.3125 285.1916809 418.3125 Q286.3166809 418.3125 286.8791809 417.65625 Q287.4416809 417 287.4416809 415.625 Q287.4416809 414.5 286.8479309 413.8125 Q286.2541809 413.125 284.6291809 413.125 L284.6291809 412.6875 Q285.8791809 412.6875 286.4729309 412.09375 Q287.0666809 411.5 287.0666809 410.4375 Q287.0666809 409.5625 286.5979309 408.90625 Q286.1291809 408.25 285.1291809 408.25 Q284.6916809 408.25 284.1916809 408.46875 Q283.6916809 408.6875 283.6916809 409.1875 Q283.6916809 409.6875 283.8166809 409.8125 Q283.9416809 409.9375 283.9416809 410.125 Q283.9416809 410.4375 283.8166809 410.625 Q283.6916809 410.8125 283.3791809 410.8125 Q283.1291809 410.8125 282.9104309 410.625 Q282.6916809 410.4375 282.6916809 409.9375 Q282.6916809 409 283.5041809 408.40625 Q284.3166809 407.8125 285.3791809 407.8125 Q286.6291809 407.8125 287.3791809 408.59375 Q288.1291809 409.375 288.1291809 410.25 Q288.1291809 411.1875 287.6604309 411.84375 Q287.1916809 412.5 286.1916809 412.8125 Q287.5666809 413.3125 288.0666809 414.125 Q288.5666809 414.9375 288.5666809 415.75 Z" style="clip-path:url(#clipPath3); stroke:none;" />
    </g>
    <g transform="matrix(0.7071068,-0.7071068,0.7071068,0.7071068,-165.2822659,408.9733119)" style="font-size:16; fill:red; text-rendering:optimizeLegibility; font-family:&apos;宋体&apos;; stroke:red; stroke-width:0.5;">
      <path d="M352.8458252 410.5625 Q352.8458252 409.4375 352.3458252 408.84375 Q351.8458252 408.25 350.8458252 408.25 Q350.0958252 408.25 349.5645752 408.65625 Q349.0333252 409.0625 349.0333252 409.6875 Q349.0333252 410.0625 349.2833252 410.3125 Q349.4708252 410.5625 349.4708252 410.8125 Q349.4708252 411.125 349.3145752 411.28125 Q349.1583252 411.4375 348.8458252 411.4375 Q348.4708252 411.4375 348.2520752 411.21875 Q348.0333252 411 348.0333252 410.5 Q348.0333252 409.1875 348.9708252 408.5 Q349.9083252 407.8125 350.9708252 407.8125 Q352.4708252 407.8125 353.1895752 408.5625 Q353.9083252 409.3125 353.9083252 410.4375 Q353.9083252 411.1875 353.5645752 411.9375 Q353.2208252 412.6875 352.4708252 413.375 Q350.6583252 415.125 349.6895752 416.21875 Q348.7208252 417.3125 348.5333252 417.6875 L352.2208252 417.6875 Q352.7833252 417.6875 353.1583252 417.25 Q353.5333252 416.8125 353.6583252 415.9375 L354.0333252 415.9375 L353.6583252 418.625 L347.8458252 418.625 L347.8458252 417.8125 Q348.1583252 417.25 348.8770752 416.375 Q349.5958252 415.5 350.7833252 414.3125 Q351.8458252 413.25 352.3458252 412.3125 Q352.8458252 411.375 352.8458252 410.5625 ZM359.0333252 408.3125 Q358.1583252 408.3125 357.5645752 409.65625 Q356.9708252 411 356.9708252 413.25 Q356.9708252 415.625 357.5645752 416.9375 Q358.1583252 418.25 359.0333252 418.25 Q359.9708252 418.25 360.5020752 416.9375 Q361.0333252 415.625 361.0333252 413.25 Q361.0333252 411 360.5333252 409.65625 Q360.0333252 408.3125 359.0333252 408.3125 ZM359.0333252 418.75 Q357.6583252 418.75 356.7208252 417.3125 Q355.7833252 415.875 355.7833252 413.25 Q355.7833252 410.8125 356.6895752 409.3125 Q357.5958252 407.8125 359.0333252 407.8125 Q360.4083252 407.8125 361.3145752 409.25 Q362.2208252 410.6875 362.2208252 413.25 Q362.2208252 415.8125 361.3145752 417.28125 Q360.4083252 418.75 359.0333252 418.75 ZM368.7833252 417.4375 Q368.7833252 417.875 369.0333252 418.0625 Q369.2833252 418.25 369.7208252 418.25 L370.2833252 418.25 L370.2833252 418.625 L366.1583252 418.625 L366.1583252 418.25 L366.8458252 418.25 Q367.3458252 418.25 367.5645752 418.0625 Q367.7833252 417.875 367.7833252 417.4375 L367.7833252 415.375 L363.5958252 415.375 L363.5958252 415.0625 L368.1583252 407.8125 L368.7833252 407.8125 L368.7833252 415 L370.4708252 415 L370.4708252 415.375 L368.7833252 415.375 L368.7833252 417.4375 ZM367.7208252 409.375 L364.1583252 415 L367.7833252 415 L367.7833252 409.375 L367.7208252 409.375 ZM375.0333252 408.3125 Q374.1583252 408.3125 373.5645752 409.65625 Q372.9708252 411 372.9708252 413.25 Q372.9708252 415.625 373.5645752 416.9375 Q374.1583252 418.25 375.0333252 418.25 Q375.9708252 418.25 376.5020752 416.9375 Q377.0333252 415.625 377.0333252 413.25 Q377.0333252 411 376.5333252 409.65625 Q376.0333252 408.3125 375.0333252 408.3125 ZM375.0333252 418.75 Q373.6583252 418.75 372.7208252 417.3125 Q371.7833252 415.875 371.7833252 413.25 Q371.7833252 410.8125 372.6895752 409.3125 Q373.5958252 407.8125 375.0333252 407.8125 Q376.4083252 407.8125 377.3145752 409.25 Q378.2208252 410.6875 378.2208252 413.25 Q378.2208252 415.8125 377.3145752 417.28125 Q376.4083252 418.75 375.0333252 418.75 ZM380.0333252 420.0625 L379.5958252 419.8125 L385.9708252 406.4375 L386.4083252 406.6875 L380.0333252 420.0625 ZM391.3458252 411.75 Q392.5333252 411.75 393.2833252 412.65625 Q394.0333252 413.5625 394.0333252 415.0625 Q394.0333252 416.75 393.2520752 417.75 Q392.4708252 418.75 390.8458252 418.75 Q389.7208252 418.75 388.8458252 418.09375 Q387.9708252 417.4375 387.9708252 416.5 Q387.9708252 416.125 388.1895752 415.84375 Q388.4083252 415.5625 388.7833252 415.5625 Q389.1583252 415.5625 389.2833252 415.8125 Q389.4083252 416.0625 389.4083252 416.25 Q389.4083252 416.625 389.2208252 416.8125 Q389.0333252 417.0625 389.0333252 417.3125 Q389.0333252 417.8125 389.6270752 418.0625 Q390.2208252 418.3125 390.9083252 418.3125 Q391.9083252 418.3125 392.4395752 417.5 Q392.9708252 416.6875 392.9708252 415.1875 Q392.9708252 413.9375 392.5020752 413.15625 Q392.0333252 412.375 391.0958252 412.375 Q390.4083252 412.375 389.9083252 412.625 Q389.4083252 412.875 388.9708252 413.6875 L388.4083252 413.625 L388.7208252 407.9375 L393.8458252 407.9375 L393.6583252 408.875 L389.1583252 408.875 L388.9083252 413 Q389.5333252 412.125 390.1270752 411.9375 Q390.7208252 411.75 391.3458252 411.75 ZM396.0333252 420.0625 L395.5958252 419.8125 L401.9708252 406.4375 L402.4083252 406.6875 L396.0333252 420.0625 ZM407.3458252 411.75 Q408.5333252 411.75 409.2833252 412.65625 Q410.0333252 413.5625 410.0333252 415.0625 Q410.0333252 416.75 409.2520752 417.75 Q408.4708252 418.75 406.8458252 418.75 Q405.7208252 418.75 404.8458252 418.09375 Q403.9708252 417.4375 403.9708252 416.5 Q403.9708252 416.125 404.1895752 415.84375 Q404.4083252 415.5625 404.7833252 415.5625 Q405.1583252 415.5625 405.2833252 415.8125 Q405.4083252 416.0625 405.4083252 416.25 Q405.4083252 416.625 405.2208252 416.8125 Q405.0333252 417.0625 405.0333252 417.3125 Q405.0333252 417.8125 405.6270752 418.0625 Q406.2208252 418.3125 406.9083252 418.3125 Q407.9083252 418.3125 408.4395752 417.5 Q408.9708252 416.6875 408.9708252 415.1875 Q408.9708252 413.9375 408.5020752 413.15625 Q408.0333252 412.375 407.0958252 412.375 Q406.4083252 412.375 405.9083252 412.625 Q405.4083252 412.875 404.9708252 413.6875 L404.4083252 413.625 L404.7208252 407.9375 L409.8458252 407.9375 L409.6583252 408.875 L405.1583252 408.875 L404.9083252 413 Q405.5333252 412.125 406.1270752 411.9375 Q406.7208252 411.75 407.3458252 411.75 Z" style="clip-path:url(#clipPath4); stroke:none;" />
    </g>
    <g transform="matrix(0.7071068,-0.7071068,0.7071068,0.7071068,-129.7055006,494.8632214)" style="font-size:16; fill:red; text-rendering:optimizeLegibility; font-family:&apos;宋体&apos;; stroke:red; stroke-width:0.5;">
      <path d="M474.3125 410.5625 Q474.3125 409.4375 473.8125 408.84375 Q473.3125 408.25 472.3125 408.25 Q471.5625 408.25 471.03125 408.65625 Q470.5 409.0625 470.5 409.6875 Q470.5 410.0625 470.75 410.3125 Q470.9375 410.5625 470.9375 410.8125 Q470.9375 411.125 470.78125 411.28125 Q470.625 411.4375 470.3125 411.4375 Q469.9375 411.4375 469.71875 411.21875 Q469.5 411 469.5 410.5 Q469.5 409.1875 470.4375 408.5 Q471.375 407.8125 472.4375 407.8125 Q473.9375 407.8125 474.65625 408.5625 Q475.375 409.3125 475.375 410.4375 Q475.375 411.1875 475.03125 411.9375 Q474.6875 412.6875 473.9375 413.375 Q472.125 415.125 471.15625 416.21875 Q470.1875 417.3125 470 417.6875 L473.6875 417.6875 Q474.25 417.6875 474.625 417.25 Q475 416.8125 475.125 415.9375 L475.5 415.9375 L475.125 418.625 L469.3125 418.625 L469.3125 417.8125 Q469.625 417.25 470.34375 416.375 Q471.0625 415.5 472.25 414.3125 Q473.3125 413.25 473.8125 412.3125 Q474.3125 411.375 474.3125 410.5625 ZM480.5 408.3125 Q479.625 408.3125 479.03125 409.65625 Q478.4375 411 478.4375 413.25 Q478.4375 415.625 479.03125 416.9375 Q479.625 418.25 480.5 418.25 Q481.4375 418.25 481.96875 416.9375 Q482.5 415.625 482.5 413.25 Q482.5 411 482 409.65625 Q481.5 408.3125 480.5 408.3125 ZM480.5 418.75 Q479.125 418.75 478.1875 417.3125 Q477.25 415.875 477.25 413.25 Q477.25 410.8125 478.15625 409.3125 Q479.0625 407.8125 480.5 407.8125 Q481.875 407.8125 482.78125 409.25 Q483.6875 410.6875 483.6875 413.25 Q483.6875 415.8125 482.78125 417.28125 Q481.875 418.75 480.5 418.75 ZM488.8125 411.75 Q490 411.75 490.75 412.65625 Q491.5 413.5625 491.5 415.0625 Q491.5 416.75 490.71875 417.75 Q489.9375 418.75 488.3125 418.75 Q487.1875 418.75 486.3125 418.09375 Q485.4375 417.4375 485.4375 416.5 Q485.4375 416.125 485.65625 415.84375 Q485.875 415.5625 486.25 415.5625 Q486.625 415.5625 486.75 415.8125 Q486.875 416.0625 486.875 416.25 Q486.875 416.625 486.6875 416.8125 Q486.5 417.0625 486.5 417.3125 Q486.5 417.8125 487.09375 418.0625 Q487.6875 418.3125 488.375 418.3125 Q489.375 418.3125 489.90625 417.5 Q490.4375 416.6875 490.4375 415.1875 Q490.4375 413.9375 489.96875 413.15625 Q489.5 412.375 488.5625 412.375 Q487.875 412.375 487.375 412.625 Q486.875 412.875 486.4375 413.6875 L485.875 413.625 L486.1875 407.9375 L491.3125 407.9375 L491.125 408.875 L486.625 408.875 L486.375 413 Q487 412.125 487.59375 411.9375 Q488.1875 411.75 488.8125 411.75 ZM496.5 408.3125 Q495.625 408.3125 495.03125 409.65625 Q494.4375 411 494.4375 413.25 Q494.4375 415.625 495.03125 416.9375 Q495.625 418.25 496.5 418.25 Q497.4375 418.25 497.96875 416.9375 Q498.5 415.625 498.5 413.25 Q498.5 411 498 409.65625 Q497.5 408.3125 496.5 408.3125 ZM496.5 418.75 Q495.125 418.75 494.1875 417.3125 Q493.25 415.875 493.25 413.25 Q493.25 410.8125 494.15625 409.3125 Q495.0625 407.8125 496.5 407.8125 Q497.875 407.8125 498.78125 409.25 Q499.6875 410.6875 499.6875 413.25 Q499.6875 415.8125 498.78125 417.28125 Q497.875 418.75 496.5 418.75 ZM501.5 420.0625 L501.0625 419.8125 L507.4375 406.4375 L507.875 406.6875 L501.5 420.0625 ZM510.4375 414.375 Q510.4375 416.25 511.09375 417.28125 Q511.75 418.3125 512.6875 418.3125 Q513.625 418.3125 514.125 417.625 Q514.625 416.9375 514.625 415.0625 Q514.625 413.8125 514.09375 413.125 Q513.5625 412.4375 512.8125 412.4375 Q512.125 412.4375 511.53125 412.84375 Q510.9375 413.25 510.4375 414.375 ZM512.875 411.8125 Q514.375 411.8125 515.03125 412.8125 Q515.6875 413.8125 515.6875 415.0625 Q515.6875 416.9375 514.78125 417.84375 Q513.875 418.75 512.6875 418.75 Q511 418.75 510.125 417.46875 Q509.25 416.1875 509.25 413.75 Q509.25 410.875 510.3125 409.34375 Q511.375 407.8125 513.1875 407.8125 Q514.0625 407.8125 514.59375 408.3125 Q515.125 408.8125 515.125 409.1875 Q515.125 409.5625 514.96875 409.75 Q514.8125 409.9375 514.4375 409.9375 Q514.125 409.9375 513.96875 409.78125 Q513.8125 409.625 513.8125 409.3125 Q513.8125 409.1875 513.875 409.0625 Q513.875 408.9375 513.875 408.8125 Q513.875 408.5625 513.6875 408.40625 Q513.5 408.25 513 408.25 Q511.9375 408.25 511.1875 409.21875 Q510.4375 410.1875 510.4375 413.4375 Q510.8125 412.625 511.46875 412.21875 Q512.125 411.8125 512.875 411.8125 ZM517.5 420.0625 L517.0625 419.8125 L523.4375 406.4375 L523.875 406.6875 L517.5 420.0625 ZM526.4375 414.375 Q526.4375 416.25 527.09375 417.28125 Q527.75 418.3125 528.6875 418.3125 Q529.625 418.3125 530.125 417.625 Q530.625 416.9375 530.625 415.0625 Q530.625 413.8125 530.09375 413.125 Q529.5625 412.4375 528.8125 412.4375 Q528.125 412.4375 527.53125 412.84375 Q526.9375 413.25 526.4375 414.375 ZM528.875 411.8125 Q530.375 411.8125 531.03125 412.8125 Q531.6875 413.8125 531.6875 415.0625 Q531.6875 416.9375 530.78125 417.84375 Q529.875 418.75 528.6875 418.75 Q527 418.75 526.125 417.46875 Q525.25 416.1875 525.25 413.75 Q525.25 410.875 526.3125 409.34375 Q527.375 407.8125 529.1875 407.8125 Q530.0625 407.8125 530.59375 408.3125 Q531.125 408.8125 531.125 409.1875 Q531.125 409.5625 530.96875 409.75 Q530.8125 409.9375 530.4375 409.9375 Q530.125 409.9375 529.96875 409.78125 Q529.8125 409.625 529.8125 409.3125 Q529.8125 409.1875 529.875 409.0625 Q529.875 408.9375 529.875 408.8125 Q529.875 408.5625 529.6875 408.40625 Q529.5 408.25 529 408.25 Q527.9375 408.25 527.1875 409.21875 Q526.4375 410.1875 526.4375 413.4375 Q526.8125 412.625 527.46875 412.21875 Q528.125 411.8125 528.875 411.8125 Z" style="clip-path:url(#clipPath5); stroke:none;" />
    </g>
    <g transform="matrix(0.7071068,-0.7071068,0.7071068,0.7071068,-94.1287352,580.7531308)" style="font-size:16; fill:red; text-rendering:optimizeLegibility; font-family:&apos;宋体&apos;; stroke:red; stroke-width:0.5;">
      <path d="M595.7791748 410.5625 Q595.7791748 409.4375 595.2791748 408.84375 Q594.7791748 408.25 593.7791748 408.25 Q593.0291748 408.25 592.4979248 408.65625 Q591.9666748 409.0625 591.9666748 409.6875 Q591.9666748 410.0625 592.2166748 410.3125 Q592.4041748 410.5625 592.4041748 410.8125 Q592.4041748 411.125 592.2479248 411.28125 Q592.0916748 411.4375 591.7791748 411.4375 Q591.4041748 411.4375 591.1854248 411.21875 Q590.9666748 411 590.9666748 410.5 Q590.9666748 409.1875 591.9041748 408.5 Q592.8416748 407.8125 593.9041748 407.8125 Q595.4041748 407.8125 596.1229248 408.5625 Q596.8416748 409.3125 596.8416748 410.4375 Q596.8416748 411.1875 596.4979248 411.9375 Q596.1541748 412.6875 595.4041748 413.375 Q593.5916748 415.125 592.6229248 416.21875 Q591.6541748 417.3125 591.4666748 417.6875 L595.1541748 417.6875 Q595.7166748 417.6875 596.0916748 417.25 Q596.4666748 416.8125 596.5916748 415.9375 L596.9666748 415.9375 L596.5916748 418.625 L590.7791748 418.625 L590.7791748 417.8125 Q591.0916748 417.25 591.8104248 416.375 Q592.5291748 415.5 593.7166748 414.3125 Q594.7791748 413.25 595.2791748 412.3125 Q595.7791748 411.375 595.7791748 410.5625 ZM601.9666748 408.3125 Q601.0916748 408.3125 600.4979248 409.65625 Q599.9041748 411 599.9041748 413.25 Q599.9041748 415.625 600.4979248 416.9375 Q601.0916748 418.25 601.9666748 418.25 Q602.9041748 418.25 603.4354248 416.9375 Q603.9666748 415.625 603.9666748 413.25 Q603.9666748 411 603.4666748 409.65625 Q602.9666748 408.3125 601.9666748 408.3125 ZM601.9666748 418.75 Q600.5916748 418.75 599.6541748 417.3125 Q598.7166748 415.875 598.7166748 413.25 Q598.7166748 410.8125 599.6229248 409.3125 Q600.5291748 407.8125 601.9666748 407.8125 Q603.3416748 407.8125 604.2479248 409.25 Q605.1541748 410.6875 605.1541748 413.25 Q605.1541748 415.8125 604.2479248 417.28125 Q603.3416748 418.75 601.9666748 418.75 ZM607.9041748 414.375 Q607.9041748 416.25 608.5604248 417.28125 Q609.2166748 418.3125 610.1541748 418.3125 Q611.0916748 418.3125 611.5916748 417.625 Q612.0916748 416.9375 612.0916748 415.0625 Q612.0916748 413.8125 611.5604248 413.125 Q611.0291748 412.4375 610.2791748 412.4375 Q609.5916748 412.4375 608.9979248 412.84375 Q608.4041748 413.25 607.9041748 414.375 ZM610.3416748 411.8125 Q611.8416748 411.8125 612.4979248 412.8125 Q613.1541748 413.8125 613.1541748 415.0625 Q613.1541748 416.9375 612.2479248 417.84375 Q611.3416748 418.75 610.1541748 418.75 Q608.4666748 418.75 607.5916748 417.46875 Q606.7166748 416.1875 606.7166748 413.75 Q606.7166748 410.875 607.7791748 409.34375 Q608.8416748 407.8125 610.6541748 407.8125 Q611.5291748 407.8125 612.0604248 408.3125 Q612.5916748 408.8125 612.5916748 409.1875 Q612.5916748 409.5625 612.4354248 409.75 Q612.2791748 409.9375 611.9041748 409.9375 Q611.5916748 409.9375 611.4354248 409.78125 Q611.2791748 409.625 611.2791748 409.3125 Q611.2791748 409.1875 611.3416748 409.0625 Q611.3416748 408.9375 611.3416748 408.8125 Q611.3416748 408.5625 611.1541748 408.40625 Q610.9666748 408.25 610.4666748 408.25 Q609.4041748 408.25 608.6541748 409.21875 Q607.9041748 410.1875 607.9041748 413.4375 Q608.2791748 412.625 608.9354248 412.21875 Q609.5916748 411.8125 610.3416748 411.8125 ZM617.9666748 408.3125 Q617.0916748 408.3125 616.4979248 409.65625 Q615.9041748 411 615.9041748 413.25 Q615.9041748 415.625 616.4979248 416.9375 Q617.0916748 418.25 617.9666748 418.25 Q618.9041748 418.25 619.4354248 416.9375 Q619.9666748 415.625 619.9666748 413.25 Q619.9666748 411 619.4666748 409.65625 Q618.9666748 408.3125 617.9666748 408.3125 ZM617.9666748 418.75 Q616.5916748 418.75 615.6541748 417.3125 Q614.7166748 415.875 614.7166748 413.25 Q614.7166748 410.8125 615.6229248 409.3125 Q616.5291748 407.8125 617.9666748 407.8125 Q619.3416748 407.8125 620.2479248 409.25 Q621.1541748 410.6875 621.1541748 413.25 Q621.1541748 415.8125 620.2479248 417.28125 Q619.3416748 418.75 617.9666748 418.75 ZM622.9666748 420.0625 L622.5291748 419.8125 L628.9041748 406.4375 L629.3416748 406.6875 L622.9666748 420.0625 ZM637.0291748 408.375 Q635.7166748 410.5 634.9354248 412.53125 Q634.1541748 414.5625 634.1541748 416.0625 Q634.1541748 416.3125 634.2166748 416.75 Q634.2166748 417.25 634.2166748 417.875 Q634.2166748 418.375 634.0604248 418.5625 Q633.9041748 418.75 633.5291748 418.75 Q633.2166748 418.75 632.9979248 418.53125 Q632.7791748 418.3125 632.7791748 417.75 Q632.7791748 416.5625 633.3104248 414.8125 Q633.8416748 413.0625 636.1541748 408.875 L633.0291748 408.875 Q632.3416748 408.875 631.9354248 409.3125 Q631.5291748 409.75 631.3416748 410.625 L630.9666748 410.5625 L631.4041748 407.9375 L637.0291748 407.9375 L637.0291748 408.375 ZM638.9666748 420.0625 L638.5291748 419.8125 L644.9041748 406.4375 L645.3416748 406.6875 L638.9666748 420.0625 ZM650.2791748 411.75 Q651.4666748 411.75 652.2166748 412.65625 Q652.9666748 413.5625 652.9666748 415.0625 Q652.9666748 416.75 652.1854248 417.75 Q651.4041748 418.75 649.7791748 418.75 Q648.6541748 418.75 647.7791748 418.09375 Q646.9041748 417.4375 646.9041748 416.5 Q646.9041748 416.125 647.1229248 415.84375 Q647.3416748 415.5625 647.7166748 415.5625 Q648.0916748 415.5625 648.2166748 415.8125 Q648.3416748 416.0625 648.3416748 416.25 Q648.3416748 416.625 648.1541748 416.8125 Q647.9666748 417.0625 647.9666748 417.3125 Q647.9666748 417.8125 648.5604248 418.0625 Q649.1541748 418.3125 649.8416748 418.3125 Q650.8416748 418.3125 651.3729248 417.5 Q651.9041748 416.6875 651.9041748 415.1875 Q651.9041748 413.9375 651.4354248 413.15625 Q650.9666748 412.375 650.0291748 412.375 Q649.3416748 412.375 648.8416748 412.625 Q648.3416748 412.875 647.9041748 413.6875 L647.3416748 413.625 L647.6541748 407.9375 L652.7791748 407.9375 L652.5916748 408.875 L648.0916748 408.875 L647.8416748 413 Q648.4666748 412.125 649.0604248 411.9375 Q649.6541748 411.75 650.2791748 411.75 Z" style="clip-path:url(#clipPath6); stroke:none;" />
    </g>
    <g transform="matrix(0.7071068,-0.7071068,0.7071068,0.7071068,-58.5519699,666.6430403)" style="font-size:16; fill:red; text-rendering:optimizeLegibility; font-family:&apos;宋体&apos;; stroke:red; stroke-width:0.5;">
      <path d="M709.2458496 410.5625 Q709.2458496 409.4375 708.7458496 408.84375 Q708.2458496 408.25 707.2458496 408.25 Q706.4958496 408.25 705.9645996 408.65625 Q705.4333496 409.0625 705.4333496 409.6875 Q705.4333496 410.0625 705.6833496 410.3125 Q705.8708496 410.5625 705.8708496 410.8125 Q705.8708496 411.125 705.7145996 411.28125 Q705.5583496 411.4375 705.2458496 411.4375 Q704.8708496 411.4375 704.6520996 411.21875 Q704.4333496 411 704.4333496 410.5 Q704.4333496 409.1875 705.3708496 408.5 Q706.3083496 407.8125 707.3708496 407.8125 Q708.8708496 407.8125 709.5895996 408.5625 Q710.3083496 409.3125 710.3083496 410.4375 Q710.3083496 411.1875 709.9645996 411.9375 Q709.6208496 412.6875 708.8708496 413.375 Q707.0583496 415.125 706.0895996 416.21875 Q705.1208496 417.3125 704.9333496 417.6875 L708.6208496 417.6875 Q709.1833496 417.6875 709.5583496 417.25 Q709.9333496 416.8125 710.0583496 415.9375 L710.4333496 415.9375 L710.0583496 418.625 L704.2458496 418.625 L704.2458496 417.8125 Q704.5583496 417.25 705.2770996 416.375 Q705.9958496 415.5 707.1833496 414.3125 Q708.2458496 413.25 708.7458496 412.3125 Q709.2458496 411.375 709.2458496 410.5625 ZM715.4333496 408.3125 Q714.5583496 408.3125 713.9645996 409.65625 Q713.3708496 411 713.3708496 413.25 Q713.3708496 415.625 713.9645996 416.9375 Q714.5583496 418.25 715.4333496 418.25 Q716.3708496 418.25 716.9020996 416.9375 Q717.4333496 415.625 717.4333496 413.25 Q717.4333496 411 716.9333496 409.65625 Q716.4333496 408.3125 715.4333496 408.3125 ZM715.4333496 418.75 Q714.0583496 418.75 713.1208496 417.3125 Q712.1833496 415.875 712.1833496 413.25 Q712.1833496 410.8125 713.0895996 409.3125 Q713.9958496 407.8125 715.4333496 407.8125 Q716.8083496 407.8125 717.7145996 409.25 Q718.6208496 410.6875 718.6208496 413.25 Q718.6208496 415.8125 717.7145996 417.28125 Q716.8083496 418.75 715.4333496 418.75 ZM726.4958496 408.375 Q725.1833496 410.5 724.4020996 412.53125 Q723.6208496 414.5625 723.6208496 416.0625 Q723.6208496 416.3125 723.6833496 416.75 Q723.6833496 417.25 723.6833496 417.875 Q723.6833496 418.375 723.5270996 418.5625 Q723.3708496 418.75 722.9958496 418.75 Q722.6833496 418.75 722.4645996 418.53125 Q722.2458496 418.3125 722.2458496 417.75 Q722.2458496 416.5625 722.7770996 414.8125 Q723.3083496 413.0625 725.6208496 408.875 L722.4958496 408.875 Q721.8083496 408.875 721.4020996 409.3125 Q720.9958496 409.75 720.8083496 410.625 L720.4333496 410.5625 L720.8708496 407.9375 L726.4958496 407.9375 L726.4958496 408.375 ZM731.4333496 408.3125 Q730.5583496 408.3125 729.9645996 409.65625 Q729.3708496 411 729.3708496 413.25 Q729.3708496 415.625 729.9645996 416.9375 Q730.5583496 418.25 731.4333496 418.25 Q732.3708496 418.25 732.9020996 416.9375 Q733.4333496 415.625 733.4333496 413.25 Q733.4333496 411 732.9333496 409.65625 Q732.4333496 408.3125 731.4333496 408.3125 ZM731.4333496 418.75 Q730.0583496 418.75 729.1208496 417.3125 Q728.1833496 415.875 728.1833496 413.25 Q728.1833496 410.8125 729.0895996 409.3125 Q729.9958496 407.8125 731.4333496 407.8125 Q732.8083496 407.8125 733.7145996 409.25 Q734.6208496 410.6875 734.6208496 413.25 Q734.6208496 415.8125 733.7145996 417.28125 Q732.8083496 418.75 731.4333496 418.75 ZM736.4333496 420.0625 L735.9958496 419.8125 L742.3708496 406.4375 L742.8083496 406.6875 L736.4333496 420.0625 ZM744.9958496 416.0625 Q744.9958496 417.0625 745.6520996 417.6875 Q746.3083496 418.3125 747.3083496 418.3125 Q748.4958496 418.3125 749.0270996 417.6875 Q749.5583496 417.0625 749.5583496 416.125 Q749.5583496 415.3125 748.8083496 414.5625 Q748.0583496 413.8125 746.5583496 413.1875 Q745.8083496 413.6875 745.4020996 414.4375 Q744.9958496 415.1875 744.9958496 416.0625 ZM750.4958496 415.9375 Q750.4958496 417.125 749.6208496 417.9375 Q748.7458496 418.75 747.3083496 418.75 Q745.9958496 418.75 745.0583496 417.9375 Q744.1208496 417.125 744.1208496 416.0625 Q744.1208496 415 744.6520996 414.25 Q745.1833496 413.5 746.1833496 412.9375 Q745.3083496 412.5 744.8395996 411.84375 Q744.3708496 411.1875 744.3708496 410.375 Q744.3708496 409.3125 745.1833496 408.5625 Q745.9958496 407.8125 747.4333496 407.8125 Q748.7458496 407.8125 749.5583496 408.5625 Q750.3708496 409.3125 750.3708496 410.375 Q750.3708496 411.125 749.9020996 411.78125 Q749.4333496 412.4375 748.4333496 412.9375 Q749.4958496 413.5625 749.9958496 414.3125 Q750.4958496 415.0625 750.4958496 415.9375 ZM749.4958496 410.4375 Q749.4958496 409.5625 748.9958496 408.90625 Q748.4958496 408.25 747.4333496 408.25 Q746.2458496 408.25 745.7458496 408.875 Q745.2458496 409.5 745.2458496 410.1875 Q745.2458496 410.875 745.9645996 411.53125 Q746.6833496 412.1875 747.9958496 412.6875 Q748.7458496 412.3125 749.1208496 411.75 Q749.4958496 411.1875 749.4958496 410.4375 ZM752.4333496 420.0625 L751.9958496 419.8125 L758.3708496 406.4375 L758.8083496 406.6875 L752.4333496 420.0625 ZM765.2458496 410.5625 Q765.2458496 409.4375 764.7458496 408.84375 Q764.2458496 408.25 763.2458496 408.25 Q762.4958496 408.25 761.9645996 408.65625 Q761.4333496 409.0625 761.4333496 409.6875 Q761.4333496 410.0625 761.6833496 410.3125 Q761.8708496 410.5625 761.8708496 410.8125 Q761.8708496 411.125 761.7145996 411.28125 Q761.5583496 411.4375 761.2458496 411.4375 Q760.8708496 411.4375 760.6520996 411.21875 Q760.4333496 411 760.4333496 410.5 Q760.4333496 409.1875 761.3708496 408.5 Q762.3083496 407.8125 763.3708496 407.8125 Q764.8708496 407.8125 765.5895996 408.5625 Q766.3083496 409.3125 766.3083496 410.4375 Q766.3083496 411.1875 765.9645996 411.9375 Q765.6208496 412.6875 764.8708496 413.375 Q763.0583496 415.125 762.0895996 416.21875 Q761.1208496 417.3125 760.9333496 417.6875 L764.6208496 417.6875 Q765.1833496 417.6875 765.5583496 417.25 Q765.9333496 416.8125 766.0583496 415.9375 L766.4333496 415.9375 L766.0583496 418.625 L760.2458496 418.625 L760.2458496 417.8125 Q760.5583496 417.25 761.2770996 416.375 Q761.9958496 415.5 763.1833496 414.3125 Q764.2458496 413.25 764.7458496 412.3125 Q765.2458496 411.375 765.2458496 410.5625 ZM771.9958496 407.75 L771.9958496 417.25 Q771.9958496 417.75 772.3083496 418 Q772.6208496 418.25 773.1833496 418.25 L773.8083496 418.25 L773.8083496 418.625 L769.2458496 418.625 L769.2458496 418.25 L769.8083496 418.25 Q770.4333496 418.25 770.7145996 418 Q770.9958496 417.75 770.9958496 417.25 L770.9958496 409.6875 Q770.9958496 409.4375 770.8395996 409.28125 Q770.6833496 409.125 770.3708496 409.125 L769.2458496 409.125 L769.2458496 408.75 L769.8083496 408.75 Q770.5583496 408.75 771.0270996 408.5 Q771.4958496 408.25 771.7458496 407.75 L771.9958496 407.75 Z" style="clip-path:url(#clipPath7); stroke:none;" />
    </g>
    <g transform="matrix(0.7071068,-0.7071068,0.7071068,0.7071068,-22.9752045,752.5329497)" style="font-size:16; fill:red; text-rendering:optimizeLegibility; font-family:&apos;宋体&apos;; stroke:red; stroke-width:0.5;">
      <path d="M830.7125244 410.5625 Q830.7125244 409.4375 830.2125244 408.84375 Q829.7125244 408.25 828.7125244 408.25 Q827.9625244 408.25 827.4312744 408.65625 Q826.9000244 409.0625 826.9000244 409.6875 Q826.9000244 410.0625 827.1500244 410.3125 Q827.3375244 410.5625 827.3375244 410.8125 Q827.3375244 411.125 827.1812744 411.28125 Q827.0250244 411.4375 826.7125244 411.4375 Q826.3375244 411.4375 826.1187744 411.21875 Q825.9000244 411 825.9000244 410.5 Q825.9000244 409.1875 826.8375244 408.5 Q827.7750244 407.8125 828.8375244 407.8125 Q830.3375244 407.8125 831.0562744 408.5625 Q831.7750244 409.3125 831.7750244 410.4375 Q831.7750244 411.1875 831.4312744 411.9375 Q831.0875244 412.6875 830.3375244 413.375 Q828.5250244 415.125 827.5562744 416.21875 Q826.5875244 417.3125 826.4000244 417.6875 L830.0875244 417.6875 Q830.6500244 417.6875 831.0250244 417.25 Q831.4000244 416.8125 831.5250244 415.9375 L831.9000244 415.9375 L831.5250244 418.625 L825.7125244 418.625 L825.7125244 417.8125 Q826.0250244 417.25 826.7437744 416.375 Q827.4625244 415.5 828.6500244 414.3125 Q829.7125244 413.25 830.2125244 412.3125 Q830.7125244 411.375 830.7125244 410.5625 ZM836.9000244 408.3125 Q836.0250244 408.3125 835.4312744 409.65625 Q834.8375244 411 834.8375244 413.25 Q834.8375244 415.625 835.4312744 416.9375 Q836.0250244 418.25 836.9000244 418.25 Q837.8375244 418.25 838.3687744 416.9375 Q838.9000244 415.625 838.9000244 413.25 Q838.9000244 411 838.4000244 409.65625 Q837.9000244 408.3125 836.9000244 408.3125 ZM836.9000244 418.75 Q835.5250244 418.75 834.5875244 417.3125 Q833.6500244 415.875 833.6500244 413.25 Q833.6500244 410.8125 834.5562744 409.3125 Q835.4625244 407.8125 836.9000244 407.8125 Q838.2750244 407.8125 839.1812744 409.25 Q840.0875244 410.6875 840.0875244 413.25 Q840.0875244 415.8125 839.1812744 417.28125 Q838.2750244 418.75 836.9000244 418.75 ZM842.4625244 416.0625 Q842.4625244 417.0625 843.1187744 417.6875 Q843.7750244 418.3125 844.7750244 418.3125 Q845.9625244 418.3125 846.4937744 417.6875 Q847.0250244 417.0625 847.0250244 416.125 Q847.0250244 415.3125 846.2750244 414.5625 Q845.5250244 413.8125 844.0250244 413.1875 Q843.2750244 413.6875 842.8687744 414.4375 Q842.4625244 415.1875 842.4625244 416.0625 ZM847.9625244 415.9375 Q847.9625244 417.125 847.0875244 417.9375 Q846.2125244 418.75 844.7750244 418.75 Q843.4625244 418.75 842.5250244 417.9375 Q841.5875244 417.125 841.5875244 416.0625 Q841.5875244 415 842.1187744 414.25 Q842.6500244 413.5 843.6500244 412.9375 Q842.7750244 412.5 842.3062744 411.84375 Q841.8375244 411.1875 841.8375244 410.375 Q841.8375244 409.3125 842.6500244 408.5625 Q843.4625244 407.8125 844.9000244 407.8125 Q846.2125244 407.8125 847.0250244 408.5625 Q847.8375244 409.3125 847.8375244 410.375 Q847.8375244 411.125 847.3687744 411.78125 Q846.9000244 412.4375 845.9000244 412.9375 Q846.9625244 413.5625 847.4625244 414.3125 Q847.9625244 415.0625 847.9625244 415.9375 ZM846.9625244 410.4375 Q846.9625244 409.5625 846.4625244 408.90625 Q845.9625244 408.25 844.9000244 408.25 Q843.7125244 408.25 843.2125244 408.875 Q842.7125244 409.5 842.7125244 410.1875 Q842.7125244 410.875 843.4312744 411.53125 Q844.1500244 412.1875 845.4625244 412.6875 Q846.2125244 412.3125 846.5875244 411.75 Q846.9625244 411.1875 846.9625244 410.4375 ZM852.9000244 408.3125 Q852.0250244 408.3125 851.4312744 409.65625 Q850.8375244 411 850.8375244 413.25 Q850.8375244 415.625 851.4312744 416.9375 Q852.0250244 418.25 852.9000244 418.25 Q853.8375244 418.25 854.3687744 416.9375 Q854.9000244 415.625 854.9000244 413.25 Q854.9000244 411 854.4000244 409.65625 Q853.9000244 408.3125 852.9000244 408.3125 ZM852.9000244 418.75 Q851.5250244 418.75 850.5875244 417.3125 Q849.6500244 415.875 849.6500244 413.25 Q849.6500244 410.8125 850.5562744 409.3125 Q851.4625244 407.8125 852.9000244 407.8125 Q854.2750244 407.8125 855.1812744 409.25 Q856.0875244 410.6875 856.0875244 413.25 Q856.0875244 415.8125 855.1812744 417.28125 Q854.2750244 418.75 852.9000244 418.75 ZM857.9000244 420.0625 L857.4625244 419.8125 L863.8375244 406.4375 L864.2750244 406.6875 L857.9000244 420.0625 ZM866.4625244 416.0625 Q866.4625244 417.0625 867.1187744 417.6875 Q867.7750244 418.3125 868.7750244 418.3125 Q869.9625244 418.3125 870.4937744 417.6875 Q871.0250244 417.0625 871.0250244 416.125 Q871.0250244 415.3125 870.2750244 414.5625 Q869.5250244 413.8125 868.0250244 413.1875 Q867.2750244 413.6875 866.8687744 414.4375 Q866.4625244 415.1875 866.4625244 416.0625 ZM871.9625244 415.9375 Q871.9625244 417.125 871.0875244 417.9375 Q870.2125244 418.75 868.7750244 418.75 Q867.4625244 418.75 866.5250244 417.9375 Q865.5875244 417.125 865.5875244 416.0625 Q865.5875244 415 866.1187744 414.25 Q866.6500244 413.5 867.6500244 412.9375 Q866.7750244 412.5 866.3062744 411.84375 Q865.8375244 411.1875 865.8375244 410.375 Q865.8375244 409.3125 866.6500244 408.5625 Q867.4625244 407.8125 868.9000244 407.8125 Q870.2125244 407.8125 871.0250244 408.5625 Q871.8375244 409.3125 871.8375244 410.375 Q871.8375244 411.125 871.3687744 411.78125 Q870.9000244 412.4375 869.9000244 412.9375 Q870.9625244 413.5625 871.4625244 414.3125 Q871.9625244 415.0625 871.9625244 415.9375 ZM870.9625244 410.4375 Q870.9625244 409.5625 870.4625244 408.90625 Q869.9625244 408.25 868.9000244 408.25 Q867.7125244 408.25 867.2125244 408.875 Q866.7125244 409.5 866.7125244 410.1875 Q866.7125244 410.875 867.4312744 411.53125 Q868.1500244 412.1875 869.4625244 412.6875 Q870.2125244 412.3125 870.5875244 411.75 Q870.9625244 411.1875 870.9625244 410.4375 ZM873.9000244 420.0625 L873.4625244 419.8125 L879.8375244 406.4375 L880.2750244 406.6875 L873.9000244 420.0625 ZM886.7125244 410.5625 Q886.7125244 409.4375 886.2125244 408.84375 Q885.7125244 408.25 884.7125244 408.25 Q883.9625244 408.25 883.4312744 408.65625 Q882.9000244 409.0625 882.9000244 409.6875 Q882.9000244 410.0625 883.1500244 410.3125 Q883.3375244 410.5625 883.3375244 410.8125 Q883.3375244 411.125 883.1812744 411.28125 Q883.0250244 411.4375 882.7125244 411.4375 Q882.3375244 411.4375 882.1187744 411.21875 Q881.9000244 411 881.9000244 410.5 Q881.9000244 409.1875 882.8375244 408.5 Q883.7750244 407.8125 884.8375244 407.8125 Q886.3375244 407.8125 887.0562744 408.5625 Q887.7750244 409.3125 887.7750244 410.4375 Q887.7750244 411.1875 887.4312744 411.9375 Q887.0875244 412.6875 886.3375244 413.375 Q884.5250244 415.125 883.5562744 416.21875 Q882.5875244 417.3125 882.4000244 417.6875 L886.0875244 417.6875 Q886.6500244 417.6875 887.0250244 417.25 Q887.4000244 416.8125 887.5250244 415.9375 L887.9000244 415.9375 L887.5250244 418.625 L881.7125244 418.625 L881.7125244 417.8125 Q882.0250244 417.25 882.7437744 416.375 Q883.4625244 415.5 884.6500244 414.3125 Q885.7125244 413.25 886.2125244 412.3125 Q886.7125244 411.375 886.7125244 410.5625 ZM894.7125244 410.5625 Q894.7125244 409.4375 894.2125244 408.84375 Q893.7125244 408.25 892.7125244 408.25 Q891.9625244 408.25 891.4312744 408.65625 Q890.9000244 409.0625 890.9000244 409.6875 Q890.9000244 410.0625 891.1500244 410.3125 Q891.3375244 410.5625 891.3375244 410.8125 Q891.3375244 411.125 891.1812744 411.28125 Q891.0250244 411.4375 890.7125244 411.4375 Q890.3375244 411.4375 890.1187744 411.21875 Q889.9000244 411 889.9000244 410.5 Q889.9000244 409.1875 890.8375244 408.5 Q891.7750244 407.8125 892.8375244 407.8125 Q894.3375244 407.8125 895.0562744 408.5625 Q895.7750244 409.3125 895.7750244 410.4375 Q895.7750244 411.1875 895.4312744 411.9375 Q895.0875244 412.6875 894.3375244 413.375 Q892.5250244 415.125 891.5562744 416.21875 Q890.5875244 417.3125 890.4000244 417.6875 L894.0875244 417.6875 Q894.6500244 417.6875 895.0250244 417.25 Q895.4000244 416.8125 895.5250244 415.9375 L895.9000244 415.9375 L895.5250244 418.625 L889.7125244 418.625 L889.7125244 417.8125 Q890.0250244 417.25 890.7437744 416.375 Q891.4625244 415.5 892.6500244 414.3125 Q893.7125244 413.25 894.2125244 412.3125 Q894.7125244 411.375 894.7125244 410.5625 Z" style="clip-path:url(#clipPath8); stroke:none;" />
    </g>
    <g style="font-size:16; fill:rgb(64,64,64); text-rendering:optimizeLegibility; font-family:&apos;宋体&apos;; stroke:rgb(64,64,64); stroke-width:0.5;">
      <text x="516.5" y="490.9717102" style="clip-path:url(#clipPath1); stroke:none;" xml:space="preserve">时间</text>
      <text x="51" y="385.1666565" style="clip-path:url(#clipPath1); fill:blue; stroke:none;" xml:space="preserve">0%</text>
      <text x="43" y="355.25" style="clip-path:url(#clipPath1); fill:blue; stroke:none;" xml:space="preserve">10%</text>
      <text x="43" y="325.3333435" style="clip-path:url(#clipPath1); fill:blue; stroke:none;" xml:space="preserve">20%</text>
      <text x="43" y="295.4166565" style="clip-path:url(#clipPath1); fill:blue; stroke:none;" xml:space="preserve">30%</text>
      <text x="43" y="265.5" style="clip-path:url(#clipPath1); fill:blue; stroke:none;" xml:space="preserve">40%</text>
      <text x="43" y="235.5833282" style="clip-path:url(#clipPath1); fill:blue; stroke:none;" xml:space="preserve">50%</text>
      <text x="43" y="205.6666718" style="clip-path:url(#clipPath1); fill:blue; stroke:none;" xml:space="preserve">60%</text>
      <text x="43" y="175.75" style="clip-path:url(#clipPath1); fill:blue; stroke:none;" xml:space="preserve">70%</text>
      <text x="43" y="145.8333282" style="clip-path:url(#clipPath1); fill:blue; stroke:none;" xml:space="preserve">80%</text>
      <text x="43" y="115.9166641" style="clip-path:url(#clipPath1); fill:blue; stroke:none;" xml:space="preserve">90%</text>
      <text x="35" y="86" style="clip-path:url(#clipPath1); fill:blue; stroke:none;" xml:space="preserve">100%</text>
      <text x="35" y="56.0833321" style="clip-path:url(#clipPath1); fill:blue; stroke:none;" xml:space="preserve">110%</text>
      <path d="M15.375 216.8125 Q16.875 217 17.0625 216.9375 Q17.25 216.875 17.25 216.5 L17.25 211.9375 L15 212.8125 Q15 216.9375 15.0625 218.625 L14.125 219.0625 Q14.1875 216.875 14.1875 213.125 L12.25 213.875 L12.25 219.9375 Q12.25 220.6875 13.0625 220.6875 L17.8125 220.6875 Q18.5 220.5625 18.59375 219.6875 Q18.6875 218.8125 18.6875 217.625 L19 217.625 Q19.0625 218.875 19.1875 219.5 Q19.3125 220.125 19.875 220.375 Q19.375 221.4375 18.4375 221.4375 L12.75 221.4375 Q11.4375 221.4375 11.4375 220 L11.4375 214.125 L10.0625 214.625 L9.6875 214.9375 L9.0625 214.625 L11.4375 213.75 L11.4375 211.5 Q11.4375 210.6875 11.375 209.5625 L12.6875 210.25 L12.25 210.625 L12.25 213.5 L14.1875 212.75 L14.1875 209.75 Q14.1875 208.625 14.125 207.625 L15.5625 208.25 L15 208.75 L15 212.4375 L17.0625 211.5625 L17.5625 210.9375 L18.5625 211.6875 L18.0625 212.1875 L18.0625 216.9375 Q18.0625 217.3125 17.78125 217.65625 Q17.5 218 16.9375 218.25 Q16.875 217.5625 15.375 217.0625 L15.375 216.8125 ZM8.375 218.75 L10.875 217.875 L10.9375 218.1875 Q6.4375 220.125 5.875 220.875 L5.125 219.75 Q5.875 219.5625 7.5 219 L7.5 213.375 L7.25 213.375 Q6.4375 213.375 5.75 213.5625 L5.1875 213 L7.5 213 L7.5 210.125 Q7.5 209.25 7.4375 208 L8.875 208.6875 L8.375 209.125 L8.375 213 L9 213 L9.6875 212.3125 L10.75 213.375 L8.375 213.375 L8.375 218.75 ZM32.1875 208.3125 L32.3125 208.125 Q33.6875 208.6875 33.96875 209 Q34.25 209.3125 34.25 209.5625 Q34.25 209.8125 34.0625 210.15625 Q33.875 210.5 33.75 210.5 Q33.5625 210.5 33.375 210 Q33.0625 209.1875 32.1875 208.3125 ZM26.8125 212.8125 L26.9375 212.625 Q28.5 213.4375 28.8125 213.8125 Q29.125 214.1875 29.125 214.5 Q29.125 214.75 28.90625 215.125 Q28.6875 215.5 28.5625 215.5 Q28.3125 215.5 28.125 214.8125 Q27.75 213.8125 26.8125 212.8125 ZM30.125 207.5625 L31.5 208.1875 L31.0625 208.625 L31.0625 211.125 L33.6875 211.125 L34.5 210.3125 L35.6875 211.5 L31.0625 211.5 Q31.5 213.625 32.25 215.125 Q33.625 213.5625 34.0625 212.5625 L35.1875 213.625 Q34.5625 213.625 32.375 215.4375 Q33.8125 218.125 35.8125 218.9375 L35.8125 219.1875 Q34.9375 219.125 34.4375 219.8125 Q33.375 218.8125 32.40625 216.90625 Q31.4375 215 31.0625 212.75 L31.0625 220.4375 Q31.0625 221.6875 29.5625 222.125 Q29.5625 221.1875 27.875 220.6875 L27.875 220.4375 Q29.125 220.5625 29.65625 220.59375 Q30.1875 220.625 30.1875 220.25 L30.1875 216.5 Q27.125 218.875 26.9375 219.5 L25.9375 218.5 Q26.8125 218.25 30.1875 216.125 L30.1875 211.5 L28 211.5 Q27.3125 211.4375 26.75 211.625 L26.25 211.125 L30.1875 211.125 Q30.1875 208.8125 30.125 207.5625 ZM21.1875 209.75 L25.3125 209.75 L26 209.0625 L27 210.125 L24.4375 210.125 L24.4375 214 L25.25 214 L25.875 213.375 L26.6875 214.375 L24.4375 214.375 L24.4375 218 L27 217.125 L27.0625 217.375 Q22.25 219.4375 21.8125 220.125 L21.125 219 Q22.125 218.75 23.5625 218.25 L23.5625 214.375 L23.4375 214.375 Q22.625 214.375 21.9375 214.5625 L21.375 214 L23.5625 214 L23.5625 210.125 L23.25 210.125 Q22.4375 210.125 21.75 210.3125 L21.1875 209.75 Z" style="clip-path:url(#clipPath9); stroke:none;" transform="matrix(0,-1,1,0,-194,235)" />
    </g>
    <g style="font-size:16; fill:gray; text-rendering:optimizeLegibility; font-family:&apos;宋体&apos;; stroke:gray; stroke-width:0.2;">
      <line x1="77" x2="988" y1="379.0416667" style="clip-path:url(#clipPath10); fill:none;" y2="379.0416667" />
      <line x1="77" x2="988" y1="349.125" style="clip-path:url(#clipPath10); fill:none;" y2="349.125" />
      <line x1="77" x2="988" y1="319.2083333" style="clip-path:url(#clipPath10); fill:none;" y2="319.2083333" />
      <line x1="77" x2="988" y1="289.2916667" style="clip-path:url(#clipPath10); fill:none;" y2="289.2916667" />
      <line x1="77" x2="988" y1="259.375" style="clip-path:url(#clipPath10); fill:none;" y2="259.375" />
      <line x1="77" x2="988" y1="229.4583333" style="clip-path:url(#clipPath10); fill:none;" y2="229.4583333" />
      <line x1="77" x2="988" y1="199.5416667" style="clip-path:url(#clipPath10); fill:none;" y2="199.5416667" />
      <line x1="77" x2="988" y1="169.625" style="clip-path:url(#clipPath10); fill:none;" y2="169.625" />
      <line x1="77" x2="988" y1="139.7083333" style="clip-path:url(#clipPath10); fill:none;" y2="139.7083333" />
      <line x1="77" x2="988" y1="109.7916667" style="clip-path:url(#clipPath10); fill:none;" y2="109.7916667" />
      <line x1="77" x2="988" y1="79.875" style="clip-path:url(#clipPath10); fill:none;" y2="79.875" />
      <line x1="77" x2="988" y1="49.9583333" style="clip-path:url(#clipPath10); fill:none;" y2="49.9583333" />
      <line x1="168.1" x2="289.5666667" y1="379.0416667" style="clip-path:url(#clipPath10); fill:none; stroke:rgb(49,133,156); stroke-width:3;" y2="82.8666667" />
      <line x1="289.5666667" x2="411.0333333" y1="82.8666667" style="clip-path:url(#clipPath10); fill:none; stroke:rgb(49,133,156); stroke-width:3;" y2="156.342" />
      <line x1="411.0333333" x2="532.5" y1="156.342" style="clip-path:url(#clipPath10); fill:none; stroke:rgb(49,133,156); stroke-width:3;" y2="142.07175" />
      <line x1="532.5" x2="653.9666667" y1="142.07175" style="clip-path:url(#clipPath10); fill:none; stroke:rgb(49,133,156); stroke-width:3;" y2="135.07125" />
      <line x1="653.9666667" x2="775.4333333" y1="135.07125" style="clip-path:url(#clipPath10); fill:none; stroke:rgb(49,133,156); stroke-width:3;" y2="203.2214167" />
      <line x1="775.4333333" x2="896.9" y1="203.2214167" style="clip-path:url(#clipPath10); fill:none; stroke:rgb(49,133,156); stroke-width:3;" y2="79.875" />
      <text x="148.1000061" y="371.6666565" style="clip-path:url(#clipPath10); fill:black; stroke:none; stroke-width:3;" xml:space="preserve">0.00%</text>
      <text x="265.5666809" y="75.4916687" style="clip-path:url(#clipPath10); fill:black; stroke:none; stroke-width:3;" xml:space="preserve">99.00%</text>
      <text x="387.0333252" y="148.9669952" style="clip-path:url(#clipPath10); fill:black; stroke:none; stroke-width:3;" xml:space="preserve">74.44%</text>
      <text x="508.5" y="134.6967468" style="clip-path:url(#clipPath10); fill:black; stroke:none; stroke-width:3;" xml:space="preserve">79.21%</text>
      <text x="629.9666748" y="127.6962433" style="clip-path:url(#clipPath10); fill:black; stroke:none; stroke-width:3;" xml:space="preserve">81.55%</text>
      <text x="751.4333496" y="195.8464203" style="clip-path:url(#clipPath10); fill:black; stroke:none; stroke-width:3;" xml:space="preserve">58.77%</text>
      <text x="868.9000244" y="72.5" style="clip-path:url(#clipPath10); fill:black; stroke:none; stroke-width:3;" xml:space="preserve">100.00%</text>
    </g>
  </g>
</svg>
