<?xml version="1.0" encoding="UTF-8"?>

<!DOCTYPE svg PUBLIC '-//W3C//DTD SVG 1.0//EN' 'http://www.w3.org/TR/2001/REC-SVG-20010904/DTD/svg10.dtd'>
<svg style="fill-opacity:1; color-rendering:auto; color-interpolation:auto; text-rendering:auto; stroke:black; stroke-linecap:square; stroke-miterlimit:10; shape-rendering:auto; stroke-opacity:1; fill:black; stroke-dasharray:none; font-weight:normal; stroke-width:1; font-family:&apos;Dialog&apos;; font-style:normal; stroke-linejoin:miter; font-size:12; stroke-dashoffset:0; image-rendering:auto;" xmlns="http://www.w3.org/2000/svg" width="1000" xmlns:xlink="http://www.w3.org/1999/xlink" height="500">
  <!--Generated by the Batik Graphics2D SVG Generator-->
  <defs id="genericDefs" />
  <g>
    <defs id="defs1">
      <clipPath clipPathUnits="userSpaceOnUse" id="clipPath1">
        <path d="M0 0 L1000 0 L1000 500 L0 500 L0 0 Z" />
      </clipPath>
      <clipPath clipPathUnits="userSpaceOnUse" id="clipPath2">
        <path d="M347.5594788 -31.0828037 L1054.6662598 676.0239868 L701.112854 1029.5773926 L-5.9939132 322.4705811 L347.5594788 -31.0828037 Z" />
      </clipPath>
      <clipPath clipPathUnits="userSpaceOnUse" id="clipPath3">
        <path d="M381.2617188 -112.4472275 L1088.3685303 594.6595459 L734.8151245 948.2129517 L27.708334 241.1061707 L381.2617188 -112.4472275 Z" />
      </clipPath>
      <clipPath clipPathUnits="userSpaceOnUse" id="clipPath4">
        <path d="M414.9639587 -193.8116302 L1122.0708008 513.295166 L768.517334 866.8485107 L61.4105759 159.7417603 L414.9639587 -193.8116302 Z" />
      </clipPath>
      <clipPath clipPathUnits="userSpaceOnUse" id="clipPath5">
        <path d="M448.6662292 -275.1760559 L1155.7729492 431.9307251 L802.2196045 785.4841309 L95.1128235 78.377327 L448.6662292 -275.1760559 Z" />
      </clipPath>
      <clipPath clipPathUnits="userSpaceOnUse" id="clipPath6">
        <path d="M482.3684692 -356.5404663 L1189.4752197 350.5663147 L835.921875 704.1196899 L128.8150635 -2.9870815 L482.3684692 -356.5404663 Z" />
      </clipPath>
      <clipPath clipPathUnits="userSpaceOnUse" id="clipPath7">
        <path d="M516.0707397 -437.9049377 L1223.1774902 269.2018433 L869.6240845 622.755249 L162.517334 -84.351532 L516.0707397 -437.9049377 Z" />
      </clipPath>
      <clipPath clipPathUnits="userSpaceOnUse" id="clipPath8">
        <path d="M549.7729492 -519.2693481 L1256.8797607 187.8374481 L903.326355 541.3908691 L196.219574 -165.7159424 L549.7729492 -519.2693481 Z" />
      </clipPath>
      <clipPath clipPathUnits="userSpaceOnUse" id="clipPath9">
        <path d="M235 194 L235 1194 L-265 1194 L-265 194 L235 194 Z" />
      </clipPath>
      <clipPath clipPathUnits="userSpaceOnUse" id="clipPath10">
        <path d="M125 35 L125 394 L988 394 L988 35 Z" />
      </clipPath>
    </defs>
    <g style="fill:white; text-rendering:optimizeLegibility; stroke:white;">
      <rect x="0" y="0" width="1000" style="clip-path:url(#clipPath1); stroke:none;" height="500" />
      <rect x="0" y="0" width="999" style="clip-path:url(#clipPath1); fill:none; stroke:gray; stroke-width:0.3;" height="499" />
    </g>
    <g style="text-rendering:optimizeLegibility; stroke-width:0.3; font-size:20; font-family:&apos;Tahoma&apos;; font-weight:bold;">
      <text x="480" y="21.0097656" style="clip-path:url(#clipPath1); stroke:none;" xml:space="preserve">熵值</text>
    </g>
    <g style="font-size:16; fill:white; text-rendering:optimizeLegibility; font-family:&apos;宋体&apos;; stroke:white; stroke-width:0.3;">
      <rect x="125" y="35" width="863" style="clip-path:url(#clipPath1); stroke:none;" height="359" />
      <line x1="125" x2="988" y1="398" style="clip-path:url(#clipPath1); fill:none; stroke:gray; stroke-width:0.5;" y2="398" />
      <line x1="211.3" x2="211.3" y1="398" style="clip-path:url(#clipPath1); fill:none; stroke:gray; stroke-width:0.5;" y2="398" />
      <line x1="211.3" x2="211.3" y1="398" style="clip-path:url(#clipPath1); fill:none; stroke:gray; stroke-width:0.5;" y2="400" />
      <line x1="326.3666667" x2="326.3666667" y1="398" style="clip-path:url(#clipPath1); fill:none; stroke:gray; stroke-width:0.5;" y2="398" />
      <line x1="326.3666667" x2="326.3666667" y1="398" style="clip-path:url(#clipPath1); fill:none; stroke:gray; stroke-width:0.5;" y2="400" />
      <line x1="441.4333333" x2="441.4333333" y1="398" style="clip-path:url(#clipPath1); fill:none; stroke:gray; stroke-width:0.5;" y2="398" />
      <line x1="441.4333333" x2="441.4333333" y1="398" style="clip-path:url(#clipPath1); fill:none; stroke:gray; stroke-width:0.5;" y2="400" />
      <line x1="556.5" x2="556.5" y1="398" style="clip-path:url(#clipPath1); fill:none; stroke:gray; stroke-width:0.5;" y2="398" />
      <line x1="556.5" x2="556.5" y1="398" style="clip-path:url(#clipPath1); fill:none; stroke:gray; stroke-width:0.5;" y2="400" />
      <line x1="671.5666667" x2="671.5666667" y1="398" style="clip-path:url(#clipPath1); fill:none; stroke:gray; stroke-width:0.5;" y2="398" />
      <line x1="671.5666667" x2="671.5666667" y1="398" style="clip-path:url(#clipPath1); fill:none; stroke:gray; stroke-width:0.5;" y2="400" />
      <line x1="786.6333333" x2="786.6333333" y1="398" style="clip-path:url(#clipPath1); fill:none; stroke:gray; stroke-width:0.5;" y2="398" />
      <line x1="786.6333333" x2="786.6333333" y1="398" style="clip-path:url(#clipPath1); fill:none; stroke:gray; stroke-width:0.5;" y2="400" />
      <line x1="901.7" x2="901.7" y1="398" style="clip-path:url(#clipPath1); fill:none; stroke:gray; stroke-width:0.5;" y2="398" />
      <line x1="901.7" x2="901.7" y1="398" style="clip-path:url(#clipPath1); fill:none; stroke:gray; stroke-width:0.5;" y2="400" />
      <path transform="matrix(0.7071068,-0.7071068,0.7071068,0.7071068,-223.7828016,267.7405254)" style="clip-path:url(#clipPath2); fill:black; stroke:none; stroke-width:0.5;" d="M153.1125031 410.5625 Q153.1125031 409.4375 152.6125031 408.84375 Q152.1125031 408.25 151.1125031 408.25 Q150.3625031 408.25 149.8312531 408.65625 Q149.3000031 409.0625 149.3000031 409.6875 Q149.3000031 410.0625 149.5500031 410.3125 Q149.7375031 410.5625 149.7375031 410.8125 Q149.7375031 411.125 149.5812531 411.28125 Q149.4250031 411.4375 149.1125031 411.4375 Q148.7375031 411.4375 148.5187531 411.21875 Q148.3000031 411 148.3000031 410.5 Q148.3000031 409.1875 149.2375031 408.5 Q150.1750031 407.8125 151.2375031 407.8125 Q152.7375031 407.8125 153.4562531 408.5625 Q154.1750031 409.3125 154.1750031 410.4375 Q154.1750031 411.1875 153.8312531 411.9375 Q153.4875031 412.6875 152.7375031 413.375 Q150.9250031 415.125 149.9562531 416.21875 Q148.9875031 417.3125 148.8000031 417.6875 L152.4875031 417.6875 Q153.0500031 417.6875 153.4250031 417.25 Q153.8000031 416.8125 153.9250031 415.9375 L154.3000031 415.9375 L153.9250031 418.625 L148.1125031 418.625 L148.1125031 417.8125 Q148.4250031 417.25 149.1437531 416.375 Q149.8625031 415.5 151.0500031 414.3125 Q152.1125031 413.25 152.6125031 412.3125 Q153.1125031 411.375 153.1125031 410.5625 ZM159.3000031 408.3125 Q158.4250031 408.3125 157.8312531 409.65625 Q157.2375031 411 157.2375031 413.25 Q157.2375031 415.625 157.8312531 416.9375 Q158.4250031 418.25 159.3000031 418.25 Q160.2375031 418.25 160.7687531 416.9375 Q161.3000031 415.625 161.3000031 413.25 Q161.3000031 411 160.8000031 409.65625 Q160.3000031 408.3125 159.3000031 408.3125 ZM159.3000031 418.75 Q157.9250031 418.75 156.9875031 417.3125 Q156.0500031 415.875 156.0500031 413.25 Q156.0500031 410.8125 156.9562531 409.3125 Q157.8625031 407.8125 159.3000031 407.8125 Q160.6750031 407.8125 161.5812531 409.25 Q162.4875031 410.6875 162.4875031 413.25 Q162.4875031 415.8125 161.5812531 417.28125 Q160.6750031 418.75 159.3000031 418.75 ZM169.1125031 410.5625 Q169.1125031 409.4375 168.6125031 408.84375 Q168.1125031 408.25 167.1125031 408.25 Q166.3625031 408.25 165.8312531 408.65625 Q165.3000031 409.0625 165.3000031 409.6875 Q165.3000031 410.0625 165.5500031 410.3125 Q165.7375031 410.5625 165.7375031 410.8125 Q165.7375031 411.125 165.5812531 411.28125 Q165.4250031 411.4375 165.1125031 411.4375 Q164.7375031 411.4375 164.5187531 411.21875 Q164.3000031 411 164.3000031 410.5 Q164.3000031 409.1875 165.2375031 408.5 Q166.1750031 407.8125 167.2375031 407.8125 Q168.7375031 407.8125 169.4562531 408.5625 Q170.1750031 409.3125 170.1750031 410.4375 Q170.1750031 411.1875 169.8312531 411.9375 Q169.4875031 412.6875 168.7375031 413.375 Q166.9250031 415.125 165.9562531 416.21875 Q164.9875031 417.3125 164.8000031 417.6875 L168.4875031 417.6875 Q169.0500031 417.6875 169.4250031 417.25 Q169.8000031 416.8125 169.9250031 415.9375 L170.3000031 415.9375 L169.9250031 418.625 L164.1125031 418.625 L164.1125031 417.8125 Q164.4250031 417.25 165.1437531 416.375 Q165.8625031 415.5 167.0500031 414.3125 Q168.1125031 413.25 168.6125031 412.3125 Q169.1125031 411.375 169.1125031 410.5625 ZM175.3000031 408.3125 Q174.4250031 408.3125 173.8312531 409.65625 Q173.2375031 411 173.2375031 413.25 Q173.2375031 415.625 173.8312531 416.9375 Q174.4250031 418.25 175.3000031 418.25 Q176.2375031 418.25 176.7687531 416.9375 Q177.3000031 415.625 177.3000031 413.25 Q177.3000031 411 176.8000031 409.65625 Q176.3000031 408.3125 175.3000031 408.3125 ZM175.3000031 418.75 Q173.9250031 418.75 172.9875031 417.3125 Q172.0500031 415.875 172.0500031 413.25 Q172.0500031 410.8125 172.9562531 409.3125 Q173.8625031 407.8125 175.3000031 407.8125 Q176.6750031 407.8125 177.5812531 409.25 Q178.4875031 410.6875 178.4875031 413.25 Q178.4875031 415.8125 177.5812531 417.28125 Q176.6750031 418.75 175.3000031 418.75 ZM180.3000031 420.0625 L179.8625031 419.8125 L186.2375031 406.4375 L186.6750031 406.6875 L180.3000031 420.0625 ZM193.1125031 410.5625 Q193.1125031 409.4375 192.6125031 408.84375 Q192.1125031 408.25 191.1125031 408.25 Q190.3625031 408.25 189.8312531 408.65625 Q189.3000031 409.0625 189.3000031 409.6875 Q189.3000031 410.0625 189.5500031 410.3125 Q189.7375031 410.5625 189.7375031 410.8125 Q189.7375031 411.125 189.5812531 411.28125 Q189.4250031 411.4375 189.1125031 411.4375 Q188.7375031 411.4375 188.5187531 411.21875 Q188.3000031 411 188.3000031 410.5 Q188.3000031 409.1875 189.2375031 408.5 Q190.1750031 407.8125 191.2375031 407.8125 Q192.7375031 407.8125 193.4562531 408.5625 Q194.1750031 409.3125 194.1750031 410.4375 Q194.1750031 411.1875 193.8312531 411.9375 Q193.4875031 412.6875 192.7375031 413.375 Q190.9250031 415.125 189.9562531 416.21875 Q188.9875031 417.3125 188.8000031 417.6875 L192.4875031 417.6875 Q193.0500031 417.6875 193.4250031 417.25 Q193.8000031 416.8125 193.9250031 415.9375 L194.3000031 415.9375 L193.9250031 418.625 L188.1125031 418.625 L188.1125031 417.8125 Q188.4250031 417.25 189.1437531 416.375 Q189.8625031 415.5 191.0500031 414.3125 Q192.1125031 413.25 192.6125031 412.3125 Q193.1125031 411.375 193.1125031 410.5625 ZM196.3000031 420.0625 L195.8625031 419.8125 L202.2375031 406.4375 L202.6750031 406.6875 L196.3000031 420.0625 ZM207.8625031 407.75 L207.8625031 417.25 Q207.8625031 417.75 208.1750031 418 Q208.4875031 418.25 209.0500031 418.25 L209.6750031 418.25 L209.6750031 418.625 L205.1125031 418.625 L205.1125031 418.25 L205.6750031 418.25 Q206.3000031 418.25 206.5812531 418 Q206.8625031 417.75 206.8625031 417.25 L206.8625031 409.6875 Q206.8625031 409.4375 206.7062531 409.28125 Q206.5500031 409.125 206.2375031 409.125 L205.1125031 409.125 L205.1125031 408.75 L205.6750031 408.75 Q206.4250031 408.75 206.8937531 408.5 Q207.3625031 408.25 207.6125031 407.75 L207.8625031 407.75 Z" />
    </g>
    <g transform="matrix(0.7071068,-0.7071068,0.7071068,0.7071068,-190.0805555,349.104945)" style="text-rendering:optimizeLegibility; stroke-width:0.5; font-size:16; font-family:&apos;宋体&apos;;">
      <path d="M268.1791687 410.5625 Q268.1791687 409.4375 267.6791687 408.84375 Q267.1791687 408.25 266.1791687 408.25 Q265.4291687 408.25 264.8979187 408.65625 Q264.3666687 409.0625 264.3666687 409.6875 Q264.3666687 410.0625 264.6166687 410.3125 Q264.8041687 410.5625 264.8041687 410.8125 Q264.8041687 411.125 264.6479187 411.28125 Q264.4916687 411.4375 264.1791687 411.4375 Q263.8041687 411.4375 263.5854187 411.21875 Q263.3666687 411 263.3666687 410.5 Q263.3666687 409.1875 264.3041687 408.5 Q265.2416687 407.8125 266.3041687 407.8125 Q267.8041687 407.8125 268.5229187 408.5625 Q269.2416687 409.3125 269.2416687 410.4375 Q269.2416687 411.1875 268.8979187 411.9375 Q268.5541687 412.6875 267.8041687 413.375 Q265.9916687 415.125 265.0229187 416.21875 Q264.0541687 417.3125 263.8666687 417.6875 L267.5541687 417.6875 Q268.1166687 417.6875 268.4916687 417.25 Q268.8666687 416.8125 268.9916687 415.9375 L269.3666687 415.9375 L268.9916687 418.625 L263.1791687 418.625 L263.1791687 417.8125 Q263.4916687 417.25 264.2104187 416.375 Q264.9291687 415.5 266.1166687 414.3125 Q267.1791687 413.25 267.6791687 412.3125 Q268.1791687 411.375 268.1791687 410.5625 ZM274.3666687 408.3125 Q273.4916687 408.3125 272.8979187 409.65625 Q272.3041687 411 272.3041687 413.25 Q272.3041687 415.625 272.8979187 416.9375 Q273.4916687 418.25 274.3666687 418.25 Q275.3041687 418.25 275.8354187 416.9375 Q276.3666687 415.625 276.3666687 413.25 Q276.3666687 411 275.8666687 409.65625 Q275.3666687 408.3125 274.3666687 408.3125 ZM274.3666687 418.75 Q272.9916687 418.75 272.0541687 417.3125 Q271.1166687 415.875 271.1166687 413.25 Q271.1166687 410.8125 272.0229187 409.3125 Q272.9291687 407.8125 274.3666687 407.8125 Q275.7416687 407.8125 276.6479187 409.25 Q277.5541687 410.6875 277.5541687 413.25 Q277.5541687 415.8125 276.6479187 417.28125 Q275.7416687 418.75 274.3666687 418.75 ZM285.3666687 415.75 Q285.3666687 416.9375 284.4916687 417.84375 Q283.6166687 418.75 282.0541687 418.75 Q280.9291687 418.75 280.1166687 418.125 Q279.3041687 417.5 279.3041687 416.6875 Q279.3041687 416.3125 279.5541687 416.03125 Q279.8041687 415.75 280.0541687 415.75 Q280.4291687 415.75 280.5854187 416.03125 Q280.7416687 416.3125 280.7416687 416.5 Q280.7416687 416.8125 280.6166687 417 Q280.4916687 417.25 280.4916687 417.4375 Q280.4916687 417.8125 280.9604187 418.0625 Q281.4291687 418.3125 281.9916687 418.3125 Q283.1166687 418.3125 283.6791687 417.65625 Q284.2416687 417 284.2416687 415.625 Q284.2416687 414.5 283.6479187 413.8125 Q283.0541687 413.125 281.4291687 413.125 L281.4291687 412.6875 Q282.6791687 412.6875 283.2729187 412.09375 Q283.8666687 411.5 283.8666687 410.4375 Q283.8666687 409.5625 283.3979187 408.90625 Q282.9291687 408.25 281.9291687 408.25 Q281.4916687 408.25 280.9916687 408.46875 Q280.4916687 408.6875 280.4916687 409.1875 Q280.4916687 409.6875 280.6166687 409.8125 Q280.7416687 409.9375 280.7416687 410.125 Q280.7416687 410.4375 280.6166687 410.625 Q280.4916687 410.8125 280.1791687 410.8125 Q279.9291687 410.8125 279.7104187 410.625 Q279.4916687 410.4375 279.4916687 409.9375 Q279.4916687 409 280.3041687 408.40625 Q281.1166687 407.8125 282.1791687 407.8125 Q283.4291687 407.8125 284.1791687 408.59375 Q284.9291687 409.375 284.9291687 410.25 Q284.9291687 411.1875 284.4604187 411.84375 Q283.9916687 412.5 282.9916687 412.8125 Q284.3666687 413.3125 284.8666687 414.125 Q285.3666687 414.9375 285.3666687 415.75 ZM290.3666687 408.3125 Q289.4916687 408.3125 288.8979187 409.65625 Q288.3041687 411 288.3041687 413.25 Q288.3041687 415.625 288.8979187 416.9375 Q289.4916687 418.25 290.3666687 418.25 Q291.3041687 418.25 291.8354187 416.9375 Q292.3666687 415.625 292.3666687 413.25 Q292.3666687 411 291.8666687 409.65625 Q291.3666687 408.3125 290.3666687 408.3125 ZM290.3666687 418.75 Q288.9916687 418.75 288.0541687 417.3125 Q287.1166687 415.875 287.1166687 413.25 Q287.1166687 410.8125 288.0229187 409.3125 Q288.9291687 407.8125 290.3666687 407.8125 Q291.7416687 407.8125 292.6479187 409.25 Q293.5541687 410.6875 293.5541687 413.25 Q293.5541687 415.8125 292.6479187 417.28125 Q291.7416687 418.75 290.3666687 418.75 ZM295.3666687 420.0625 L294.9291687 419.8125 L301.3041687 406.4375 L301.7416687 406.6875 L295.3666687 420.0625 ZM308.1791687 410.5625 Q308.1791687 409.4375 307.6791687 408.84375 Q307.1791687 408.25 306.1791687 408.25 Q305.4291687 408.25 304.8979187 408.65625 Q304.3666687 409.0625 304.3666687 409.6875 Q304.3666687 410.0625 304.6166687 410.3125 Q304.8041687 410.5625 304.8041687 410.8125 Q304.8041687 411.125 304.6479187 411.28125 Q304.4916687 411.4375 304.1791687 411.4375 Q303.8041687 411.4375 303.5854187 411.21875 Q303.3666687 411 303.3666687 410.5 Q303.3666687 409.1875 304.3041687 408.5 Q305.2416687 407.8125 306.3041687 407.8125 Q307.8041687 407.8125 308.5229187 408.5625 Q309.2416687 409.3125 309.2416687 410.4375 Q309.2416687 411.1875 308.8979187 411.9375 Q308.5541687 412.6875 307.8041687 413.375 Q305.9916687 415.125 305.0229187 416.21875 Q304.0541687 417.3125 303.8666687 417.6875 L307.5541687 417.6875 Q308.1166687 417.6875 308.4916687 417.25 Q308.8666687 416.8125 308.9916687 415.9375 L309.3666687 415.9375 L308.9916687 418.625 L303.1791687 418.625 L303.1791687 417.8125 Q303.4916687 417.25 304.2104187 416.375 Q304.9291687 415.5 306.1166687 414.3125 Q307.1791687 413.25 307.6791687 412.3125 Q308.1791687 411.375 308.1791687 410.5625 ZM311.3666687 420.0625 L310.9291687 419.8125 L317.3041687 406.4375 L317.7416687 406.6875 L311.3666687 420.0625 ZM325.3666687 415.75 Q325.3666687 416.9375 324.4916687 417.84375 Q323.6166687 418.75 322.0541687 418.75 Q320.9291687 418.75 320.1166687 418.125 Q319.3041687 417.5 319.3041687 416.6875 Q319.3041687 416.3125 319.5541687 416.03125 Q319.8041687 415.75 320.0541687 415.75 Q320.4291687 415.75 320.5854187 416.03125 Q320.7416687 416.3125 320.7416687 416.5 Q320.7416687 416.8125 320.6166687 417 Q320.4916687 417.25 320.4916687 417.4375 Q320.4916687 417.8125 320.9604187 418.0625 Q321.4291687 418.3125 321.9916687 418.3125 Q323.1166687 418.3125 323.6791687 417.65625 Q324.2416687 417 324.2416687 415.625 Q324.2416687 414.5 323.6479187 413.8125 Q323.0541687 413.125 321.4291687 413.125 L321.4291687 412.6875 Q322.6791687 412.6875 323.2729187 412.09375 Q323.8666687 411.5 323.8666687 410.4375 Q323.8666687 409.5625 323.3979187 408.90625 Q322.9291687 408.25 321.9291687 408.25 Q321.4916687 408.25 320.9916687 408.46875 Q320.4916687 408.6875 320.4916687 409.1875 Q320.4916687 409.6875 320.6166687 409.8125 Q320.7416687 409.9375 320.7416687 410.125 Q320.7416687 410.4375 320.6166687 410.625 Q320.4916687 410.8125 320.1791687 410.8125 Q319.9291687 410.8125 319.7104187 410.625 Q319.4916687 410.4375 319.4916687 409.9375 Q319.4916687 409 320.3041687 408.40625 Q321.1166687 407.8125 322.1791687 407.8125 Q323.4291687 407.8125 324.1791687 408.59375 Q324.9291687 409.375 324.9291687 410.25 Q324.9291687 411.1875 324.4604187 411.84375 Q323.9916687 412.5 322.9916687 412.8125 Q324.3666687 413.3125 324.8666687 414.125 Q325.3666687 414.9375 325.3666687 415.75 Z" style="clip-path:url(#clipPath3); stroke:none;" />
    </g>
    <g transform="matrix(0.7071068,-0.7071068,0.7071068,0.7071068,-156.3783139,430.4693538)" style="text-rendering:optimizeLegibility; stroke-width:0.5; font-size:16; font-family:&apos;宋体&apos;;">
      <path d="M383.2458191 410.5625 Q383.2458191 409.4375 382.7458191 408.84375 Q382.2458191 408.25 381.2458191 408.25 Q380.4958191 408.25 379.9645691 408.65625 Q379.4333191 409.0625 379.4333191 409.6875 Q379.4333191 410.0625 379.6833191 410.3125 Q379.8708191 410.5625 379.8708191 410.8125 Q379.8708191 411.125 379.7145691 411.28125 Q379.5583191 411.4375 379.2458191 411.4375 Q378.8708191 411.4375 378.6520691 411.21875 Q378.4333191 411 378.4333191 410.5 Q378.4333191 409.1875 379.3708191 408.5 Q380.3083191 407.8125 381.3708191 407.8125 Q382.8708191 407.8125 383.5895691 408.5625 Q384.3083191 409.3125 384.3083191 410.4375 Q384.3083191 411.1875 383.9645691 411.9375 Q383.6208191 412.6875 382.8708191 413.375 Q381.0583191 415.125 380.0895691 416.21875 Q379.1208191 417.3125 378.9333191 417.6875 L382.6208191 417.6875 Q383.1833191 417.6875 383.5583191 417.25 Q383.9333191 416.8125 384.0583191 415.9375 L384.4333191 415.9375 L384.0583191 418.625 L378.2458191 418.625 L378.2458191 417.8125 Q378.5583191 417.25 379.2770691 416.375 Q379.9958191 415.5 381.1833191 414.3125 Q382.2458191 413.25 382.7458191 412.3125 Q383.2458191 411.375 383.2458191 410.5625 ZM389.4333191 408.3125 Q388.5583191 408.3125 387.9645691 409.65625 Q387.3708191 411 387.3708191 413.25 Q387.3708191 415.625 387.9645691 416.9375 Q388.5583191 418.25 389.4333191 418.25 Q390.3708191 418.25 390.9020691 416.9375 Q391.4333191 415.625 391.4333191 413.25 Q391.4333191 411 390.9333191 409.65625 Q390.4333191 408.3125 389.4333191 408.3125 ZM389.4333191 418.75 Q388.0583191 418.75 387.1208191 417.3125 Q386.1833191 415.875 386.1833191 413.25 Q386.1833191 410.8125 387.0895691 409.3125 Q387.9958191 407.8125 389.4333191 407.8125 Q390.8083191 407.8125 391.7145691 409.25 Q392.6208191 410.6875 392.6208191 413.25 Q392.6208191 415.8125 391.7145691 417.28125 Q390.8083191 418.75 389.4333191 418.75 ZM399.1833191 417.4375 Q399.1833191 417.875 399.4333191 418.0625 Q399.6833191 418.25 400.1208191 418.25 L400.6833191 418.25 L400.6833191 418.625 L396.5583191 418.625 L396.5583191 418.25 L397.2458191 418.25 Q397.7458191 418.25 397.9645691 418.0625 Q398.1833191 417.875 398.1833191 417.4375 L398.1833191 415.375 L393.9958191 415.375 L393.9958191 415.0625 L398.5583191 407.8125 L399.1833191 407.8125 L399.1833191 415 L400.8708191 415 L400.8708191 415.375 L399.1833191 415.375 L399.1833191 417.4375 ZM398.1208191 409.375 L394.5583191 415 L398.1833191 415 L398.1833191 409.375 L398.1208191 409.375 ZM405.4333191 408.3125 Q404.5583191 408.3125 403.9645691 409.65625 Q403.3708191 411 403.3708191 413.25 Q403.3708191 415.625 403.9645691 416.9375 Q404.5583191 418.25 405.4333191 418.25 Q406.3708191 418.25 406.9020691 416.9375 Q407.4333191 415.625 407.4333191 413.25 Q407.4333191 411 406.9333191 409.65625 Q406.4333191 408.3125 405.4333191 408.3125 ZM405.4333191 418.75 Q404.0583191 418.75 403.1208191 417.3125 Q402.1833191 415.875 402.1833191 413.25 Q402.1833191 410.8125 403.0895691 409.3125 Q403.9958191 407.8125 405.4333191 407.8125 Q406.8083191 407.8125 407.7145691 409.25 Q408.6208191 410.6875 408.6208191 413.25 Q408.6208191 415.8125 407.7145691 417.28125 Q406.8083191 418.75 405.4333191 418.75 ZM410.4333191 420.0625 L409.9958191 419.8125 L416.3708191 406.4375 L416.8083191 406.6875 L410.4333191 420.0625 ZM421.7458191 411.75 Q422.9333191 411.75 423.6833191 412.65625 Q424.4333191 413.5625 424.4333191 415.0625 Q424.4333191 416.75 423.6520691 417.75 Q422.8708191 418.75 421.2458191 418.75 Q420.1208191 418.75 419.2458191 418.09375 Q418.3708191 417.4375 418.3708191 416.5 Q418.3708191 416.125 418.5895691 415.84375 Q418.8083191 415.5625 419.1833191 415.5625 Q419.5583191 415.5625 419.6833191 415.8125 Q419.8083191 416.0625 419.8083191 416.25 Q419.8083191 416.625 419.6208191 416.8125 Q419.4333191 417.0625 419.4333191 417.3125 Q419.4333191 417.8125 420.0270691 418.0625 Q420.6208191 418.3125 421.3083191 418.3125 Q422.3083191 418.3125 422.8395691 417.5 Q423.3708191 416.6875 423.3708191 415.1875 Q423.3708191 413.9375 422.9020691 413.15625 Q422.4333191 412.375 421.4958191 412.375 Q420.8083191 412.375 420.3083191 412.625 Q419.8083191 412.875 419.3708191 413.6875 L418.8083191 413.625 L419.1208191 407.9375 L424.2458191 407.9375 L424.0583191 408.875 L419.5583191 408.875 L419.3083191 413 Q419.9333191 412.125 420.5270691 411.9375 Q421.1208191 411.75 421.7458191 411.75 ZM426.4333191 420.0625 L425.9958191 419.8125 L432.3708191 406.4375 L432.8083191 406.6875 L426.4333191 420.0625 ZM437.7458191 411.75 Q438.9333191 411.75 439.6833191 412.65625 Q440.4333191 413.5625 440.4333191 415.0625 Q440.4333191 416.75 439.6520691 417.75 Q438.8708191 418.75 437.2458191 418.75 Q436.1208191 418.75 435.2458191 418.09375 Q434.3708191 417.4375 434.3708191 416.5 Q434.3708191 416.125 434.5895691 415.84375 Q434.8083191 415.5625 435.1833191 415.5625 Q435.5583191 415.5625 435.6833191 415.8125 Q435.8083191 416.0625 435.8083191 416.25 Q435.8083191 416.625 435.6208191 416.8125 Q435.4333191 417.0625 435.4333191 417.3125 Q435.4333191 417.8125 436.0270691 418.0625 Q436.6208191 418.3125 437.3083191 418.3125 Q438.3083191 418.3125 438.8395691 417.5 Q439.3708191 416.6875 439.3708191 415.1875 Q439.3708191 413.9375 438.9020691 413.15625 Q438.4333191 412.375 437.4958191 412.375 Q436.8083191 412.375 436.3083191 412.625 Q435.8083191 412.875 435.3708191 413.6875 L434.8083191 413.625 L435.1208191 407.9375 L440.2458191 407.9375 L440.0583191 408.875 L435.5583191 408.875 L435.3083191 413 Q435.9333191 412.125 436.5270691 411.9375 Q437.1208191 411.75 437.7458191 411.75 Z" style="clip-path:url(#clipPath4); stroke:none;" />
    </g>
    <g transform="matrix(0.7071068,-0.7071068,0.7071068,0.7071068,-122.6760633,511.8337841)" style="text-rendering:optimizeLegibility; stroke-width:0.5; font-size:16; font-family:&apos;宋体&apos;;">
      <path d="M498.3125 410.5625 Q498.3125 409.4375 497.8125 408.84375 Q497.3125 408.25 496.3125 408.25 Q495.5625 408.25 495.03125 408.65625 Q494.5 409.0625 494.5 409.6875 Q494.5 410.0625 494.75 410.3125 Q494.9375 410.5625 494.9375 410.8125 Q494.9375 411.125 494.78125 411.28125 Q494.625 411.4375 494.3125 411.4375 Q493.9375 411.4375 493.71875 411.21875 Q493.5 411 493.5 410.5 Q493.5 409.1875 494.4375 408.5 Q495.375 407.8125 496.4375 407.8125 Q497.9375 407.8125 498.65625 408.5625 Q499.375 409.3125 499.375 410.4375 Q499.375 411.1875 499.03125 411.9375 Q498.6875 412.6875 497.9375 413.375 Q496.125 415.125 495.15625 416.21875 Q494.1875 417.3125 494 417.6875 L497.6875 417.6875 Q498.25 417.6875 498.625 417.25 Q499 416.8125 499.125 415.9375 L499.5 415.9375 L499.125 418.625 L493.3125 418.625 L493.3125 417.8125 Q493.625 417.25 494.34375 416.375 Q495.0625 415.5 496.25 414.3125 Q497.3125 413.25 497.8125 412.3125 Q498.3125 411.375 498.3125 410.5625 ZM504.5 408.3125 Q503.625 408.3125 503.03125 409.65625 Q502.4375 411 502.4375 413.25 Q502.4375 415.625 503.03125 416.9375 Q503.625 418.25 504.5 418.25 Q505.4375 418.25 505.96875 416.9375 Q506.5 415.625 506.5 413.25 Q506.5 411 506 409.65625 Q505.5 408.3125 504.5 408.3125 ZM504.5 418.75 Q503.125 418.75 502.1875 417.3125 Q501.25 415.875 501.25 413.25 Q501.25 410.8125 502.15625 409.3125 Q503.0625 407.8125 504.5 407.8125 Q505.875 407.8125 506.78125 409.25 Q507.6875 410.6875 507.6875 413.25 Q507.6875 415.8125 506.78125 417.28125 Q505.875 418.75 504.5 418.75 ZM512.8125 411.75 Q514 411.75 514.75 412.65625 Q515.5 413.5625 515.5 415.0625 Q515.5 416.75 514.71875 417.75 Q513.9375 418.75 512.3125 418.75 Q511.1875 418.75 510.3125 418.09375 Q509.4375 417.4375 509.4375 416.5 Q509.4375 416.125 509.65625 415.84375 Q509.875 415.5625 510.25 415.5625 Q510.625 415.5625 510.75 415.8125 Q510.875 416.0625 510.875 416.25 Q510.875 416.625 510.6875 416.8125 Q510.5 417.0625 510.5 417.3125 Q510.5 417.8125 511.09375 418.0625 Q511.6875 418.3125 512.375 418.3125 Q513.375 418.3125 513.90625 417.5 Q514.4375 416.6875 514.4375 415.1875 Q514.4375 413.9375 513.96875 413.15625 Q513.5 412.375 512.5625 412.375 Q511.875 412.375 511.375 412.625 Q510.875 412.875 510.4375 413.6875 L509.875 413.625 L510.1875 407.9375 L515.3125 407.9375 L515.125 408.875 L510.625 408.875 L510.375 413 Q511 412.125 511.59375 411.9375 Q512.1875 411.75 512.8125 411.75 ZM520.5 408.3125 Q519.625 408.3125 519.03125 409.65625 Q518.4375 411 518.4375 413.25 Q518.4375 415.625 519.03125 416.9375 Q519.625 418.25 520.5 418.25 Q521.4375 418.25 521.96875 416.9375 Q522.5 415.625 522.5 413.25 Q522.5 411 522 409.65625 Q521.5 408.3125 520.5 408.3125 ZM520.5 418.75 Q519.125 418.75 518.1875 417.3125 Q517.25 415.875 517.25 413.25 Q517.25 410.8125 518.15625 409.3125 Q519.0625 407.8125 520.5 407.8125 Q521.875 407.8125 522.78125 409.25 Q523.6875 410.6875 523.6875 413.25 Q523.6875 415.8125 522.78125 417.28125 Q521.875 418.75 520.5 418.75 ZM525.5 420.0625 L525.0625 419.8125 L531.4375 406.4375 L531.875 406.6875 L525.5 420.0625 ZM534.4375 414.375 Q534.4375 416.25 535.09375 417.28125 Q535.75 418.3125 536.6875 418.3125 Q537.625 418.3125 538.125 417.625 Q538.625 416.9375 538.625 415.0625 Q538.625 413.8125 538.09375 413.125 Q537.5625 412.4375 536.8125 412.4375 Q536.125 412.4375 535.53125 412.84375 Q534.9375 413.25 534.4375 414.375 ZM536.875 411.8125 Q538.375 411.8125 539.03125 412.8125 Q539.6875 413.8125 539.6875 415.0625 Q539.6875 416.9375 538.78125 417.84375 Q537.875 418.75 536.6875 418.75 Q535 418.75 534.125 417.46875 Q533.25 416.1875 533.25 413.75 Q533.25 410.875 534.3125 409.34375 Q535.375 407.8125 537.1875 407.8125 Q538.0625 407.8125 538.59375 408.3125 Q539.125 408.8125 539.125 409.1875 Q539.125 409.5625 538.96875 409.75 Q538.8125 409.9375 538.4375 409.9375 Q538.125 409.9375 537.96875 409.78125 Q537.8125 409.625 537.8125 409.3125 Q537.8125 409.1875 537.875 409.0625 Q537.875 408.9375 537.875 408.8125 Q537.875 408.5625 537.6875 408.40625 Q537.5 408.25 537 408.25 Q535.9375 408.25 535.1875 409.21875 Q534.4375 410.1875 534.4375 413.4375 Q534.8125 412.625 535.46875 412.21875 Q536.125 411.8125 536.875 411.8125 ZM541.5 420.0625 L541.0625 419.8125 L547.4375 406.4375 L547.875 406.6875 L541.5 420.0625 ZM550.4375 414.375 Q550.4375 416.25 551.09375 417.28125 Q551.75 418.3125 552.6875 418.3125 Q553.625 418.3125 554.125 417.625 Q554.625 416.9375 554.625 415.0625 Q554.625 413.8125 554.09375 413.125 Q553.5625 412.4375 552.8125 412.4375 Q552.125 412.4375 551.53125 412.84375 Q550.9375 413.25 550.4375 414.375 ZM552.875 411.8125 Q554.375 411.8125 555.03125 412.8125 Q555.6875 413.8125 555.6875 415.0625 Q555.6875 416.9375 554.78125 417.84375 Q553.875 418.75 552.6875 418.75 Q551 418.75 550.125 417.46875 Q549.25 416.1875 549.25 413.75 Q549.25 410.875 550.3125 409.34375 Q551.375 407.8125 553.1875 407.8125 Q554.0625 407.8125 554.59375 408.3125 Q555.125 408.8125 555.125 409.1875 Q555.125 409.5625 554.96875 409.75 Q554.8125 409.9375 554.4375 409.9375 Q554.125 409.9375 553.96875 409.78125 Q553.8125 409.625 553.8125 409.3125 Q553.8125 409.1875 553.875 409.0625 Q553.875 408.9375 553.875 408.8125 Q553.875 408.5625 553.6875 408.40625 Q553.5 408.25 553 408.25 Q551.9375 408.25 551.1875 409.21875 Q550.4375 410.1875 550.4375 413.4375 Q550.8125 412.625 551.46875 412.21875 Q552.125 411.8125 552.875 411.8125 Z" style="clip-path:url(#clipPath5); stroke:none;" />
    </g>
    <g transform="matrix(0.7071068,-0.7071068,0.7071068,0.7071068,-88.9738217,593.1981929)" style="text-rendering:optimizeLegibility; stroke-width:0.5; font-size:16; font-family:&apos;宋体&apos;;">
      <path d="M613.3791504 410.5625 Q613.3791504 409.4375 612.8791504 408.84375 Q612.3791504 408.25 611.3791504 408.25 Q610.6291504 408.25 610.0979004 408.65625 Q609.5666504 409.0625 609.5666504 409.6875 Q609.5666504 410.0625 609.8166504 410.3125 Q610.0041504 410.5625 610.0041504 410.8125 Q610.0041504 411.125 609.8479004 411.28125 Q609.6916504 411.4375 609.3791504 411.4375 Q609.0041504 411.4375 608.7854004 411.21875 Q608.5666504 411 608.5666504 410.5 Q608.5666504 409.1875 609.5041504 408.5 Q610.4416504 407.8125 611.5041504 407.8125 Q613.0041504 407.8125 613.7229004 408.5625 Q614.4416504 409.3125 614.4416504 410.4375 Q614.4416504 411.1875 614.0979004 411.9375 Q613.7541504 412.6875 613.0041504 413.375 Q611.1916504 415.125 610.2229004 416.21875 Q609.2541504 417.3125 609.0666504 417.6875 L612.7541504 417.6875 Q613.3166504 417.6875 613.6916504 417.25 Q614.0666504 416.8125 614.1916504 415.9375 L614.5666504 415.9375 L614.1916504 418.625 L608.3791504 418.625 L608.3791504 417.8125 Q608.6916504 417.25 609.4104004 416.375 Q610.1291504 415.5 611.3166504 414.3125 Q612.3791504 413.25 612.8791504 412.3125 Q613.3791504 411.375 613.3791504 410.5625 ZM619.5666504 408.3125 Q618.6916504 408.3125 618.0979004 409.65625 Q617.5041504 411 617.5041504 413.25 Q617.5041504 415.625 618.0979004 416.9375 Q618.6916504 418.25 619.5666504 418.25 Q620.5041504 418.25 621.0354004 416.9375 Q621.5666504 415.625 621.5666504 413.25 Q621.5666504 411 621.0666504 409.65625 Q620.5666504 408.3125 619.5666504 408.3125 ZM619.5666504 418.75 Q618.1916504 418.75 617.2541504 417.3125 Q616.3166504 415.875 616.3166504 413.25 Q616.3166504 410.8125 617.2229004 409.3125 Q618.1291504 407.8125 619.5666504 407.8125 Q620.9416504 407.8125 621.8479004 409.25 Q622.7541504 410.6875 622.7541504 413.25 Q622.7541504 415.8125 621.8479004 417.28125 Q620.9416504 418.75 619.5666504 418.75 ZM625.5041504 414.375 Q625.5041504 416.25 626.1604004 417.28125 Q626.8166504 418.3125 627.7541504 418.3125 Q628.6916504 418.3125 629.1916504 417.625 Q629.6916504 416.9375 629.6916504 415.0625 Q629.6916504 413.8125 629.1604004 413.125 Q628.6291504 412.4375 627.8791504 412.4375 Q627.1916504 412.4375 626.5979004 412.84375 Q626.0041504 413.25 625.5041504 414.375 ZM627.9416504 411.8125 Q629.4416504 411.8125 630.0979004 412.8125 Q630.7541504 413.8125 630.7541504 415.0625 Q630.7541504 416.9375 629.8479004 417.84375 Q628.9416504 418.75 627.7541504 418.75 Q626.0666504 418.75 625.1916504 417.46875 Q624.3166504 416.1875 624.3166504 413.75 Q624.3166504 410.875 625.3791504 409.34375 Q626.4416504 407.8125 628.2541504 407.8125 Q629.1291504 407.8125 629.6604004 408.3125 Q630.1916504 408.8125 630.1916504 409.1875 Q630.1916504 409.5625 630.0354004 409.75 Q629.8791504 409.9375 629.5041504 409.9375 Q629.1916504 409.9375 629.0354004 409.78125 Q628.8791504 409.625 628.8791504 409.3125 Q628.8791504 409.1875 628.9416504 409.0625 Q628.9416504 408.9375 628.9416504 408.8125 Q628.9416504 408.5625 628.7541504 408.40625 Q628.5666504 408.25 628.0666504 408.25 Q627.0041504 408.25 626.2541504 409.21875 Q625.5041504 410.1875 625.5041504 413.4375 Q625.8791504 412.625 626.5354004 412.21875 Q627.1916504 411.8125 627.9416504 411.8125 ZM635.5666504 408.3125 Q634.6916504 408.3125 634.0979004 409.65625 Q633.5041504 411 633.5041504 413.25 Q633.5041504 415.625 634.0979004 416.9375 Q634.6916504 418.25 635.5666504 418.25 Q636.5041504 418.25 637.0354004 416.9375 Q637.5666504 415.625 637.5666504 413.25 Q637.5666504 411 637.0666504 409.65625 Q636.5666504 408.3125 635.5666504 408.3125 ZM635.5666504 418.75 Q634.1916504 418.75 633.2541504 417.3125 Q632.3166504 415.875 632.3166504 413.25 Q632.3166504 410.8125 633.2229004 409.3125 Q634.1291504 407.8125 635.5666504 407.8125 Q636.9416504 407.8125 637.8479004 409.25 Q638.7541504 410.6875 638.7541504 413.25 Q638.7541504 415.8125 637.8479004 417.28125 Q636.9416504 418.75 635.5666504 418.75 ZM640.5666504 420.0625 L640.1291504 419.8125 L646.5041504 406.4375 L646.9416504 406.6875 L640.5666504 420.0625 ZM654.6291504 408.375 Q653.3166504 410.5 652.5354004 412.53125 Q651.7541504 414.5625 651.7541504 416.0625 Q651.7541504 416.3125 651.8166504 416.75 Q651.8166504 417.25 651.8166504 417.875 Q651.8166504 418.375 651.6604004 418.5625 Q651.5041504 418.75 651.1291504 418.75 Q650.8166504 418.75 650.5979004 418.53125 Q650.3791504 418.3125 650.3791504 417.75 Q650.3791504 416.5625 650.9104004 414.8125 Q651.4416504 413.0625 653.7541504 408.875 L650.6291504 408.875 Q649.9416504 408.875 649.5354004 409.3125 Q649.1291504 409.75 648.9416504 410.625 L648.5666504 410.5625 L649.0041504 407.9375 L654.6291504 407.9375 L654.6291504 408.375 ZM656.5666504 420.0625 L656.1291504 419.8125 L662.5041504 406.4375 L662.9416504 406.6875 L656.5666504 420.0625 ZM667.8791504 411.75 Q669.0666504 411.75 669.8166504 412.65625 Q670.5666504 413.5625 670.5666504 415.0625 Q670.5666504 416.75 669.7854004 417.75 Q669.0041504 418.75 667.3791504 418.75 Q666.2541504 418.75 665.3791504 418.09375 Q664.5041504 417.4375 664.5041504 416.5 Q664.5041504 416.125 664.7229004 415.84375 Q664.9416504 415.5625 665.3166504 415.5625 Q665.6916504 415.5625 665.8166504 415.8125 Q665.9416504 416.0625 665.9416504 416.25 Q665.9416504 416.625 665.7541504 416.8125 Q665.5666504 417.0625 665.5666504 417.3125 Q665.5666504 417.8125 666.1604004 418.0625 Q666.7541504 418.3125 667.4416504 418.3125 Q668.4416504 418.3125 668.9729004 417.5 Q669.5041504 416.6875 669.5041504 415.1875 Q669.5041504 413.9375 669.0354004 413.15625 Q668.5666504 412.375 667.6291504 412.375 Q666.9416504 412.375 666.4416504 412.625 Q665.9416504 412.875 665.5041504 413.6875 L664.9416504 413.625 L665.2541504 407.9375 L670.3791504 407.9375 L670.1916504 408.875 L665.6916504 408.875 L665.4416504 413 Q666.0666504 412.125 666.6604004 411.9375 Q667.2541504 411.75 667.8791504 411.75 Z" style="clip-path:url(#clipPath6); stroke:none;" />
    </g>
    <g transform="matrix(0.7071068,-0.7071068,0.7071068,0.7071068,-55.2715622,674.5626448)" style="text-rendering:optimizeLegibility; stroke-width:0.5; font-size:16; font-family:&apos;宋体&apos;;">
      <path d="M720.4458618 410.5625 Q720.4458618 409.4375 719.9458618 408.84375 Q719.4458618 408.25 718.4458618 408.25 Q717.6958618 408.25 717.1646118 408.65625 Q716.6333618 409.0625 716.6333618 409.6875 Q716.6333618 410.0625 716.8833618 410.3125 Q717.0708618 410.5625 717.0708618 410.8125 Q717.0708618 411.125 716.9146118 411.28125 Q716.7583618 411.4375 716.4458618 411.4375 Q716.0708618 411.4375 715.8521118 411.21875 Q715.6333618 411 715.6333618 410.5 Q715.6333618 409.1875 716.5708618 408.5 Q717.5083618 407.8125 718.5708618 407.8125 Q720.0708618 407.8125 720.7896118 408.5625 Q721.5083618 409.3125 721.5083618 410.4375 Q721.5083618 411.1875 721.1646118 411.9375 Q720.8208618 412.6875 720.0708618 413.375 Q718.2583618 415.125 717.2896118 416.21875 Q716.3208618 417.3125 716.1333618 417.6875 L719.8208618 417.6875 Q720.3833618 417.6875 720.7583618 417.25 Q721.1333618 416.8125 721.2583618 415.9375 L721.6333618 415.9375 L721.2583618 418.625 L715.4458618 418.625 L715.4458618 417.8125 Q715.7583618 417.25 716.4771118 416.375 Q717.1958618 415.5 718.3833618 414.3125 Q719.4458618 413.25 719.9458618 412.3125 Q720.4458618 411.375 720.4458618 410.5625 ZM726.6333618 408.3125 Q725.7583618 408.3125 725.1646118 409.65625 Q724.5708618 411 724.5708618 413.25 Q724.5708618 415.625 725.1646118 416.9375 Q725.7583618 418.25 726.6333618 418.25 Q727.5708618 418.25 728.1021118 416.9375 Q728.6333618 415.625 728.6333618 413.25 Q728.6333618 411 728.1333618 409.65625 Q727.6333618 408.3125 726.6333618 408.3125 ZM726.6333618 418.75 Q725.2583618 418.75 724.3208618 417.3125 Q723.3833618 415.875 723.3833618 413.25 Q723.3833618 410.8125 724.2896118 409.3125 Q725.1958618 407.8125 726.6333618 407.8125 Q728.0083618 407.8125 728.9146118 409.25 Q729.8208618 410.6875 729.8208618 413.25 Q729.8208618 415.8125 728.9146118 417.28125 Q728.0083618 418.75 726.6333618 418.75 ZM737.6958618 408.375 Q736.3833618 410.5 735.6021118 412.53125 Q734.8208618 414.5625 734.8208618 416.0625 Q734.8208618 416.3125 734.8833618 416.75 Q734.8833618 417.25 734.8833618 417.875 Q734.8833618 418.375 734.7271118 418.5625 Q734.5708618 418.75 734.1958618 418.75 Q733.8833618 418.75 733.6646118 418.53125 Q733.4458618 418.3125 733.4458618 417.75 Q733.4458618 416.5625 733.9771118 414.8125 Q734.5083618 413.0625 736.8208618 408.875 L733.6958618 408.875 Q733.0083618 408.875 732.6021118 409.3125 Q732.1958618 409.75 732.0083618 410.625 L731.6333618 410.5625 L732.0708618 407.9375 L737.6958618 407.9375 L737.6958618 408.375 ZM742.6333618 408.3125 Q741.7583618 408.3125 741.1646118 409.65625 Q740.5708618 411 740.5708618 413.25 Q740.5708618 415.625 741.1646118 416.9375 Q741.7583618 418.25 742.6333618 418.25 Q743.5708618 418.25 744.1021118 416.9375 Q744.6333618 415.625 744.6333618 413.25 Q744.6333618 411 744.1333618 409.65625 Q743.6333618 408.3125 742.6333618 408.3125 ZM742.6333618 418.75 Q741.2583618 418.75 740.3208618 417.3125 Q739.3833618 415.875 739.3833618 413.25 Q739.3833618 410.8125 740.2896118 409.3125 Q741.1958618 407.8125 742.6333618 407.8125 Q744.0083618 407.8125 744.9146118 409.25 Q745.8208618 410.6875 745.8208618 413.25 Q745.8208618 415.8125 744.9146118 417.28125 Q744.0083618 418.75 742.6333618 418.75 ZM747.6333618 420.0625 L747.1958618 419.8125 L753.5708618 406.4375 L754.0083618 406.6875 L747.6333618 420.0625 ZM756.1958618 416.0625 Q756.1958618 417.0625 756.8521118 417.6875 Q757.5083618 418.3125 758.5083618 418.3125 Q759.6958618 418.3125 760.2271118 417.6875 Q760.7583618 417.0625 760.7583618 416.125 Q760.7583618 415.3125 760.0083618 414.5625 Q759.2583618 413.8125 757.7583618 413.1875 Q757.0083618 413.6875 756.6021118 414.4375 Q756.1958618 415.1875 756.1958618 416.0625 ZM761.6958618 415.9375 Q761.6958618 417.125 760.8208618 417.9375 Q759.9458618 418.75 758.5083618 418.75 Q757.1958618 418.75 756.2583618 417.9375 Q755.3208618 417.125 755.3208618 416.0625 Q755.3208618 415 755.8521118 414.25 Q756.3833618 413.5 757.3833618 412.9375 Q756.5083618 412.5 756.0396118 411.84375 Q755.5708618 411.1875 755.5708618 410.375 Q755.5708618 409.3125 756.3833618 408.5625 Q757.1958618 407.8125 758.6333618 407.8125 Q759.9458618 407.8125 760.7583618 408.5625 Q761.5708618 409.3125 761.5708618 410.375 Q761.5708618 411.125 761.1021118 411.78125 Q760.6333618 412.4375 759.6333618 412.9375 Q760.6958618 413.5625 761.1958618 414.3125 Q761.6958618 415.0625 761.6958618 415.9375 ZM760.6958618 410.4375 Q760.6958618 409.5625 760.1958618 408.90625 Q759.6958618 408.25 758.6333618 408.25 Q757.4458618 408.25 756.9458618 408.875 Q756.4458618 409.5 756.4458618 410.1875 Q756.4458618 410.875 757.1646118 411.53125 Q757.8833618 412.1875 759.1958618 412.6875 Q759.9458618 412.3125 760.3208618 411.75 Q760.6958618 411.1875 760.6958618 410.4375 ZM763.6333618 420.0625 L763.1958618 419.8125 L769.5708618 406.4375 L770.0083618 406.6875 L763.6333618 420.0625 ZM776.4458618 410.5625 Q776.4458618 409.4375 775.9458618 408.84375 Q775.4458618 408.25 774.4458618 408.25 Q773.6958618 408.25 773.1646118 408.65625 Q772.6333618 409.0625 772.6333618 409.6875 Q772.6333618 410.0625 772.8833618 410.3125 Q773.0708618 410.5625 773.0708618 410.8125 Q773.0708618 411.125 772.9146118 411.28125 Q772.7583618 411.4375 772.4458618 411.4375 Q772.0708618 411.4375 771.8521118 411.21875 Q771.6333618 411 771.6333618 410.5 Q771.6333618 409.1875 772.5708618 408.5 Q773.5083618 407.8125 774.5708618 407.8125 Q776.0708618 407.8125 776.7896118 408.5625 Q777.5083618 409.3125 777.5083618 410.4375 Q777.5083618 411.1875 777.1646118 411.9375 Q776.8208618 412.6875 776.0708618 413.375 Q774.2583618 415.125 773.2896118 416.21875 Q772.3208618 417.3125 772.1333618 417.6875 L775.8208618 417.6875 Q776.3833618 417.6875 776.7583618 417.25 Q777.1333618 416.8125 777.2583618 415.9375 L777.6333618 415.9375 L777.2583618 418.625 L771.4458618 418.625 L771.4458618 417.8125 Q771.7583618 417.25 772.4771118 416.375 Q773.1958618 415.5 774.3833618 414.3125 Q775.4458618 413.25 775.9458618 412.3125 Q776.4458618 411.375 776.4458618 410.5625 ZM783.1958618 407.75 L783.1958618 417.25 Q783.1958618 417.75 783.5083618 418 Q783.8208618 418.25 784.3833618 418.25 L785.0083618 418.25 L785.0083618 418.625 L780.4458618 418.625 L780.4458618 418.25 L781.0083618 418.25 Q781.6333618 418.25 781.9146118 418 Q782.1958618 417.75 782.1958618 417.25 L782.1958618 409.6875 Q782.1958618 409.4375 782.0396118 409.28125 Q781.8833618 409.125 781.5708618 409.125 L780.4458618 409.125 L780.4458618 408.75 L781.0083618 408.75 Q781.7583618 408.75 782.2271118 408.5 Q782.6958618 408.25 782.9458618 407.75 L783.1958618 407.75 Z" style="clip-path:url(#clipPath7); stroke:none;" />
    </g>
    <g transform="matrix(0.7071068,-0.7071068,0.7071068,0.7071068,-21.5693206,755.9270536)" style="text-rendering:optimizeLegibility; stroke-width:0.5; font-size:16; font-family:&apos;宋体&apos;;">
      <path d="M835.5125122 410.5625 Q835.5125122 409.4375 835.0125122 408.84375 Q834.5125122 408.25 833.5125122 408.25 Q832.7625122 408.25 832.2312622 408.65625 Q831.7000122 409.0625 831.7000122 409.6875 Q831.7000122 410.0625 831.9500122 410.3125 Q832.1375122 410.5625 832.1375122 410.8125 Q832.1375122 411.125 831.9812622 411.28125 Q831.8250122 411.4375 831.5125122 411.4375 Q831.1375122 411.4375 830.9187622 411.21875 Q830.7000122 411 830.7000122 410.5 Q830.7000122 409.1875 831.6375122 408.5 Q832.5750122 407.8125 833.6375122 407.8125 Q835.1375122 407.8125 835.8562622 408.5625 Q836.5750122 409.3125 836.5750122 410.4375 Q836.5750122 411.1875 836.2312622 411.9375 Q835.8875122 412.6875 835.1375122 413.375 Q833.3250122 415.125 832.3562622 416.21875 Q831.3875122 417.3125 831.2000122 417.6875 L834.8875122 417.6875 Q835.4500122 417.6875 835.8250122 417.25 Q836.2000122 416.8125 836.3250122 415.9375 L836.7000122 415.9375 L836.3250122 418.625 L830.5125122 418.625 L830.5125122 417.8125 Q830.8250122 417.25 831.5437622 416.375 Q832.2625122 415.5 833.4500122 414.3125 Q834.5125122 413.25 835.0125122 412.3125 Q835.5125122 411.375 835.5125122 410.5625 ZM841.7000122 408.3125 Q840.8250122 408.3125 840.2312622 409.65625 Q839.6375122 411 839.6375122 413.25 Q839.6375122 415.625 840.2312622 416.9375 Q840.8250122 418.25 841.7000122 418.25 Q842.6375122 418.25 843.1687622 416.9375 Q843.7000122 415.625 843.7000122 413.25 Q843.7000122 411 843.2000122 409.65625 Q842.7000122 408.3125 841.7000122 408.3125 ZM841.7000122 418.75 Q840.3250122 418.75 839.3875122 417.3125 Q838.4500122 415.875 838.4500122 413.25 Q838.4500122 410.8125 839.3562622 409.3125 Q840.2625122 407.8125 841.7000122 407.8125 Q843.0750122 407.8125 843.9812622 409.25 Q844.8875122 410.6875 844.8875122 413.25 Q844.8875122 415.8125 843.9812622 417.28125 Q843.0750122 418.75 841.7000122 418.75 ZM847.2625122 416.0625 Q847.2625122 417.0625 847.9187622 417.6875 Q848.5750122 418.3125 849.5750122 418.3125 Q850.7625122 418.3125 851.2937622 417.6875 Q851.8250122 417.0625 851.8250122 416.125 Q851.8250122 415.3125 851.0750122 414.5625 Q850.3250122 413.8125 848.8250122 413.1875 Q848.0750122 413.6875 847.6687622 414.4375 Q847.2625122 415.1875 847.2625122 416.0625 ZM852.7625122 415.9375 Q852.7625122 417.125 851.8875122 417.9375 Q851.0125122 418.75 849.5750122 418.75 Q848.2625122 418.75 847.3250122 417.9375 Q846.3875122 417.125 846.3875122 416.0625 Q846.3875122 415 846.9187622 414.25 Q847.4500122 413.5 848.4500122 412.9375 Q847.5750122 412.5 847.1062622 411.84375 Q846.6375122 411.1875 846.6375122 410.375 Q846.6375122 409.3125 847.4500122 408.5625 Q848.2625122 407.8125 849.7000122 407.8125 Q851.0125122 407.8125 851.8250122 408.5625 Q852.6375122 409.3125 852.6375122 410.375 Q852.6375122 411.125 852.1687622 411.78125 Q851.7000122 412.4375 850.7000122 412.9375 Q851.7625122 413.5625 852.2625122 414.3125 Q852.7625122 415.0625 852.7625122 415.9375 ZM851.7625122 410.4375 Q851.7625122 409.5625 851.2625122 408.90625 Q850.7625122 408.25 849.7000122 408.25 Q848.5125122 408.25 848.0125122 408.875 Q847.5125122 409.5 847.5125122 410.1875 Q847.5125122 410.875 848.2312622 411.53125 Q848.9500122 412.1875 850.2625122 412.6875 Q851.0125122 412.3125 851.3875122 411.75 Q851.7625122 411.1875 851.7625122 410.4375 ZM857.7000122 408.3125 Q856.8250122 408.3125 856.2312622 409.65625 Q855.6375122 411 855.6375122 413.25 Q855.6375122 415.625 856.2312622 416.9375 Q856.8250122 418.25 857.7000122 418.25 Q858.6375122 418.25 859.1687622 416.9375 Q859.7000122 415.625 859.7000122 413.25 Q859.7000122 411 859.2000122 409.65625 Q858.7000122 408.3125 857.7000122 408.3125 ZM857.7000122 418.75 Q856.3250122 418.75 855.3875122 417.3125 Q854.4500122 415.875 854.4500122 413.25 Q854.4500122 410.8125 855.3562622 409.3125 Q856.2625122 407.8125 857.7000122 407.8125 Q859.0750122 407.8125 859.9812622 409.25 Q860.8875122 410.6875 860.8875122 413.25 Q860.8875122 415.8125 859.9812622 417.28125 Q859.0750122 418.75 857.7000122 418.75 ZM862.7000122 420.0625 L862.2625122 419.8125 L868.6375122 406.4375 L869.0750122 406.6875 L862.7000122 420.0625 ZM871.2625122 416.0625 Q871.2625122 417.0625 871.9187622 417.6875 Q872.5750122 418.3125 873.5750122 418.3125 Q874.7625122 418.3125 875.2937622 417.6875 Q875.8250122 417.0625 875.8250122 416.125 Q875.8250122 415.3125 875.0750122 414.5625 Q874.3250122 413.8125 872.8250122 413.1875 Q872.0750122 413.6875 871.6687622 414.4375 Q871.2625122 415.1875 871.2625122 416.0625 ZM876.7625122 415.9375 Q876.7625122 417.125 875.8875122 417.9375 Q875.0125122 418.75 873.5750122 418.75 Q872.2625122 418.75 871.3250122 417.9375 Q870.3875122 417.125 870.3875122 416.0625 Q870.3875122 415 870.9187622 414.25 Q871.4500122 413.5 872.4500122 412.9375 Q871.5750122 412.5 871.1062622 411.84375 Q870.6375122 411.1875 870.6375122 410.375 Q870.6375122 409.3125 871.4500122 408.5625 Q872.2625122 407.8125 873.7000122 407.8125 Q875.0125122 407.8125 875.8250122 408.5625 Q876.6375122 409.3125 876.6375122 410.375 Q876.6375122 411.125 876.1687622 411.78125 Q875.7000122 412.4375 874.7000122 412.9375 Q875.7625122 413.5625 876.2625122 414.3125 Q876.7625122 415.0625 876.7625122 415.9375 ZM875.7625122 410.4375 Q875.7625122 409.5625 875.2625122 408.90625 Q874.7625122 408.25 873.7000122 408.25 Q872.5125122 408.25 872.0125122 408.875 Q871.5125122 409.5 871.5125122 410.1875 Q871.5125122 410.875 872.2312622 411.53125 Q872.9500122 412.1875 874.2625122 412.6875 Q875.0125122 412.3125 875.3875122 411.75 Q875.7625122 411.1875 875.7625122 410.4375 ZM878.7000122 420.0625 L878.2625122 419.8125 L884.6375122 406.4375 L885.0750122 406.6875 L878.7000122 420.0625 ZM891.5125122 410.5625 Q891.5125122 409.4375 891.0125122 408.84375 Q890.5125122 408.25 889.5125122 408.25 Q888.7625122 408.25 888.2312622 408.65625 Q887.7000122 409.0625 887.7000122 409.6875 Q887.7000122 410.0625 887.9500122 410.3125 Q888.1375122 410.5625 888.1375122 410.8125 Q888.1375122 411.125 887.9812622 411.28125 Q887.8250122 411.4375 887.5125122 411.4375 Q887.1375122 411.4375 886.9187622 411.21875 Q886.7000122 411 886.7000122 410.5 Q886.7000122 409.1875 887.6375122 408.5 Q888.5750122 407.8125 889.6375122 407.8125 Q891.1375122 407.8125 891.8562622 408.5625 Q892.5750122 409.3125 892.5750122 410.4375 Q892.5750122 411.1875 892.2312622 411.9375 Q891.8875122 412.6875 891.1375122 413.375 Q889.3250122 415.125 888.3562622 416.21875 Q887.3875122 417.3125 887.2000122 417.6875 L890.8875122 417.6875 Q891.4500122 417.6875 891.8250122 417.25 Q892.2000122 416.8125 892.3250122 415.9375 L892.7000122 415.9375 L892.3250122 418.625 L886.5125122 418.625 L886.5125122 417.8125 Q886.8250122 417.25 887.5437622 416.375 Q888.2625122 415.5 889.4500122 414.3125 Q890.5125122 413.25 891.0125122 412.3125 Q891.5125122 411.375 891.5125122 410.5625 ZM899.5125122 410.5625 Q899.5125122 409.4375 899.0125122 408.84375 Q898.5125122 408.25 897.5125122 408.25 Q896.7625122 408.25 896.2312622 408.65625 Q895.7000122 409.0625 895.7000122 409.6875 Q895.7000122 410.0625 895.9500122 410.3125 Q896.1375122 410.5625 896.1375122 410.8125 Q896.1375122 411.125 895.9812622 411.28125 Q895.8250122 411.4375 895.5125122 411.4375 Q895.1375122 411.4375 894.9187622 411.21875 Q894.7000122 411 894.7000122 410.5 Q894.7000122 409.1875 895.6375122 408.5 Q896.5750122 407.8125 897.6375122 407.8125 Q899.1375122 407.8125 899.8562622 408.5625 Q900.5750122 409.3125 900.5750122 410.4375 Q900.5750122 411.1875 900.2312622 411.9375 Q899.8875122 412.6875 899.1375122 413.375 Q897.3250122 415.125 896.3562622 416.21875 Q895.3875122 417.3125 895.2000122 417.6875 L898.8875122 417.6875 Q899.4500122 417.6875 899.8250122 417.25 Q900.2000122 416.8125 900.3250122 415.9375 L900.7000122 415.9375 L900.3250122 418.625 L894.5125122 418.625 L894.5125122 417.8125 Q894.8250122 417.25 895.5437622 416.375 Q896.2625122 415.5 897.4500122 414.3125 Q898.5125122 413.25 899.0125122 412.3125 Q899.5125122 411.375 899.5125122 410.5625 Z" style="clip-path:url(#clipPath8); stroke:none;" />
    </g>
    <g style="font-size:16; fill:rgb(64,64,64); text-rendering:optimizeLegibility; font-family:&apos;宋体&apos;; stroke:rgb(64,64,64); stroke-width:0.5;">
      <text x="540.5" y="490.9717102" style="clip-path:url(#clipPath1); stroke:none;" xml:space="preserve">时间</text>
      <text x="35" y="400.125" style="clip-path:url(#clipPath1); fill:blue; stroke:none;" xml:space="preserve">-3,000,000</text>
      <text x="35" y="385.1666565" style="clip-path:url(#clipPath1); fill:blue; stroke:none;" xml:space="preserve">-2,000,000</text>
      <text x="35" y="370.2083435" style="clip-path:url(#clipPath1); fill:blue; stroke:none;" xml:space="preserve">-1,000,000</text>
      <text x="107" y="355.25" style="clip-path:url(#clipPath1); fill:blue; stroke:none;" xml:space="preserve">0</text>
      <text x="43" y="340.2916565" style="clip-path:url(#clipPath1); fill:blue; stroke:none;" xml:space="preserve">1,000,000</text>
      <text x="43" y="325.3333435" style="clip-path:url(#clipPath1); fill:blue; stroke:none;" xml:space="preserve">2,000,000</text>
      <text x="43" y="310.375" style="clip-path:url(#clipPath1); fill:blue; stroke:none;" xml:space="preserve">3,000,000</text>
      <text x="43" y="295.4166565" style="clip-path:url(#clipPath1); fill:blue; stroke:none;" xml:space="preserve">4,000,000</text>
      <text x="43" y="280.4583435" style="clip-path:url(#clipPath1); fill:blue; stroke:none;" xml:space="preserve">5,000,000</text>
      <text x="43" y="265.5" style="clip-path:url(#clipPath1); fill:blue; stroke:none;" xml:space="preserve">6,000,000</text>
      <text x="43" y="250.5416718" style="clip-path:url(#clipPath1); fill:blue; stroke:none;" xml:space="preserve">7,000,000</text>
      <text x="43" y="235.5833282" style="clip-path:url(#clipPath1); fill:blue; stroke:none;" xml:space="preserve">8,000,000</text>
      <text x="43" y="220.625" style="clip-path:url(#clipPath1); fill:blue; stroke:none;" xml:space="preserve">9,000,000</text>
      <text x="35" y="205.6666718" style="clip-path:url(#clipPath1); fill:blue; stroke:none;" xml:space="preserve">10,000,000</text>
      <text x="35" y="190.7083282" style="clip-path:url(#clipPath1); fill:blue; stroke:none;" xml:space="preserve">11,000,000</text>
      <text x="35" y="175.75" style="clip-path:url(#clipPath1); fill:blue; stroke:none;" xml:space="preserve">12,000,000</text>
      <text x="35" y="160.7916718" style="clip-path:url(#clipPath1); fill:blue; stroke:none;" xml:space="preserve">13,000,000</text>
      <text x="35" y="145.8333282" style="clip-path:url(#clipPath1); fill:blue; stroke:none;" xml:space="preserve">14,000,000</text>
      <text x="35" y="130.875" style="clip-path:url(#clipPath1); fill:blue; stroke:none;" xml:space="preserve">15,000,000</text>
      <text x="35" y="115.9166641" style="clip-path:url(#clipPath1); fill:blue; stroke:none;" xml:space="preserve">16,000,000</text>
      <text x="35" y="100.9583359" style="clip-path:url(#clipPath1); fill:blue; stroke:none;" xml:space="preserve">17,000,000</text>
      <text x="35" y="86" style="clip-path:url(#clipPath1); fill:blue; stroke:none;" xml:space="preserve">18,000,000</text>
      <text x="35" y="71.0416641" style="clip-path:url(#clipPath1); fill:blue; stroke:none;" xml:space="preserve">19,000,000</text>
      <text x="35" y="56.0833321" style="clip-path:url(#clipPath1); fill:blue; stroke:none;" xml:space="preserve">20,000,000</text>
      <text x="35" y="41.125" style="clip-path:url(#clipPath1); fill:blue; stroke:none;" xml:space="preserve">21,000,000</text>
      <path d="M15.375 216.8125 Q16.875 217 17.0625 216.9375 Q17.25 216.875 17.25 216.5 L17.25 211.9375 L15 212.8125 Q15 216.9375 15.0625 218.625 L14.125 219.0625 Q14.1875 216.875 14.1875 213.125 L12.25 213.875 L12.25 219.9375 Q12.25 220.6875 13.0625 220.6875 L17.8125 220.6875 Q18.5 220.5625 18.59375 219.6875 Q18.6875 218.8125 18.6875 217.625 L19 217.625 Q19.0625 218.875 19.1875 219.5 Q19.3125 220.125 19.875 220.375 Q19.375 221.4375 18.4375 221.4375 L12.75 221.4375 Q11.4375 221.4375 11.4375 220 L11.4375 214.125 L10.0625 214.625 L9.6875 214.9375 L9.0625 214.625 L11.4375 213.75 L11.4375 211.5 Q11.4375 210.6875 11.375 209.5625 L12.6875 210.25 L12.25 210.625 L12.25 213.5 L14.1875 212.75 L14.1875 209.75 Q14.1875 208.625 14.125 207.625 L15.5625 208.25 L15 208.75 L15 212.4375 L17.0625 211.5625 L17.5625 210.9375 L18.5625 211.6875 L18.0625 212.1875 L18.0625 216.9375 Q18.0625 217.3125 17.78125 217.65625 Q17.5 218 16.9375 218.25 Q16.875 217.5625 15.375 217.0625 L15.375 216.8125 ZM8.375 218.75 L10.875 217.875 L10.9375 218.1875 Q6.4375 220.125 5.875 220.875 L5.125 219.75 Q5.875 219.5625 7.5 219 L7.5 213.375 L7.25 213.375 Q6.4375 213.375 5.75 213.5625 L5.1875 213 L7.5 213 L7.5 210.125 Q7.5 209.25 7.4375 208 L8.875 208.6875 L8.375 209.125 L8.375 213 L9 213 L9.6875 212.3125 L10.75 213.375 L8.375 213.375 L8.375 218.75 ZM32.1875 208.3125 L32.3125 208.125 Q33.6875 208.6875 33.96875 209 Q34.25 209.3125 34.25 209.5625 Q34.25 209.8125 34.0625 210.15625 Q33.875 210.5 33.75 210.5 Q33.5625 210.5 33.375 210 Q33.0625 209.1875 32.1875 208.3125 ZM26.8125 212.8125 L26.9375 212.625 Q28.5 213.4375 28.8125 213.8125 Q29.125 214.1875 29.125 214.5 Q29.125 214.75 28.90625 215.125 Q28.6875 215.5 28.5625 215.5 Q28.3125 215.5 28.125 214.8125 Q27.75 213.8125 26.8125 212.8125 ZM30.125 207.5625 L31.5 208.1875 L31.0625 208.625 L31.0625 211.125 L33.6875 211.125 L34.5 210.3125 L35.6875 211.5 L31.0625 211.5 Q31.5 213.625 32.25 215.125 Q33.625 213.5625 34.0625 212.5625 L35.1875 213.625 Q34.5625 213.625 32.375 215.4375 Q33.8125 218.125 35.8125 218.9375 L35.8125 219.1875 Q34.9375 219.125 34.4375 219.8125 Q33.375 218.8125 32.40625 216.90625 Q31.4375 215 31.0625 212.75 L31.0625 220.4375 Q31.0625 221.6875 29.5625 222.125 Q29.5625 221.1875 27.875 220.6875 L27.875 220.4375 Q29.125 220.5625 29.65625 220.59375 Q30.1875 220.625 30.1875 220.25 L30.1875 216.5 Q27.125 218.875 26.9375 219.5 L25.9375 218.5 Q26.8125 218.25 30.1875 216.125 L30.1875 211.5 L28 211.5 Q27.3125 211.4375 26.75 211.625 L26.25 211.125 L30.1875 211.125 Q30.1875 208.8125 30.125 207.5625 ZM21.1875 209.75 L25.3125 209.75 L26 209.0625 L27 210.125 L24.4375 210.125 L24.4375 214 L25.25 214 L25.875 213.375 L26.6875 214.375 L24.4375 214.375 L24.4375 218 L27 217.125 L27.0625 217.375 Q22.25 219.4375 21.8125 220.125 L21.125 219 Q22.125 218.75 23.5625 218.25 L23.5625 214.375 L23.4375 214.375 Q22.625 214.375 21.9375 214.5625 L21.375 214 L23.5625 214 L23.5625 210.125 L23.25 210.125 Q22.4375 210.125 21.75 210.3125 L21.1875 209.75 Z" style="clip-path:url(#clipPath9); stroke:none;" transform="matrix(0,-1,1,0,-194,235)" />
    </g>
    <g style="font-size:16; fill:gray; text-rendering:optimizeLegibility; font-family:&apos;宋体&apos;; stroke:gray; stroke-width:0.2;">
      <line x1="125" x2="988" y1="394" style="clip-path:url(#clipPath10); fill:none;" y2="394" />
      <line x1="125" x2="988" y1="379.0416667" style="clip-path:url(#clipPath10); fill:none;" y2="379.0416667" />
      <line x1="125" x2="988" y1="364.0833333" style="clip-path:url(#clipPath10); fill:none;" y2="364.0833333" />
      <line x1="125" x2="988" y1="349.125" style="clip-path:url(#clipPath10); fill:none;" y2="349.125" />
      <line x1="125" x2="988" y1="334.1666667" style="clip-path:url(#clipPath10); fill:none;" y2="334.1666667" />
      <line x1="125" x2="988" y1="319.2083333" style="clip-path:url(#clipPath10); fill:none;" y2="319.2083333" />
      <line x1="125" x2="988" y1="304.25" style="clip-path:url(#clipPath10); fill:none;" y2="304.25" />
      <line x1="125" x2="988" y1="289.2916667" style="clip-path:url(#clipPath10); fill:none;" y2="289.2916667" />
      <line x1="125" x2="988" y1="274.3333333" style="clip-path:url(#clipPath10); fill:none;" y2="274.3333333" />
      <line x1="125" x2="988" y1="259.375" style="clip-path:url(#clipPath10); fill:none;" y2="259.375" />
      <line x1="125" x2="988" y1="244.4166667" style="clip-path:url(#clipPath10); fill:none;" y2="244.4166667" />
      <line x1="125" x2="988" y1="229.4583333" style="clip-path:url(#clipPath10); fill:none;" y2="229.4583333" />
      <line x1="125" x2="988" y1="214.5" style="clip-path:url(#clipPath10); fill:none;" y2="214.5" />
      <line x1="125" x2="988" y1="199.5416667" style="clip-path:url(#clipPath10); fill:none;" y2="199.5416667" />
      <line x1="125" x2="988" y1="184.5833333" style="clip-path:url(#clipPath10); fill:none;" y2="184.5833333" />
      <line x1="125" x2="988" y1="169.625" style="clip-path:url(#clipPath10); fill:none;" y2="169.625" />
      <line x1="125" x2="988" y1="154.6666667" style="clip-path:url(#clipPath10); fill:none;" y2="154.6666667" />
      <line x1="125" x2="988" y1="139.7083333" style="clip-path:url(#clipPath10); fill:none;" y2="139.7083333" />
      <line x1="125" x2="988" y1="124.75" style="clip-path:url(#clipPath10); fill:none;" y2="124.75" />
      <line x1="125" x2="988" y1="109.7916667" style="clip-path:url(#clipPath10); fill:none;" y2="109.7916667" />
      <line x1="125" x2="988" y1="94.8333333" style="clip-path:url(#clipPath10); fill:none;" y2="94.8333333" />
      <line x1="125" x2="988" y1="79.875" style="clip-path:url(#clipPath10); fill:none;" y2="79.875" />
      <line x1="125" x2="988" y1="64.9166667" style="clip-path:url(#clipPath10); fill:none;" y2="64.9166667" />
      <line x1="125" x2="988" y1="49.9583333" style="clip-path:url(#clipPath10); fill:none;" y2="49.9583333" />
      <line x1="125" x2="988" y1="35" style="clip-path:url(#clipPath10); fill:none;" y2="35" />
      <line x1="211.3" x2="326.3666667" y1="349.125" style="clip-path:url(#clipPath10); fill:none; stroke:rgb(49,133,156); stroke-width:3;" y2="79.875" />
      <line x1="326.3666667" x2="441.4333333" y1="79.875" style="clip-path:url(#clipPath10); fill:none; stroke:rgb(49,133,156); stroke-width:3;" y2="199.5416667" />
      <line x1="441.4333333" x2="556.5" y1="199.5416667" style="clip-path:url(#clipPath10); fill:none; stroke:rgb(49,133,156); stroke-width:3;" y2="176.3383" />
      <line x1="556.5" x2="671.5666667" y1="176.3383" style="clip-path:url(#clipPath10); fill:none; stroke:rgb(49,133,156); stroke-width:3;" y2="161.3799667" />
      <line x1="671.5666667" x2="786.6333333" y1="161.3799667" style="clip-path:url(#clipPath10); fill:none; stroke:rgb(49,133,156); stroke-width:3;" y2="206.2549667" />
      <line x1="786.6333333" x2="901.7" y1="206.2549667" style="clip-path:url(#clipPath10); fill:none; stroke:rgb(49,133,156); stroke-width:3;" y2="49.9583333" />
    </g>
  </g>
</svg>
