<?xml version="1.0" encoding="UTF-8"?>

<!DOCTYPE svg PUBLIC '-//W3C//DTD SVG 1.0//EN' 'http://www.w3.org/TR/2001/REC-SVG-20010904/DTD/svg10.dtd'>
<svg style="fill-opacity:1; color-rendering:auto; color-interpolation:auto; text-rendering:auto; stroke:black; stroke-linecap:square; stroke-miterlimit:10; shape-rendering:auto; stroke-opacity:1; fill:black; stroke-dasharray:none; font-weight:normal; stroke-width:1; font-family:&apos;Dialog&apos;; font-style:normal; stroke-linejoin:miter; font-size:12; stroke-dashoffset:0; image-rendering:auto;" xmlns="http://www.w3.org/2000/svg" width="1000" xmlns:xlink="http://www.w3.org/1999/xlink" height="500">
  <!--Generated by the Batik Graphics2D SVG Generator-->
  <defs id="genericDefs" />
  <g>
    <defs id="defs1">
      <clipPath clipPathUnits="userSpaceOnUse" id="clipPath1">
        <path d="M0 0 L1000 0 L1000 500 L0 500 L0 0 Z" />
      </clipPath>
      <clipPath clipPathUnits="userSpaceOnUse" id="clipPath2">
        <path d="M346.1452637 -31.6685905 L1053.2520752 675.4381714 L699.6986694 1028.9915771 L-7.4081264 321.8847961 L346.1452637 -31.6685905 Z" />
      </clipPath>
      <clipPath clipPathUnits="userSpaceOnUse" id="clipPath3">
        <path d="M379.8475037 -113.0330124 L1086.9543457 594.0737915 L733.4008789 947.6271362 L26.2941189 240.5203857 L379.8475037 -113.0330124 Z" />
      </clipPath>
      <clipPath clipPathUnits="userSpaceOnUse" id="clipPath4">
        <path d="M413.5497437 -194.3974152 L1120.6564941 512.7093506 L767.1031494 866.2627563 L59.9963608 159.1559753 L413.5497437 -194.3974152 Z" />
      </clipPath>
      <clipPath clipPathUnits="userSpaceOnUse" id="clipPath5">
        <path d="M447.2520142 -275.7618408 L1154.3587646 431.3449402 L800.8054199 784.8983154 L93.6986084 77.7915421 L447.2520142 -275.7618408 Z" />
      </clipPath>
      <clipPath clipPathUnits="userSpaceOnUse" id="clipPath6">
        <path d="M480.9542542 -357.1262512 L1188.0610352 349.9805298 L834.5076294 703.5339355 L127.400856 -3.5728679 L480.9542542 -357.1262512 Z" />
      </clipPath>
      <clipPath clipPathUnits="userSpaceOnUse" id="clipPath7">
        <path d="M514.6564941 -438.4907227 L1221.7633057 268.6160583 L868.2098999 622.1694336 L161.1031189 -84.9373169 L514.6564941 -438.4907227 Z" />
      </clipPath>
      <clipPath clipPathUnits="userSpaceOnUse" id="clipPath8">
        <path d="M548.3587646 -519.8551025 L1255.4655762 187.2516632 L901.9121094 540.8050537 L194.8053589 -166.3017273 L548.3587646 -519.8551025 Z" />
      </clipPath>
      <clipPath clipPathUnits="userSpaceOnUse" id="clipPath9">
        <path d="M235 194 L235 1194 L-265 1194 L-265 194 L235 194 Z" />
      </clipPath>
      <clipPath clipPathUnits="userSpaceOnUse" id="clipPath10">
        <path d="M125 35 L125 394 L988 394 L988 35 Z" />
      </clipPath>
    </defs>
    <g style="fill:white; text-rendering:optimizeLegibility; stroke:white;">
      <rect x="0" y="0" width="1000" style="clip-path:url(#clipPath1); stroke:none;" height="500" />
      <rect x="0" y="0" width="999" style="clip-path:url(#clipPath1); fill:none; stroke:gray; stroke-width:0.3;" height="499" />
    </g>
    <g style="text-rendering:optimizeLegibility; stroke-width:0.3; font-size:20; font-family:&apos;Tahoma&apos;; font-weight:bold;">
      <text x="473" y="21.0097656" style="clip-path:url(#clipPath1); stroke:none;" xml:space="preserve">Earth</text>
    </g>
    <g style="font-size:16; fill:white; text-rendering:optimizeLegibility; font-family:&apos;宋体&apos;; stroke:white; stroke-width:0.3;">
      <rect x="125" y="35" width="863" style="clip-path:url(#clipPath1); stroke:none;" height="359" />
      <path transform="matrix(0.7071068,-0.7071068,0.7071068,0.7071068,-222.368588,267.154739)" style="fill:black; clip-path:url(#clipPath2); stroke:none;" d="M201.1125031 408.5625 Q201.1125031 407.4375 200.6125031 406.84375 Q200.1125031 406.25 199.1125031 406.25 Q198.3625031 406.25 197.8312531 406.65625 Q197.3000031 407.0625 197.3000031 407.6875 Q197.3000031 408.0625 197.5500031 408.3125 Q197.7375031 408.5625 197.7375031 408.8125 Q197.7375031 409.125 197.5812531 409.28125 Q197.4250031 409.4375 197.1125031 409.4375 Q196.7375031 409.4375 196.5187531 409.21875 Q196.3000031 409 196.3000031 408.5 Q196.3000031 407.1875 197.2375031 406.5 Q198.1750031 405.8125 199.2375031 405.8125 Q200.7375031 405.8125 201.4562531 406.5625 Q202.1750031 407.3125 202.1750031 408.4375 Q202.1750031 409.1875 201.8312531 409.9375 Q201.4875031 410.6875 200.7375031 411.375 Q198.9250031 413.125 197.9562531 414.21875 Q196.9875031 415.3125 196.8000031 415.6875 L200.4875031 415.6875 Q201.0500031 415.6875 201.4250031 415.25 Q201.8000031 414.8125 201.9250031 413.9375 L202.3000031 413.9375 L201.9250031 416.625 L196.1125031 416.625 L196.1125031 415.8125 Q196.4250031 415.25 197.1437531 414.375 Q197.8625031 413.5 199.0500031 412.3125 Q200.1125031 411.25 200.6125031 410.3125 Q201.1125031 409.375 201.1125031 408.5625 ZM207.6125031 409.75 Q208.8000031 409.75 209.5500031 410.65625 Q210.3000031 411.5625 210.3000031 413.0625 Q210.3000031 414.75 209.5187531 415.75 Q208.7375031 416.75 207.1125031 416.75 Q205.9875031 416.75 205.1125031 416.09375 Q204.2375031 415.4375 204.2375031 414.5 Q204.2375031 414.125 204.4562531 413.84375 Q204.6750031 413.5625 205.0500031 413.5625 Q205.4250031 413.5625 205.5500031 413.8125 Q205.6750031 414.0625 205.6750031 414.25 Q205.6750031 414.625 205.4875031 414.8125 Q205.3000031 415.0625 205.3000031 415.3125 Q205.3000031 415.8125 205.8937531 416.0625 Q206.4875031 416.3125 207.1750031 416.3125 Q208.1750031 416.3125 208.7062531 415.5 Q209.2375031 414.6875 209.2375031 413.1875 Q209.2375031 411.9375 208.7687531 411.15625 Q208.3000031 410.375 207.3625031 410.375 Q206.6750031 410.375 206.1750031 410.625 Q205.6750031 410.875 205.2375031 411.6875 L204.6750031 411.625 L204.9875031 405.9375 L210.1125031 405.9375 L209.9250031 406.875 L205.4250031 406.875 L205.1750031 411 Q205.8000031 410.125 206.3937531 409.9375 Q206.9875031 409.75 207.6125031 409.75 Z" />
    </g>
    <g transform="matrix(0.7071068,-0.7071068,0.7071068,0.7071068,-188.6663419,348.5191586)" style="text-rendering:optimizeLegibility; stroke-width:0.3; font-size:16; font-family:&apos;宋体&apos;;">
      <path d="M268.1791687 408.5625 Q268.1791687 407.4375 267.6791687 406.84375 Q267.1791687 406.25 266.1791687 406.25 Q265.4291687 406.25 264.8979187 406.65625 Q264.3666687 407.0625 264.3666687 407.6875 Q264.3666687 408.0625 264.6166687 408.3125 Q264.8041687 408.5625 264.8041687 408.8125 Q264.8041687 409.125 264.6479187 409.28125 Q264.4916687 409.4375 264.1791687 409.4375 Q263.8041687 409.4375 263.5854187 409.21875 Q263.3666687 409 263.3666687 408.5 Q263.3666687 407.1875 264.3041687 406.5 Q265.2416687 405.8125 266.3041687 405.8125 Q267.8041687 405.8125 268.5229187 406.5625 Q269.2416687 407.3125 269.2416687 408.4375 Q269.2416687 409.1875 268.8979187 409.9375 Q268.5541687 410.6875 267.8041687 411.375 Q265.9916687 413.125 265.0229187 414.21875 Q264.0541687 415.3125 263.8666687 415.6875 L267.5541687 415.6875 Q268.1166687 415.6875 268.4916687 415.25 Q268.8666687 414.8125 268.9916687 413.9375 L269.3666687 413.9375 L268.9916687 416.625 L263.1791687 416.625 L263.1791687 415.8125 Q263.4916687 415.25 264.2104187 414.375 Q264.9291687 413.5 266.1166687 412.3125 Q267.1791687 411.25 267.6791687 410.3125 Q268.1791687 409.375 268.1791687 408.5625 ZM274.3666687 406.3125 Q273.4916687 406.3125 272.8979187 407.65625 Q272.3041687 409 272.3041687 411.25 Q272.3041687 413.625 272.8979187 414.9375 Q273.4916687 416.25 274.3666687 416.25 Q275.3041687 416.25 275.8354187 414.9375 Q276.3666687 413.625 276.3666687 411.25 Q276.3666687 409 275.8666687 407.65625 Q275.3666687 406.3125 274.3666687 406.3125 ZM274.3666687 416.75 Q272.9916687 416.75 272.0541687 415.3125 Q271.1166687 413.875 271.1166687 411.25 Q271.1166687 408.8125 272.0229187 407.3125 Q272.9291687 405.8125 274.3666687 405.8125 Q275.7416687 405.8125 276.6479187 407.25 Q277.5541687 408.6875 277.5541687 411.25 Q277.5541687 413.8125 276.6479187 415.28125 Q275.7416687 416.75 274.3666687 416.75 ZM285.3666687 413.75 Q285.3666687 414.9375 284.4916687 415.84375 Q283.6166687 416.75 282.0541687 416.75 Q280.9291687 416.75 280.1166687 416.125 Q279.3041687 415.5 279.3041687 414.6875 Q279.3041687 414.3125 279.5541687 414.03125 Q279.8041687 413.75 280.0541687 413.75 Q280.4291687 413.75 280.5854187 414.03125 Q280.7416687 414.3125 280.7416687 414.5 Q280.7416687 414.8125 280.6166687 415 Q280.4916687 415.25 280.4916687 415.4375 Q280.4916687 415.8125 280.9604187 416.0625 Q281.4291687 416.3125 281.9916687 416.3125 Q283.1166687 416.3125 283.6791687 415.65625 Q284.2416687 415 284.2416687 413.625 Q284.2416687 412.5 283.6479187 411.8125 Q283.0541687 411.125 281.4291687 411.125 L281.4291687 410.6875 Q282.6791687 410.6875 283.2729187 410.09375 Q283.8666687 409.5 283.8666687 408.4375 Q283.8666687 407.5625 283.3979187 406.90625 Q282.9291687 406.25 281.9291687 406.25 Q281.4916687 406.25 280.9916687 406.46875 Q280.4916687 406.6875 280.4916687 407.1875 Q280.4916687 407.6875 280.6166687 407.8125 Q280.7416687 407.9375 280.7416687 408.125 Q280.7416687 408.4375 280.6166687 408.625 Q280.4916687 408.8125 280.1791687 408.8125 Q279.9291687 408.8125 279.7104187 408.625 Q279.4916687 408.4375 279.4916687 407.9375 Q279.4916687 407 280.3041687 406.40625 Q281.1166687 405.8125 282.1791687 405.8125 Q283.4291687 405.8125 284.1791687 406.59375 Q284.9291687 407.375 284.9291687 408.25 Q284.9291687 409.1875 284.4604187 409.84375 Q283.9916687 410.5 282.9916687 410.8125 Q284.3666687 411.3125 284.8666687 412.125 Q285.3666687 412.9375 285.3666687 413.75 ZM290.3666687 406.3125 Q289.4916687 406.3125 288.8979187 407.65625 Q288.3041687 409 288.3041687 411.25 Q288.3041687 413.625 288.8979187 414.9375 Q289.4916687 416.25 290.3666687 416.25 Q291.3041687 416.25 291.8354187 414.9375 Q292.3666687 413.625 292.3666687 411.25 Q292.3666687 409 291.8666687 407.65625 Q291.3666687 406.3125 290.3666687 406.3125 ZM290.3666687 416.75 Q288.9916687 416.75 288.0541687 415.3125 Q287.1166687 413.875 287.1166687 411.25 Q287.1166687 408.8125 288.0229187 407.3125 Q288.9291687 405.8125 290.3666687 405.8125 Q291.7416687 405.8125 292.6479187 407.25 Q293.5541687 408.6875 293.5541687 411.25 Q293.5541687 413.8125 292.6479187 415.28125 Q291.7416687 416.75 290.3666687 416.75 ZM295.3666687 418.0625 L294.9291687 417.8125 L301.3041687 404.4375 L301.7416687 404.6875 L295.3666687 418.0625 ZM308.1791687 408.5625 Q308.1791687 407.4375 307.6791687 406.84375 Q307.1791687 406.25 306.1791687 406.25 Q305.4291687 406.25 304.8979187 406.65625 Q304.3666687 407.0625 304.3666687 407.6875 Q304.3666687 408.0625 304.6166687 408.3125 Q304.8041687 408.5625 304.8041687 408.8125 Q304.8041687 409.125 304.6479187 409.28125 Q304.4916687 409.4375 304.1791687 409.4375 Q303.8041687 409.4375 303.5854187 409.21875 Q303.3666687 409 303.3666687 408.5 Q303.3666687 407.1875 304.3041687 406.5 Q305.2416687 405.8125 306.3041687 405.8125 Q307.8041687 405.8125 308.5229187 406.5625 Q309.2416687 407.3125 309.2416687 408.4375 Q309.2416687 409.1875 308.8979187 409.9375 Q308.5541687 410.6875 307.8041687 411.375 Q305.9916687 413.125 305.0229187 414.21875 Q304.0541687 415.3125 303.8666687 415.6875 L307.5541687 415.6875 Q308.1166687 415.6875 308.4916687 415.25 Q308.8666687 414.8125 308.9916687 413.9375 L309.3666687 413.9375 L308.9916687 416.625 L303.1791687 416.625 L303.1791687 415.8125 Q303.4916687 415.25 304.2104187 414.375 Q304.9291687 413.5 306.1166687 412.3125 Q307.1791687 411.25 307.6791687 410.3125 Q308.1791687 409.375 308.1791687 408.5625 ZM311.3666687 418.0625 L310.9291687 417.8125 L317.3041687 404.4375 L317.7416687 404.6875 L311.3666687 418.0625 ZM325.3666687 413.75 Q325.3666687 414.9375 324.4916687 415.84375 Q323.6166687 416.75 322.0541687 416.75 Q320.9291687 416.75 320.1166687 416.125 Q319.3041687 415.5 319.3041687 414.6875 Q319.3041687 414.3125 319.5541687 414.03125 Q319.8041687 413.75 320.0541687 413.75 Q320.4291687 413.75 320.5854187 414.03125 Q320.7416687 414.3125 320.7416687 414.5 Q320.7416687 414.8125 320.6166687 415 Q320.4916687 415.25 320.4916687 415.4375 Q320.4916687 415.8125 320.9604187 416.0625 Q321.4291687 416.3125 321.9916687 416.3125 Q323.1166687 416.3125 323.6791687 415.65625 Q324.2416687 415 324.2416687 413.625 Q324.2416687 412.5 323.6479187 411.8125 Q323.0541687 411.125 321.4291687 411.125 L321.4291687 410.6875 Q322.6791687 410.6875 323.2729187 410.09375 Q323.8666687 409.5 323.8666687 408.4375 Q323.8666687 407.5625 323.3979187 406.90625 Q322.9291687 406.25 321.9291687 406.25 Q321.4916687 406.25 320.9916687 406.46875 Q320.4916687 406.6875 320.4916687 407.1875 Q320.4916687 407.6875 320.6166687 407.8125 Q320.7416687 407.9375 320.7416687 408.125 Q320.7416687 408.4375 320.6166687 408.625 Q320.4916687 408.8125 320.1791687 408.8125 Q319.9291687 408.8125 319.7104187 408.625 Q319.4916687 408.4375 319.4916687 407.9375 Q319.4916687 407 320.3041687 406.40625 Q321.1166687 405.8125 322.1791687 405.8125 Q323.4291687 405.8125 324.1791687 406.59375 Q324.9291687 407.375 324.9291687 408.25 Q324.9291687 409.1875 324.4604187 409.84375 Q323.9916687 410.5 322.9916687 410.8125 Q324.3666687 411.3125 324.8666687 412.125 Q325.3666687 412.9375 325.3666687 413.75 Z" style="clip-path:url(#clipPath3); stroke:none;" />
    </g>
    <g transform="matrix(0.7071068,-0.7071068,0.7071068,0.7071068,-154.9641003,429.8835673)" style="text-rendering:optimizeLegibility; stroke-width:0.3; font-size:16; font-family:&apos;宋体&apos;;">
      <path d="M383.2458191 408.5625 Q383.2458191 407.4375 382.7458191 406.84375 Q382.2458191 406.25 381.2458191 406.25 Q380.4958191 406.25 379.9645691 406.65625 Q379.4333191 407.0625 379.4333191 407.6875 Q379.4333191 408.0625 379.6833191 408.3125 Q379.8708191 408.5625 379.8708191 408.8125 Q379.8708191 409.125 379.7145691 409.28125 Q379.5583191 409.4375 379.2458191 409.4375 Q378.8708191 409.4375 378.6520691 409.21875 Q378.4333191 409 378.4333191 408.5 Q378.4333191 407.1875 379.3708191 406.5 Q380.3083191 405.8125 381.3708191 405.8125 Q382.8708191 405.8125 383.5895691 406.5625 Q384.3083191 407.3125 384.3083191 408.4375 Q384.3083191 409.1875 383.9645691 409.9375 Q383.6208191 410.6875 382.8708191 411.375 Q381.0583191 413.125 380.0895691 414.21875 Q379.1208191 415.3125 378.9333191 415.6875 L382.6208191 415.6875 Q383.1833191 415.6875 383.5583191 415.25 Q383.9333191 414.8125 384.0583191 413.9375 L384.4333191 413.9375 L384.0583191 416.625 L378.2458191 416.625 L378.2458191 415.8125 Q378.5583191 415.25 379.2770691 414.375 Q379.9958191 413.5 381.1833191 412.3125 Q382.2458191 411.25 382.7458191 410.3125 Q383.2458191 409.375 383.2458191 408.5625 ZM389.4333191 406.3125 Q388.5583191 406.3125 387.9645691 407.65625 Q387.3708191 409 387.3708191 411.25 Q387.3708191 413.625 387.9645691 414.9375 Q388.5583191 416.25 389.4333191 416.25 Q390.3708191 416.25 390.9020691 414.9375 Q391.4333191 413.625 391.4333191 411.25 Q391.4333191 409 390.9333191 407.65625 Q390.4333191 406.3125 389.4333191 406.3125 ZM389.4333191 416.75 Q388.0583191 416.75 387.1208191 415.3125 Q386.1833191 413.875 386.1833191 411.25 Q386.1833191 408.8125 387.0895691 407.3125 Q387.9958191 405.8125 389.4333191 405.8125 Q390.8083191 405.8125 391.7145691 407.25 Q392.6208191 408.6875 392.6208191 411.25 Q392.6208191 413.8125 391.7145691 415.28125 Q390.8083191 416.75 389.4333191 416.75 ZM399.1833191 415.4375 Q399.1833191 415.875 399.4333191 416.0625 Q399.6833191 416.25 400.1208191 416.25 L400.6833191 416.25 L400.6833191 416.625 L396.5583191 416.625 L396.5583191 416.25 L397.2458191 416.25 Q397.7458191 416.25 397.9645691 416.0625 Q398.1833191 415.875 398.1833191 415.4375 L398.1833191 413.375 L393.9958191 413.375 L393.9958191 413.0625 L398.5583191 405.8125 L399.1833191 405.8125 L399.1833191 413 L400.8708191 413 L400.8708191 413.375 L399.1833191 413.375 L399.1833191 415.4375 ZM398.1208191 407.375 L394.5583191 413 L398.1833191 413 L398.1833191 407.375 L398.1208191 407.375 ZM405.4333191 406.3125 Q404.5583191 406.3125 403.9645691 407.65625 Q403.3708191 409 403.3708191 411.25 Q403.3708191 413.625 403.9645691 414.9375 Q404.5583191 416.25 405.4333191 416.25 Q406.3708191 416.25 406.9020691 414.9375 Q407.4333191 413.625 407.4333191 411.25 Q407.4333191 409 406.9333191 407.65625 Q406.4333191 406.3125 405.4333191 406.3125 ZM405.4333191 416.75 Q404.0583191 416.75 403.1208191 415.3125 Q402.1833191 413.875 402.1833191 411.25 Q402.1833191 408.8125 403.0895691 407.3125 Q403.9958191 405.8125 405.4333191 405.8125 Q406.8083191 405.8125 407.7145691 407.25 Q408.6208191 408.6875 408.6208191 411.25 Q408.6208191 413.8125 407.7145691 415.28125 Q406.8083191 416.75 405.4333191 416.75 ZM410.4333191 418.0625 L409.9958191 417.8125 L416.3708191 404.4375 L416.8083191 404.6875 L410.4333191 418.0625 ZM421.7458191 409.75 Q422.9333191 409.75 423.6833191 410.65625 Q424.4333191 411.5625 424.4333191 413.0625 Q424.4333191 414.75 423.6520691 415.75 Q422.8708191 416.75 421.2458191 416.75 Q420.1208191 416.75 419.2458191 416.09375 Q418.3708191 415.4375 418.3708191 414.5 Q418.3708191 414.125 418.5895691 413.84375 Q418.8083191 413.5625 419.1833191 413.5625 Q419.5583191 413.5625 419.6833191 413.8125 Q419.8083191 414.0625 419.8083191 414.25 Q419.8083191 414.625 419.6208191 414.8125 Q419.4333191 415.0625 419.4333191 415.3125 Q419.4333191 415.8125 420.0270691 416.0625 Q420.6208191 416.3125 421.3083191 416.3125 Q422.3083191 416.3125 422.8395691 415.5 Q423.3708191 414.6875 423.3708191 413.1875 Q423.3708191 411.9375 422.9020691 411.15625 Q422.4333191 410.375 421.4958191 410.375 Q420.8083191 410.375 420.3083191 410.625 Q419.8083191 410.875 419.3708191 411.6875 L418.8083191 411.625 L419.1208191 405.9375 L424.2458191 405.9375 L424.0583191 406.875 L419.5583191 406.875 L419.3083191 411 Q419.9333191 410.125 420.5270691 409.9375 Q421.1208191 409.75 421.7458191 409.75 ZM426.4333191 418.0625 L425.9958191 417.8125 L432.3708191 404.4375 L432.8083191 404.6875 L426.4333191 418.0625 ZM437.7458191 409.75 Q438.9333191 409.75 439.6833191 410.65625 Q440.4333191 411.5625 440.4333191 413.0625 Q440.4333191 414.75 439.6520691 415.75 Q438.8708191 416.75 437.2458191 416.75 Q436.1208191 416.75 435.2458191 416.09375 Q434.3708191 415.4375 434.3708191 414.5 Q434.3708191 414.125 434.5895691 413.84375 Q434.8083191 413.5625 435.1833191 413.5625 Q435.5583191 413.5625 435.6833191 413.8125 Q435.8083191 414.0625 435.8083191 414.25 Q435.8083191 414.625 435.6208191 414.8125 Q435.4333191 415.0625 435.4333191 415.3125 Q435.4333191 415.8125 436.0270691 416.0625 Q436.6208191 416.3125 437.3083191 416.3125 Q438.3083191 416.3125 438.8395691 415.5 Q439.3708191 414.6875 439.3708191 413.1875 Q439.3708191 411.9375 438.9020691 411.15625 Q438.4333191 410.375 437.4958191 410.375 Q436.8083191 410.375 436.3083191 410.625 Q435.8083191 410.875 435.3708191 411.6875 L434.8083191 411.625 L435.1208191 405.9375 L440.2458191 405.9375 L440.0583191 406.875 L435.5583191 406.875 L435.3083191 411 Q435.9333191 410.125 436.5270691 409.9375 Q437.1208191 409.75 437.7458191 409.75 Z" style="clip-path:url(#clipPath4); stroke:none;" />
    </g>
    <g transform="matrix(0.7071068,-0.7071068,0.7071068,0.7071068,-121.2618498,511.2479977)" style="text-rendering:optimizeLegibility; stroke-width:0.3; font-size:16; font-family:&apos;宋体&apos;;">
      <path d="M498.3125 408.5625 Q498.3125 407.4375 497.8125 406.84375 Q497.3125 406.25 496.3125 406.25 Q495.5625 406.25 495.03125 406.65625 Q494.5 407.0625 494.5 407.6875 Q494.5 408.0625 494.75 408.3125 Q494.9375 408.5625 494.9375 408.8125 Q494.9375 409.125 494.78125 409.28125 Q494.625 409.4375 494.3125 409.4375 Q493.9375 409.4375 493.71875 409.21875 Q493.5 409 493.5 408.5 Q493.5 407.1875 494.4375 406.5 Q495.375 405.8125 496.4375 405.8125 Q497.9375 405.8125 498.65625 406.5625 Q499.375 407.3125 499.375 408.4375 Q499.375 409.1875 499.03125 409.9375 Q498.6875 410.6875 497.9375 411.375 Q496.125 413.125 495.15625 414.21875 Q494.1875 415.3125 494 415.6875 L497.6875 415.6875 Q498.25 415.6875 498.625 415.25 Q499 414.8125 499.125 413.9375 L499.5 413.9375 L499.125 416.625 L493.3125 416.625 L493.3125 415.8125 Q493.625 415.25 494.34375 414.375 Q495.0625 413.5 496.25 412.3125 Q497.3125 411.25 497.8125 410.3125 Q498.3125 409.375 498.3125 408.5625 ZM504.5 406.3125 Q503.625 406.3125 503.03125 407.65625 Q502.4375 409 502.4375 411.25 Q502.4375 413.625 503.03125 414.9375 Q503.625 416.25 504.5 416.25 Q505.4375 416.25 505.96875 414.9375 Q506.5 413.625 506.5 411.25 Q506.5 409 506 407.65625 Q505.5 406.3125 504.5 406.3125 ZM504.5 416.75 Q503.125 416.75 502.1875 415.3125 Q501.25 413.875 501.25 411.25 Q501.25 408.8125 502.15625 407.3125 Q503.0625 405.8125 504.5 405.8125 Q505.875 405.8125 506.78125 407.25 Q507.6875 408.6875 507.6875 411.25 Q507.6875 413.8125 506.78125 415.28125 Q505.875 416.75 504.5 416.75 ZM512.8125 409.75 Q514 409.75 514.75 410.65625 Q515.5 411.5625 515.5 413.0625 Q515.5 414.75 514.71875 415.75 Q513.9375 416.75 512.3125 416.75 Q511.1875 416.75 510.3125 416.09375 Q509.4375 415.4375 509.4375 414.5 Q509.4375 414.125 509.65625 413.84375 Q509.875 413.5625 510.25 413.5625 Q510.625 413.5625 510.75 413.8125 Q510.875 414.0625 510.875 414.25 Q510.875 414.625 510.6875 414.8125 Q510.5 415.0625 510.5 415.3125 Q510.5 415.8125 511.09375 416.0625 Q511.6875 416.3125 512.375 416.3125 Q513.375 416.3125 513.90625 415.5 Q514.4375 414.6875 514.4375 413.1875 Q514.4375 411.9375 513.96875 411.15625 Q513.5 410.375 512.5625 410.375 Q511.875 410.375 511.375 410.625 Q510.875 410.875 510.4375 411.6875 L509.875 411.625 L510.1875 405.9375 L515.3125 405.9375 L515.125 406.875 L510.625 406.875 L510.375 411 Q511 410.125 511.59375 409.9375 Q512.1875 409.75 512.8125 409.75 ZM520.5 406.3125 Q519.625 406.3125 519.03125 407.65625 Q518.4375 409 518.4375 411.25 Q518.4375 413.625 519.03125 414.9375 Q519.625 416.25 520.5 416.25 Q521.4375 416.25 521.96875 414.9375 Q522.5 413.625 522.5 411.25 Q522.5 409 522 407.65625 Q521.5 406.3125 520.5 406.3125 ZM520.5 416.75 Q519.125 416.75 518.1875 415.3125 Q517.25 413.875 517.25 411.25 Q517.25 408.8125 518.15625 407.3125 Q519.0625 405.8125 520.5 405.8125 Q521.875 405.8125 522.78125 407.25 Q523.6875 408.6875 523.6875 411.25 Q523.6875 413.8125 522.78125 415.28125 Q521.875 416.75 520.5 416.75 ZM525.5 418.0625 L525.0625 417.8125 L531.4375 404.4375 L531.875 404.6875 L525.5 418.0625 ZM534.4375 412.375 Q534.4375 414.25 535.09375 415.28125 Q535.75 416.3125 536.6875 416.3125 Q537.625 416.3125 538.125 415.625 Q538.625 414.9375 538.625 413.0625 Q538.625 411.8125 538.09375 411.125 Q537.5625 410.4375 536.8125 410.4375 Q536.125 410.4375 535.53125 410.84375 Q534.9375 411.25 534.4375 412.375 ZM536.875 409.8125 Q538.375 409.8125 539.03125 410.8125 Q539.6875 411.8125 539.6875 413.0625 Q539.6875 414.9375 538.78125 415.84375 Q537.875 416.75 536.6875 416.75 Q535 416.75 534.125 415.46875 Q533.25 414.1875 533.25 411.75 Q533.25 408.875 534.3125 407.34375 Q535.375 405.8125 537.1875 405.8125 Q538.0625 405.8125 538.59375 406.3125 Q539.125 406.8125 539.125 407.1875 Q539.125 407.5625 538.96875 407.75 Q538.8125 407.9375 538.4375 407.9375 Q538.125 407.9375 537.96875 407.78125 Q537.8125 407.625 537.8125 407.3125 Q537.8125 407.1875 537.875 407.0625 Q537.875 406.9375 537.875 406.8125 Q537.875 406.5625 537.6875 406.40625 Q537.5 406.25 537 406.25 Q535.9375 406.25 535.1875 407.21875 Q534.4375 408.1875 534.4375 411.4375 Q534.8125 410.625 535.46875 410.21875 Q536.125 409.8125 536.875 409.8125 ZM541.5 418.0625 L541.0625 417.8125 L547.4375 404.4375 L547.875 404.6875 L541.5 418.0625 ZM550.4375 412.375 Q550.4375 414.25 551.09375 415.28125 Q551.75 416.3125 552.6875 416.3125 Q553.625 416.3125 554.125 415.625 Q554.625 414.9375 554.625 413.0625 Q554.625 411.8125 554.09375 411.125 Q553.5625 410.4375 552.8125 410.4375 Q552.125 410.4375 551.53125 410.84375 Q550.9375 411.25 550.4375 412.375 ZM552.875 409.8125 Q554.375 409.8125 555.03125 410.8125 Q555.6875 411.8125 555.6875 413.0625 Q555.6875 414.9375 554.78125 415.84375 Q553.875 416.75 552.6875 416.75 Q551 416.75 550.125 415.46875 Q549.25 414.1875 549.25 411.75 Q549.25 408.875 550.3125 407.34375 Q551.375 405.8125 553.1875 405.8125 Q554.0625 405.8125 554.59375 406.3125 Q555.125 406.8125 555.125 407.1875 Q555.125 407.5625 554.96875 407.75 Q554.8125 407.9375 554.4375 407.9375 Q554.125 407.9375 553.96875 407.78125 Q553.8125 407.625 553.8125 407.3125 Q553.8125 407.1875 553.875 407.0625 Q553.875 406.9375 553.875 406.8125 Q553.875 406.5625 553.6875 406.40625 Q553.5 406.25 553 406.25 Q551.9375 406.25 551.1875 407.21875 Q550.4375 408.1875 550.4375 411.4375 Q550.8125 410.625 551.46875 410.21875 Q552.125 409.8125 552.875 409.8125 Z" style="clip-path:url(#clipPath5); stroke:none;" />
    </g>
    <g transform="matrix(0.7071068,-0.7071068,0.7071068,0.7071068,-87.5596082,592.6124065)" style="text-rendering:optimizeLegibility; stroke-width:0.3; font-size:16; font-family:&apos;宋体&apos;;">
      <path d="M613.3791504 408.5625 Q613.3791504 407.4375 612.8791504 406.84375 Q612.3791504 406.25 611.3791504 406.25 Q610.6291504 406.25 610.0979004 406.65625 Q609.5666504 407.0625 609.5666504 407.6875 Q609.5666504 408.0625 609.8166504 408.3125 Q610.0041504 408.5625 610.0041504 408.8125 Q610.0041504 409.125 609.8479004 409.28125 Q609.6916504 409.4375 609.3791504 409.4375 Q609.0041504 409.4375 608.7854004 409.21875 Q608.5666504 409 608.5666504 408.5 Q608.5666504 407.1875 609.5041504 406.5 Q610.4416504 405.8125 611.5041504 405.8125 Q613.0041504 405.8125 613.7229004 406.5625 Q614.4416504 407.3125 614.4416504 408.4375 Q614.4416504 409.1875 614.0979004 409.9375 Q613.7541504 410.6875 613.0041504 411.375 Q611.1916504 413.125 610.2229004 414.21875 Q609.2541504 415.3125 609.0666504 415.6875 L612.7541504 415.6875 Q613.3166504 415.6875 613.6916504 415.25 Q614.0666504 414.8125 614.1916504 413.9375 L614.5666504 413.9375 L614.1916504 416.625 L608.3791504 416.625 L608.3791504 415.8125 Q608.6916504 415.25 609.4104004 414.375 Q610.1291504 413.5 611.3166504 412.3125 Q612.3791504 411.25 612.8791504 410.3125 Q613.3791504 409.375 613.3791504 408.5625 ZM619.5666504 406.3125 Q618.6916504 406.3125 618.0979004 407.65625 Q617.5041504 409 617.5041504 411.25 Q617.5041504 413.625 618.0979004 414.9375 Q618.6916504 416.25 619.5666504 416.25 Q620.5041504 416.25 621.0354004 414.9375 Q621.5666504 413.625 621.5666504 411.25 Q621.5666504 409 621.0666504 407.65625 Q620.5666504 406.3125 619.5666504 406.3125 ZM619.5666504 416.75 Q618.1916504 416.75 617.2541504 415.3125 Q616.3166504 413.875 616.3166504 411.25 Q616.3166504 408.8125 617.2229004 407.3125 Q618.1291504 405.8125 619.5666504 405.8125 Q620.9416504 405.8125 621.8479004 407.25 Q622.7541504 408.6875 622.7541504 411.25 Q622.7541504 413.8125 621.8479004 415.28125 Q620.9416504 416.75 619.5666504 416.75 ZM625.5041504 412.375 Q625.5041504 414.25 626.1604004 415.28125 Q626.8166504 416.3125 627.7541504 416.3125 Q628.6916504 416.3125 629.1916504 415.625 Q629.6916504 414.9375 629.6916504 413.0625 Q629.6916504 411.8125 629.1604004 411.125 Q628.6291504 410.4375 627.8791504 410.4375 Q627.1916504 410.4375 626.5979004 410.84375 Q626.0041504 411.25 625.5041504 412.375 ZM627.9416504 409.8125 Q629.4416504 409.8125 630.0979004 410.8125 Q630.7541504 411.8125 630.7541504 413.0625 Q630.7541504 414.9375 629.8479004 415.84375 Q628.9416504 416.75 627.7541504 416.75 Q626.0666504 416.75 625.1916504 415.46875 Q624.3166504 414.1875 624.3166504 411.75 Q624.3166504 408.875 625.3791504 407.34375 Q626.4416504 405.8125 628.2541504 405.8125 Q629.1291504 405.8125 629.6604004 406.3125 Q630.1916504 406.8125 630.1916504 407.1875 Q630.1916504 407.5625 630.0354004 407.75 Q629.8791504 407.9375 629.5041504 407.9375 Q629.1916504 407.9375 629.0354004 407.78125 Q628.8791504 407.625 628.8791504 407.3125 Q628.8791504 407.1875 628.9416504 407.0625 Q628.9416504 406.9375 628.9416504 406.8125 Q628.9416504 406.5625 628.7541504 406.40625 Q628.5666504 406.25 628.0666504 406.25 Q627.0041504 406.25 626.2541504 407.21875 Q625.5041504 408.1875 625.5041504 411.4375 Q625.8791504 410.625 626.5354004 410.21875 Q627.1916504 409.8125 627.9416504 409.8125 ZM635.5666504 406.3125 Q634.6916504 406.3125 634.0979004 407.65625 Q633.5041504 409 633.5041504 411.25 Q633.5041504 413.625 634.0979004 414.9375 Q634.6916504 416.25 635.5666504 416.25 Q636.5041504 416.25 637.0354004 414.9375 Q637.5666504 413.625 637.5666504 411.25 Q637.5666504 409 637.0666504 407.65625 Q636.5666504 406.3125 635.5666504 406.3125 ZM635.5666504 416.75 Q634.1916504 416.75 633.2541504 415.3125 Q632.3166504 413.875 632.3166504 411.25 Q632.3166504 408.8125 633.2229004 407.3125 Q634.1291504 405.8125 635.5666504 405.8125 Q636.9416504 405.8125 637.8479004 407.25 Q638.7541504 408.6875 638.7541504 411.25 Q638.7541504 413.8125 637.8479004 415.28125 Q636.9416504 416.75 635.5666504 416.75 ZM640.5666504 418.0625 L640.1291504 417.8125 L646.5041504 404.4375 L646.9416504 404.6875 L640.5666504 418.0625 ZM654.6291504 406.375 Q653.3166504 408.5 652.5354004 410.53125 Q651.7541504 412.5625 651.7541504 414.0625 Q651.7541504 414.3125 651.8166504 414.75 Q651.8166504 415.25 651.8166504 415.875 Q651.8166504 416.375 651.6604004 416.5625 Q651.5041504 416.75 651.1291504 416.75 Q650.8166504 416.75 650.5979004 416.53125 Q650.3791504 416.3125 650.3791504 415.75 Q650.3791504 414.5625 650.9104004 412.8125 Q651.4416504 411.0625 653.7541504 406.875 L650.6291504 406.875 Q649.9416504 406.875 649.5354004 407.3125 Q649.1291504 407.75 648.9416504 408.625 L648.5666504 408.5625 L649.0041504 405.9375 L654.6291504 405.9375 L654.6291504 406.375 ZM656.5666504 418.0625 L656.1291504 417.8125 L662.5041504 404.4375 L662.9416504 404.6875 L656.5666504 418.0625 ZM667.8791504 409.75 Q669.0666504 409.75 669.8166504 410.65625 Q670.5666504 411.5625 670.5666504 413.0625 Q670.5666504 414.75 669.7854004 415.75 Q669.0041504 416.75 667.3791504 416.75 Q666.2541504 416.75 665.3791504 416.09375 Q664.5041504 415.4375 664.5041504 414.5 Q664.5041504 414.125 664.7229004 413.84375 Q664.9416504 413.5625 665.3166504 413.5625 Q665.6916504 413.5625 665.8166504 413.8125 Q665.9416504 414.0625 665.9416504 414.25 Q665.9416504 414.625 665.7541504 414.8125 Q665.5666504 415.0625 665.5666504 415.3125 Q665.5666504 415.8125 666.1604004 416.0625 Q666.7541504 416.3125 667.4416504 416.3125 Q668.4416504 416.3125 668.9729004 415.5 Q669.5041504 414.6875 669.5041504 413.1875 Q669.5041504 411.9375 669.0354004 411.15625 Q668.5666504 410.375 667.6291504 410.375 Q666.9416504 410.375 666.4416504 410.625 Q665.9416504 410.875 665.5041504 411.6875 L664.9416504 411.625 L665.2541504 405.9375 L670.3791504 405.9375 L670.1916504 406.875 L665.6916504 406.875 L665.4416504 411 Q666.0666504 410.125 666.6604004 409.9375 Q667.2541504 409.75 667.8791504 409.75 Z" style="clip-path:url(#clipPath6); stroke:none;" />
    </g>
    <g transform="matrix(0.7071068,-0.7071068,0.7071068,0.7071068,-53.8573487,673.9768584)" style="text-rendering:optimizeLegibility; stroke-width:0.3; font-size:16; font-family:&apos;宋体&apos;;">
      <path d="M720.4458618 408.5625 Q720.4458618 407.4375 719.9458618 406.84375 Q719.4458618 406.25 718.4458618 406.25 Q717.6958618 406.25 717.1646118 406.65625 Q716.6333618 407.0625 716.6333618 407.6875 Q716.6333618 408.0625 716.8833618 408.3125 Q717.0708618 408.5625 717.0708618 408.8125 Q717.0708618 409.125 716.9146118 409.28125 Q716.7583618 409.4375 716.4458618 409.4375 Q716.0708618 409.4375 715.8521118 409.21875 Q715.6333618 409 715.6333618 408.5 Q715.6333618 407.1875 716.5708618 406.5 Q717.5083618 405.8125 718.5708618 405.8125 Q720.0708618 405.8125 720.7896118 406.5625 Q721.5083618 407.3125 721.5083618 408.4375 Q721.5083618 409.1875 721.1646118 409.9375 Q720.8208618 410.6875 720.0708618 411.375 Q718.2583618 413.125 717.2896118 414.21875 Q716.3208618 415.3125 716.1333618 415.6875 L719.8208618 415.6875 Q720.3833618 415.6875 720.7583618 415.25 Q721.1333618 414.8125 721.2583618 413.9375 L721.6333618 413.9375 L721.2583618 416.625 L715.4458618 416.625 L715.4458618 415.8125 Q715.7583618 415.25 716.4771118 414.375 Q717.1958618 413.5 718.3833618 412.3125 Q719.4458618 411.25 719.9458618 410.3125 Q720.4458618 409.375 720.4458618 408.5625 ZM726.6333618 406.3125 Q725.7583618 406.3125 725.1646118 407.65625 Q724.5708618 409 724.5708618 411.25 Q724.5708618 413.625 725.1646118 414.9375 Q725.7583618 416.25 726.6333618 416.25 Q727.5708618 416.25 728.1021118 414.9375 Q728.6333618 413.625 728.6333618 411.25 Q728.6333618 409 728.1333618 407.65625 Q727.6333618 406.3125 726.6333618 406.3125 ZM726.6333618 416.75 Q725.2583618 416.75 724.3208618 415.3125 Q723.3833618 413.875 723.3833618 411.25 Q723.3833618 408.8125 724.2896118 407.3125 Q725.1958618 405.8125 726.6333618 405.8125 Q728.0083618 405.8125 728.9146118 407.25 Q729.8208618 408.6875 729.8208618 411.25 Q729.8208618 413.8125 728.9146118 415.28125 Q728.0083618 416.75 726.6333618 416.75 ZM737.6958618 406.375 Q736.3833618 408.5 735.6021118 410.53125 Q734.8208618 412.5625 734.8208618 414.0625 Q734.8208618 414.3125 734.8833618 414.75 Q734.8833618 415.25 734.8833618 415.875 Q734.8833618 416.375 734.7271118 416.5625 Q734.5708618 416.75 734.1958618 416.75 Q733.8833618 416.75 733.6646118 416.53125 Q733.4458618 416.3125 733.4458618 415.75 Q733.4458618 414.5625 733.9771118 412.8125 Q734.5083618 411.0625 736.8208618 406.875 L733.6958618 406.875 Q733.0083618 406.875 732.6021118 407.3125 Q732.1958618 407.75 732.0083618 408.625 L731.6333618 408.5625 L732.0708618 405.9375 L737.6958618 405.9375 L737.6958618 406.375 ZM742.6333618 406.3125 Q741.7583618 406.3125 741.1646118 407.65625 Q740.5708618 409 740.5708618 411.25 Q740.5708618 413.625 741.1646118 414.9375 Q741.7583618 416.25 742.6333618 416.25 Q743.5708618 416.25 744.1021118 414.9375 Q744.6333618 413.625 744.6333618 411.25 Q744.6333618 409 744.1333618 407.65625 Q743.6333618 406.3125 742.6333618 406.3125 ZM742.6333618 416.75 Q741.2583618 416.75 740.3208618 415.3125 Q739.3833618 413.875 739.3833618 411.25 Q739.3833618 408.8125 740.2896118 407.3125 Q741.1958618 405.8125 742.6333618 405.8125 Q744.0083618 405.8125 744.9146118 407.25 Q745.8208618 408.6875 745.8208618 411.25 Q745.8208618 413.8125 744.9146118 415.28125 Q744.0083618 416.75 742.6333618 416.75 ZM747.6333618 418.0625 L747.1958618 417.8125 L753.5708618 404.4375 L754.0083618 404.6875 L747.6333618 418.0625 ZM756.1958618 414.0625 Q756.1958618 415.0625 756.8521118 415.6875 Q757.5083618 416.3125 758.5083618 416.3125 Q759.6958618 416.3125 760.2271118 415.6875 Q760.7583618 415.0625 760.7583618 414.125 Q760.7583618 413.3125 760.0083618 412.5625 Q759.2583618 411.8125 757.7583618 411.1875 Q757.0083618 411.6875 756.6021118 412.4375 Q756.1958618 413.1875 756.1958618 414.0625 ZM761.6958618 413.9375 Q761.6958618 415.125 760.8208618 415.9375 Q759.9458618 416.75 758.5083618 416.75 Q757.1958618 416.75 756.2583618 415.9375 Q755.3208618 415.125 755.3208618 414.0625 Q755.3208618 413 755.8521118 412.25 Q756.3833618 411.5 757.3833618 410.9375 Q756.5083618 410.5 756.0396118 409.84375 Q755.5708618 409.1875 755.5708618 408.375 Q755.5708618 407.3125 756.3833618 406.5625 Q757.1958618 405.8125 758.6333618 405.8125 Q759.9458618 405.8125 760.7583618 406.5625 Q761.5708618 407.3125 761.5708618 408.375 Q761.5708618 409.125 761.1021118 409.78125 Q760.6333618 410.4375 759.6333618 410.9375 Q760.6958618 411.5625 761.1958618 412.3125 Q761.6958618 413.0625 761.6958618 413.9375 ZM760.6958618 408.4375 Q760.6958618 407.5625 760.1958618 406.90625 Q759.6958618 406.25 758.6333618 406.25 Q757.4458618 406.25 756.9458618 406.875 Q756.4458618 407.5 756.4458618 408.1875 Q756.4458618 408.875 757.1646118 409.53125 Q757.8833618 410.1875 759.1958618 410.6875 Q759.9458618 410.3125 760.3208618 409.75 Q760.6958618 409.1875 760.6958618 408.4375 ZM763.6333618 418.0625 L763.1958618 417.8125 L769.5708618 404.4375 L770.0083618 404.6875 L763.6333618 418.0625 ZM776.4458618 408.5625 Q776.4458618 407.4375 775.9458618 406.84375 Q775.4458618 406.25 774.4458618 406.25 Q773.6958618 406.25 773.1646118 406.65625 Q772.6333618 407.0625 772.6333618 407.6875 Q772.6333618 408.0625 772.8833618 408.3125 Q773.0708618 408.5625 773.0708618 408.8125 Q773.0708618 409.125 772.9146118 409.28125 Q772.7583618 409.4375 772.4458618 409.4375 Q772.0708618 409.4375 771.8521118 409.21875 Q771.6333618 409 771.6333618 408.5 Q771.6333618 407.1875 772.5708618 406.5 Q773.5083618 405.8125 774.5708618 405.8125 Q776.0708618 405.8125 776.7896118 406.5625 Q777.5083618 407.3125 777.5083618 408.4375 Q777.5083618 409.1875 777.1646118 409.9375 Q776.8208618 410.6875 776.0708618 411.375 Q774.2583618 413.125 773.2896118 414.21875 Q772.3208618 415.3125 772.1333618 415.6875 L775.8208618 415.6875 Q776.3833618 415.6875 776.7583618 415.25 Q777.1333618 414.8125 777.2583618 413.9375 L777.6333618 413.9375 L777.2583618 416.625 L771.4458618 416.625 L771.4458618 415.8125 Q771.7583618 415.25 772.4771118 414.375 Q773.1958618 413.5 774.3833618 412.3125 Q775.4458618 411.25 775.9458618 410.3125 Q776.4458618 409.375 776.4458618 408.5625 ZM783.1958618 405.75 L783.1958618 415.25 Q783.1958618 415.75 783.5083618 416 Q783.8208618 416.25 784.3833618 416.25 L785.0083618 416.25 L785.0083618 416.625 L780.4458618 416.625 L780.4458618 416.25 L781.0083618 416.25 Q781.6333618 416.25 781.9146118 416 Q782.1958618 415.75 782.1958618 415.25 L782.1958618 407.6875 Q782.1958618 407.4375 782.0396118 407.28125 Q781.8833618 407.125 781.5708618 407.125 L780.4458618 407.125 L780.4458618 406.75 L781.0083618 406.75 Q781.7583618 406.75 782.2271118 406.5 Q782.6958618 406.25 782.9458618 405.75 L783.1958618 405.75 Z" style="clip-path:url(#clipPath7); stroke:none;" />
    </g>
    <g transform="matrix(0.7071068,-0.7071068,0.7071068,0.7071068,-20.1551071,755.3412672)" style="text-rendering:optimizeLegibility; stroke-width:0.3; font-size:16; font-family:&apos;宋体&apos;;">
      <path d="M835.5125122 408.5625 Q835.5125122 407.4375 835.0125122 406.84375 Q834.5125122 406.25 833.5125122 406.25 Q832.7625122 406.25 832.2312622 406.65625 Q831.7000122 407.0625 831.7000122 407.6875 Q831.7000122 408.0625 831.9500122 408.3125 Q832.1375122 408.5625 832.1375122 408.8125 Q832.1375122 409.125 831.9812622 409.28125 Q831.8250122 409.4375 831.5125122 409.4375 Q831.1375122 409.4375 830.9187622 409.21875 Q830.7000122 409 830.7000122 408.5 Q830.7000122 407.1875 831.6375122 406.5 Q832.5750122 405.8125 833.6375122 405.8125 Q835.1375122 405.8125 835.8562622 406.5625 Q836.5750122 407.3125 836.5750122 408.4375 Q836.5750122 409.1875 836.2312622 409.9375 Q835.8875122 410.6875 835.1375122 411.375 Q833.3250122 413.125 832.3562622 414.21875 Q831.3875122 415.3125 831.2000122 415.6875 L834.8875122 415.6875 Q835.4500122 415.6875 835.8250122 415.25 Q836.2000122 414.8125 836.3250122 413.9375 L836.7000122 413.9375 L836.3250122 416.625 L830.5125122 416.625 L830.5125122 415.8125 Q830.8250122 415.25 831.5437622 414.375 Q832.2625122 413.5 833.4500122 412.3125 Q834.5125122 411.25 835.0125122 410.3125 Q835.5125122 409.375 835.5125122 408.5625 ZM841.7000122 406.3125 Q840.8250122 406.3125 840.2312622 407.65625 Q839.6375122 409 839.6375122 411.25 Q839.6375122 413.625 840.2312622 414.9375 Q840.8250122 416.25 841.7000122 416.25 Q842.6375122 416.25 843.1687622 414.9375 Q843.7000122 413.625 843.7000122 411.25 Q843.7000122 409 843.2000122 407.65625 Q842.7000122 406.3125 841.7000122 406.3125 ZM841.7000122 416.75 Q840.3250122 416.75 839.3875122 415.3125 Q838.4500122 413.875 838.4500122 411.25 Q838.4500122 408.8125 839.3562622 407.3125 Q840.2625122 405.8125 841.7000122 405.8125 Q843.0750122 405.8125 843.9812622 407.25 Q844.8875122 408.6875 844.8875122 411.25 Q844.8875122 413.8125 843.9812622 415.28125 Q843.0750122 416.75 841.7000122 416.75 ZM847.2625122 414.0625 Q847.2625122 415.0625 847.9187622 415.6875 Q848.5750122 416.3125 849.5750122 416.3125 Q850.7625122 416.3125 851.2937622 415.6875 Q851.8250122 415.0625 851.8250122 414.125 Q851.8250122 413.3125 851.0750122 412.5625 Q850.3250122 411.8125 848.8250122 411.1875 Q848.0750122 411.6875 847.6687622 412.4375 Q847.2625122 413.1875 847.2625122 414.0625 ZM852.7625122 413.9375 Q852.7625122 415.125 851.8875122 415.9375 Q851.0125122 416.75 849.5750122 416.75 Q848.2625122 416.75 847.3250122 415.9375 Q846.3875122 415.125 846.3875122 414.0625 Q846.3875122 413 846.9187622 412.25 Q847.4500122 411.5 848.4500122 410.9375 Q847.5750122 410.5 847.1062622 409.84375 Q846.6375122 409.1875 846.6375122 408.375 Q846.6375122 407.3125 847.4500122 406.5625 Q848.2625122 405.8125 849.7000122 405.8125 Q851.0125122 405.8125 851.8250122 406.5625 Q852.6375122 407.3125 852.6375122 408.375 Q852.6375122 409.125 852.1687622 409.78125 Q851.7000122 410.4375 850.7000122 410.9375 Q851.7625122 411.5625 852.2625122 412.3125 Q852.7625122 413.0625 852.7625122 413.9375 ZM851.7625122 408.4375 Q851.7625122 407.5625 851.2625122 406.90625 Q850.7625122 406.25 849.7000122 406.25 Q848.5125122 406.25 848.0125122 406.875 Q847.5125122 407.5 847.5125122 408.1875 Q847.5125122 408.875 848.2312622 409.53125 Q848.9500122 410.1875 850.2625122 410.6875 Q851.0125122 410.3125 851.3875122 409.75 Q851.7625122 409.1875 851.7625122 408.4375 ZM857.7000122 406.3125 Q856.8250122 406.3125 856.2312622 407.65625 Q855.6375122 409 855.6375122 411.25 Q855.6375122 413.625 856.2312622 414.9375 Q856.8250122 416.25 857.7000122 416.25 Q858.6375122 416.25 859.1687622 414.9375 Q859.7000122 413.625 859.7000122 411.25 Q859.7000122 409 859.2000122 407.65625 Q858.7000122 406.3125 857.7000122 406.3125 ZM857.7000122 416.75 Q856.3250122 416.75 855.3875122 415.3125 Q854.4500122 413.875 854.4500122 411.25 Q854.4500122 408.8125 855.3562622 407.3125 Q856.2625122 405.8125 857.7000122 405.8125 Q859.0750122 405.8125 859.9812622 407.25 Q860.8875122 408.6875 860.8875122 411.25 Q860.8875122 413.8125 859.9812622 415.28125 Q859.0750122 416.75 857.7000122 416.75 ZM862.7000122 418.0625 L862.2625122 417.8125 L868.6375122 404.4375 L869.0750122 404.6875 L862.7000122 418.0625 ZM871.2625122 414.0625 Q871.2625122 415.0625 871.9187622 415.6875 Q872.5750122 416.3125 873.5750122 416.3125 Q874.7625122 416.3125 875.2937622 415.6875 Q875.8250122 415.0625 875.8250122 414.125 Q875.8250122 413.3125 875.0750122 412.5625 Q874.3250122 411.8125 872.8250122 411.1875 Q872.0750122 411.6875 871.6687622 412.4375 Q871.2625122 413.1875 871.2625122 414.0625 ZM876.7625122 413.9375 Q876.7625122 415.125 875.8875122 415.9375 Q875.0125122 416.75 873.5750122 416.75 Q872.2625122 416.75 871.3250122 415.9375 Q870.3875122 415.125 870.3875122 414.0625 Q870.3875122 413 870.9187622 412.25 Q871.4500122 411.5 872.4500122 410.9375 Q871.5750122 410.5 871.1062622 409.84375 Q870.6375122 409.1875 870.6375122 408.375 Q870.6375122 407.3125 871.4500122 406.5625 Q872.2625122 405.8125 873.7000122 405.8125 Q875.0125122 405.8125 875.8250122 406.5625 Q876.6375122 407.3125 876.6375122 408.375 Q876.6375122 409.125 876.1687622 409.78125 Q875.7000122 410.4375 874.7000122 410.9375 Q875.7625122 411.5625 876.2625122 412.3125 Q876.7625122 413.0625 876.7625122 413.9375 ZM875.7625122 408.4375 Q875.7625122 407.5625 875.2625122 406.90625 Q874.7625122 406.25 873.7000122 406.25 Q872.5125122 406.25 872.0125122 406.875 Q871.5125122 407.5 871.5125122 408.1875 Q871.5125122 408.875 872.2312622 409.53125 Q872.9500122 410.1875 874.2625122 410.6875 Q875.0125122 410.3125 875.3875122 409.75 Q875.7625122 409.1875 875.7625122 408.4375 ZM878.7000122 418.0625 L878.2625122 417.8125 L884.6375122 404.4375 L885.0750122 404.6875 L878.7000122 418.0625 ZM891.5125122 408.5625 Q891.5125122 407.4375 891.0125122 406.84375 Q890.5125122 406.25 889.5125122 406.25 Q888.7625122 406.25 888.2312622 406.65625 Q887.7000122 407.0625 887.7000122 407.6875 Q887.7000122 408.0625 887.9500122 408.3125 Q888.1375122 408.5625 888.1375122 408.8125 Q888.1375122 409.125 887.9812622 409.28125 Q887.8250122 409.4375 887.5125122 409.4375 Q887.1375122 409.4375 886.9187622 409.21875 Q886.7000122 409 886.7000122 408.5 Q886.7000122 407.1875 887.6375122 406.5 Q888.5750122 405.8125 889.6375122 405.8125 Q891.1375122 405.8125 891.8562622 406.5625 Q892.5750122 407.3125 892.5750122 408.4375 Q892.5750122 409.1875 892.2312622 409.9375 Q891.8875122 410.6875 891.1375122 411.375 Q889.3250122 413.125 888.3562622 414.21875 Q887.3875122 415.3125 887.2000122 415.6875 L890.8875122 415.6875 Q891.4500122 415.6875 891.8250122 415.25 Q892.2000122 414.8125 892.3250122 413.9375 L892.7000122 413.9375 L892.3250122 416.625 L886.5125122 416.625 L886.5125122 415.8125 Q886.8250122 415.25 887.5437622 414.375 Q888.2625122 413.5 889.4500122 412.3125 Q890.5125122 411.25 891.0125122 410.3125 Q891.5125122 409.375 891.5125122 408.5625 ZM899.5125122 408.5625 Q899.5125122 407.4375 899.0125122 406.84375 Q898.5125122 406.25 897.5125122 406.25 Q896.7625122 406.25 896.2312622 406.65625 Q895.7000122 407.0625 895.7000122 407.6875 Q895.7000122 408.0625 895.9500122 408.3125 Q896.1375122 408.5625 896.1375122 408.8125 Q896.1375122 409.125 895.9812622 409.28125 Q895.8250122 409.4375 895.5125122 409.4375 Q895.1375122 409.4375 894.9187622 409.21875 Q894.7000122 409 894.7000122 408.5 Q894.7000122 407.1875 895.6375122 406.5 Q896.5750122 405.8125 897.6375122 405.8125 Q899.1375122 405.8125 899.8562622 406.5625 Q900.5750122 407.3125 900.5750122 408.4375 Q900.5750122 409.1875 900.2312622 409.9375 Q899.8875122 410.6875 899.1375122 411.375 Q897.3250122 413.125 896.3562622 414.21875 Q895.3875122 415.3125 895.2000122 415.6875 L898.8875122 415.6875 Q899.4500122 415.6875 899.8250122 415.25 Q900.2000122 414.8125 900.3250122 413.9375 L900.7000122 413.9375 L900.3250122 416.625 L894.5125122 416.625 L894.5125122 415.8125 Q894.8250122 415.25 895.5437622 414.375 Q896.2625122 413.5 897.4500122 412.3125 Q898.5125122 411.25 899.0125122 410.3125 Q899.5125122 409.375 899.5125122 408.5625 Z" style="clip-path:url(#clipPath8); stroke:none;" />
    </g>
    <g style="font-size:16; fill:rgb(64,64,64); text-rendering:optimizeLegibility; font-family:&apos;宋体&apos;; stroke:rgb(64,64,64); stroke-width:0.3;">
      <text x="540.5" y="488.9717102" style="clip-path:url(#clipPath1); stroke:none;" xml:space="preserve">时间</text>
      <text x="35" y="400.125" style="clip-path:url(#clipPath1); fill:blue; stroke:none;" xml:space="preserve">-3,000,000</text>
      <text x="35" y="385.1666565" style="clip-path:url(#clipPath1); fill:blue; stroke:none;" xml:space="preserve">-2,000,000</text>
      <text x="35" y="370.2083435" style="clip-path:url(#clipPath1); fill:blue; stroke:none;" xml:space="preserve">-1,000,000</text>
      <text x="107" y="355.25" style="clip-path:url(#clipPath1); fill:blue; stroke:none;" xml:space="preserve">0</text>
      <text x="43" y="340.2916565" style="clip-path:url(#clipPath1); fill:blue; stroke:none;" xml:space="preserve">1,000,000</text>
      <text x="43" y="325.3333435" style="clip-path:url(#clipPath1); fill:blue; stroke:none;" xml:space="preserve">2,000,000</text>
      <text x="43" y="310.375" style="clip-path:url(#clipPath1); fill:blue; stroke:none;" xml:space="preserve">3,000,000</text>
      <text x="43" y="295.4166565" style="clip-path:url(#clipPath1); fill:blue; stroke:none;" xml:space="preserve">4,000,000</text>
      <text x="43" y="280.4583435" style="clip-path:url(#clipPath1); fill:blue; stroke:none;" xml:space="preserve">5,000,000</text>
      <text x="43" y="265.5" style="clip-path:url(#clipPath1); fill:blue; stroke:none;" xml:space="preserve">6,000,000</text>
      <text x="43" y="250.5416718" style="clip-path:url(#clipPath1); fill:blue; stroke:none;" xml:space="preserve">7,000,000</text>
      <text x="43" y="235.5833282" style="clip-path:url(#clipPath1); fill:blue; stroke:none;" xml:space="preserve">8,000,000</text>
      <text x="43" y="220.625" style="clip-path:url(#clipPath1); fill:blue; stroke:none;" xml:space="preserve">9,000,000</text>
      <text x="35" y="205.6666718" style="clip-path:url(#clipPath1); fill:blue; stroke:none;" xml:space="preserve">10,000,000</text>
      <text x="35" y="190.7083282" style="clip-path:url(#clipPath1); fill:blue; stroke:none;" xml:space="preserve">11,000,000</text>
      <text x="35" y="175.75" style="clip-path:url(#clipPath1); fill:blue; stroke:none;" xml:space="preserve">12,000,000</text>
      <text x="35" y="160.7916718" style="clip-path:url(#clipPath1); fill:blue; stroke:none;" xml:space="preserve">13,000,000</text>
      <text x="35" y="145.8333282" style="clip-path:url(#clipPath1); fill:blue; stroke:none;" xml:space="preserve">14,000,000</text>
      <text x="35" y="130.875" style="clip-path:url(#clipPath1); fill:blue; stroke:none;" xml:space="preserve">15,000,000</text>
      <text x="35" y="115.9166641" style="clip-path:url(#clipPath1); fill:blue; stroke:none;" xml:space="preserve">16,000,000</text>
      <text x="35" y="100.9583359" style="clip-path:url(#clipPath1); fill:blue; stroke:none;" xml:space="preserve">17,000,000</text>
      <text x="35" y="86" style="clip-path:url(#clipPath1); fill:blue; stroke:none;" xml:space="preserve">18,000,000</text>
      <text x="35" y="71.0416641" style="clip-path:url(#clipPath1); fill:blue; stroke:none;" xml:space="preserve">19,000,000</text>
      <text x="35" y="56.0833321" style="clip-path:url(#clipPath1); fill:blue; stroke:none;" xml:space="preserve">20,000,000</text>
      <text x="35" y="41.125" style="clip-path:url(#clipPath1); fill:blue; stroke:none;" xml:space="preserve">21,000,000</text>
      <path d="M13.6875 216.875 L13.6875 218.9375 L15.75 218.9375 L15.75 216.875 L13.6875 216.875 ZM13.3125 207.6875 L13.4375 207.5 Q14.625 208 14.90625 208.3125 Q15.1875 208.625 15.1875 208.875 Q15.1875 209.125 14.96875 209.4375 Q14.75 209.75 14.625 209.75 Q14.4375 209.75 14.3125 209.3125 Q14.0625 208.5625 13.3125 207.6875 ZM10.0625 209.8125 L17.6875 209.8125 L18.5625 209 L19.6875 210.1875 L12.125 210.1875 Q11.3125 210.1875 10.625 210.375 L10.0625 209.8125 ZM12.375 210.5 L12.5625 210.375 Q13.5625 211 13.84375 211.375 Q14.125 211.75 14.125 211.9375 Q14.125 212.25 13.84375 212.59375 Q13.5625 212.9375 13.5 212.9375 Q13.25 212.9375 13.1875 212.3125 Q13 211.4375 12.375 210.5 ZM16.9375 211.1875 Q16.375 212.0625 15.625 213 L15.3125 213 Q16.0625 211.375 16.25 210.1875 L17.4375 210.9375 L16.9375 211.1875 ZM10.625 222.1875 Q10.6875 221.1875 10.6875 217.46875 Q10.6875 213.75 10.625 212.5 L11.5 213 L17.875 213 L18.375 212.375 L19.3125 213.1875 L18.8125 213.625 L18.8125 220.5 Q18.8125 221.6875 17.5625 222.125 Q17.5 221.1875 15.625 220.8125 L15.625 220.5625 Q16.8125 220.625 17.40625 220.65625 Q18 220.6875 18 220.1875 L18 213.375 L11.5 213.375 L11.5 216.375 Q12.8125 214.9375 13.4375 213.4375 L14.4375 214.3125 L13.875 214.5625 Q12.6875 215.8125 11.5 216.75 L11.5 221.75 L10.625 222.1875 ZM15.1875 213.875 L15.3125 213.6875 Q16.4375 214.125 17.0625 214.46875 Q17.6875 214.8125 17.6875 215.3125 Q17.6875 215.5 17.5625 215.875 Q17.4375 216.25 17.3125 216.25 Q17.125 216.25 16.875 215.75 Q16.4375 214.9375 15.1875 213.875 ZM12.8125 216.0625 L13.6875 216.5 L15.6875 216.5 L16.125 215.9375 L17.0625 216.6875 L16.5625 217.125 Q16.5625 218.9375 16.625 219.625 L15.75 219.9375 L15.75 219.3125 L13.6875 219.3125 L13.6875 219.8125 L12.8125 220.1875 Q12.875 219.5625 12.875 218.21875 Q12.875 216.875 12.8125 216.0625 ZM7.5625 207.75 L9.0625 208.5 L8.5 209 L8.5 212.75 Q9.625 211.3125 9.9375 210.375 L10.875 211.25 Q10.4375 211.375 9.9375 211.875 Q9.375 212.4375 8.5 213.25 Q8.5 214.5625 8.375 216.6875 Q9.75 217.375 10.03125 217.71875 Q10.3125 218.0625 10.3125 218.5 Q10.3125 218.8125 10.1875 219.1875 Q10.0625 219.5625 9.9375 219.5625 Q9.8125 219.5625 9.5625 218.9375 Q9.1875 218.0625 8.3125 217.125 Q7.6875 220.125 5.25 222.1875 L5.125 222 Q6.5625 220.1875 7.09375 218.375 Q7.625 216.5625 7.625 213.8125 Q7.625 211.0625 7.5625 207.75 ZM6.4375 211.6875 Q6.75 213.5625 6.65625 214.03125 Q6.5625 214.5 6.25 214.625 Q5.9375 214.75 5.75 214.75 Q5.5625 214.75 5.40625 214.71875 Q5.25 214.6875 5.25 214.5625 Q5.25 214.4375 5.5625 214 Q5.9375 213.375 6.1875 211.6875 L6.4375 211.6875 ZM24.3125 219 Q24.3125 221.1875 24.375 221.9375 L23.4375 222.25 Q23.5 220 23.5 219.25 L23.5 213.0625 Q22.375 214.875 21.3125 216 L21.125 215.875 Q22.3125 214.0625 23.25 211.8125 Q24.1875 209.5625 24.6875 207.625 L26 208.4375 L25.375 208.8125 Q24.375 211.125 24.0625 211.9375 L24.8125 212.375 L24.3125 212.75 L24.3125 219 ZM27.6875 212.5625 L27.6875 214.4375 L32.5 214.4375 L32.5 212.5625 L27.6875 212.5625 ZM27.6875 214.8125 L27.6875 216.6875 L32.5 216.6875 L32.5 214.8125 L27.6875 214.8125 ZM27.6875 217.0625 L27.6875 218.9375 L32.5 218.9375 L32.5 217.0625 L27.6875 217.0625 ZM27.6875 219.3125 L27.6875 221.1875 L32.5 221.1875 L32.5 219.3125 L27.6875 219.3125 ZM29.375 210 Q29.4375 208.5625 29.375 207.5625 L30.8125 208.25 L30.3125 208.625 L30.25 210 L33.0625 210 L33.875 209.1875 L35.0625 210.375 L30.25 210.375 L30.1875 212.1875 L32.375 212.1875 L32.9375 211.5625 L33.875 212.375 L33.3125 212.75 L33.3125 221.1875 L33.875 221.1875 L34.6875 220.375 L35.875 221.5625 L26.625 221.5625 Q25.8125 221.5625 25.125 221.75 L24.5625 221.1875 L26.875 221.1875 L26.875 214.25 Q26.875 213.5 26.8125 211.6875 L27.6875 212.1875 L29.3125 212.1875 L29.375 210.375 L27.5 210.375 Q26.6875 210.375 26 210.5625 L25.4375 210 L29.375 210 Z" style="clip-path:url(#clipPath9); stroke:none;" transform="matrix(0,-1,1,0,-194,235)" />
    </g>
    <g style="font-size:16; fill:gray; text-rendering:optimizeLegibility; font-family:&apos;宋体&apos;; stroke:gray; stroke-width:0.1;">
      <line x1="211.3" x2="211.3" y1="35" style="clip-path:url(#clipPath10); fill:none;" y2="394" />
      <line x1="326.3666667" x2="326.3666667" y1="35" style="clip-path:url(#clipPath10); fill:none;" y2="394" />
      <line x1="441.4333333" x2="441.4333333" y1="35" style="clip-path:url(#clipPath10); fill:none;" y2="394" />
      <line x1="556.5" x2="556.5" y1="35" style="clip-path:url(#clipPath10); fill:none;" y2="394" />
      <line x1="671.5666667" x2="671.5666667" y1="35" style="clip-path:url(#clipPath10); fill:none;" y2="394" />
      <line x1="786.6333333" x2="786.6333333" y1="35" style="clip-path:url(#clipPath10); fill:none;" y2="394" />
      <line x1="901.7" x2="901.7" y1="35" style="clip-path:url(#clipPath10); fill:none;" y2="394" />
      <line x1="125" x2="988" y1="394" style="clip-path:url(#clipPath10); fill:none;" y2="394" />
      <line x1="125" x2="988" y1="379.0416667" style="clip-path:url(#clipPath10); fill:none;" y2="379.0416667" />
      <line x1="125" x2="988" y1="364.0833333" style="clip-path:url(#clipPath10); fill:none;" y2="364.0833333" />
      <line x1="125" x2="988" y1="349.125" style="clip-path:url(#clipPath10); fill:none;" y2="349.125" />
      <line x1="125" x2="988" y1="334.1666667" style="clip-path:url(#clipPath10); fill:none;" y2="334.1666667" />
      <line x1="125" x2="988" y1="319.2083333" style="clip-path:url(#clipPath10); fill:none;" y2="319.2083333" />
      <line x1="125" x2="988" y1="304.25" style="clip-path:url(#clipPath10); fill:none;" y2="304.25" />
      <line x1="125" x2="988" y1="289.2916667" style="clip-path:url(#clipPath10); fill:none;" y2="289.2916667" />
      <line x1="125" x2="988" y1="274.3333333" style="clip-path:url(#clipPath10); fill:none;" y2="274.3333333" />
      <line x1="125" x2="988" y1="259.375" style="clip-path:url(#clipPath10); fill:none;" y2="259.375" />
      <line x1="125" x2="988" y1="244.4166667" style="clip-path:url(#clipPath10); fill:none;" y2="244.4166667" />
      <line x1="125" x2="988" y1="229.4583333" style="clip-path:url(#clipPath10); fill:none;" y2="229.4583333" />
      <line x1="125" x2="988" y1="214.5" style="clip-path:url(#clipPath10); fill:none;" y2="214.5" />
      <line x1="125" x2="988" y1="199.5416667" style="clip-path:url(#clipPath10); fill:none;" y2="199.5416667" />
      <line x1="125" x2="988" y1="184.5833333" style="clip-path:url(#clipPath10); fill:none;" y2="184.5833333" />
      <line x1="125" x2="988" y1="169.625" style="clip-path:url(#clipPath10); fill:none;" y2="169.625" />
      <line x1="125" x2="988" y1="154.6666667" style="clip-path:url(#clipPath10); fill:none;" y2="154.6666667" />
      <line x1="125" x2="988" y1="139.7083333" style="clip-path:url(#clipPath10); fill:none;" y2="139.7083333" />
      <line x1="125" x2="988" y1="124.75" style="clip-path:url(#clipPath10); fill:none;" y2="124.75" />
      <line x1="125" x2="988" y1="109.7916667" style="clip-path:url(#clipPath10); fill:none;" y2="109.7916667" />
      <line x1="125" x2="988" y1="94.8333333" style="clip-path:url(#clipPath10); fill:none;" y2="94.8333333" />
      <line x1="125" x2="988" y1="79.875" style="clip-path:url(#clipPath10); fill:none;" y2="79.875" />
      <line x1="125" x2="988" y1="64.9166667" style="clip-path:url(#clipPath10); fill:none;" y2="64.9166667" />
      <line x1="125" x2="988" y1="49.9583333" style="clip-path:url(#clipPath10); fill:none;" y2="49.9583333" />
      <line x1="125" x2="988" y1="35" style="clip-path:url(#clipPath10); fill:none;" y2="35" />
      <line x1="211.3" x2="326.3666667" y1="349.125" style="clip-path:url(#clipPath10); fill:none; stroke:rgb(49,133,156); stroke-width:3;" y2="79.875" />
      <line x1="326.3666667" x2="441.4333333" y1="79.875" style="clip-path:url(#clipPath10); fill:none; stroke:rgb(49,133,156); stroke-width:3;" y2="199.5416667" />
      <line x1="441.4333333" x2="556.5" y1="199.5416667" style="clip-path:url(#clipPath10); fill:none; stroke:rgb(49,133,156); stroke-width:3;" y2="176.3383" />
      <line x1="556.5" x2="671.5666667" y1="176.3383" style="clip-path:url(#clipPath10); fill:none; stroke:rgb(49,133,156); stroke-width:3;" y2="161.3799667" />
      <line x1="671.5666667" x2="786.6333333" y1="161.3799667" style="clip-path:url(#clipPath10); fill:none; stroke:rgb(49,133,156); stroke-width:3;" y2="206.2549667" />
      <line x1="786.6333333" x2="901.7" y1="206.2549667" style="clip-path:url(#clipPath10); fill:none; stroke:rgb(49,133,156); stroke-width:3;" y2="49.9583333" />
    </g>
  </g>
</svg>
