<?xml version="1.0" encoding="UTF-8"?>

<!DOCTYPE svg PUBLIC '-//W3C//DTD SVG 1.0//EN' 'http://www.w3.org/TR/2001/REC-SVG-20010904/DTD/svg10.dtd'>
<svg style="fill-opacity:1; color-rendering:auto; color-interpolation:auto; text-rendering:auto; stroke:black; stroke-linecap:square; stroke-miterlimit:10; shape-rendering:auto; stroke-opacity:1; fill:black; stroke-dasharray:none; font-weight:normal; stroke-width:1; font-family:&apos;Dialog&apos;; font-style:normal; stroke-linejoin:miter; font-size:12; stroke-dashoffset:0; image-rendering:auto;" xmlns="http://www.w3.org/2000/svg" width="1000" xmlns:xlink="http://www.w3.org/1999/xlink" height="500">
  <!--Generated by the Batik Graphics2D SVG Generator-->
  <defs id="genericDefs" />
  <g>
    <defs id="defs1">
      <clipPath clipPathUnits="userSpaceOnUse" id="clipPath1">
        <path d="M0 0 L1000 0 L1000 500 L0 500 L0 0 Z" />
      </clipPath>
      <clipPath clipPathUnits="userSpaceOnUse" id="clipPath2">
        <path d="M258 217 L258 1217 L-242 1217 L-242 217 L258 217 Z" />
      </clipPath>
      <clipPath clipPathUnits="userSpaceOnUse" id="clipPath3">
        <path d="M77 35 L77 440 L988 440 L988 35 Z" />
      </clipPath>
    </defs>
    <g style="fill:white; text-rendering:optimizeLegibility; stroke:white;">
      <rect x="0" y="0" width="1000" style="clip-path:url(#clipPath1); stroke:none;" height="500" />
      <rect x="0" y="0" width="999" style="clip-path:url(#clipPath1); fill:none; stroke:gray; stroke-width:0.3;" height="499" />
    </g>
    <g style="text-rendering:optimizeLegibility; stroke-width:0.3; font-size:20; font-family:&apos;Tahoma&apos;; font-weight:bold;">
      <text x="480" y="21.0097656" style="clip-path:url(#clipPath1); stroke:none;" xml:space="preserve">熵值</text>
    </g>
    <g style="font-size:16; fill:white; text-rendering:optimizeLegibility; font-family:&apos;宋体&apos;; stroke:white; stroke-width:0.3;">
      <rect x="77" y="35" width="911" style="clip-path:url(#clipPath1); stroke:none;" height="405" />
      <line x1="77" x2="988" y1="444" style="clip-path:url(#clipPath1); fill:none; stroke:gray; stroke-width:0.5;" y2="444" />
      <line x1="168.1" x2="168.1" y1="444" style="clip-path:url(#clipPath1); fill:none; stroke:gray; stroke-width:0.5;" y2="444" />
      <line x1="168.1" x2="168.1" y1="444" style="clip-path:url(#clipPath1); fill:none; stroke:gray; stroke-width:0.5;" y2="446" />
      <line x1="289.5666667" x2="289.5666667" y1="444" style="clip-path:url(#clipPath1); fill:none; stroke:gray; stroke-width:0.5;" y2="444" />
      <line x1="289.5666667" x2="289.5666667" y1="444" style="clip-path:url(#clipPath1); fill:none; stroke:gray; stroke-width:0.5;" y2="446" />
      <line x1="411.0333333" x2="411.0333333" y1="444" style="clip-path:url(#clipPath1); fill:none; stroke:gray; stroke-width:0.5;" y2="444" />
      <line x1="411.0333333" x2="411.0333333" y1="444" style="clip-path:url(#clipPath1); fill:none; stroke:gray; stroke-width:0.5;" y2="446" />
      <line x1="532.5" x2="532.5" y1="444" style="clip-path:url(#clipPath1); fill:none; stroke:gray; stroke-width:0.5;" y2="444" />
      <line x1="532.5" x2="532.5" y1="444" style="clip-path:url(#clipPath1); fill:none; stroke:gray; stroke-width:0.5;" y2="446" />
      <line x1="653.9666667" x2="653.9666667" y1="444" style="clip-path:url(#clipPath1); fill:none; stroke:gray; stroke-width:0.5;" y2="444" />
      <line x1="653.9666667" x2="653.9666667" y1="444" style="clip-path:url(#clipPath1); fill:none; stroke:gray; stroke-width:0.5;" y2="446" />
      <line x1="775.4333333" x2="775.4333333" y1="444" style="clip-path:url(#clipPath1); fill:none; stroke:gray; stroke-width:0.5;" y2="444" />
      <line x1="775.4333333" x2="775.4333333" y1="444" style="clip-path:url(#clipPath1); fill:none; stroke:gray; stroke-width:0.5;" y2="446" />
      <line x1="896.9" x2="896.9" y1="444" style="clip-path:url(#clipPath1); fill:none; stroke:gray; stroke-width:0.5;" y2="444" />
      <line x1="896.9" x2="896.9" y1="444" style="clip-path:url(#clipPath1); fill:none; stroke:gray; stroke-width:0.5;" y2="446" />
      <text x="136.1000061" y="464.875" style="clip-path:url(#clipPath1); fill:rgb(64,64,64); stroke:none; stroke-width:0.5;" xml:space="preserve">2020/2/1</text>
      <text x="257.5666809" y="464.875" style="clip-path:url(#clipPath1); fill:rgb(64,64,64); stroke:none; stroke-width:0.5;" xml:space="preserve">2030/2/3</text>
      <text x="379.0333252" y="464.875" style="clip-path:url(#clipPath1); fill:rgb(64,64,64); stroke:none; stroke-width:0.5;" xml:space="preserve">2040/5/5</text>
      <text x="500.5" y="464.875" style="clip-path:url(#clipPath1); fill:rgb(64,64,64); stroke:none; stroke-width:0.5;" xml:space="preserve">2050/6/6</text>
      <text x="621.9666748" y="464.875" style="clip-path:url(#clipPath1); fill:rgb(64,64,64); stroke:none; stroke-width:0.5;" xml:space="preserve">2060/7/5</text>
      <text x="739.4333496" y="464.875" style="clip-path:url(#clipPath1); fill:rgb(64,64,64); stroke:none; stroke-width:0.5;" xml:space="preserve">2070/8/21</text>
      <text x="860.9000244" y="464.875" style="clip-path:url(#clipPath1); fill:rgb(64,64,64); stroke:none; stroke-width:0.5;" xml:space="preserve">2080/8/22</text>
      <text x="516.5" y="491.625" style="clip-path:url(#clipPath1); fill:rgb(64,64,64); stroke:none; stroke-width:0.5;" xml:space="preserve">时间</text>
      <text x="51" y="429.25" style="clip-path:url(#clipPath1); fill:rgb(64,64,64); stroke:none; stroke-width:0.5;" xml:space="preserve">0%</text>
      <text x="43" y="361.75" style="clip-path:url(#clipPath1); fill:rgb(64,64,64); stroke:none; stroke-width:0.5;" xml:space="preserve">20%</text>
      <text x="43" y="294.25" style="clip-path:url(#clipPath1); fill:rgb(64,64,64); stroke:none; stroke-width:0.5;" xml:space="preserve">40%</text>
      <text x="43" y="226.75" style="clip-path:url(#clipPath1); fill:rgb(64,64,64); stroke:none; stroke-width:0.5;" xml:space="preserve">60%</text>
      <text x="43" y="159.25" style="clip-path:url(#clipPath1); fill:rgb(64,64,64); stroke:none; stroke-width:0.5;" xml:space="preserve">80%</text>
      <text x="35" y="91.75" style="clip-path:url(#clipPath1); fill:rgb(64,64,64); stroke:none; stroke-width:0.5;" xml:space="preserve">100%</text>
      <path transform="matrix(0,-1,1,0,-217,258)" style="clip-path:url(#clipPath2); fill:rgb(64,64,64); stroke:none; stroke-width:0.5;" d="M15.375 239.8125 Q16.875 240 17.0625 239.9375 Q17.25 239.875 17.25 239.5 L17.25 234.9375 L15 235.8125 Q15 239.9375 15.0625 241.625 L14.125 242.0625 Q14.1875 239.875 14.1875 236.125 L12.25 236.875 L12.25 242.9375 Q12.25 243.6875 13.0625 243.6875 L17.8125 243.6875 Q18.5 243.5625 18.59375 242.6875 Q18.6875 241.8125 18.6875 240.625 L19 240.625 Q19.0625 241.875 19.1875 242.5 Q19.3125 243.125 19.875 243.375 Q19.375 244.4375 18.4375 244.4375 L12.75 244.4375 Q11.4375 244.4375 11.4375 243 L11.4375 237.125 L10.0625 237.625 L9.6875 237.9375 L9.0625 237.625 L11.4375 236.75 L11.4375 234.5 Q11.4375 233.6875 11.375 232.5625 L12.6875 233.25 L12.25 233.625 L12.25 236.5 L14.1875 235.75 L14.1875 232.75 Q14.1875 231.625 14.125 230.625 L15.5625 231.25 L15 231.75 L15 235.4375 L17.0625 234.5625 L17.5625 233.9375 L18.5625 234.6875 L18.0625 235.1875 L18.0625 239.9375 Q18.0625 240.3125 17.78125 240.65625 Q17.5 241 16.9375 241.25 Q16.875 240.5625 15.375 240.0625 L15.375 239.8125 ZM8.375 241.75 L10.875 240.875 L10.9375 241.1875 Q6.4375 243.125 5.875 243.875 L5.125 242.75 Q5.875 242.5625 7.5 242 L7.5 236.375 L7.25 236.375 Q6.4375 236.375 5.75 236.5625 L5.1875 236 L7.5 236 L7.5 233.125 Q7.5 232.25 7.4375 231 L8.875 231.6875 L8.375 232.125 L8.375 236 L9 236 L9.6875 235.3125 L10.75 236.375 L8.375 236.375 L8.375 241.75 ZM32.1875 231.3125 L32.3125 231.125 Q33.6875 231.6875 33.96875 232 Q34.25 232.3125 34.25 232.5625 Q34.25 232.8125 34.0625 233.15625 Q33.875 233.5 33.75 233.5 Q33.5625 233.5 33.375 233 Q33.0625 232.1875 32.1875 231.3125 ZM26.8125 235.8125 L26.9375 235.625 Q28.5 236.4375 28.8125 236.8125 Q29.125 237.1875 29.125 237.5 Q29.125 237.75 28.90625 238.125 Q28.6875 238.5 28.5625 238.5 Q28.3125 238.5 28.125 237.8125 Q27.75 236.8125 26.8125 235.8125 ZM30.125 230.5625 L31.5 231.1875 L31.0625 231.625 L31.0625 234.125 L33.6875 234.125 L34.5 233.3125 L35.6875 234.5 L31.0625 234.5 Q31.5 236.625 32.25 238.125 Q33.625 236.5625 34.0625 235.5625 L35.1875 236.625 Q34.5625 236.625 32.375 238.4375 Q33.8125 241.125 35.8125 241.9375 L35.8125 242.1875 Q34.9375 242.125 34.4375 242.8125 Q33.375 241.8125 32.40625 239.90625 Q31.4375 238 31.0625 235.75 L31.0625 243.4375 Q31.0625 244.6875 29.5625 245.125 Q29.5625 244.1875 27.875 243.6875 L27.875 243.4375 Q29.125 243.5625 29.65625 243.59375 Q30.1875 243.625 30.1875 243.25 L30.1875 239.5 Q27.125 241.875 26.9375 242.5 L25.9375 241.5 Q26.8125 241.25 30.1875 239.125 L30.1875 234.5 L28 234.5 Q27.3125 234.4375 26.75 234.625 L26.25 234.125 L30.1875 234.125 Q30.1875 231.8125 30.125 230.5625 ZM21.1875 232.75 L25.3125 232.75 L26 232.0625 L27 233.125 L24.4375 233.125 L24.4375 237 L25.25 237 L25.875 236.375 L26.6875 237.375 L24.4375 237.375 L24.4375 241 L27 240.125 L27.0625 240.375 Q22.25 242.4375 21.8125 243.125 L21.125 242 Q22.125 241.75 23.5625 241.25 L23.5625 237.375 L23.4375 237.375 Q22.625 237.375 21.9375 237.5625 L21.375 237 L23.5625 237 L23.5625 233.125 L23.25 233.125 Q22.4375 233.125 21.75 233.3125 L21.1875 232.75 Z" />
    </g>
    <g style="font-size:16; fill:gray; text-rendering:optimizeLegibility; font-family:&apos;宋体&apos;; stroke:gray; stroke-width:0.2;">
      <line x1="77" x2="988" y1="423.125" style="clip-path:url(#clipPath3); fill:none;" y2="423.125" />
      <line x1="77" x2="988" y1="355.625" style="clip-path:url(#clipPath3); fill:none;" y2="355.625" />
      <line x1="77" x2="988" y1="288.125" style="clip-path:url(#clipPath3); fill:none;" y2="288.125" />
      <line x1="77" x2="988" y1="220.625" style="clip-path:url(#clipPath3); fill:none;" y2="220.625" />
      <line x1="77" x2="988" y1="153.125" style="clip-path:url(#clipPath3); fill:none;" y2="153.125" />
      <line x1="77" x2="988" y1="85.625" style="clip-path:url(#clipPath3); fill:none;" y2="85.625" />
      <line x1="168.1" x2="289.5666667" y1="423.125" style="clip-path:url(#clipPath3); fill:none; stroke:rgb(49,133,156); stroke-width:3;" y2="89" />
      <line x1="289.5666667" x2="411.0333333" y1="89" style="clip-path:url(#clipPath3); fill:none; stroke:rgb(49,133,156); stroke-width:3;" y2="171.89" />
      <line x1="411.0333333" x2="532.5" y1="171.89" style="clip-path:url(#clipPath3); fill:none; stroke:rgb(49,133,156); stroke-width:3;" y2="155.79125" />
      <line x1="532.5" x2="653.9666667" y1="155.79125" style="clip-path:url(#clipPath3); fill:none; stroke:rgb(49,133,156); stroke-width:3;" y2="147.89375" />
      <line x1="653.9666667" x2="775.4333333" y1="147.89375" style="clip-path:url(#clipPath3); fill:none; stroke:rgb(49,133,156); stroke-width:3;" y2="224.77625" />
      <line x1="775.4333333" x2="896.9" y1="224.77625" style="clip-path:url(#clipPath3); fill:none; stroke:rgb(49,133,156); stroke-width:3;" y2="85.625" />
      <text x="148.1000061" y="415.75" style="clip-path:url(#clipPath3); fill:black; stroke:none; stroke-width:3;" xml:space="preserve">0.00%</text>
      <text x="265.5666809" y="81.625" style="clip-path:url(#clipPath3); fill:black; stroke:none; stroke-width:3;" xml:space="preserve">99.00%</text>
      <text x="387.0333252" y="164.5149994" style="clip-path:url(#clipPath3); fill:black; stroke:none; stroke-width:3;" xml:space="preserve">74.44%</text>
      <text x="508.5" y="148.4162445" style="clip-path:url(#clipPath3); fill:black; stroke:none; stroke-width:3;" xml:space="preserve">79.21%</text>
      <text x="629.9666748" y="140.5187531" style="clip-path:url(#clipPath3); fill:black; stroke:none; stroke-width:3;" xml:space="preserve">81.55%</text>
      <text x="751.4333496" y="217.4012451" style="clip-path:url(#clipPath3); fill:black; stroke:none; stroke-width:3;" xml:space="preserve">58.77%</text>
      <text x="868.9000244" y="78.25" style="clip-path:url(#clipPath3); fill:black; stroke:none; stroke-width:3;" xml:space="preserve">100.00%</text>
    </g>
  </g>
</svg>
