<?xml version="1.0" encoding="UTF-8"?>

<!DOCTYPE svg PUBLIC '-//W3C//DTD SVG 1.0//EN' 'http://www.w3.org/TR/2001/REC-SVG-20010904/DTD/svg10.dtd'>
<svg style="fill-opacity:1; color-rendering:auto; color-interpolation:auto; text-rendering:auto; stroke:black; stroke-linecap:square; stroke-miterlimit:10; shape-rendering:auto; stroke-opacity:1; fill:black; stroke-dasharray:none; font-weight:normal; stroke-width:1; font-family:&apos;Dialog&apos;; font-style:normal; stroke-linejoin:miter; font-size:12; stroke-dashoffset:0; image-rendering:auto;" xmlns="http://www.w3.org/2000/svg" width="1000" xmlns:xlink="http://www.w3.org/1999/xlink" height="500">
  <!--Generated by the Batik Graphics2D SVG Generator-->
  <defs id="genericDefs" />
  <g>
    <defs id="defs1">
      <clipPath clipPathUnits="userSpaceOnUse" id="clipPath1">
        <path d="M0 0 L1000 0 L1000 500 L0 500 L0 0 Z" />
      </clipPath>
      <clipPath clipPathUnits="userSpaceOnUse" id="clipPath2">
        <path d="M52 10 L52 465 L988 465 L988 10 Z" />
      </clipPath>
    </defs>
    <g style="fill:white; text-rendering:optimizeLegibility; stroke:white;">
      <rect x="0" y="0" width="1000" style="clip-path:url(#clipPath1); stroke:none;" height="500" />
      <rect x="0" y="0" width="999" style="clip-path:url(#clipPath1); fill:none; stroke:gray; stroke-width:0.3;" height="499" />
      <rect x="52" y="10" width="936" style="clip-path:url(#clipPath1); stroke:none; stroke-width:0.3;" height="455" />
    </g>
    <g style="font-size:16; fill:gray; text-rendering:optimizeLegibility; font-family:&apos;宋体&apos;; stroke:gray; stroke-width:0.5;">
      <line x1="52" x2="988" y1="469" style="clip-path:url(#clipPath1); fill:none;" y2="469" />
      <line x1="145.6" x2="145.6" y1="469" style="clip-path:url(#clipPath1); fill:none;" y2="469" />
      <line x1="145.6" x2="145.6" y1="469" style="clip-path:url(#clipPath1); fill:none;" y2="471" />
      <line x1="270.4" x2="270.4" y1="469" style="clip-path:url(#clipPath1); fill:none;" y2="469" />
      <line x1="270.4" x2="270.4" y1="469" style="clip-path:url(#clipPath1); fill:none;" y2="471" />
      <line x1="395.2" x2="395.2" y1="469" style="clip-path:url(#clipPath1); fill:none;" y2="469" />
      <line x1="395.2" x2="395.2" y1="469" style="clip-path:url(#clipPath1); fill:none;" y2="471" />
      <line x1="520" x2="520" y1="469" style="clip-path:url(#clipPath1); fill:none;" y2="469" />
      <line x1="520" x2="520" y1="469" style="clip-path:url(#clipPath1); fill:none;" y2="471" />
      <line x1="644.8" x2="644.8" y1="469" style="clip-path:url(#clipPath1); fill:none;" y2="469" />
      <line x1="644.8" x2="644.8" y1="469" style="clip-path:url(#clipPath1); fill:none;" y2="471" />
      <line x1="769.6" x2="769.6" y1="469" style="clip-path:url(#clipPath1); fill:none;" y2="469" />
      <line x1="769.6" x2="769.6" y1="469" style="clip-path:url(#clipPath1); fill:none;" y2="471" />
      <line x1="894.4" x2="894.4" y1="469" style="clip-path:url(#clipPath1); fill:none;" y2="469" />
      <line x1="894.4" x2="894.4" y1="469" style="clip-path:url(#clipPath1); fill:none;" y2="471" />
      <text x="113.6000061" y="489.875" style="clip-path:url(#clipPath1); fill:rgb(64,64,64); stroke:none;" xml:space="preserve">2020/2/1</text>
      <text x="238.3999939" y="489.875" style="clip-path:url(#clipPath1); fill:rgb(64,64,64); stroke:none;" xml:space="preserve">2030/2/3</text>
      <text x="363.2000122" y="489.875" style="clip-path:url(#clipPath1); fill:rgb(64,64,64); stroke:none;" xml:space="preserve">2040/5/5</text>
      <text x="488" y="489.875" style="clip-path:url(#clipPath1); fill:rgb(64,64,64); stroke:none;" xml:space="preserve">2050/6/6</text>
      <text x="612.7999878" y="489.875" style="clip-path:url(#clipPath1); fill:rgb(64,64,64); stroke:none;" xml:space="preserve">2060/7/5</text>
      <text x="733.5999756" y="489.875" style="clip-path:url(#clipPath1); fill:rgb(64,64,64); stroke:none;" xml:space="preserve">2070/8/21</text>
      <text x="858.4000244" y="489.875" style="clip-path:url(#clipPath1); fill:rgb(64,64,64); stroke:none;" xml:space="preserve">2080/8/22</text>
      <text x="26" y="452.1666565" style="clip-path:url(#clipPath1); fill:rgb(64,64,64); stroke:none;" xml:space="preserve">0%</text>
      <text x="18" y="376.3333435" style="clip-path:url(#clipPath1); fill:rgb(64,64,64); stroke:none;" xml:space="preserve">20%</text>
      <text x="18" y="300.5" style="clip-path:url(#clipPath1); fill:rgb(64,64,64); stroke:none;" xml:space="preserve">40%</text>
      <text x="18" y="224.6666718" style="clip-path:url(#clipPath1); fill:rgb(64,64,64); stroke:none;" xml:space="preserve">60%</text>
      <text x="18" y="148.8333282" style="clip-path:url(#clipPath1); fill:rgb(64,64,64); stroke:none;" xml:space="preserve">80%</text>
      <text x="10" y="73" style="clip-path:url(#clipPath1); fill:rgb(64,64,64); stroke:none;" xml:space="preserve">100%</text>
      <line x1="52" x2="988" y1="446.0416667" style="clip-path:url(#clipPath2); fill:none; stroke-width:0.2;" y2="446.0416667" />
      <line x1="52" x2="988" y1="370.2083333" style="clip-path:url(#clipPath2); fill:none; stroke-width:0.2;" y2="370.2083333" />
      <line x1="52" x2="988" y1="294.375" style="clip-path:url(#clipPath2); fill:none; stroke-width:0.2;" y2="294.375" />
      <line x1="52" x2="988" y1="218.5416667" style="clip-path:url(#clipPath2); fill:none; stroke-width:0.2;" y2="218.5416667" />
      <line x1="52" x2="988" y1="142.7083333" style="clip-path:url(#clipPath2); fill:none; stroke-width:0.2;" y2="142.7083333" />
      <line x1="52" x2="988" y1="66.875" style="clip-path:url(#clipPath2); fill:none; stroke-width:0.2;" y2="66.875" />
      <line x1="145.6" x2="270.4" y1="446.0416667" style="clip-path:url(#clipPath2); fill:none; stroke:rgb(49,133,156); stroke-width:3;" y2="70.6666667" />
      <line x1="270.4" x2="395.2" y1="70.6666667" style="clip-path:url(#clipPath2); fill:none; stroke:rgb(49,133,156); stroke-width:3;" y2="163.79" />
      <line x1="395.2" x2="520" y1="163.79" style="clip-path:url(#clipPath2); fill:none; stroke:rgb(49,133,156); stroke-width:3;" y2="145.70375" />
      <line x1="520" x2="644.8" y1="145.70375" style="clip-path:url(#clipPath2); fill:none; stroke:rgb(49,133,156); stroke-width:3;" y2="136.83125" />
      <line x1="644.8" x2="769.6" y1="136.83125" style="clip-path:url(#clipPath2); fill:none; stroke:rgb(49,133,156); stroke-width:3;" y2="223.2054167" />
      <line x1="769.6" x2="894.4" y1="223.2054167" style="clip-path:url(#clipPath2); fill:none; stroke:rgb(49,133,156); stroke-width:3;" y2="66.875" />
      <path style="fill:black; stroke-width:3; clip-path:url(#clipPath2); stroke:none;" d="M150.6000061 446.0416565 C150.6000061 448.8031006 148.3614197 451.0416565 145.6000061 451.0416565 C142.8385773 451.0416565 140.6000061 448.8031006 140.6000061 446.0416565 C140.6000061 443.2802429 142.8385773 441.0416565 145.6000061 441.0416565 C148.3614197 441.0416565 150.6000061 443.2802429 150.6000061 446.0416565 Z" />
      <path style="fill:none; stroke-width:1; clip-path:url(#clipPath2); stroke:rgb(49,133,156);" d="M150.6000061 446.0416565 C150.6000061 448.8031006 148.3614197 451.0416565 145.6000061 451.0416565 C142.8385773 451.0416565 140.6000061 448.8031006 140.6000061 446.0416565 C140.6000061 443.2802429 142.8385773 441.0416565 145.6000061 441.0416565 C148.3614197 441.0416565 150.6000061 443.2802429 150.6000061 446.0416565 Z" />
      <text x="125.6000061" y="438.6666565" style="clip-path:url(#clipPath2); fill:black; stroke:none; stroke-width:1;" xml:space="preserve">0.00%</text>
      <path style="fill:black; stroke-width:1; clip-path:url(#clipPath2); stroke:none;" d="M275.3999939 70.6666641 C275.3999939 73.428093 273.161438 75.6666641 270.3999939 75.6666641 C267.6385803 75.6666641 265.3999939 73.428093 265.3999939 70.6666641 C265.3999939 67.9052429 267.6385803 65.6666641 270.3999939 65.6666641 C273.161438 65.6666641 275.3999939 67.9052429 275.3999939 70.6666641 Z" />
      <path style="fill:none; stroke-width:1; clip-path:url(#clipPath2); stroke:rgb(49,133,156);" d="M275.3999939 70.6666641 C275.3999939 73.428093 273.161438 75.6666641 270.3999939 75.6666641 C267.6385803 75.6666641 265.3999939 73.428093 265.3999939 70.6666641 C265.3999939 67.9052429 267.6385803 65.6666641 270.3999939 65.6666641 C273.161438 65.6666641 275.3999939 67.9052429 275.3999939 70.6666641 Z" />
      <text x="246.3999939" y="63.2916641" style="clip-path:url(#clipPath2); fill:black; stroke:none; stroke-width:1;" xml:space="preserve">99.00%</text>
      <path style="fill:black; stroke-width:1; clip-path:url(#clipPath2); stroke:none;" d="M400.2000122 163.7899933 C400.2000122 166.5514221 397.9614258 168.7899933 395.2000122 168.7899933 C392.4385681 168.7899933 390.2000122 166.5514221 390.2000122 163.7899933 C390.2000122 161.0285797 392.4385681 158.7899933 395.2000122 158.7899933 C397.9614258 158.7899933 400.2000122 161.0285797 400.2000122 163.7899933 Z" />
      <path style="fill:none; stroke-width:1; clip-path:url(#clipPath2); stroke:rgb(49,133,156);" d="M400.2000122 163.7899933 C400.2000122 166.5514221 397.9614258 168.7899933 395.2000122 168.7899933 C392.4385681 168.7899933 390.2000122 166.5514221 390.2000122 163.7899933 C390.2000122 161.0285797 392.4385681 158.7899933 395.2000122 158.7899933 C397.9614258 158.7899933 400.2000122 161.0285797 400.2000122 163.7899933 Z" />
      <text x="371.2000122" y="156.4149933" style="clip-path:url(#clipPath2); fill:black; stroke:none; stroke-width:1;" xml:space="preserve">74.44%</text>
      <path style="fill:black; stroke-width:1; clip-path:url(#clipPath2); stroke:none;" d="M525 145.7037506 C525 148.4651794 522.7614136 150.7037506 520 150.7037506 C517.2385864 150.7037506 515 148.4651794 515 145.7037506 C515 142.9423218 517.2385864 140.7037506 520 140.7037506 C522.7614136 140.7037506 525 142.9423218 525 145.7037506 Z" />
      <path style="fill:none; stroke-width:1; clip-path:url(#clipPath2); stroke:rgb(49,133,156);" d="M525 145.7037506 C525 148.4651794 522.7614136 150.7037506 520 150.7037506 C517.2385864 150.7037506 515 148.4651794 515 145.7037506 C515 142.9423218 517.2385864 140.7037506 520 140.7037506 C522.7614136 140.7037506 525 142.9423218 525 145.7037506 Z" />
      <text x="496" y="138.3287506" style="clip-path:url(#clipPath2); fill:black; stroke:none; stroke-width:1;" xml:space="preserve">79.21%</text>
      <path style="fill:black; stroke-width:1; clip-path:url(#clipPath2); stroke:none;" d="M649.7999878 136.8312531 C649.7999878 139.5926666 647.5614014 141.8312531 644.7999878 141.8312531 C642.0385742 141.8312531 639.7999878 139.5926666 639.7999878 136.8312531 C639.7999878 134.0698242 642.0385742 131.8312531 644.7999878 131.8312531 C647.5614014 131.8312531 649.7999878 134.0698242 649.7999878 136.8312531 Z" />
      <path style="fill:none; stroke-width:1; clip-path:url(#clipPath2); stroke:rgb(49,133,156);" d="M649.7999878 136.8312531 C649.7999878 139.5926666 647.5614014 141.8312531 644.7999878 141.8312531 C642.0385742 141.8312531 639.7999878 139.5926666 639.7999878 136.8312531 C639.7999878 134.0698242 642.0385742 131.8312531 644.7999878 131.8312531 C647.5614014 131.8312531 649.7999878 134.0698242 649.7999878 136.8312531 Z" />
      <text x="620.7999878" y="129.4562531" style="clip-path:url(#clipPath2); fill:black; stroke:none; stroke-width:1;" xml:space="preserve">81.55%</text>
      <path style="fill:black; stroke-width:1; clip-path:url(#clipPath2); stroke:none;" d="M774.5999756 223.2054138 C774.5999756 225.9668427 772.3614502 228.2054138 769.5999756 228.2054138 C766.838562 228.2054138 764.5999756 225.9668427 764.5999756 223.2054138 C764.5999756 220.4440002 766.838562 218.2054138 769.5999756 218.2054138 C772.3614502 218.2054138 774.5999756 220.4440002 774.5999756 223.2054138 Z" />
      <path style="fill:none; stroke-width:1; clip-path:url(#clipPath2); stroke:rgb(49,133,156);" d="M774.5999756 223.2054138 C774.5999756 225.9668427 772.3614502 228.2054138 769.5999756 228.2054138 C766.838562 228.2054138 764.5999756 225.9668427 764.5999756 223.2054138 C764.5999756 220.4440002 766.838562 218.2054138 769.5999756 218.2054138 C772.3614502 218.2054138 774.5999756 220.4440002 774.5999756 223.2054138 Z" />
      <text x="745.5999756" y="215.8304138" style="clip-path:url(#clipPath2); fill:black; stroke:none; stroke-width:1;" xml:space="preserve">58.77%</text>
      <path style="fill:black; stroke-width:1; clip-path:url(#clipPath2); stroke:none;" d="M899.4000244 66.875 C899.4000244 69.6364212 897.161438 71.875 894.4000244 71.875 C891.6385498 71.875 889.4000244 69.6364212 889.4000244 66.875 C889.4000244 64.1135788 891.6385498 61.875 894.4000244 61.875 C897.161438 61.875 899.4000244 64.1135788 899.4000244 66.875 Z" />
      <path style="fill:none; stroke-width:1; clip-path:url(#clipPath2); stroke:rgb(49,133,156);" d="M899.4000244 66.875 C899.4000244 69.6364212 897.161438 71.875 894.4000244 71.875 C891.6385498 71.875 889.4000244 69.6364212 889.4000244 66.875 C889.4000244 64.1135788 891.6385498 61.875 894.4000244 61.875 C897.161438 61.875 899.4000244 64.1135788 899.4000244 66.875 Z" />
      <text x="866.4000244" y="59.5" style="clip-path:url(#clipPath2); fill:black; stroke:none; stroke-width:1;" xml:space="preserve">100.00%</text>
    </g>
  </g>
</svg>
